<?xml version="1.0" encoding="UTF-8" standalone="no"?>
<svg width="48px" height="48px" viewBox="0 0 48 48" version="1.1" xmlns="http://www.w3.org/2000/svg" xmlns:xlink="http://www.w3.org/1999/xlink" xmlns:sketch="http://www.bohemiancoding.com/sketch/ns">
    <!-- Generator: Sketch 3.0.3 (7891) - http://www.bohemiancoding.com/sketch -->
    <title>1Sound One</title>
    <desc>Created with Sketch.</desc>
    <defs>
        <rect id="path-1" x="0" y="0" width="48" height="48"></rect>
    </defs>
    <g id="Page-1" stroke="none" stroke-width="1" fill="none" fill-rule="evenodd" sketch:type="MSPage">
        <g id="OneSound-One" sketch:type="MSArtboardGroup">
            <g id="1Sound-One" sketch:type="MSLayerGroup">
                <mask id="mask-2" sketch:name="BG (to retain equal dimensions)" fill="white">
                    <use xlink:href="#path-1"></use>
                </mask>
                <use id="BG-(to-retain-equal-dimensions)" opacity="0.01" fill="#FFFFFF" sketch:type="MSShapeGroup" xlink:href="#path-1"></use>
                <g id="Sound" mask="url(#mask-2)" fill="#000000" sketch:type="MSShapeGroup">
                    <g transform="translate(31.000000, 5.378174) rotate(-45.000000) translate(-31.000000, -5.378174) translate(28.000000, -2.621826)" id="Shape">
                        <path d="M1.27850064,3.74110345 C1.13600064,3.58551724 0.948500642,3.5 0.749000642,3.5 C0.548000642,3.5 0.360500642,3.58606897 0.218000642,3.74275862 C-0.0729993579,4.06551724 -0.0729993579,4.59075862 0.220000642,4.91351724 C1.02650064,5.80013793 1.47000064,6.97972414 1.47000064,8.23544828 C1.47000064,9.49062069 1.02650064,10.6707586 0.220000642,11.5573793 C-0.0729993579,11.8795862 -0.0729993579,12.4048276 0.218000642,12.7281379 C0.501000642,13.042069 0.995500642,13.0415172 1.27850064,12.7297931 C2.37050064,11.5292414 2.97000064,9.93365517 2.97000064,8.23544828 C2.97000064,6.53668966 2.37050064,4.94110345 1.27850064,3.74110345"></path>
                        <path d="M2.7348215,0.196413793 C2.5998215,0.0695172414 2.4283215,-8.8817842e-16 2.2503215,-8.8817842e-16 C2.0298215,-8.8817842e-16 1.8208215,0.105931034 1.6783215,0.291862069 C1.5493215,0.461241379 1.4868215,0.674758621 1.5023215,0.895448276 C1.5198215,1.11558621 1.6118215,1.31531034 1.7663215,1.45875862 C3.5103215,3.0902069 4.5103215,5.46813793 4.5103215,7.9817931 C4.5103215,10.496 3.5103215,12.873931 1.7663215,14.505931 C1.6118215,14.6482759 1.5198215,14.8485517 1.5023215,15.0686897 C1.4868215,15.2893793 1.5493215,15.5028966 1.6783215,15.6717241 C1.9338215,16.006069 2.4303215,16.0535172 2.7348215,15.7682759 C4.8168215,13.8206897 6.0103215,10.9831724 6.0103215,7.9817931 C6.0103215,4.98096552 4.8168215,2.14289655 2.7348215,0.196413793"></path>
                    </g>
                </g>
                <g id="1" mask="url(#mask-2)" fill="#000000" sketch:type="MSShapeGroup">
                    <g transform="translate(11.000000, 8.000000)">
                        <rect id="Rectangle-12" x="11.1986971" y="2.24089636" width="6.80130293" height="37.7591036"></rect>
                        <rect id="Rectangle-13" x="12" y="0" width="6" height="4.48179272"></rect>
                        <path d="M6.19047898,-0.591380233 C5.80069399,-0.591380233 5.02830426,-0.591380233 5.02830426,-0.591380233 L4.95411998,14.3086198 L10.7000483,14.3086198 L10.7000483,-0.591380233 L6.19047898,-0.591380233 Z" id="Rectangle-14" transform="translate(7.954120, 6.908620) rotate(52.000000) translate(-7.954120, -6.908620) "></path>
                    </g>
                </g>
            </g>
        </g>
    </g>
</svg>