<?xml version="1.0" encoding="iso-8859-1"?>
<!-- Generator: Adobe Illustrator 17.0.0, SVG Export Plug-In . SVG Version: 6.00 Build 0)  -->
<!DOCTYPE svg PUBLIC "-//W3C//DTD SVG 1.1//EN" "http://www.w3.org/Graphics/SVG/1.1/DTD/svg11.dtd">
<svg version="1.1" id="Layer_1" xmlns="http://www.w3.org/2000/svg" xmlns:xlink="http://www.w3.org/1999/xlink" x="0px" y="0px"
	 width="32px" height="32px" viewBox="0 0 32 32" style="enable-background:new 0 0 32 32;" xml:space="preserve">
<g>
	<defs>
		<rect id="SVGID_1_" width="32" height="32"/>
	</defs>
	<clipPath id="SVGID_2_">
		<use xlink:href="#SVGID_1_"  style="overflow:visible;"/>
	</clipPath>
	<g style="clip-path:url(#SVGID_2_);">
		<defs>
			<rect id="SVGID_3_" width="32" height="32"/>
		</defs>
		<clipPath id="SVGID_4_">
			<use xlink:href="#SVGID_3_"  style="overflow:visible;"/>
		</clipPath>
		<path style="clip-path:url(#SVGID_4_);" d="M30,2h-2v8h2c1.102,0,2-0.895,2-2V4C32,2.895,31.102,2,30,2"/>
		<path style="clip-path:url(#SVGID_4_);" d="M26,2H6C4.895,2,4,2.895,4,4v2H2C0.895,6,0,6.895,0,8s0.895,2,2,2h2v10H2
			c-1.105,0-2,0.895-2,2s0.895,2,2,2h2v4c0,1.105,0.895,2,2,2h20V2z"/>
		<path style="clip-path:url(#SVGID_4_);" d="M30,12h-2v8h2c1.102,0,2-0.895,2-2v-4C32,12.895,31.102,12,30,12"/>
	</g>
</g>
</svg>
