<?xml version="1.0" encoding="iso-8859-1"?>
<!-- Generator: Adobe Illustrator 17.0.0, SVG Export Plug-In . SVG Version: 6.00 Build 0)  -->
<!DOCTYPE svg PUBLIC "-//W3C//DTD SVG 1.1//EN" "http://www.w3.org/Graphics/SVG/1.1/DTD/svg11.dtd">
<svg version="1.1" id="Layer_1" xmlns="http://www.w3.org/2000/svg" xmlns:xlink="http://www.w3.org/1999/xlink" x="0px" y="0px"
	 width="32px" height="32px" viewBox="0 0 32 32" style="enable-background:new 0 0 32 32;" xml:space="preserve">
<g>
	<defs>
		<rect id="SVGID_1_" width="32" height="32"/>
	</defs>
	<clipPath id="SVGID_2_">
		<use xlink:href="#SVGID_1_"  style="overflow:visible;"/>
	</clipPath>
	<g style="clip-path:url(#SVGID_2_);">
		<defs>
			<rect id="SVGID_3_" width="32" height="32"/>
		</defs>
		<clipPath id="SVGID_4_">
			<use xlink:href="#SVGID_3_"  style="overflow:visible;"/>
		</clipPath>
		<path style="clip-path:url(#SVGID_4_);" d="M17.579,14.794C17.197,14.289,16.615,14.002,16,14
			c-0.615,0.002-1.197,0.289-1.579,0.794l-9.941,13.6c-0.317,0.4-0.476,0.905-0.48,1.413c0.002,0.315,0.066,0.637,0.194,0.933
			c0.341,0.785,1.082,1.257,1.884,1.26h19.869c0.802-0.003,1.518-0.475,1.859-1.26c0.127-0.296,0.192-0.618,0.194-0.933
			c-0.004-0.508-0.163-1.013-0.481-1.413L17.579,14.794z"/>
		<polygon style="clip-path:url(#SVGID_4_);" points="0,0 0,22 4.199,22 7.123,18 4,18 4,4 28,4 28,18 24.877,18 27.801,22 32,22 
			32,0 		"/>
	</g>
</g>
</svg>
