<?xml version="1.0" encoding="iso-8859-1"?>
<!-- Generator: Adobe Illustrator 17.0.0, SVG Export Plug-In . SVG Version: 6.00 Build 0)  -->
<!DOCTYPE svg PUBLIC "-//W3C//DTD SVG 1.1//EN" "http://www.w3.org/Graphics/SVG/1.1/DTD/svg11.dtd">
<svg version="1.1" id="Layer_1" xmlns="http://www.w3.org/2000/svg" xmlns:xlink="http://www.w3.org/1999/xlink" x="0px" y="0px"
	 width="32px" height="32px" viewBox="0 0 32 32" style="enable-background:new 0 0 32 32;" xml:space="preserve">
<g>
	<defs>
		<rect id="SVGID_1_" width="32" height="32"/>
	</defs>
	<clipPath id="SVGID_2_">
		<use xlink:href="#SVGID_1_"  style="overflow:visible;"/>
	</clipPath>
	<g style="clip-path:url(#SVGID_2_);">
		<defs>
			<rect id="SVGID_3_" width="32" height="32"/>
		</defs>
		<clipPath id="SVGID_4_">
			<use xlink:href="#SVGID_3_"  style="overflow:visible;"/>
		</clipPath>
		<path style="clip-path:url(#SVGID_4_);" d="M16,9.75c-0.504,0-0.922,0.379-0.969,0.881l-0.523,5.226l-4.422,0.444
			c-0.5,0.049-0.879,0.467-0.879,0.97c0,0.506,0.379,0.924,0.879,0.975l6.98,0.731h0.028c0.336,0,0.613-0.276,0.609-0.637
			l-0.73-7.711C16.922,10.127,16.504,9.75,16,9.75"/>
		<path style="clip-path:url(#SVGID_4_);" d="M16,2C7.715,2,1,8.715,1,17s6.715,15,15,15s15-6.715,15-15S24.285,2,16,2 M16,28
			C9.934,28,5,23.064,5,17C5,10.934,9.934,6,16,6s11,4.934,11,11C27,23.064,22.066,28,16,28"/>
		<path style="clip-path:url(#SVGID_4_);" d="M26,0c-1.363,0-2.59,0.492-3.594,1.262c3.731,1.525,6.801,4.338,8.657,7.884
			C31.641,8.23,32,7.164,32,6C32,2.686,29.316,0,26,0"/>
		<path style="clip-path:url(#SVGID_4_);" d="M9.594,1.262C8.59,0.492,7.367,0,6,0C2.688,0,0,2.686,0,6
			c0,1.164,0.36,2.231,0.938,3.147C2.797,5.6,5.863,2.787,9.594,1.262"/>
	</g>
</g>
</svg>
