<?xml version="1.0" encoding="iso-8859-1"?>
<!-- Generator: Adobe Illustrator 17.0.0, SVG Export Plug-In . SVG Version: 6.00 Build 0)  -->
<!DOCTYPE svg PUBLIC "-//W3C//DTD SVG 1.1//EN" "http://www.w3.org/Graphics/SVG/1.1/DTD/svg11.dtd">
<svg version="1.1" id="Layer_1" xmlns="http://www.w3.org/2000/svg" xmlns:xlink="http://www.w3.org/1999/xlink" x="0px" y="0px"
	 width="32px" height="32px" viewBox="0 0 32 32" style="enable-background:new 0 0 32 32;" xml:space="preserve">
<g>
	<defs>
		<rect id="SVGID_1_" width="32" height="32"/>
	</defs>
	<clipPath id="SVGID_2_">
		<use xlink:href="#SVGID_1_"  style="overflow:visible;"/>
	</clipPath>
	<g style="clip-path:url(#SVGID_2_);">
		<defs>
			<rect id="SVGID_3_" width="32" height="32"/>
		</defs>
		<clipPath id="SVGID_4_">
			<use xlink:href="#SVGID_3_"  style="overflow:visible;"/>
		</clipPath>
		<path style="clip-path:url(#SVGID_4_);" d="M30.75,20.004h-1.234c0,0-0.01-0.004-0.012-0.004c-0.008,0-0.01,0.004-0.018,0.004
			L23.25,20C22.563,20,22,20.559,22,21.25c0.004,0.344,0.141,0.656,0.367,0.883l2.34,2.34l-2.684,2.697
			C21.613,27.574,20.572,28,20,28h-2V11.633c2.326-0.826,4-3.024,4-5.633c0-3.312-2.686-6-6-6s-6,2.688-6,6
			c0,2.609,1.674,4.807,4,5.633V28h-2c-0.57,0-1.598-0.426-2-0.828l-2.701-2.701l2.334-2.334C9.859,21.906,10,21.594,10,21.25
			c0-0.686-0.562-1.248-1.25-1.248L1.25,20C0.563,20,0,20.559,0,21.25v7.5C0,29.441,0.563,30,1.25,30
			c0.348,0,0.66-0.139,0.883-0.363l2.338-2.338L7.172,30c1.158,1.16,3.189,2,4.828,2h8c1.631,0,3.662-0.832,4.844-1.992l2.693-2.707
			l2.33,2.332C30.092,29.863,30.404,30,30.75,30c0.689,0,1.246-0.559,1.246-1.246L32,22.51v-0.022V21.25
			C32,20.559,31.439,20.004,30.75,20.004 M16,4c1.104,0,2,0.898,2,2s-0.896,2-2,2s-2-0.898-2-2S14.896,4,16,4"/>
	</g>
</g>
</svg>
