<?xml version="1.0" encoding="iso-8859-1"?>
<!-- Generator: Adobe Illustrator 17.0.0, SVG Export Plug-In . SVG Version: 6.00 Build 0)  -->
<!DOCTYPE svg PUBLIC "-//W3C//DTD SVG 1.1//EN" "http://www.w3.org/Graphics/SVG/1.1/DTD/svg11.dtd">
<svg version="1.1" id="Layer_1" xmlns="http://www.w3.org/2000/svg" xmlns:xlink="http://www.w3.org/1999/xlink" x="0px" y="0px"
	 width="32px" height="32px" viewBox="0 0 32 32" style="enable-background:new 0 0 32 32;" xml:space="preserve">
<g>
	<defs>
		<rect id="SVGID_1_" width="32" height="32"/>
	</defs>
	<clipPath id="SVGID_2_">
		<use xlink:href="#SVGID_1_"  style="overflow:visible;"/>
	</clipPath>
	<g style="clip-path:url(#SVGID_2_);">
		<defs>
			<rect id="SVGID_3_" width="32" height="32"/>
		</defs>
		<clipPath id="SVGID_4_">
			<use xlink:href="#SVGID_3_"  style="overflow:visible;"/>
		</clipPath>
		<path style="clip-path:url(#SVGID_4_);" d="M15.934,19.227l6.98-0.73c0.5-0.051,0.879-0.469,0.879-0.975
			c0-0.504-0.379-0.922-0.879-0.971l-4.421-0.443l-0.524-5.227C17.922,10.379,17.504,10,17,10s-0.921,0.377-0.972,0.879
			l-0.731,7.711c-0.004,0.362,0.274,0.637,0.61,0.637H15.934z"/>
		<path style="clip-path:url(#SVGID_4_);" d="M18,2C11.298,2,5.704,6.711,4.33,13H2.213c-2.199,0-2.875,1.406-1.5,3.121l4.254,5.317
			c0.683,0.859,1.808,0.859,2.496,0l4.254-5.317C13.092,14.406,12.416,13,10.213,13H8.232C9.525,8.808,13.389,5.733,18,5.733
			c5.662,0,10.267,4.605,10.267,10.267c0,5.66-4.605,10.267-10.267,10.267c-2.391,0-4.564-0.855-6.311-2.23l-2.356,2.945
			C11.718,28.866,14.724,30,18,30c7.733,0,14-6.267,14-14S25.733,2,18,2"/>
	</g>
</g>
</svg>
