<?xml version="1.0" encoding="iso-8859-1"?>
<!-- Generator: Adobe Illustrator 17.0.0, SVG Export Plug-In . SVG Version: 6.00 Build 0)  -->
<!DOCTYPE svg PUBLIC "-//W3C//DTD SVG 1.1//EN" "http://www.w3.org/Graphics/SVG/1.1/DTD/svg11.dtd">
<svg version="1.1" id="Layer_1" xmlns="http://www.w3.org/2000/svg" xmlns:xlink="http://www.w3.org/1999/xlink" x="0px" y="0px"
	 width="32px" height="32px" viewBox="0 0 32 32" style="enable-background:new 0 0 32 32;" xml:space="preserve">
<g>
	<defs>
		<rect id="SVGID_1_" width="32" height="32"/>
	</defs>
	<clipPath id="SVGID_2_">
		<use xlink:href="#SVGID_1_"  style="overflow:visible;"/>
	</clipPath>
	<g style="clip-path:url(#SVGID_2_);">
		<defs>
			<rect id="SVGID_3_" width="32" height="32"/>
		</defs>
		<clipPath id="SVGID_4_">
			<use xlink:href="#SVGID_3_"  style="overflow:visible;"/>
		</clipPath>
		<path style="clip-path:url(#SVGID_4_);" d="M16,0C7.162,0,0,7.164,0,16s7.162,16,16,16c8.836,0,16-7.164,16-16S24.836,0,16,0
			 M6,16.002C6,10.486,10.484,6,15.996,6H16c1.633,0,3.183,0.431,4.594,1.164L7.164,20.591C6.429,19.183,6,17.632,6,16.002
			 M23.07,23.07c-1.889,1.889-4.4,2.93-7.072,2.93c-1.633,0-3.186-0.432-4.592-1.164l13.43-13.43C25.568,12.814,26,14.365,26,15.998
			C26,18.67,24.959,21.181,23.07,23.07"/>
	</g>
</g>
</svg>
