<?xml version="1.0" encoding="iso-8859-1"?>
<!-- Generator: Adobe Illustrator 17.0.0, SVG Export Plug-In . SVG Version: 6.00 Build 0)  -->
<!DOCTYPE svg PUBLIC "-//W3C//DTD SVG 1.1//EN" "http://www.w3.org/Graphics/SVG/1.1/DTD/svg11.dtd">
<svg version="1.1" id="Layer_1" xmlns="http://www.w3.org/2000/svg" xmlns:xlink="http://www.w3.org/1999/xlink" x="0px" y="0px"
	 width="32px" height="32px" viewBox="0 0 32 32" style="enable-background:new 0 0 32 32;" xml:space="preserve">
<g>
	<defs>
		<rect id="SVGID_1_" width="32" height="32"/>
	</defs>
	<clipPath id="SVGID_2_">
		<use xlink:href="#SVGID_1_"  style="overflow:visible;"/>
	</clipPath>
	<g style="clip-path:url(#SVGID_2_);">
		<defs>
			<rect id="SVGID_3_" width="32" height="32"/>
		</defs>
		<clipPath id="SVGID_4_">
			<use xlink:href="#SVGID_3_"  style="overflow:visible;"/>
		</clipPath>
		<path style="clip-path:url(#SVGID_4_);" d="M4,22V11.828L0.422,8.251C0.161,8.782,0,9.371,0,10v12c0,2.2,1.8,4,4,4h14.172l-4-4H4z
			"/>
		<path style="clip-path:url(#SVGID_4_);" d="M30,22v-1h2V11h-2v-1c0-2.2-1.8-4-4-4H8.828L3.414,0.586
			c-0.78-0.781-2.048-0.781-2.828,0c-0.781,0.781-0.781,2.047,0,2.828l28,28C28.976,31.805,29.488,32,30,32
			c0.512,0,1.024-0.195,1.414-0.586c0.781-0.781,0.781-2.047,0-2.828l-3.24-3.24C29.269,24.631,30,23.399,30,22 M12.828,10H26v12
			h-1.172L12.828,10z"/>
	</g>
</g>
</svg>
