<?xml version="1.0" encoding="iso-8859-1"?>
<!-- Generator: Adobe Illustrator 17.0.0, SVG Export Plug-In . SVG Version: 6.00 Build 0)  -->
<!DOCTYPE svg PUBLIC "-//W3C//DTD SVG 1.1//EN" "http://www.w3.org/Graphics/SVG/1.1/DTD/svg11.dtd">
<svg version="1.1" id="Layer_1" xmlns="http://www.w3.org/2000/svg" xmlns:xlink="http://www.w3.org/1999/xlink" x="0px" y="0px"
	 width="32px" height="32px" viewBox="0 0 32 32" style="enable-background:new 0 0 32 32;" xml:space="preserve">
<g>
	<defs>
		<rect id="SVGID_1_" width="32" height="32"/>
	</defs>
	<clipPath id="SVGID_2_">
		<use xlink:href="#SVGID_1_"  style="overflow:visible;"/>
	</clipPath>
	<g style="clip-path:url(#SVGID_2_);">
		<defs>
			<rect id="SVGID_3_" width="32" height="32"/>
		</defs>
		<clipPath id="SVGID_4_">
			<use xlink:href="#SVGID_3_"  style="overflow:visible;"/>
		</clipPath>
		<path style="clip-path:url(#SVGID_4_);" d="M30,6c-1.106,0-2,0.895-2,2v14H3.998V4c0-1.105-0.895-2-1.998-2C0.894,2,0,2.895,0,4
			v24c0,1.105,0.894,2,2,2c1.103,0,1.998-0.895,1.998-2v-2H28v2c0,1.105,0.894,2,2,2c1.102,0,1.998-0.895,1.998-2V8
			C31.998,6.895,31.102,6,30,6"/>
		<rect x="6" y="12" style="clip-path:url(#SVGID_4_);" width="3.998" height="8"/>
		<path style="clip-path:url(#SVGID_4_);" d="M25.998,18L25.998,18v-4c0-1.105-0.896-2-2-2h-12v8h14V18z"/>
	</g>
</g>
</svg>
