<?xml version="1.0" encoding="iso-8859-1"?>
<!-- Generator: Adobe Illustrator 17.0.0, SVG Export Plug-In . SVG Version: 6.00 Build 0)  -->
<!DOCTYPE svg PUBLIC "-//W3C//DTD SVG 1.1//EN" "http://www.w3.org/Graphics/SVG/1.1/DTD/svg11.dtd">
<svg version="1.1" id="Layer_1" xmlns="http://www.w3.org/2000/svg" xmlns:xlink="http://www.w3.org/1999/xlink" x="0px" y="0px"
	 width="32px" height="32px" viewBox="0 0 32 32" style="enable-background:new 0 0 32 32;" xml:space="preserve">
<g>
	<defs>
		<rect id="SVGID_1_" width="32" height="32"/>
	</defs>
	<clipPath id="SVGID_2_">
		<use xlink:href="#SVGID_1_"  style="overflow:visible;"/>
	</clipPath>
	<g style="clip-path:url(#SVGID_2_);">
		<defs>
			<rect id="SVGID_3_" width="32" height="32"/>
		</defs>
		<clipPath id="SVGID_4_">
			<use xlink:href="#SVGID_3_"  style="overflow:visible;"/>
		</clipPath>
		<path style="clip-path:url(#SVGID_4_);" d="M16.928,24L7.5,14.574c-1.222,3.683-4.308,7.823-4.308,7.823
			C2.536,23.278,2.899,24,3.996,24H16.928z"/>
		<path style="clip-path:url(#SVGID_4_);" d="M31.414,28.586L26.828,24h1.18c1.094-0.003,1.453-0.723,0.797-1.603
			c0,0-4.807-6.438-4.807-10.397v-1.001c0-4.972-3.582-9.001-8-9.001c-2.898,0-5.418,1.75-6.82,4.352L3.414,0.586
			c-0.781-0.781-2.047-0.781-2.828,0s-0.781,2.047,0,2.828l28,28C28.977,31.805,29.488,32,30,32c0.512,0,1.023-0.195,1.414-0.586
			C32.195,30.633,32.195,29.367,31.414,28.586"/>
		<path style="clip-path:url(#SVGID_4_);" d="M11.998,26c0,2.208,1.793,4,4,4c1.883,0,3.449-1.305,3.875-3.055L18.928,26H11.998z"/>
	</g>
</g>
</svg>
