<?xml version="1.0" encoding="iso-8859-1"?>
<!-- Generator: Adobe Illustrator 17.0.0, SVG Export Plug-In . SVG Version: 6.00 Build 0)  -->
<!DOCTYPE svg PUBLIC "-//W3C//DTD SVG 1.1//EN" "http://www.w3.org/Graphics/SVG/1.1/DTD/svg11.dtd">
<svg version="1.1" id="Layer_1" xmlns="http://www.w3.org/2000/svg" xmlns:xlink="http://www.w3.org/1999/xlink" x="0px" y="0px"
	 width="32px" height="32px" viewBox="0 0 32 32" style="enable-background:new 0 0 32 32;" xml:space="preserve">
<g>
	<defs>
		<rect id="SVGID_1_" width="32" height="32"/>
	</defs>
	<clipPath id="SVGID_2_">
		<use xlink:href="#SVGID_1_"  style="overflow:visible;"/>
	</clipPath>
	<g style="clip-path:url(#SVGID_2_);">
		<defs>
			<rect id="SVGID_3_" width="32" height="32"/>
		</defs>
		<clipPath id="SVGID_4_">
			<use xlink:href="#SVGID_3_"  style="overflow:visible;"/>
		</clipPath>
		<path style="clip-path:url(#SVGID_4_);" d="M22,0c-2.211,0-4,1.79-4,4h8C26,1.79,24.207,0,22,0"/>
		<path style="clip-path:url(#SVGID_4_);" d="M10,0C7.789,0,6,1.79,6,4h8C14,1.79,12.207,0,10,0"/>
		<path style="clip-path:url(#SVGID_4_);" d="M28,6H4L0,22v2c0,4.419,3.582,8,8,8s8-3.581,8-8c0,4.419,3.582,8,8,8s8-3.581,8-8v-2
			L28,6z M8,29c-2.762,0-5-2.238-5-5s2.238-5,5-5s5,2.238,5,5S10.762,29,8,29 M24,29c-2.762,0-5-2.238-5-5s2.238-5,5-5s5,2.238,5,5
			S26.762,29,24,29"/>
	</g>
</g>
</svg>
