<?xml version="1.0" encoding="iso-8859-1"?>
<!-- Generator: Adobe Illustrator 17.0.0, SVG Export Plug-In . SVG Version: 6.00 Build 0)  -->
<!DOCTYPE svg PUBLIC "-//W3C//DTD SVG 1.1//EN" "http://www.w3.org/Graphics/SVG/1.1/DTD/svg11.dtd">
<svg version="1.1" id="Layer_1" xmlns="http://www.w3.org/2000/svg" xmlns:xlink="http://www.w3.org/1999/xlink" x="0px" y="0px"
	 width="32px" height="32px" viewBox="0 0 32 32" style="enable-background:new 0 0 32 32;" xml:space="preserve">
<g>
	<defs>
		<rect id="SVGID_1_" width="32" height="32"/>
	</defs>
	<clipPath id="SVGID_2_">
		<use xlink:href="#SVGID_1_"  style="overflow:visible;"/>
	</clipPath>
	<g style="clip-path:url(#SVGID_2_);">
		<defs>
			<rect id="SVGID_3_" width="32" height="32"/>
		</defs>
		<clipPath id="SVGID_4_">
			<use xlink:href="#SVGID_3_"  style="overflow:visible;"/>
		</clipPath>
		<path style="clip-path:url(#SVGID_4_);" d="M8,0H2C0.895,0,0,0.896,0,2v2h10V2C10,0.896,9.105,0,8,0"/>
		<path style="clip-path:url(#SVGID_4_);" d="M0,30.001C0,31.105,0.895,32,2,32h6c1.105,0,2-0.895,2-1.999V28H0V30.001z"/>
		<path style="clip-path:url(#SVGID_4_);" d="M20,0h-6c-1.105,0-2,0.896-2,2v2h10V2C22,0.896,21.105,0,20,0"/>
		<path style="clip-path:url(#SVGID_4_);" d="M12,30.001C12,31.105,12.895,32,14,32h6c1.105,0,2-0.895,2-1.999V28H12V30.001z"/>
		<path style="clip-path:url(#SVGID_4_);" d="M31,0c-0.553,0-1,0.447-1,1v30c0,0.553,0.447,1,1,1s1-0.447,1-1V1
			C32,0.447,31.553,0,31,0"/>
		<path style="clip-path:url(#SVGID_4_);" d="M27,0c-0.553,0-1,0.447-1,1v30c0,0.553,0.447,1,1,1s1-0.447,1-1V1
			C28,0.447,27.553,0,27,0"/>
		<path style="clip-path:url(#SVGID_4_);" d="M0,26h10V6H0V26z M3,10h4c0.553,0,1,0.447,1,1s-0.447,1-1,1H3c-0.553,0-1-0.447-1-1
			S2.447,10,3,10"/>
		<path style="clip-path:url(#SVGID_4_);" d="M12,26h10V6H12V26z M15,10h4c0.553,0,1,0.447,1,1s-0.447,1-1,1h-4
			c-0.553,0-1-0.447-1-1S14.447,10,15,10"/>
	</g>
</g>
</svg>
