<?xml version="1.0" encoding="iso-8859-1"?>
<!-- Generator: Adobe Illustrator 17.0.0, SVG Export Plug-In . SVG Version: 6.00 Build 0)  -->
<!DOCTYPE svg PUBLIC "-//W3C//DTD SVG 1.1//EN" "http://www.w3.org/Graphics/SVG/1.1/DTD/svg11.dtd">
<svg version="1.1" id="Layer_1" xmlns="http://www.w3.org/2000/svg" xmlns:xlink="http://www.w3.org/1999/xlink" x="0px" y="0px"
	 width="32px" height="32px" viewBox="0 0 32 32" style="enable-background:new 0 0 32 32;" xml:space="preserve">
<g>
	<defs>
		<rect id="SVGID_1_" width="32" height="32"/>
	</defs>
	<clipPath id="SVGID_2_">
		<use xlink:href="#SVGID_1_"  style="overflow:visible;"/>
	</clipPath>
	<g style="clip-path:url(#SVGID_2_);">
		<defs>
			<rect id="SVGID_3_" width="32" height="32"/>
		</defs>
		<clipPath id="SVGID_4_">
			<use xlink:href="#SVGID_3_"  style="overflow:visible;"/>
		</clipPath>
		<path style="clip-path:url(#SVGID_4_);" d="M10,6V3c0-0.555-0.449-1-1-1C8.445,2,8,2.445,8,3v3H4V3c0-0.555-0.449-1-1-1
			C2.445,2,2,2.445,2,3v3C0.895,6,0,6.895,0,8v24h12V8C12,6.895,11.105,6,10,6 M8,19c0,0.551-0.449,1-1,1H5c-0.555,0-1-0.449-1-1v-2
			c0-0.555,0.445-1,1-1h2c0.551,0,1,0.445,1,1V19z M8,13c0,0.551-0.449,1-1,1H5c-0.555,0-1-0.449-1-1v-2c0-0.555,0.445-1,1-1h2
			c0.551,0,1,0.445,1,1V13z"/>
		<path style="clip-path:url(#SVGID_4_);" d="M30,0H16c-1.105,0-2,0.895-2,2v30h18V2C32,0.895,31.105,0,30,0 M22,21
			c0,0.551-0.449,1-1,1h-2c-0.555,0-1-0.449-1-1v-2c0-0.555,0.445-1,1-1h2c0.551,0,1,0.445,1,1V21z M22,15c0,0.551-0.449,1-1,1h-2
			c-0.555,0-1-0.449-1-1v-2c0-0.555,0.445-1,1-1h2c0.551,0,1,0.445,1,1V15z M22,9c0,0.551-0.449,1-1,1h-2c-0.555,0-1-0.449-1-1V7
			c0-0.555,0.445-1,1-1h2c0.551,0,1,0.445,1,1V9z M28,21c0,0.551-0.449,1-1,1h-2c-0.555,0-1-0.449-1-1v-2c0-0.555,0.445-1,1-1h2
			c0.551,0,1,0.445,1,1V21z M28,15c0,0.551-0.449,1-1,1h-2c-0.555,0-1-0.449-1-1v-2c0-0.555,0.445-1,1-1h2c0.551,0,1,0.445,1,1V15z
			 M28,9c0,0.551-0.449,1-1,1h-2c-0.555,0-1-0.449-1-1V7c0-0.555,0.445-1,1-1h2c0.551,0,1,0.445,1,1V9z"/>
	</g>
</g>
</svg>
