<?xml version="1.0" encoding="iso-8859-1"?>
<!-- Generator: Adobe Illustrator 17.0.0, SVG Export Plug-In . SVG Version: 6.00 Build 0)  -->
<!DOCTYPE svg PUBLIC "-//W3C//DTD SVG 1.1//EN" "http://www.w3.org/Graphics/SVG/1.1/DTD/svg11.dtd">
<svg version="1.1" id="Layer_1" xmlns="http://www.w3.org/2000/svg" xmlns:xlink="http://www.w3.org/1999/xlink" x="0px" y="0px"
	 width="32px" height="32px" viewBox="0 0 32 32" style="enable-background:new 0 0 32 32;" xml:space="preserve">
<g>
	<defs>
		<rect id="SVGID_1_" width="32" height="32"/>
	</defs>
	<clipPath id="SVGID_2_">
		<use xlink:href="#SVGID_1_"  style="overflow:visible;"/>
	</clipPath>
	<g style="clip-path:url(#SVGID_2_);">
		<defs>
			<rect id="SVGID_3_" width="32" height="32"/>
		</defs>
		<clipPath id="SVGID_4_">
			<use xlink:href="#SVGID_3_"  style="overflow:visible;"/>
		</clipPath>
		<path style="clip-path:url(#SVGID_4_);" d="M3,16h3l4,4l5.6-4H29c1.65,0,3,1.35,3,3s-1.35,3-3,3H3c-1.65,0-3-1.35-3-3
			S1.35,16,3,16"/>
		<path style="clip-path:url(#SVGID_4_);" d="M3,14h26c1.1,0,2-0.9,2-2c0-5.381-6.716-10-15-10S1,6.619,1,12C1,13.1,1.9,14,3,14
			 M24.5,6C25.328,6,26,6.448,26,7s-0.672,1-1.5,1C23.672,8,23,7.552,23,7S23.672,6,24.5,6 M19.5,4C20.328,4,21,4.448,21,5
			s-0.672,1-1.5,1C18.672,6,18,5.552,18,5S18.672,4,19.5,4 M12.5,4C13.328,4,14,4.448,14,5s-0.672,1-1.5,1S11,5.552,11,5
			S11.672,4,12.5,4 M7.5,6C8.328,6,9,6.448,9,7S8.328,8,7.5,8S6,7.552,6,7S6.672,6,7.5,6"/>
		<path style="clip-path:url(#SVGID_4_);" d="M29,24H3c-1.1,0-2,0.9-2,2v0.5C1,28.425,3.7,30,7,30h18c3.3,0,6-1.575,6-3.5
			c0-0.072,0-0.402,0-0.5C31,24.9,30.1,24,29,24"/>
	</g>
</g>
</svg>
