<?xml version="1.0" encoding="iso-8859-1"?>
<!-- Generator: Adobe Illustrator 17.0.0, SVG Export Plug-In . SVG Version: 6.00 Build 0)  -->
<!DOCTYPE svg PUBLIC "-//W3C//DTD SVG 1.1//EN" "http://www.w3.org/Graphics/SVG/1.1/DTD/svg11.dtd">
<svg version="1.1" id="Layer_1" xmlns="http://www.w3.org/2000/svg" xmlns:xlink="http://www.w3.org/1999/xlink" x="0px" y="0px"
	 width="32px" height="32px" viewBox="0 0 32 32" style="enable-background:new 0 0 32 32;" xml:space="preserve">
<g>
	<defs>
		<rect id="SVGID_1_" width="32" height="32"/>
	</defs>
	<clipPath id="SVGID_2_">
		<use xlink:href="#SVGID_1_"  style="overflow:visible;"/>
	</clipPath>
	<g style="clip-path:url(#SVGID_2_);">
		<defs>
			<rect id="SVGID_3_" width="32" height="32"/>
		</defs>
		<clipPath id="SVGID_4_">
			<use xlink:href="#SVGID_3_"  style="overflow:visible;"/>
		</clipPath>
		<path style="clip-path:url(#SVGID_4_);" d="M24,29c0,1.658,1.344,3,3,3s3-1.342,3-3v-1h-6V29z"/>
		<path style="clip-path:url(#SVGID_4_);" d="M2,29c0,1.658,1.344,3,3,3c1.66,0,3-1.342,3-3v-1H2V29z"/>
		<path style="clip-path:url(#SVGID_4_);" d="M24,0H8C3.582,0,0,3.582,0,8v18h32V8C32,3.582,28.418,0,24,0 M13,2h6
			c0.55,0,1,0.45,1,1s-0.45,1-1,1h-6c-0.55,0-1-0.45-1-1S12.45,2,13,2 M6,22c-1.105,0-2-0.895-2-2c0-1.104,0.895-2,2-2s2,0.896,2,2
			C8,21.105,7.105,22,6,22 M15,16H4v-6c0-2.207,1.793-4,4-4h7V16z M26,22c-1.105,0-2-0.895-2-2c0-1.104,0.895-2,2-2s2,0.896,2,2
			C28,21.105,27.105,22,26,22 M28,16H17V6h7c2.207,0,4,1.793,4,4V16z"/>
	</g>
</g>
</svg>
