<?xml version="1.0" encoding="iso-8859-1"?>
<!-- Generator: Adobe Illustrator 17.0.0, SVG Export Plug-In . SVG Version: 6.00 Build 0)  -->
<!DOCTYPE svg PUBLIC "-//W3C//DTD SVG 1.1//EN" "http://www.w3.org/Graphics/SVG/1.1/DTD/svg11.dtd">
<svg version="1.1" id="Layer_1" xmlns="http://www.w3.org/2000/svg" xmlns:xlink="http://www.w3.org/1999/xlink" x="0px" y="0px"
	 width="32px" height="32px" viewBox="0 0 32 32" style="enable-background:new 0 0 32 32;" xml:space="preserve">
<g>
	<defs>
		<rect id="SVGID_1_" width="32" height="32"/>
	</defs>
	<clipPath id="SVGID_2_">
		<use xlink:href="#SVGID_1_"  style="overflow:visible;"/>
	</clipPath>
	<g style="clip-path:url(#SVGID_2_);">
		<defs>
			<rect id="SVGID_3_" width="32" height="32"/>
		</defs>
		<clipPath id="SVGID_4_">
			<use xlink:href="#SVGID_3_"  style="overflow:visible;"/>
		</clipPath>
		<path style="clip-path:url(#SVGID_4_);" d="M12.002,18h-10c-1.1,0-2,0.9-2,2v10.001c0,1.1,0.9,2,2,2h10c1.1,0,2-0.9,2-2V20
			C14.002,18.9,13.102,18,12.002,18 M9.83,26.415c0.389,0.389,0.389,1.025,0,1.414c-0.388,0.389-1.025,0.388-1.414-0.001
			l-1.414-1.414l-1.415,1.414c-0.389,0.389-1.025,0.39-1.413,0.001c-0.389-0.389-0.389-1.025,0-1.414L5.588,25l-1.414-1.414
			c-0.389-0.389-0.389-1.025,0-1.414c0.388-0.389,1.024-0.389,1.413,0l1.415,1.415l1.414-1.415c0.389-0.389,1.026-0.389,1.414,0
			c0.389,0.389,0.389,1.025,0,1.414L8.415,25L9.83,26.415z"/>
		<path style="clip-path:url(#SVGID_4_);" d="M12.002,0h-10c-1.099,0-2,0.901-2,2V12c0,1.1,0.901,2,2,2h10c1.101,0,2-0.9,2-2V2
			C14.002,0.9,13.102,0,12.002,0 M10.002,8h-2v2c0,0.55-0.45,1-1,1s-1-0.45-1-1V8h-2c-0.55,0-1-0.45-1-1c0-0.549,0.45-0.999,1-0.999
			h2V4c0-0.55,0.45-1,1-1s1,0.45,1,1V6h2c0.55,0,1,0.45,1,0.999C11.002,7.549,10.552,8,10.002,8"/>
		<path style="clip-path:url(#SVGID_4_);" d="M30,17.999H20c-1.1,0-2,0.901-2,2V30c0,1.1,0.9,2,2,2h10c1.1,0,2-0.9,2-2V19.999
			C32,18.9,31.1,17.999,30,17.999 M28,27.999h-6c-0.55,0-1-0.45-1-1C21,26.45,21.45,26,22,26h6c0.55,0,1,0.45,1,0.999
			C29,27.549,28.55,27.999,28,27.999 M28,23.999h-6c-0.55,0-1-0.45-1-1C21,22.45,21.45,22,22,22h6c0.55,0,1,0.45,1,0.999
			C29,23.549,28.55,23.999,28,23.999"/>
		<path style="clip-path:url(#SVGID_4_);" d="M30,0H20c-1.1,0-2,0.901-2,2V12c0,1.1,0.9,2,2,2h10c1.1,0,2-0.9,2-2V2
			C32,0.9,31.1,0,30,0 M28,8h-6c-0.55,0-1-0.45-1-1C21,6.451,21.45,6,22,6h6c0.55,0,1,0.45,1,0.999C29,7.549,28.55,8,28,8"/>
	</g>
</g>
</svg>
