<?xml version="1.0" encoding="iso-8859-1"?>
<!-- Generator: Adobe Illustrator 17.0.0, SVG Export Plug-In . SVG Version: 6.00 Build 0)  -->
<!DOCTYPE svg PUBLIC "-//W3C//DTD SVG 1.1//EN" "http://www.w3.org/Graphics/SVG/1.1/DTD/svg11.dtd">
<svg version="1.1" id="Layer_1" xmlns="http://www.w3.org/2000/svg" xmlns:xlink="http://www.w3.org/1999/xlink" x="0px" y="0px"
	 width="32px" height="32px" viewBox="0 0 32 32" style="enable-background:new 0 0 32 32;" xml:space="preserve">
<g>
	<defs>
		<rect id="SVGID_1_" width="32" height="32"/>
	</defs>
	<clipPath id="SVGID_2_">
		<use xlink:href="#SVGID_1_"  style="overflow:visible;"/>
	</clipPath>
	<g style="clip-path:url(#SVGID_2_);">
		<defs>
			<rect id="SVGID_3_" width="32" height="32"/>
		</defs>
		<clipPath id="SVGID_4_">
			<use xlink:href="#SVGID_3_"  style="overflow:visible;"/>
		</clipPath>
		<path style="clip-path:url(#SVGID_4_);" d="M24,0H8C5.799,0,4,1.8,4,4v24c0,2.2,1.799,4,4,4h16c2.199,0,3.998-1.8,3.998-4V4
			C27.998,1.8,26.199,0,24,0 M12,27c0,0.55-0.449,1-1,1H9c-0.551,0-1-0.45-1-1v-2c0-0.55,0.449-1,1-1h2c0.551,0,1,0.45,1,1V27z
			 M12,21c0,0.55-0.449,1-1,1H9c-0.551,0-1-0.45-1-1v-2c0-0.55,0.449-1,1-1h2c0.551,0,1,0.45,1,1V21z M12,15c0,0.55-0.449,1-1,1H9
			c-0.551,0-1-0.45-1-1v-2c0-0.55,0.449-1,1-1h2c0.551,0,1,0.45,1,1V15z M18,27c0,0.55-0.449,1-1,1h-2c-0.551,0-1-0.45-1-1v-2
			c0-0.55,0.449-1,1-1h2c0.551,0,1,0.45,1,1V27z M18,21c0,0.55-0.449,1-1,1h-2c-0.551,0-1-0.45-1-1v-2c0-0.55,0.449-1,1-1h2
			c0.551,0,1,0.45,1,1V21z M18,15c0,0.55-0.449,1-1,1h-2c-0.551,0-1-0.45-1-1v-2c0-0.55,0.449-1,1-1h2c0.551,0,1,0.45,1,1V15z
			 M24,27c0,0.55-0.449,1-1,1h-2c-0.551,0-1-0.45-1-1v-8c0-0.55,0.449-1,1-1h2c0.551,0,1,0.45,1,1V27z M24,15c0,0.55-0.449,1-1,1h-2
			c-0.551,0-1-0.45-1-1v-2c0-0.55,0.449-1,1-1h2c0.551,0,1,0.45,1,1V15z M24,8H7.996V4H24V8z"/>
	</g>
</g>
</svg>
