<?xml version="1.0" encoding="iso-8859-1"?>
<!-- Generator: Adobe Illustrator 17.0.0, SVG Export Plug-In . SVG Version: 6.00 Build 0)  -->
<!DOCTYPE svg PUBLIC "-//W3C//DTD SVG 1.1//EN" "http://www.w3.org/Graphics/SVG/1.1/DTD/svg11.dtd">
<svg version="1.1" id="Layer_1" xmlns="http://www.w3.org/2000/svg" xmlns:xlink="http://www.w3.org/1999/xlink" x="0px" y="0px"
	 width="32px" height="32px" viewBox="0 0 32 32" style="enable-background:new 0 0 32 32;" xml:space="preserve">
<g>
	<defs>
		<rect id="SVGID_1_" width="32" height="32"/>
	</defs>
	<clipPath id="SVGID_2_">
		<use xlink:href="#SVGID_1_"  style="overflow:visible;"/>
	</clipPath>
	<g style="clip-path:url(#SVGID_2_);">
		<defs>
			<rect id="SVGID_3_" width="32" height="32"/>
		</defs>
		<clipPath id="SVGID_4_">
			<use xlink:href="#SVGID_3_"  style="overflow:visible;"/>
		</clipPath>
		<path style="clip-path:url(#SVGID_4_);" d="M30,9V7c0-1.105-0.895-2-2-2h-2V3c0-1.105-0.895-2-2-2s-2,0.895-2,2v2H10V3
			c0-1.105-0.895-2-2-2S6,1.895,6,3v2H4C2.895,5,2,5.895,2,7v2H30z"/>
		<path style="clip-path:url(#SVGID_4_);" d="M2,11v18c0,1.105,0.895,2,2,2h24c1.105,0,2-0.895,2-2V11H2z M10,27H6v-4h4V27z M10,19
			H6v-4h4V19z M18,27h-4v-4h4V27z M18,19h-4v-4h4V19z M26,27h-4v-4h4V27z M26,19h-4v-4h4V19z"/>
	</g>
</g>
</svg>
