<?xml version="1.0" encoding="iso-8859-1"?>
<!-- Generator: Adobe Illustrator 17.0.0, SVG Export Plug-In . SVG Version: 6.00 Build 0)  -->
<!DOCTYPE svg PUBLIC "-//W3C//DTD SVG 1.1//EN" "http://www.w3.org/Graphics/SVG/1.1/DTD/svg11.dtd">
<svg version="1.1" id="Layer_1" xmlns="http://www.w3.org/2000/svg" xmlns:xlink="http://www.w3.org/1999/xlink" x="0px" y="0px"
	 width="32px" height="32px" viewBox="0 0 32 32" style="enable-background:new 0 0 32 32;" xml:space="preserve">
<g>
	<defs>
		<rect id="SVGID_1_" width="32" height="32"/>
	</defs>
	<clipPath id="SVGID_2_">
		<use xlink:href="#SVGID_1_"  style="overflow:visible;"/>
	</clipPath>
	<g style="clip-path:url(#SVGID_2_);">
		<defs>
			<rect id="SVGID_3_" width="32" height="32"/>
		</defs>
		<clipPath id="SVGID_4_">
			<use xlink:href="#SVGID_3_"  style="overflow:visible;"/>
		</clipPath>
		<path style="clip-path:url(#SVGID_4_);" d="M30,4h-5.11l-1.251-2.252C23.104,0.787,21.768,0,20.668,0h-9.336
			c-1.1,0-2.436,0.787-2.971,1.748L7.11,4H2C0.9,4,0,4.9,0,6v18c0,1.1,0.9,2,2,2h3.619c2.075,3.582,5.942,6,10.381,6
			s8.306-2.418,10.381-6H30c1.1,0,2-0.9,2-2V6C32,4.9,31.1,4,30,4 M16,28c-4.411,0-8-3.588-8-8s3.589-8,8-8s8,3.588,8,8
			S20.411,28,16,28 M27,11c-1.105,0-2-0.895-2-2s0.895-2,2-2c1.102,0,2,0.895,2,2S28.102,11,27,11"/>
	</g>
</g>
</svg>
