<?xml version="1.0" encoding="iso-8859-1"?>
<!-- Generator: Adobe Illustrator 17.0.0, SVG Export Plug-In . SVG Version: 6.00 Build 0)  -->
<!DOCTYPE svg PUBLIC "-//W3C//DTD SVG 1.1//EN" "http://www.w3.org/Graphics/SVG/1.1/DTD/svg11.dtd">
<svg version="1.1" id="Layer_1" xmlns="http://www.w3.org/2000/svg" xmlns:xlink="http://www.w3.org/1999/xlink" x="0px" y="0px"
	 width="32px" height="32px" viewBox="0 0 32 32" style="enable-background:new 0 0 32 32;" xml:space="preserve">
<g>
	<defs>
		<rect id="SVGID_1_" width="32" height="32"/>
	</defs>
	<clipPath id="SVGID_2_">
		<use xlink:href="#SVGID_1_"  style="overflow:visible;"/>
	</clipPath>
	<g style="clip-path:url(#SVGID_2_);">
		<defs>
			<rect id="SVGID_3_" width="32" height="32"/>
		</defs>
		<clipPath id="SVGID_4_">
			<use xlink:href="#SVGID_3_"  style="overflow:visible;"/>
		</clipPath>
		<path style="clip-path:url(#SVGID_4_);" d="M32.002,15.998c0-8.836-7.164-15.998-16-15.998C7.17,0,0,7.164,0,16s7.17,16,16,16
			C24.836,32,32.002,24.834,32.002,15.998 M18.83,21.656l-2.828-2.828l-2.83,2.828c-0.778,0.777-2.051,0.777-2.828,0
			c-0.778-0.777-0.778-2.051,0-2.828L13.172,16l-2.828-2.828c-0.778-0.78-0.778-2.051,0-2.83c0.777-0.778,2.05-0.778,2.828,0
			l2.83,2.83l2.828-2.83c0.777-0.778,2.051-0.778,2.828,0c0.777,0.779,0.777,2.05,0,2.83L18.83,16l2.828,2.828
			c0.777,0.777,0.777,2.051,0,2.828C20.881,22.433,19.607,22.433,18.83,21.656"/>
	</g>
</g>
</svg>
