<?xml version="1.0" encoding="iso-8859-1"?>
<!-- Generator: Adobe Illustrator 17.0.0, SVG Export Plug-In . SVG Version: 6.00 Build 0)  -->
<!DOCTYPE svg PUBLIC "-//W3C//DTD SVG 1.1//EN" "http://www.w3.org/Graphics/SVG/1.1/DTD/svg11.dtd">
<svg version="1.1" id="Layer_1" xmlns="http://www.w3.org/2000/svg" xmlns:xlink="http://www.w3.org/1999/xlink" x="0px" y="0px"
	 width="32px" height="32px" viewBox="0 0 32 32" style="enable-background:new 0 0 32 32;" xml:space="preserve">
<g>
	<defs>
		<rect id="SVGID_1_" width="32" height="32"/>
	</defs>
	<clipPath id="SVGID_2_">
		<use xlink:href="#SVGID_1_"  style="overflow:visible;"/>
	</clipPath>
	<g style="clip-path:url(#SVGID_2_);">
		<defs>
			<rect id="SVGID_3_" width="32" height="32"/>
		</defs>
		<clipPath id="SVGID_4_">
			<use xlink:href="#SVGID_3_"  style="overflow:visible;"/>
		</clipPath>
		<path style="clip-path:url(#SVGID_4_);" d="M28,12.367V8c0-4.418-3.582-8-8-8h-8C7.582,0,4,3.582,4,8v4.367
			C1.676,13.195,0,15.391,0,18v6h32v-6C32,15.391,30.324,13.193,28,12.367 M6,20c-1.105,0-2-0.895-2-2c0-1.104,0.895-2,2-2
			s2,0.896,2,2C8,19.105,7.105,20,6,20 M8,8c0-2.207,1.793-4,4-4h8c2.207,0,4,1.793,4,4v4H8V8z M26,20c-1.105,0-2-0.895-2-2
			c0-1.104,0.895-2,2-2s2,0.896,2,2C28,19.105,27.105,20,26,20"/>
		<path style="clip-path:url(#SVGID_4_);" d="M24,29c0,1.658,1.344,3,3,3s3-1.342,3-3v-3h-6V29z"/>
		<path style="clip-path:url(#SVGID_4_);" d="M2,29c0,1.658,1.344,3,3,3c1.66,0,3-1.342,3-3v-3H2V29z"/>
	</g>
</g>
</svg>
