<?xml version="1.0" encoding="iso-8859-1"?>
<!-- Generator: Adobe Illustrator 17.0.0, SVG Export Plug-In . SVG Version: 6.00 Build 0)  -->
<!DOCTYPE svg PUBLIC "-//W3C//DTD SVG 1.1//EN" "http://www.w3.org/Graphics/SVG/1.1/DTD/svg11.dtd">
<svg version="1.1" id="Layer_1" xmlns="http://www.w3.org/2000/svg" xmlns:xlink="http://www.w3.org/1999/xlink" x="0px" y="0px"
	 width="32px" height="32px" viewBox="0 0 32 32" style="enable-background:new 0 0 32 32;" xml:space="preserve">
<g>
	<defs>
		<rect id="SVGID_1_" width="32" height="32"/>
	</defs>
	<clipPath id="SVGID_2_">
		<use xlink:href="#SVGID_1_"  style="overflow:visible;"/>
	</clipPath>
	<g style="clip-path:url(#SVGID_2_);">
		<defs>
			<rect id="SVGID_3_" width="32" height="32"/>
		</defs>
		<clipPath id="SVGID_4_">
			<use xlink:href="#SVGID_3_"  style="overflow:visible;"/>
		</clipPath>
		<path style="clip-path:url(#SVGID_4_);" d="M23.999,24c-2.211,0-4,1.791-4,4s1.789,4,4,4c2.207,0,4-1.791,4-4S26.206,24,23.999,24
			"/>
		<path style="clip-path:url(#SVGID_4_);" d="M13.999,24c-2.211,0-4,1.791-4,4s1.789,4,4,4c2.207,0,4-1.791,4-4S16.206,24,13.999,24
			"/>
		<path style="clip-path:url(#SVGID_4_);" d="M31.624,6.832C31.245,6.309,30.644,6,29.999,6H9.44L7.894,1.367
			C7.624,0.551,6.858,0,5.999,0h-4c-1.105,0-2,0.895-2,2s0.895,2,2,2h2.559l5.543,16.633C10.374,21.449,11.136,22,11.999,22h14
			c0.863,0,1.625-0.551,1.898-1.367l4-12C32.101,8.023,31.999,7.352,31.624,6.832"/>
	</g>
</g>
</svg>
