<?xml version="1.0" encoding="iso-8859-1"?>
<!-- Generator: Adobe Illustrator 17.0.0, SVG Export Plug-In . SVG Version: 6.00 Build 0)  -->
<!DOCTYPE svg PUBLIC "-//W3C//DTD SVG 1.1//EN" "http://www.w3.org/Graphics/SVG/1.1/DTD/svg11.dtd">
<svg version="1.1" id="Layer_1" xmlns="http://www.w3.org/2000/svg" xmlns:xlink="http://www.w3.org/1999/xlink" x="0px" y="0px"
	 width="32px" height="32px" viewBox="0 0 32 32" style="enable-background:new 0 0 32 32;" xml:space="preserve">
<g>
	<defs>
		<rect id="SVGID_1_" width="32" height="32"/>
	</defs>
	<clipPath id="SVGID_2_">
		<use xlink:href="#SVGID_1_"  style="overflow:visible;"/>
	</clipPath>
	<g style="clip-path:url(#SVGID_2_);">
		<defs>
			<rect id="SVGID_3_" width="32" height="32"/>
		</defs>
		<clipPath id="SVGID_4_">
			<use xlink:href="#SVGID_3_"  style="overflow:visible;"/>
		</clipPath>
		<path style="clip-path:url(#SVGID_4_);" d="M28.315,6.654L25.046,4.36c-0.903-0.631-2.157-0.41-2.79,0.49l-8.902,12.699
			l-4.91-3.444c-0.902-0.632-2.156-0.411-2.789,0.489L3.362,17.87c-0.633,0.901-0.414,2.155,0.488,2.784l6.551,4.594l0.055,0.039
			l3.218,2.256c0.454,0.316,0.993,0.418,1.5,0.328c0.504-0.088,0.977-0.369,1.293-0.819l12.34-17.613
			C29.44,8.539,29.217,7.285,28.315,6.654"/>
	</g>
</g>
</svg>
