<?xml version="1.0" encoding="iso-8859-1"?>
<!-- Generator: Adobe Illustrator 17.0.0, SVG Export Plug-In . SVG Version: 6.00 Build 0)  -->
<!DOCTYPE svg PUBLIC "-//W3C//DTD SVG 1.1//EN" "http://www.w3.org/Graphics/SVG/1.1/DTD/svg11.dtd">
<svg version="1.1" id="Layer_1" xmlns="http://www.w3.org/2000/svg" xmlns:xlink="http://www.w3.org/1999/xlink" x="0px" y="0px"
	 width="32px" height="32px" viewBox="0 0 32 32" style="enable-background:new 0 0 32 32;" xml:space="preserve">
<g>
	<defs>
		<rect id="SVGID_1_" width="32" height="32"/>
	</defs>
	<clipPath id="SVGID_2_">
		<use xlink:href="#SVGID_1_"  style="overflow:visible;"/>
	</clipPath>
	<g style="clip-path:url(#SVGID_2_);">
		<defs>
			<rect id="SVGID_3_" width="32" height="32"/>
		</defs>
		<clipPath id="SVGID_4_">
			<use xlink:href="#SVGID_3_"  style="overflow:visible;"/>
		</clipPath>
		<path style="clip-path:url(#SVGID_4_);" d="M11.414,24.828l-4.242-4.242l-2.183,2.183C4.458,22.296,3.766,22,3,22
			c-1.657,0-3,1.343-3,3c0,1.657,1.343,3,3,3c0.475,0,0.917-0.12,1.316-0.317C4.12,28.082,4,28.525,4,29c0,1.657,1.343,3,3,3
			s3-1.343,3-3c0-0.767-0.296-1.458-0.769-1.989L11.414,24.828z"/>
		<path style="clip-path:url(#SVGID_4_);" d="M28.757,3.239c-3.304-3.303-7.886-4.318-12.271-1.923
			c0.399,0.826,0.628,1.748,0.628,2.724c0,3.467-2.809,6.277-6.274,6.277c-0.407,0-0.802-0.042-1.187-0.115
			c-1.375,4.047-1.777,8.042-1.777,8.042c-0.005,0.056-0.027,0.122-0.037,0.181l5.736,5.736c0.058-0.009,0.125-0.031,0.181-0.037
			c0,0,10.109-1.012,14.455-5.359C33.455,13.517,32.891,7.375,28.757,3.239"/>
	</g>
</g>
</svg>
