<?xml version="1.0" encoding="iso-8859-1"?>
<!-- Generator: Adobe Illustrator 17.0.0, SVG Export Plug-In . SVG Version: 6.00 Build 0)  -->
<!DOCTYPE svg PUBLIC "-//W3C//DTD SVG 1.1//EN" "http://www.w3.org/Graphics/SVG/1.1/DTD/svg11.dtd">
<svg version="1.1" id="Layer_1" xmlns="http://www.w3.org/2000/svg" xmlns:xlink="http://www.w3.org/1999/xlink" x="0px" y="0px"
	 width="32px" height="32px" viewBox="0 0 32 32" style="enable-background:new 0 0 32 32;" xml:space="preserve">
<g>
	<defs>
		<rect id="SVGID_1_" width="32" height="32"/>
	</defs>
	<clipPath id="SVGID_2_">
		<use xlink:href="#SVGID_1_"  style="overflow:visible;"/>
	</clipPath>
	<g style="clip-path:url(#SVGID_2_);">
		<defs>
			<rect id="SVGID_3_" width="32" height="32"/>
		</defs>
		<clipPath id="SVGID_4_">
			<use xlink:href="#SVGID_3_"  style="overflow:visible;"/>
		</clipPath>
		<path style="clip-path:url(#SVGID_4_);" d="M0,30c0,1.104,0.898,2,2,2h28c1.105,0,2-0.896,2-2V20H0.004L0,30z"/>
		<polygon style="clip-path:url(#SVGID_4_);" points="14,18 20,18 22,12 16,12 		"/>
		<polygon style="clip-path:url(#SVGID_4_);" points="28,12 26,18 32,18 32,12 		"/>
		<polygon style="clip-path:url(#SVGID_4_);" points="21.527,8.656 17.933,3.449 12.171,5.123 15.765,10.328 		"/>
		<polygon style="clip-path:url(#SVGID_4_);" points="31.129,5.869 29.457,0 23.695,1.779 27.289,6.984 		"/>
		<polygon style="clip-path:url(#SVGID_4_);" points="10,12 6.41,6.795 0.004,8.654 0.004,17.998 0.004,18 8,18 		"/>
	</g>
</g>
</svg>
