<?xml version="1.0" encoding="iso-8859-1"?>
<!-- Generator: Adobe Illustrator 17.0.0, SVG Export Plug-In . SVG Version: 6.00 Build 0)  -->
<!DOCTYPE svg PUBLIC "-//W3C//DTD SVG 1.1//EN" "http://www.w3.org/Graphics/SVG/1.1/DTD/svg11.dtd">
<svg version="1.1" id="Layer_1" xmlns="http://www.w3.org/2000/svg" xmlns:xlink="http://www.w3.org/1999/xlink" x="0px" y="0px"
	 width="32px" height="32px" viewBox="0 0 32 32" style="enable-background:new 0 0 32 32;" xml:space="preserve">
<g>
	<defs>
		<rect id="SVGID_1_" width="32" height="32"/>
	</defs>
	<clipPath id="SVGID_2_">
		<use xlink:href="#SVGID_1_"  style="overflow:visible;"/>
	</clipPath>
	<g style="clip-path:url(#SVGID_2_);">
		<defs>
			<rect id="SVGID_3_" width="32" height="32"/>
		</defs>
		<clipPath id="SVGID_4_">
			<use xlink:href="#SVGID_3_"  style="overflow:visible;"/>
		</clipPath>
		<path style="clip-path:url(#SVGID_4_);" d="M28,0c-2.211,0-4,1.791-4,4v2h8V4C32,1.791,30.207,0,28,0"/>
		<polygon style="clip-path:url(#SVGID_4_);" points="24,26 28,31.982 32,26 32,8 24,8 		"/>
		<path style="clip-path:url(#SVGID_4_);" d="M20,4h-4.102C15.434,1.718,13.418,0,11,0C8.578,0,6.563,1.718,6.098,4H2
			C0.895,4,0,4.895,0,6v24c0,1.104,0.895,2,2,2h18c1.105,0,2-0.896,2-2V6C22,4.895,21.105,4,20,4 M11,8C9.344,8,8,6.657,8,5
			s1.344-3,3-3s3,1.343,3,3S12.656,8,11,8"/>
	</g>
</g>
</svg>
