<?xml version="1.0" encoding="iso-8859-1"?>
<!-- Generator: Adobe Illustrator 17.0.0, SVG Export Plug-In . SVG Version: 6.00 Build 0)  -->
<!DOCTYPE svg PUBLIC "-//W3C//DTD SVG 1.1//EN" "http://www.w3.org/Graphics/SVG/1.1/DTD/svg11.dtd">
<svg version="1.1" id="Layer_1" xmlns="http://www.w3.org/2000/svg" xmlns:xlink="http://www.w3.org/1999/xlink" x="0px" y="0px"
	 width="32px" height="32px" viewBox="0 0 32 32" style="enable-background:new 0 0 32 32;" xml:space="preserve">
<g>
	<defs>
		<rect id="SVGID_1_" width="32" height="32"/>
	</defs>
	<clipPath id="SVGID_2_">
		<use xlink:href="#SVGID_1_"  style="overflow:visible;"/>
	</clipPath>
	<g style="clip-path:url(#SVGID_2_);">
		<defs>
			<rect id="SVGID_3_" width="32" height="32"/>
		</defs>
		<clipPath id="SVGID_4_">
			<use xlink:href="#SVGID_3_"  style="overflow:visible;"/>
		</clipPath>
		<path style="clip-path:url(#SVGID_4_);" d="M16,0C7.16,0,0,7.164,0,16s7.16,16,16,16c8.836,0,16-7.164,16-16S24.836,0,16,0 M16,28
			C9.383,28,4,22.617,4,16S9.383,4,16,4s12,5.383,12,12S22.617,28,16,28"/>
		<path style="clip-path:url(#SVGID_4_);" d="M16,6.75c-0.645,0-1.18,0.484-1.242,1.125l-0.727,7.266l-6.156,0.615
			C7.234,15.818,6.75,16.354,6.75,17c0,0.645,0.484,1.18,1.125,1.244l9.602,1.004L17.5,19.25c0.414,0,0.75-0.338,0.75-0.773
			L17.242,7.875C17.18,7.234,16.645,6.75,16,6.75"/>
	</g>
</g>
</svg>
