<?xml version="1.0" encoding="iso-8859-1"?>
<!-- Generator: Adobe Illustrator 17.0.0, SVG Export Plug-In . SVG Version: 6.00 Build 0)  -->
<!DOCTYPE svg PUBLIC "-//W3C//DTD SVG 1.1//EN" "http://www.w3.org/Graphics/SVG/1.1/DTD/svg11.dtd">
<svg version="1.1" id="Layer_1" xmlns="http://www.w3.org/2000/svg" xmlns:xlink="http://www.w3.org/1999/xlink" x="0px" y="0px"
	 width="32px" height="32px" viewBox="0 0 32 32" style="enable-background:new 0 0 32 32;" xml:space="preserve">
<g>
	<defs>
		<rect id="SVGID_1_" width="32" height="32"/>
	</defs>
	<clipPath id="SVGID_2_">
		<use xlink:href="#SVGID_1_"  style="overflow:visible;"/>
	</clipPath>
	<g style="clip-path:url(#SVGID_2_);">
		<defs>
			<rect id="SVGID_3_" width="32" height="32"/>
		</defs>
		<clipPath id="SVGID_4_">
			<use xlink:href="#SVGID_3_"  style="overflow:visible;"/>
		</clipPath>
		<path style="clip-path:url(#SVGID_4_);" d="M21.658,16l4.949-4.951c0.778-0.778,0.778-2.05,0-2.828l-2.832-2.825
			c-0.777-0.779-2.051-0.778-2.828,0l-4.945,4.948l-4.949-4.949c-0.778-0.778-2.051-0.778-2.829,0L5.392,8.222
			c-0.777,0.778-0.777,2.05,0,2.828l4.954,4.951l-4.95,4.95c-0.777,0.778-0.777,2.049,0,2.828l2.828,2.826
			c0.778,0.778,2.051,0.778,2.829,0l4.949-4.949l4.949,4.949c0.777,0.778,2.051,0.778,2.828,0l2.828-2.828
			c0.778-0.777,0.778-2.05,0-2.828L21.658,16z"/>
	</g>
</g>
</svg>
