<?xml version="1.0" encoding="iso-8859-1"?>
<!-- Generator: Adobe Illustrator 17.0.0, SVG Export Plug-In . SVG Version: 6.00 Build 0)  -->
<!DOCTYPE svg PUBLIC "-//W3C//DTD SVG 1.1//EN" "http://www.w3.org/Graphics/SVG/1.1/DTD/svg11.dtd">
<svg version="1.1" id="Layer_1" xmlns="http://www.w3.org/2000/svg" xmlns:xlink="http://www.w3.org/1999/xlink" x="0px" y="0px"
	 width="32px" height="32px" viewBox="0 0 32 32" style="enable-background:new 0 0 32 32;" xml:space="preserve">
<g>
	<defs>
		<rect id="SVGID_1_" width="32" height="32"/>
	</defs>
	<clipPath id="SVGID_2_">
		<use xlink:href="#SVGID_1_"  style="overflow:visible;"/>
	</clipPath>
	<g style="clip-path:url(#SVGID_2_);">
		<defs>
			<rect id="SVGID_3_" width="32" height="32"/>
		</defs>
		<clipPath id="SVGID_4_">
			<use xlink:href="#SVGID_3_"  style="overflow:visible;"/>
		</clipPath>
		<path style="clip-path:url(#SVGID_4_);" d="M24.91,12.092C24.449,7.554,20.66,4,16,4s-8.445,3.554-8.906,8.092
			C3.109,12.548,0,15.894,0,20c0,4.418,3.582,8,8,8h6v-4h-2c-2.199,0-2.875-1.406-1.5-3.125l4.254-5.312
			c0.683-0.86,1.808-0.86,2.496,0l4.254,5.312C22.879,22.594,22.203,24,20,24h-2v4h6c4.418,0,8-3.582,8-8
			C32,15.894,28.894,12.548,24.91,12.092"/>
	</g>
</g>
</svg>
