<?xml version="1.0" encoding="iso-8859-1"?>
<!-- Generator: Adobe Illustrator 17.0.0, SVG Export Plug-In . SVG Version: 6.00 Build 0)  -->
<!DOCTYPE svg PUBLIC "-//W3C//DTD SVG 1.1//EN" "http://www.w3.org/Graphics/SVG/1.1/DTD/svg11.dtd">
<svg version="1.1" id="Layer_1" xmlns="http://www.w3.org/2000/svg" xmlns:xlink="http://www.w3.org/1999/xlink" x="0px" y="0px"
	 width="32px" height="32px" viewBox="0 0 32 32" style="enable-background:new 0 0 32 32;" xml:space="preserve">
<g>
	<defs>
		<rect id="SVGID_1_" width="32" height="32"/>
	</defs>
	<clipPath id="SVGID_2_">
		<use xlink:href="#SVGID_1_"  style="overflow:visible;"/>
	</clipPath>
	<g style="clip-path:url(#SVGID_2_);">
		<defs>
			<rect id="SVGID_3_" width="32" height="32"/>
		</defs>
		<clipPath id="SVGID_4_">
			<use xlink:href="#SVGID_3_"  style="overflow:visible;"/>
		</clipPath>
		<path style="clip-path:url(#SVGID_4_);" d="M7.695,30.023C7.863,31.111,8.902,32,10,32h12c1.102,0,2.137-0.889,2.305-1.977
			L27.387,10H4.617L7.695,30.023z M23.207,24H8.793l-1.23-8h16.875L23.207,24z"/>
		<path style="clip-path:url(#SVGID_4_);" d="M29.051,3.684l-1.102-0.367c-0.519-0.174-1.089-0.743-1.265-1.265l-0.367-1.103
			C26.145,0.427,25.551,0,25,0H7C6.449,0,5.86,0.427,5.684,0.949L5.317,2.052C5.145,2.574,4.574,3.143,4.051,3.317L2.949,3.684
			C2.43,3.858,2,4.451,2,5v2c0,0.55,0.449,1,1,1h26c0.551,0,1-0.45,1-1V5C30,4.451,29.574,3.858,29.051,3.684"/>
	</g>
</g>
</svg>
