<?xml version="1.0" encoding="iso-8859-1"?>
<!-- Generator: Adobe Illustrator 17.0.0, SVG Export Plug-In . SVG Version: 6.00 Build 0)  -->
<!DOCTYPE svg PUBLIC "-//W3C//DTD SVG 1.1//EN" "http://www.w3.org/Graphics/SVG/1.1/DTD/svg11.dtd">
<svg version="1.1" id="Layer_1" xmlns="http://www.w3.org/2000/svg" xmlns:xlink="http://www.w3.org/1999/xlink" x="0px" y="0px"
	 width="32px" height="32px" viewBox="0 0 32 32" style="enable-background:new 0 0 32 32;" xml:space="preserve">
<g>
	<defs>
		<rect id="SVGID_1_" width="32" height="32"/>
	</defs>
	<clipPath id="SVGID_2_">
		<use xlink:href="#SVGID_1_"  style="overflow:visible;"/>
	</clipPath>
	<g style="clip-path:url(#SVGID_2_);">
		<defs>
			<rect id="SVGID_3_" width="32" height="32"/>
		</defs>
		<clipPath id="SVGID_4_">
			<use xlink:href="#SVGID_3_"  style="overflow:visible;"/>
		</clipPath>
		<path style="clip-path:url(#SVGID_4_);" d="M22,4v24c0,1.098,0.9,2,2,2s2-0.902,2-2V4c0-1.102-0.9-2-2-2S22,2.898,22,4"/>
		<path style="clip-path:url(#SVGID_4_);" d="M14,4v24c0,1.098,0.9,2,2,2s2-0.902,2-2V4c0-1.102-0.9-2-2-2S14,2.898,14,4"/>
		<path style="clip-path:url(#SVGID_4_);" d="M10,28V4c0-1.102-0.9-2-2-2S6,2.898,6,4v24c0,1.098,0.9,2,2,2S10,29.098,10,28"/>
	</g>
</g>
</svg>
