<?xml version="1.0" encoding="iso-8859-1"?>
<!-- Generator: Adobe Illustrator 17.0.0, SVG Export Plug-In . SVG Version: 6.00 Build 0)  -->
<!DOCTYPE svg PUBLIC "-//W3C//DTD SVG 1.1//EN" "http://www.w3.org/Graphics/SVG/1.1/DTD/svg11.dtd">
<svg version="1.1" id="Layer_1" xmlns="http://www.w3.org/2000/svg" xmlns:xlink="http://www.w3.org/1999/xlink" x="0px" y="0px"
	 width="32px" height="32px" viewBox="0 0 32 32" style="enable-background:new 0 0 32 32;" xml:space="preserve">
<g>
	<defs>
		<rect id="SVGID_1_" width="32" height="32"/>
	</defs>
	<clipPath id="SVGID_2_">
		<use xlink:href="#SVGID_1_"  style="overflow:visible;"/>
	</clipPath>
	<g style="clip-path:url(#SVGID_2_);">
		<defs>
			<rect id="SVGID_3_" width="32" height="32"/>
		</defs>
		<clipPath id="SVGID_4_">
			<use xlink:href="#SVGID_3_"  style="overflow:visible;"/>
		</clipPath>
		<path style="clip-path:url(#SVGID_4_);" d="M26.5,21c-1.226,0-2.354,0.406-3.268,1.084l-12.239-5.95
			C10.994,16.089,11,16.045,11,16s-0.006-0.089-0.007-0.134l12.239-5.95C24.146,10.594,25.274,11,26.5,11c3.038,0,5.5-2.462,5.5-5.5
			S29.538,0,26.5,0c-3.018,0-5.465,2.431-5.497,5.441L8.61,11.465C7.725,10.857,6.655,10.5,5.5,10.5C2.462,10.5,0,12.962,0,16
			s2.462,5.5,5.5,5.5c1.155,0,2.225-0.357,3.11-0.965l12.393,6.024C21.035,29.569,23.482,32,26.5,32c3.038,0,5.5-2.462,5.5-5.5
			S29.538,21,26.5,21"/>
	</g>
</g>
</svg>
