<?xml version="1.0" encoding="iso-8859-1"?>
<!-- Generator: Adobe Illustrator 17.0.0, SVG Export Plug-In . SVG Version: 6.00 Build 0)  -->
<!DOCTYPE svg PUBLIC "-//W3C//DTD SVG 1.1//EN" "http://www.w3.org/Graphics/SVG/1.1/DTD/svg11.dtd">
<svg version="1.1" id="Layer_1" xmlns="http://www.w3.org/2000/svg" xmlns:xlink="http://www.w3.org/1999/xlink" x="0px" y="0px"
	 width="32px" height="32px" viewBox="0 0 32 32" style="enable-background:new 0 0 32 32;" xml:space="preserve">
<g>
	<defs>
		<rect id="SVGID_1_" width="32" height="32"/>
	</defs>
	<clipPath id="SVGID_2_">
		<use xlink:href="#SVGID_1_"  style="overflow:visible;"/>
	</clipPath>
	<g style="clip-path:url(#SVGID_2_);">
		<defs>
			<rect id="SVGID_3_" width="32" height="32"/>
		</defs>
		<clipPath id="SVGID_4_">
			<use xlink:href="#SVGID_3_"  style="overflow:visible;"/>
		</clipPath>
		<path style="clip-path:url(#SVGID_4_);" d="M19.621,13.996h1.481c0.003,0,0.011,0.004,0.015,0.004c0.008,0,0.012-0.004,0.02-0.004
			L28.621,14c0.824,0,1.5-0.672,1.5-1.5c-0.004-0.414-0.168-0.789-0.441-1.059l-2.379-2.379l3.82-3.82
			c1.172-1.172,1.172-3.07,0-4.242c-1.172-1.172-3.07-1.172-4.242,0l-3.82,3.82L20.68,2.441C20.41,2.164,20.035,2,19.621,2
			c-0.828,0-1.496,0.672-1.496,1.496l-0.004,7.492v0.028V12.5C18.121,13.328,18.793,13.996,19.621,13.996"/>
		<path style="clip-path:url(#SVGID_4_);" d="M12.375,2c-0.414,0-0.789,0.168-1.059,0.437L8.937,4.816L5.121,1
			c-1.172-1.172-3.07-1.172-4.242,0C0.293,1.586,0,2.351,0,3.121c0,0.766,0.293,1.535,0.879,2.121l3.816,3.817l-2.383,2.378
			c-0.269,0.274-0.437,0.649-0.437,1.063c0,0.824,0.672,1.496,1.5,1.496l9,0.004c0.828,0,1.5-0.672,1.5-1.5v-9
			C13.875,2.672,13.203,2,12.375,2"/>
		<path style="clip-path:url(#SVGID_4_);" d="M12.375,18.125h-1.48c-0.004,0-0.012-0.004-0.016-0.004
			c-0.008,0-0.012,0.004-0.02,0.004l-7.484-0.004c-0.824,0-1.5,0.672-1.5,1.5c0.004,0.414,0.168,0.789,0.441,1.059l2.379,2.379
			l-3.816,3.82c-1.172,1.172-1.172,3.07,0,4.242s3.07,1.172,4.242,0l3.816-3.82l2.379,2.379c0.27,0.277,0.645,0.441,1.059,0.441
			c0.828,0,1.496-0.672,1.496-1.496l0.004-7.492v-0.028v-1.484C13.875,18.793,13.203,18.125,12.375,18.125"/>
		<path style="clip-path:url(#SVGID_4_);" d="M27.301,23.062l2.383-2.379c0.269-0.273,0.437-0.648,0.437-1.062
			c0-0.825-0.672-1.496-1.5-1.496l-9-0.004c-0.828,0-1.5,0.671-1.5,1.5v9c0,0.828,0.672,1.5,1.5,1.5
			c0.414,0,0.789-0.168,1.059-0.438l2.379-2.379l3.82,3.817c1.172,1.171,3.07,1.171,4.242,0C31.707,30.535,32,29.77,32,29
			c0-0.766-0.293-1.536-0.879-2.122L27.301,23.062z"/>
	</g>
</g>
</svg>
