<?xml version="1.0" encoding="iso-8859-1"?>
<!-- Generator: Adobe Illustrator 17.0.0, SVG Export Plug-In . SVG Version: 6.00 Build 0)  -->
<!DOCTYPE svg PUBLIC "-//W3C//DTD SVG 1.1//EN" "http://www.w3.org/Graphics/SVG/1.1/DTD/svg11.dtd">
<svg version="1.1" id="Layer_1" xmlns="http://www.w3.org/2000/svg" xmlns:xlink="http://www.w3.org/1999/xlink" x="0px" y="0px"
	 width="32px" height="32px" viewBox="0 0 32 32" style="enable-background:new 0 0 32 32;" xml:space="preserve">
<g>
	<defs>
		<rect id="SVGID_1_" width="32" height="32"/>
	</defs>
	<clipPath id="SVGID_2_">
		<use xlink:href="#SVGID_1_"  style="overflow:visible;"/>
	</clipPath>
	<g style="clip-path:url(#SVGID_2_);">
		<defs>
			<rect id="SVGID_3_" width="32" height="32"/>
		</defs>
		<clipPath id="SVGID_4_">
			<use xlink:href="#SVGID_3_"  style="overflow:visible;"/>
		</clipPath>
		<path style="clip-path:url(#SVGID_4_);" d="M30,8H2c-1.105,0-2,0.895-2,2v20c0,1.105,0.895,2,2,2h6v-2H7c-0.555,0-1-0.447-1-1
			s0.445-1,1-1h1h2h1c0.551,0,1,0.447,1,1s-0.449,1-1,1h-1v2h12v-2h-1c-0.555,0-1-0.447-1-1s0.445-1,1-1h1h2h1c0.551,0,1,0.447,1,1
			s-0.449,1-1,1h-1v2h6c1.105,0,2-0.895,2-2V10C32,8.895,31.105,8,30,8 M9,12c1.656,0,3,1.344,3,3s-1.344,3-3,3s-3-1.344-3-3
			S7.344,12,9,12 M14,24H4v-1c0-1.65,2.25-3,5-3s5,1.35,5,3V24z M27,20h-8c-0.555,0-1-0.447-1-1s0.445-1,1-1h8c0.551,0,1,0.447,1,1
			S27.551,20,27,20 M27,16h-8c-0.555,0-1-0.447-1-1s0.445-1,1-1h8c0.551,0,1,0.447,1,1S27.551,16,27,16"/>
		<path style="clip-path:url(#SVGID_4_);" d="M30,2c0-1.105-0.895-2-2-2H4C2.895,0,2,0.895,2,2v4h28V2z"/>
	</g>
</g>
</svg>
