<?xml version="1.0" encoding="iso-8859-1"?>
<!-- Generator: Adobe Illustrator 17.0.0, SVG Export Plug-In . SVG Version: 6.00 Build 0)  -->
<!DOCTYPE svg PUBLIC "-//W3C//DTD SVG 1.1//EN" "http://www.w3.org/Graphics/SVG/1.1/DTD/svg11.dtd">
<svg version="1.1" id="Layer_1" xmlns="http://www.w3.org/2000/svg" xmlns:xlink="http://www.w3.org/1999/xlink" x="0px" y="0px"
	 width="32px" height="32px" viewBox="0 0 32 32" style="enable-background:new 0 0 32 32;" xml:space="preserve">
<g>
	<defs>
		<rect id="SVGID_1_" width="32" height="32"/>
	</defs>
	<clipPath id="SVGID_2_">
		<use xlink:href="#SVGID_1_"  style="overflow:visible;"/>
	</clipPath>
	<g style="clip-path:url(#SVGID_2_);">
		<defs>
			<rect id="SVGID_3_" width="32" height="32"/>
		</defs>
		<clipPath id="SVGID_4_">
			<use xlink:href="#SVGID_3_"  style="overflow:visible;"/>
		</clipPath>
		<path style="clip-path:url(#SVGID_4_);" d="M28,0H4C1.801,0,0,1.801,0,4v24c0,2.199,1.801,4,4,4h24c2.199,0,4-1.801,4-4V4
			C32,1.801,30.199,0,28,0 M14.996,27.5c0,0.828-0.672,1.5-1.496,1.5c-0.414,0-0.789-0.168-1.062-0.437l-2.379-2.383l-1.938,1.941
			C7.535,28.707,6.766,29,6,29c-0.77,0-1.535-0.293-2.121-0.879c-1.172-1.172-1.172-3.07,0-4.242l1.937-1.941l-2.378-2.379
			C3.168,19.289,3,18.914,3,18.5C3,17.672,3.672,17,4.5,17h9c0.828,0,1.5,0.672,1.5,1.5L14.996,27.5z M27.5,15l-7.484-0.004
			C20.012,14.996,20.004,15,20,15c-0.008,0-0.012-0.004-0.02-0.004H18.5c-0.828,0-1.5-0.668-1.5-1.496v-1.488v-0.028l0.004-7.488
			C17.004,3.672,17.672,3,18.5,3c0.414,0,0.789,0.164,1.059,0.441l2.379,2.379l1.941-1.941c1.172-1.172,3.07-1.172,4.242,0
			c1.172,1.172,1.172,3.07,0,4.242l-1.941,1.942l2.379,2.378c0.273,0.27,0.437,0.645,0.441,1.059C29,14.328,28.324,15,27.5,15"/>
	</g>
</g>
</svg>
