<?xml version="1.0" encoding="iso-8859-1"?>
<!-- Generator: Adobe Illustrator 17.0.0, SVG Export Plug-In . SVG Version: 6.00 Build 0)  -->
<!DOCTYPE svg PUBLIC "-//W3C//DTD SVG 1.1//EN" "http://www.w3.org/Graphics/SVG/1.1/DTD/svg11.dtd">
<svg version="1.1" id="Layer_1" xmlns="http://www.w3.org/2000/svg" xmlns:xlink="http://www.w3.org/1999/xlink" x="0px" y="0px"
	 width="32px" height="32px" viewBox="0 0 32 32" style="enable-background:new 0 0 32 32;" xml:space="preserve">
<g>
	<defs>
		<rect id="SVGID_1_" width="32" height="32"/>
	</defs>
	<clipPath id="SVGID_2_">
		<use xlink:href="#SVGID_1_"  style="overflow:visible;"/>
	</clipPath>
	<g style="clip-path:url(#SVGID_2_);">
		<defs>
			<rect id="SVGID_3_" width="32" height="32"/>
		</defs>
		<clipPath id="SVGID_4_">
			<use xlink:href="#SVGID_3_"  style="overflow:visible;"/>
		</clipPath>
		<path style="clip-path:url(#SVGID_4_);" d="M30,20h-4V8c0-1.105-0.895-2-2-2H14v6h6v8h-8V2c0-1.105-0.895-2-2-2H8
			C6.895,0,6,0.895,6,2v4H2C0.895,6,0,6.895,0,8v2c0,1.105,0.895,2,2,2h4v12c0,1.105,0.895,2,2,2h12v3.996V30c0,1.105,0.895,2,2,2h2
			c1.105,0,2-0.895,2-2v-4h4c1.105,0,2-0.895,2-2v-2C32,20.895,31.105,20,30,20"/>
	</g>
</g>
</svg>
