<?xml version="1.0" encoding="iso-8859-1"?>
<!-- Generator: Adobe Illustrator 17.0.0, SVG Export Plug-In . SVG Version: 6.00 Build 0)  -->
<!DOCTYPE svg PUBLIC "-//W3C//DTD SVG 1.1//EN" "http://www.w3.org/Graphics/SVG/1.1/DTD/svg11.dtd">
<svg version="1.1" id="Layer_1" xmlns="http://www.w3.org/2000/svg" xmlns:xlink="http://www.w3.org/1999/xlink" x="0px" y="0px"
	 width="32px" height="32px" viewBox="0 0 32 32" style="enable-background:new 0 0 32 32;" xml:space="preserve">
<g>
	<defs>
		<rect id="SVGID_1_" width="32" height="32"/>
	</defs>
	<clipPath id="SVGID_2_">
		<use xlink:href="#SVGID_1_"  style="overflow:visible;"/>
	</clipPath>
	<g style="clip-path:url(#SVGID_2_);">
		<defs>
			<rect id="SVGID_3_" width="32" height="32"/>
		</defs>
		<clipPath id="SVGID_4_">
			<use xlink:href="#SVGID_3_"  style="overflow:visible;"/>
		</clipPath>
		<path style="clip-path:url(#SVGID_4_);" d="M29.919,14H27.82C26.976,8.979,23.021,5.023,18,4.18V2.082C18,0.934,17.105,0,16.001,0
			C14.896,0,14,0.934,14,2.082V4.18C8.979,5.023,5.024,8.979,4.18,14H2.083C0.933,14,0,14.895,0,16s0.933,2,2.083,2H4.18
			c0.844,5.021,4.799,8.977,9.82,9.82v2.098C14,31.066,14.896,32,16.001,32C17.105,32,18,31.066,18,29.918V27.82
			c5.021-0.843,8.976-4.799,9.82-9.82h2.099c1.148,0,2.082-0.895,2.082-2S31.067,14,29.919,14 M16,24c-4.411,0-8-3.588-8-8
			s3.589-8,8-8s8,3.588,8,8S20.411,24,16,24"/>
	</g>
</g>
</svg>
