<?xml version="1.0" encoding="iso-8859-1"?>
<!-- Generator: Adobe Illustrator 17.0.0, SVG Export Plug-In . SVG Version: 6.00 Build 0)  -->
<!DOCTYPE svg PUBLIC "-//W3C//DTD SVG 1.1//EN" "http://www.w3.org/Graphics/SVG/1.1/DTD/svg11.dtd">
<svg version="1.1" id="Layer_1" xmlns="http://www.w3.org/2000/svg" xmlns:xlink="http://www.w3.org/1999/xlink" x="0px" y="0px"
	 width="32px" height="32px" viewBox="0 0 32 32" style="enable-background:new 0 0 32 32;" xml:space="preserve">
<g>
	<defs>
		<rect id="SVGID_1_" width="32" height="32"/>
	</defs>
	<clipPath id="SVGID_2_">
		<use xlink:href="#SVGID_1_"  style="overflow:visible;"/>
	</clipPath>
	<g style="clip-path:url(#SVGID_2_);">
		<defs>
			<rect id="SVGID_3_" width="32" height="32"/>
		</defs>
		<clipPath id="SVGID_4_">
			<use xlink:href="#SVGID_3_"  style="overflow:visible;"/>
		</clipPath>
		<path style="clip-path:url(#SVGID_4_);" d="M16,0C7.16,0,0,7.164,0,16s7.16,16,16,16c8.836,0,16-7.164,16-16S24.836,0,16,0 M16,28
			C9.383,28,4,22.617,4,16S9.383,4,16,4s12,5.383,12,12S22.617,28,16,28"/>
		<path style="clip-path:url(#SVGID_4_);" d="M7.441,13.059c-0.539-0.139-1.082,0.201-1.199,0.74C6.121,14.34,6.461,14.879,7,15
			c0.082,0.02,0.14,0.02,0.218,0.02c0.461,0,0.864-0.32,0.981-0.781C8.32,13.7,7.98,13.18,7.441,13.059"/>
		<path style="clip-path:url(#SVGID_4_);" d="M8.16,9.799c-0.34,0.439-0.281,1.061,0.16,1.4C8.5,11.34,8.719,11.42,8.941,11.42
			c0.301,0,0.578-0.141,0.778-0.381c0.343-0.439,0.281-1.06-0.157-1.4C9.121,9.299,8.5,9.36,8.16,9.799"/>
		<path style="clip-path:url(#SVGID_4_);" d="M11.621,7.02c-0.5,0.24-0.699,0.84-0.461,1.32c0.18,0.36,0.52,0.58,0.903,0.58
			c0.136,0,0.296-0.041,0.437-0.121c0.48-0.24,0.699-0.84,0.461-1.32C12.699,6.979,12.121,6.76,11.621,7.02"/>
		<path style="clip-path:url(#SVGID_4_);" d="M25.719,13.699c-0.117-0.541-0.656-0.881-1.199-0.74
			c-0.539,0.121-0.86,0.66-0.739,1.199c0.122,0.461,0.52,0.762,0.981,0.762c0.078,0,0.16,0,0.219-0.022
			C25.52,14.779,25.86,14.238,25.719,13.699"/>
		<path style="clip-path:url(#SVGID_4_);" d="M15.941,8h0.02c0.539,0,0.98-0.461,0.98-1c0-0.561-0.441-1-1-1c-0.562,0-1,0.459-1,1
			C14.961,7.559,15.402,8,15.941,8"/>
		<path style="clip-path:url(#SVGID_4_);" d="M23.762,9.719c-0.34-0.439-0.961-0.5-1.402-0.16c-0.438,0.361-0.5,0.98-0.141,1.4
			c0.203,0.26,0.48,0.381,0.781,0.381c0.219,0,0.442-0.08,0.621-0.221C24.039,10.76,24.121,10.139,23.762,9.719"/>
		<path style="clip-path:url(#SVGID_4_);" d="M20.281,6.959c-0.5-0.24-1.102-0.02-1.34,0.48c-0.242,0.5-0.019,1.1,0.481,1.321
			c0.14,0.08,0.277,0.099,0.418,0.099c0.379,0,0.742-0.201,0.922-0.56C21,7.799,20.781,7.199,20.281,6.959"/>
		<path style="clip-path:url(#SVGID_4_);" d="M13.063,21.883c0.004,1.621,1.316,2.936,2.937,2.939
			c1.625-0.001,2.942-1.318,2.938-2.939C18.942,20.258,16,10.822,16,10.822S13.063,20.258,13.063,21.883"/>
	</g>
</g>
</svg>
