<?xml version="1.0" encoding="iso-8859-1"?>
<!-- Generator: Adobe Illustrator 17.0.0, SVG Export Plug-In . SVG Version: 6.00 Build 0)  -->
<!DOCTYPE svg PUBLIC "-//W3C//DTD SVG 1.1//EN" "http://www.w3.org/Graphics/SVG/1.1/DTD/svg11.dtd">
<svg version="1.1" id="Layer_1" xmlns="http://www.w3.org/2000/svg" xmlns:xlink="http://www.w3.org/1999/xlink" x="0px" y="0px"
	 width="32px" height="32px" viewBox="0 0 32 32" style="enable-background:new 0 0 32 32;" xml:space="preserve">
<g>
	<defs>
		<rect id="SVGID_1_" width="32" height="32"/>
	</defs>
	<clipPath id="SVGID_2_">
		<use xlink:href="#SVGID_1_"  style="overflow:visible;"/>
	</clipPath>
	<g style="clip-path:url(#SVGID_2_);">
		<defs>
			<rect id="SVGID_3_" width="32" height="32"/>
		</defs>
		<clipPath id="SVGID_4_">
			<use xlink:href="#SVGID_3_"  style="overflow:visible;"/>
		</clipPath>
		<path style="clip-path:url(#SVGID_4_);" d="M30,2H16c-0.508,0.004-1.207,0.164-1.61,0.48L0.793,14.422C0.289,14.803,0,15.385,0,16
			s0.289,1.197,0.793,1.578L14.39,29.519C14.793,29.836,15.492,29.996,16,30h14c1.101,0,2-0.901,2-2V4C32,2.9,31.101,2,30,2
			 M25.656,18.828c0.777,0.777,0.777,2.051,0,2.828s-2.051,0.777-2.828,0L20,18.828l-2.828,2.828c-0.778,0.777-2.051,0.777-2.828,0
			c-0.778-0.777-0.778-2.051,0-2.828L17.172,16l-2.828-2.828c-0.778-0.78-0.778-2.051,0-2.83c0.777-0.778,2.05-0.778,2.828,0
			L20,13.172l2.828-2.83c0.777-0.778,2.051-0.778,2.828,0c0.777,0.779,0.777,2.05,0,2.83L22.828,16L25.656,18.828z"/>
	</g>
</g>
</svg>
