<?xml version="1.0" encoding="iso-8859-1"?>
<!-- Generator: Adobe Illustrator 17.0.0, SVG Export Plug-In . SVG Version: 6.00 Build 0)  -->
<!DOCTYPE svg PUBLIC "-//W3C//DTD SVG 1.1//EN" "http://www.w3.org/Graphics/SVG/1.1/DTD/svg11.dtd">
<svg version="1.1" id="Layer_1" xmlns="http://www.w3.org/2000/svg" xmlns:xlink="http://www.w3.org/1999/xlink" x="0px" y="0px"
	 width="32px" height="32px" viewBox="0 0 32 32" style="enable-background:new 0 0 32 32;" xml:space="preserve">
<g>
	<defs>
		<rect id="SVGID_1_" width="32" height="32"/>
	</defs>
	<clipPath id="SVGID_2_">
		<use xlink:href="#SVGID_1_"  style="overflow:visible;"/>
	</clipPath>
	<g style="clip-path:url(#SVGID_2_);">
		<defs>
			<rect id="SVGID_3_" width="32" height="32"/>
		</defs>
		<clipPath id="SVGID_4_">
			<use xlink:href="#SVGID_3_"  style="overflow:visible;"/>
		</clipPath>
		<path style="clip-path:url(#SVGID_4_);" d="M26,0H6C2.684,0,0,2.684,0,6v20c0,3.313,2.684,6,6,6h20c3.313,0,6-2.687,6-6V6
			C32,2.684,29.313,0,26,0 M9,26c-1.66,0-3-1.34-3-3c0-1.656,1.34-3,3-3c1.656,0,3,1.344,3,3C12,24.66,10.656,26,9,26 M9,12
			c-1.66,0-3-1.34-3-3c0-1.656,1.34-3,3-3c1.656,0,3,1.344,3,3C12,10.66,10.656,12,9,12 M23,26c-1.66,0-3-1.34-3-3
			c0-1.656,1.34-3,3-3c1.656,0,3,1.344,3,3C26,24.66,24.656,26,23,26 M23,12c-1.66,0-3-1.34-3-3c0-1.656,1.34-3,3-3
			c1.656,0,3,1.344,3,3C26,10.66,24.656,12,23,12"/>
	</g>
</g>
</svg>
