<?xml version="1.0" encoding="iso-8859-1"?>
<!-- Generator: Adobe Illustrator 17.0.0, SVG Export Plug-In . SVG Version: 6.00 Build 0)  -->
<!DOCTYPE svg PUBLIC "-//W3C//DTD SVG 1.1//EN" "http://www.w3.org/Graphics/SVG/1.1/DTD/svg11.dtd">
<svg version="1.1" id="Layer_1" xmlns="http://www.w3.org/2000/svg" xmlns:xlink="http://www.w3.org/1999/xlink" x="0px" y="0px"
	 width="32px" height="32px" viewBox="0 0 32 32" style="enable-background:new 0 0 32 32;" xml:space="preserve">
<g>
	<defs>
		<rect id="SVGID_1_" width="32" height="32"/>
	</defs>
	<clipPath id="SVGID_2_">
		<use xlink:href="#SVGID_1_"  style="overflow:visible;"/>
	</clipPath>
	<g style="clip-path:url(#SVGID_2_);">
		<defs>
			<rect id="SVGID_3_" width="32" height="32"/>
		</defs>
		<clipPath id="SVGID_4_">
			<use xlink:href="#SVGID_3_"  style="overflow:visible;"/>
		</clipPath>
		<path style="clip-path:url(#SVGID_4_);" d="M31,2H18c0-1.104-0.895-2-2-2s-2,0.896-2,2H1C0.45,2,0,2.45,0,3v20c0,0.55,0.45,1,1,1
			h30c0.55,0,1-0.45,1-1V3C32,2.45,31.55,2,31,2"/>
		<path style="clip-path:url(#SVGID_4_);" d="M26.236,26h-4.473l2.448,4.895c0.35,0.701,1.057,1.105,1.79,1.105
			c0.301,0,0.606-0.067,0.893-0.211c0.988-0.494,1.388-1.695,0.895-2.684L26.236,26z"/>
		<path style="clip-path:url(#SVGID_4_);" d="M4.211,29.105c-0.494,0.988-0.093,2.189,0.895,2.684C5.393,31.933,5.698,32,5.999,32
			c0.733,0,1.44-0.405,1.79-1.106L10.236,26H5.764L4.211,29.105z"/>
	</g>
</g>
</svg>
