<?xml version="1.0" encoding="iso-8859-1"?>
<!-- Generator: Adobe Illustrator 17.0.0, SVG Export Plug-In . SVG Version: 6.00 Build 0)  -->
<!DOCTYPE svg PUBLIC "-//W3C//DTD SVG 1.1//EN" "http://www.w3.org/Graphics/SVG/1.1/DTD/svg11.dtd">
<svg version="1.1" id="Layer_1" xmlns="http://www.w3.org/2000/svg" xmlns:xlink="http://www.w3.org/1999/xlink" x="0px" y="0px"
	 width="32px" height="32px" viewBox="0 0 32 32" style="enable-background:new 0 0 32 32;" xml:space="preserve">
<g>
	<defs>
		<rect id="SVGID_1_" width="32" height="32"/>
	</defs>
	<clipPath id="SVGID_2_">
		<use xlink:href="#SVGID_1_"  style="overflow:visible;"/>
	</clipPath>
	<g style="clip-path:url(#SVGID_2_);">
		<defs>
			<rect id="SVGID_3_" width="32" height="32"/>
		</defs>
		<clipPath id="SVGID_4_">
			<use xlink:href="#SVGID_3_"  style="overflow:visible;"/>
		</clipPath>
		<path style="clip-path:url(#SVGID_4_);" d="M10,26H5c-0.553,0-1-0.447-1-1s0.447-1,1-1h5v-4H5c-0.553,0-1-0.447-1-1s0.447-1,1-1h5
			v-4H5c-0.553,0-1-0.447-1-1s0.447-1,1-1h5V6H0v26h20v-4H10V26z"/>
		<path style="clip-path:url(#SVGID_4_);" d="M12,26h20V0H12V26z M27,20H17c-0.551,0-1-0.447-1-1s0.449-1,1-1h10
			c0.555,0,1,0.447,1,1S27.555,20,27,20 M27,14H17c-0.551,0-1-0.447-1-1s0.449-1,1-1h10c0.555,0,1,0.447,1,1S27.555,14,27,14 M27,8
			H17c-0.551,0-1-0.447-1-1s0.449-1,1-1h10c0.555,0,1,0.447,1,1S27.555,8,27,8"/>
	</g>
</g>
</svg>
