<?xml version="1.0" encoding="iso-8859-1"?>
<!-- Generator: Adobe Illustrator 17.0.0, SVG Export Plug-In . SVG Version: 6.00 Build 0)  -->
<!DOCTYPE svg PUBLIC "-//W3C//DTD SVG 1.1//EN" "http://www.w3.org/Graphics/SVG/1.1/DTD/svg11.dtd">
<svg version="1.1" id="Layer_1" xmlns="http://www.w3.org/2000/svg" xmlns:xlink="http://www.w3.org/1999/xlink" x="0px" y="0px"
	 width="32px" height="32px" viewBox="0 0 32 32" style="enable-background:new 0 0 32 32;" xml:space="preserve">
<g>
	<defs>
		<rect id="SVGID_1_" width="32" height="32"/>
	</defs>
	<clipPath id="SVGID_2_">
		<use xlink:href="#SVGID_1_"  style="overflow:visible;"/>
	</clipPath>
	<polygon style="clip-path:url(#SVGID_2_);" points="20.002,0 20.002,8 28,8 	"/>
</g>
<g>
	<defs>
		<rect id="SVGID_3_" width="32" height="32"/>
	</defs>
	<clipPath id="SVGID_4_">
		<use xlink:href="#SVGID_3_"  style="overflow:visible;"/>
	</clipPath>
	<g style="clip-path:url(#SVGID_4_);">
		<defs>
			<rect id="SVGID_5_" width="32" height="32"/>
		</defs>
		<clipPath id="SVGID_6_">
			<use xlink:href="#SVGID_5_"  style="overflow:visible;"/>
		</clipPath>
		<path style="clip-path:url(#SVGID_6_);" d="M18.002,8V0h-14v32H28V10h-7.998C18.896,10,18.002,9.105,18.002,8 M23.002,28h-14
			c-0.551,0-1-0.447-1-1s0.449-1,1-1h14c0.555,0,1,0.447,1,1S23.557,28,23.002,28 M23.002,22h-14c-0.551,0-1-0.447-1-1s0.449-1,1-1
			h14c0.555,0,1,0.447,1,1S23.557,22,23.002,22 M24.002,15c0,0.553-0.445,1-1,1h-14c-0.551,0-1-0.447-1-1s0.449-1,1-1h14
			C23.557,14,24.002,14.447,24.002,15"/>
	</g>
</g>
</svg>
