<?xml version="1.0" encoding="iso-8859-1"?>
<!-- Generator: Adobe Illustrator 17.0.0, SVG Export Plug-In . SVG Version: 6.00 Build 0)  -->
<!DOCTYPE svg PUBLIC "-//W3C//DTD SVG 1.1//EN" "http://www.w3.org/Graphics/SVG/1.1/DTD/svg11.dtd">
<svg version="1.1" id="Layer_1" xmlns="http://www.w3.org/2000/svg" xmlns:xlink="http://www.w3.org/1999/xlink" x="0px" y="0px"
	 width="32px" height="32px" viewBox="0 0 32 32" style="enable-background:new 0 0 32 32;" xml:space="preserve">
<g>
	<defs>
		<rect id="SVGID_1_" width="32" height="32"/>
	</defs>
	<clipPath id="SVGID_2_">
		<use xlink:href="#SVGID_1_"  style="overflow:visible;"/>
	</clipPath>
	<g style="clip-path:url(#SVGID_2_);">
		<defs>
			<rect id="SVGID_3_" width="32" height="32"/>
		</defs>
		<clipPath id="SVGID_4_">
			<use xlink:href="#SVGID_3_"  style="overflow:visible;"/>
		</clipPath>
		<path style="clip-path:url(#SVGID_4_);" d="M6.569,9.389L4.018,25.782c-0.086,0.617,0.121,1.222,0.547,1.652
			c0.43,0.428,1.035,0.633,1.652,0.547l16.395-2.547c0.5-0.059,0.961-0.299,1.32-0.648c0.219-0.223,0.399-0.493,0.512-0.788
			c0.312-0.783,0.125-1.627-0.434-2.189l-4.14-4.141l8.125-8.107C29.53,8.024,29.534,5.536,27.999,4
			c-1.532-1.531-4.02-1.529-5.559,0.006l-8.125,8.108l-4.141-4.141C9.616,7.416,8.788,7.246,8.003,7.555
			C7.71,7.672,7.44,7.852,7.217,8.071C6.866,8.426,6.628,8.889,6.569,9.389"/>
	</g>
</g>
</svg>
