<?xml version="1.0" encoding="iso-8859-1"?>
<!-- Generator: Adobe Illustrator 17.0.0, SVG Export Plug-In . SVG Version: 6.00 Build 0)  -->
<!DOCTYPE svg PUBLIC "-//W3C//DTD SVG 1.1//EN" "http://www.w3.org/Graphics/SVG/1.1/DTD/svg11.dtd">
<svg version="1.1" id="Layer_1" xmlns="http://www.w3.org/2000/svg" xmlns:xlink="http://www.w3.org/1999/xlink" x="0px" y="0px"
	 width="32px" height="32px" viewBox="0 0 32 32" style="enable-background:new 0 0 32 32;" xml:space="preserve">
<g>
	<defs>
		<rect id="SVGID_1_" width="32" height="32"/>
	</defs>
	<clipPath id="SVGID_2_">
		<use xlink:href="#SVGID_1_"  style="overflow:visible;"/>
	</clipPath>
	<g style="clip-path:url(#SVGID_2_);">
		<defs>
			<rect id="SVGID_3_" width="32" height="32"/>
		</defs>
		<clipPath id="SVGID_4_">
			<use xlink:href="#SVGID_3_"  style="overflow:visible;"/>
		</clipPath>
		<path style="clip-path:url(#SVGID_4_);" d="M4.48,17.606l9.94,13.601C14.802,31.711,15.384,31.998,16,32
			c0.615-0.002,1.197-0.289,1.579-0.793l9.94-13.601c0.317-0.4,0.477-0.905,0.481-1.413c-0.002-0.315-0.067-0.638-0.195-0.934
			c-0.341-0.785-1.082-1.256-1.884-1.259h-5.947l0.013-10.005C19.987,1.789,18.202,0,16,0c-2.203,0-3.988,1.789-3.988,3.995L12,14
			H6.052c-0.801,0.003-1.517,0.474-1.858,1.259C4.066,15.555,4.002,15.878,4,16.193C4.003,16.701,4.163,17.206,4.48,17.606"/>
	</g>
</g>
</svg>
