<?xml version="1.0" encoding="iso-8859-1"?>
<!-- Generator: Adobe Illustrator 17.0.0, SVG Export Plug-In . SVG Version: 6.00 Build 0)  -->
<!DOCTYPE svg PUBLIC "-//W3C//DTD SVG 1.1//EN" "http://www.w3.org/Graphics/SVG/1.1/DTD/svg11.dtd">
<svg version="1.1" id="Layer_1" xmlns="http://www.w3.org/2000/svg" xmlns:xlink="http://www.w3.org/1999/xlink" x="0px" y="0px"
	 width="32px" height="32px" viewBox="0 0 32 32" style="enable-background:new 0 0 32 32;" xml:space="preserve">
<g>
	<defs>
		<rect id="SVGID_1_" width="32" height="32"/>
	</defs>
	<clipPath id="SVGID_2_">
		<use xlink:href="#SVGID_1_"  style="overflow:visible;"/>
	</clipPath>
	<g style="clip-path:url(#SVGID_2_);">
		<defs>
			<rect id="SVGID_3_" width="32" height="32"/>
		</defs>
		<clipPath id="SVGID_4_">
			<use xlink:href="#SVGID_3_"  style="overflow:visible;"/>
		</clipPath>
		<path style="clip-path:url(#SVGID_4_);" d="M28,26H4c-1.098,0-2,0.9-2,2v2c0,1.1,0.902,2,2,2h24c1.102,0,2-0.9,2-2v-2
			C30,26.9,29.102,26,28,26"/>
		<path style="clip-path:url(#SVGID_4_);" d="M14.055,23.35c1.074,0.867,2.812,0.869,3.883-0.008l9.258-9.513
			c1.074-0.875,1.074-2.297,0-3.172C26.653,10.225,25.949,9.998,25.25,10H20V4c0-2.209-1.789-4-4-4c-2.207,0-4,1.791-4,4v6H6.754
			c-0.711-0.002-1.406,0.225-1.949,0.657c-1.074,0.875-1.074,2.297,0,3.172L14.055,23.35z"/>
	</g>
</g>
</svg>
