<?xml version="1.0" encoding="iso-8859-1"?>
<!-- Generator: Adobe Illustrator 17.0.0, SVG Export Plug-In . SVG Version: 6.00 Build 0)  -->
<!DOCTYPE svg PUBLIC "-//W3C//DTD SVG 1.1//EN" "http://www.w3.org/Graphics/SVG/1.1/DTD/svg11.dtd">
<svg version="1.1" id="Layer_1" xmlns="http://www.w3.org/2000/svg" xmlns:xlink="http://www.w3.org/1999/xlink" x="0px" y="0px"
	 width="32px" height="32px" viewBox="0 0 32 32" style="enable-background:new 0 0 32 32;" xml:space="preserve">
<g>
	<defs>
		<rect id="SVGID_1_" width="32" height="32"/>
	</defs>
	<clipPath id="SVGID_2_">
		<use xlink:href="#SVGID_1_"  style="overflow:visible;"/>
	</clipPath>
	<g style="clip-path:url(#SVGID_2_);">
		<defs>
			<rect id="SVGID_3_" width="32" height="32"/>
		</defs>
		<clipPath id="SVGID_4_">
			<use xlink:href="#SVGID_3_"  style="overflow:visible;"/>
		</clipPath>
		<path style="clip-path:url(#SVGID_4_);" d="M17.102,5c-0.387-0.389-1.023-0.389-1.414,0L12.86,7.828
			c-0.391,0.389-0.391,1.026,0,1.414l1.554,1.555L4.391,21.172C3.567,22.021,0.793,27.596,0,30.416L1.586,32
			c2.828-0.789,8.414-3.562,9.266-4.387l10.383-9.994l1.523,1.524c0.391,0.388,1.028,0.388,1.414,0L27,16.314
			c0.391-0.388,0.391-1.025,0-1.414L17.102,5z"/>
		<path style="clip-path:url(#SVGID_4_);" d="M30.535,1.465c-1.949-1.953-5.117-1.953-7.07,0L19.929,5L27,12.072l3.535-3.537
			C32.488,6.584,32.488,3.418,30.535,1.465"/>
	</g>
</g>
</svg>
