<?xml version="1.0" encoding="iso-8859-1"?>
<!-- Generator: Adobe Illustrator 17.0.0, SVG Export Plug-In . SVG Version: 6.00 Build 0)  -->
<!DOCTYPE svg PUBLIC "-//W3C//DTD SVG 1.1//EN" "http://www.w3.org/Graphics/SVG/1.1/DTD/svg11.dtd">
<svg version="1.1" id="Layer_1" xmlns="http://www.w3.org/2000/svg" xmlns:xlink="http://www.w3.org/1999/xlink" x="0px" y="0px"
	 width="32px" height="32px" viewBox="0 0 32 32" style="enable-background:new 0 0 32 32;" xml:space="preserve">
<g>
	<defs>
		<rect id="SVGID_1_" width="32" height="32"/>
	</defs>
	<clipPath id="SVGID_2_">
		<use xlink:href="#SVGID_1_"  style="overflow:visible;"/>
	</clipPath>
	<g style="clip-path:url(#SVGID_2_);">
		<defs>
			<rect id="SVGID_3_" width="32" height="32"/>
		</defs>
		<clipPath id="SVGID_4_">
			<use xlink:href="#SVGID_3_"  style="overflow:visible;"/>
		</clipPath>
		<path style="clip-path:url(#SVGID_4_);" d="M30.828,1.172c-1.563-1.562-4.094-1.562-5.656,0l-1.414,1.414l5.656,5.656l1.414-1.414
			C32.39,5.266,32.39,2.735,30.828,1.172"/>
		<polygon style="clip-path:url(#SVGID_4_);" points="9.617,16.73 8.215,23.785 15.273,22.382 28,9.656 22.344,4 		"/>
		<polygon style="clip-path:url(#SVGID_4_);" points="22,28 4,28 4,10 12,10 12,6 4,6 0,6 0,32 26,32 26,20 22,20 		"/>
	</g>
</g>
</svg>
