<?xml version="1.0" encoding="iso-8859-1"?>
<!-- Generator: Adobe Illustrator 17.0.0, SVG Export Plug-In . SVG Version: 6.00 Build 0)  -->
<!DOCTYPE svg PUBLIC "-//W3C//DTD SVG 1.1//EN" "http://www.w3.org/Graphics/SVG/1.1/DTD/svg11.dtd">
<svg version="1.1" id="Layer_1" xmlns="http://www.w3.org/2000/svg" xmlns:xlink="http://www.w3.org/1999/xlink" x="0px" y="0px"
	 width="32px" height="32px" viewBox="0 0 32 32" style="enable-background:new 0 0 32 32;" xml:space="preserve">
<g>
	<defs>
		<rect id="SVGID_1_" width="32" height="32"/>
	</defs>
	<clipPath id="SVGID_2_">
		<use xlink:href="#SVGID_1_"  style="overflow:visible;"/>
	</clipPath>
	<g style="clip-path:url(#SVGID_2_);">
		<defs>
			<rect id="SVGID_3_" width="32" height="32"/>
		</defs>
		<clipPath id="SVGID_4_">
			<use xlink:href="#SVGID_3_"  style="overflow:visible;"/>
		</clipPath>
		<path style="clip-path:url(#SVGID_4_);" d="M6.748,18h18.5c0.707,0.002,1.406-0.225,1.945-0.656c1.075-0.875,1.075-2.297,0-3.172
			l-9.25-9.522c-1.074-0.867-2.812-0.869-3.882,0.008l-9.258,9.514c-1.074,0.875-1.074,2.297,0,3.172
			C5.346,17.775,6.049,18.002,6.748,18"/>
		<path style="clip-path:url(#SVGID_4_);" d="M25.998,22h-20c-1.098,0-2,0.9-2,2v2c0,1.1,0.902,2,2,2h20c1.102,0,2-0.9,2-2v-2
			C27.998,22.9,27.1,22,25.998,22"/>
	</g>
</g>
</svg>
