<?xml version="1.0" encoding="iso-8859-1"?>
<!-- Generator: Adobe Illustrator 17.0.0, SVG Export Plug-In . SVG Version: 6.00 Build 0)  -->
<!DOCTYPE svg PUBLIC "-//W3C//DTD SVG 1.1//EN" "http://www.w3.org/Graphics/SVG/1.1/DTD/svg11.dtd">
<svg version="1.1" id="Layer_1" xmlns="http://www.w3.org/2000/svg" xmlns:xlink="http://www.w3.org/1999/xlink" x="0px" y="0px"
	 width="32px" height="32px" viewBox="0 0 32 32" style="enable-background:new 0 0 32 32;" xml:space="preserve">
<g>
	<defs>
		<rect id="SVGID_1_" width="32" height="32"/>
	</defs>
	<clipPath id="SVGID_2_">
		<use xlink:href="#SVGID_1_"  style="overflow:visible;"/>
	</clipPath>
	<g style="clip-path:url(#SVGID_2_);">
		<defs>
			<rect id="SVGID_3_" width="32" height="32"/>
		</defs>
		<clipPath id="SVGID_4_">
			<use xlink:href="#SVGID_3_"  style="overflow:visible;"/>
		</clipPath>
		<path style="clip-path:url(#SVGID_4_);" d="M28,0H4C1.801,0,0,1.801,0,4v24c0,2.199,1.801,4,4,4h24c2.199,0,4-1.801,4-4V4
			C32,1.801,30.199,0,28,0 M4.004,17.5c0-0.828,0.672-1.5,1.496-1.5c0.414,0,0.789,0.168,1.063,0.438l2.378,2.382l1.938-1.941
			C11.465,16.293,12.234,16,13,16c0.77,0,1.535,0.293,2.121,0.879c1.172,1.172,1.172,3.07,0,4.242l-1.937,1.942l2.379,2.378
			C15.832,25.711,16,26.086,16,26.5c0,0.828-0.672,1.5-1.5,1.5h-9C4.672,28,4,27.328,4,26.5L4.004,17.5z M17.5,4l7.484,0.004
			C24.988,4.004,24.996,4,25,4c0.008,0,0.012,0.004,0.02,0.004h1.48c0.828,0,1.5,0.668,1.5,1.496v1.488v0.028l-0.004,7.488
			c0,0.824-0.668,1.496-1.496,1.496c-0.414,0-0.789-0.164-1.059-0.441l-2.378-2.379l-1.942,1.941c-1.172,1.172-3.07,1.172-4.242,0
			c-1.172-1.172-1.172-3.07,0-4.242l1.941-1.941l-2.379-2.379C16.168,6.289,16.004,5.914,16,5.5C16,4.672,16.676,4,17.5,4"/>
	</g>
</g>
</svg>
