<?xml version="1.0" encoding="iso-8859-1"?>
<!-- Generator: Adobe Illustrator 17.0.0, SVG Export Plug-In . SVG Version: 6.00 Build 0)  -->
<!DOCTYPE svg PUBLIC "-//W3C//DTD SVG 1.1//EN" "http://www.w3.org/Graphics/SVG/1.1/DTD/svg11.dtd">
<svg version="1.1" id="Layer_1" xmlns="http://www.w3.org/2000/svg" xmlns:xlink="http://www.w3.org/1999/xlink" x="0px" y="0px"
	 width="32px" height="32px" viewBox="0 0 32 32" style="enable-background:new 0 0 32 32;" xml:space="preserve">
<g>
	<defs>
		<rect id="SVGID_1_" width="32" height="32"/>
	</defs>
	<clipPath id="SVGID_2_">
		<use xlink:href="#SVGID_1_"  style="overflow:visible;"/>
	</clipPath>
	<g style="clip-path:url(#SVGID_2_);">
		<defs>
			<rect id="SVGID_3_" width="32" height="32"/>
		</defs>
		<clipPath id="SVGID_4_">
			<use xlink:href="#SVGID_3_"  style="overflow:visible;"/>
		</clipPath>
		<path style="clip-path:url(#SVGID_4_);" d="M30.5,0.004h-1.48C29.017,0.004,29.008,0,29.004,0c-0.008,0-0.012,0.004-0.02,0.004
			L21.5,0C20.677,0,20,0.672,20,1.5c0.004,0.414,0.168,0.789,0.441,1.059l2.379,2.379L19,8.758c-1.172,1.172-1.172,3.07,0,4.242
			c1.172,1.172,3.07,1.172,4.242,0l3.82-3.82l2.379,2.379C29.712,11.836,30.087,12,30.5,12c0.828,0,1.496-0.672,1.496-1.496
			L32,3.012V2.984V1.5C32,0.672,31.329,0.004,30.5,0.004"/>
		<path style="clip-path:url(#SVGID_4_);" d="M1.5,12.004c0.414,0,0.789-0.168,1.059-0.438l2.378-2.378l3.817,3.816
			c1.172,1.172,3.07,1.172,4.242,0c0.586-0.586,0.879-1.356,0.879-2.121c0-0.77-0.293-1.535-0.879-2.121L9.181,4.945l2.382-2.379
			C11.833,2.293,12,1.918,12,1.504c0-0.824-0.672-1.496-1.5-1.496l-9-0.004c-0.828,0-1.5,0.672-1.5,1.5v9
			C0.001,11.332,0.673,12.004,1.5,12.004"/>
		<path style="clip-path:url(#SVGID_4_);" d="M8.758,18.875l-3.816,3.82l-2.379-2.379c-0.27-0.277-0.645-0.441-1.059-0.441
			c-0.828,0-1.496,0.672-1.496,1.496l-0.004,7.492v0.028v1.484c0,0.828,0.672,1.496,1.5,1.496h1.481
			c0.003,0,0.011,0.004,0.015,0.004c0.008,0,0.012-0.004,0.02-0.004l7.484,0.004c0.824,0,1.5-0.672,1.5-1.5
			c-0.004-0.414-0.168-0.789-0.441-1.059l-2.379-2.378L13,23.117c1.172-1.172,1.172-3.07,0-4.242S9.93,17.703,8.758,18.875"/>
		<path style="clip-path:url(#SVGID_4_);" d="M30.5,19.879c-0.414,0-0.789,0.168-1.059,0.437l-2.379,2.379l-3.82-3.816
			c-1.172-1.172-3.07-1.172-4.242,0c-0.586,0.586-0.879,1.355-0.879,2.121c0,0.77,0.293,1.535,0.879,2.121l3.82,3.817l-2.383,2.378
			C20.169,29.59,20,29.965,20,30.379c0,0.824,0.672,1.496,1.5,1.496l9,0.004c0.828,0,1.5-0.672,1.5-1.5v-9
			C32,20.551,31.329,19.879,30.5,19.879"/>
	</g>
</g>
</svg>
