<?xml version="1.0" encoding="iso-8859-1"?>
<!-- Generator: Adobe Illustrator 17.0.0, SVG Export Plug-In . SVG Version: 6.00 Build 0)  -->
<!DOCTYPE svg PUBLIC "-//W3C//DTD SVG 1.1//EN" "http://www.w3.org/Graphics/SVG/1.1/DTD/svg11.dtd">
<svg version="1.1" id="Layer_1" xmlns="http://www.w3.org/2000/svg" xmlns:xlink="http://www.w3.org/1999/xlink" x="0px" y="0px"
	 width="32px" height="32px" viewBox="0 0 32 32" style="enable-background:new 0 0 32 32;" xml:space="preserve">
<g>
	<defs>
		<rect id="SVGID_1_" width="32" height="32"/>
	</defs>
	<clipPath id="SVGID_2_">
		<use xlink:href="#SVGID_1_"  style="overflow:visible;"/>
	</clipPath>
	<g style="clip-path:url(#SVGID_2_);">
		<defs>
			<rect id="SVGID_3_" width="32" height="32"/>
		</defs>
		<clipPath id="SVGID_4_">
			<use xlink:href="#SVGID_3_"  style="overflow:visible;"/>
		</clipPath>
		<path style="clip-path:url(#SVGID_4_);" d="M26.379,23.551C29.804,20.607,32,17.1,32,16c0-2-7.164-12-16-12
			c-2.552,0-4.953,0.845-7.09,2.082L3.414,0.586c-0.781-0.781-2.047-0.781-2.828,0s-0.781,2.047,0,2.828l28,28
			C28.977,31.805,29.488,32,30,32s1.023-0.195,1.414-0.586c0.781-0.781,0.781-2.047,0-2.828L26.379,23.551z M16,10
			c3.316,0,6,2.686,6,6c0,0.925-0.226,1.79-0.603,2.569l-7.965-7.965C14.21,10.226,15.075,10,16,10"/>
		<path style="clip-path:url(#SVGID_4_);" d="M10.093,16.921l-6.53-6.53C1.338,12.786,0,15.137,0,16c0,2,7.164,12,16,12
			c1.515,0,2.976-0.31,4.365-0.807l-5.286-5.286C12.509,21.508,10.492,19.492,10.093,16.921"/>
	</g>
</g>
</svg>
