<?xml version="1.0" encoding="iso-8859-1"?>
<!-- Generator: Adobe Illustrator 17.0.0, SVG Export Plug-In . SVG Version: 6.00 Build 0)  -->
<!DOCTYPE svg PUBLIC "-//W3C//DTD SVG 1.1//EN" "http://www.w3.org/Graphics/SVG/1.1/DTD/svg11.dtd">
<svg version="1.1" id="Layer_1" xmlns="http://www.w3.org/2000/svg" xmlns:xlink="http://www.w3.org/1999/xlink" x="0px" y="0px"
	 width="32px" height="32px" viewBox="0 0 32 32" style="enable-background:new 0 0 32 32;" xml:space="preserve">
<g>
	<defs>
		<rect id="SVGID_1_" width="32" height="32"/>
	</defs>
	<clipPath id="SVGID_2_">
		<use xlink:href="#SVGID_1_"  style="overflow:visible;"/>
	</clipPath>
	<g style="clip-path:url(#SVGID_2_);">
		<defs>
			<rect id="SVGID_3_" width="32" height="32"/>
		</defs>
		<clipPath id="SVGID_4_">
			<use xlink:href="#SVGID_3_"  style="overflow:visible;"/>
		</clipPath>
		<path style="clip-path:url(#SVGID_4_);" d="M16.02,0C7.176,0,0,7.162,0,16c0,8.836,7.176,16,16.02,16C24.867,32,32,24.836,32,16
			C32,7.162,24.867,0,16.02,0 M8,12c0-1.104,0.895-2,2-2c1.109,0,2.004,0.896,2.004,2c0,1.105-0.895,2-2.004,2
			C8.895,14,8,13.105,8,12 M16,26c-3.312,0-6-1.791-6-4s2.688-4,6-4c3.313,0,6,1.791,6,4S19.313,26,16,26 M22,14
			c-1.105,0-2-0.895-2-2c0-1.104,0.895-2,2-2c1.109,0,2.004,0.896,2.004,2C24.004,13.105,23.109,14,22,14"/>
	</g>
</g>
</svg>
