<?xml version="1.0" encoding="iso-8859-1"?>
<!-- Generator: Adobe Illustrator 17.0.0, SVG Export Plug-In . SVG Version: 6.00 Build 0)  -->
<!DOCTYPE svg PUBLIC "-//W3C//DTD SVG 1.1//EN" "http://www.w3.org/Graphics/SVG/1.1/DTD/svg11.dtd">
<svg version="1.1" id="Layer_1" xmlns="http://www.w3.org/2000/svg" xmlns:xlink="http://www.w3.org/1999/xlink" x="0px" y="0px"
	 width="32px" height="32px" viewBox="0 0 32 32" style="enable-background:new 0 0 32 32;" xml:space="preserve">
<g>
	<defs>
		<rect id="SVGID_1_" width="32" height="32"/>
	</defs>
	<clipPath id="SVGID_2_">
		<use xlink:href="#SVGID_1_"  style="overflow:visible;"/>
	</clipPath>
	<g style="clip-path:url(#SVGID_2_);">
		<defs>
			<rect id="SVGID_3_" width="32" height="32"/>
		</defs>
		<clipPath id="SVGID_4_">
			<use xlink:href="#SVGID_3_"  style="overflow:visible;"/>
		</clipPath>
		<path style="clip-path:url(#SVGID_4_);" d="M16.019,0C7.176,0,0,7.163,0,16c0,8.836,7.176,16,16.019,16C24.867,32,32,24.836,32,16
			C32,7.163,24.867,0,16.019,0 M22,10c1.109,0,2.004,0.897,2.004,2c0,1.106-0.895,2-2.004,2c-1.106,0-2-0.894-2-2
			C20,10.897,20.894,10,22,10 M10,10c1.109,0,2.004,0.897,2.004,2c0,1.106-0.895,2-2.004,2c-1.106,0-2-0.894-2-2
			C8,10.897,8.894,10,10,10 M24.449,24.895C24.304,24.967,24.152,25,24,25c-0.363,0-0.719-0.203-0.895-0.552
			C23.035,24.313,21.262,21,16.012,21c-5.27,0-7.047,3.313-7.122,3.454c-0.25,0.486-0.851,0.679-1.339,0.435
			c-0.493-0.25-0.692-0.844-0.446-1.336C7.199,23.368,9.457,19,16.012,19c6.531,0,8.789,4.368,8.882,4.553
			C25.14,24.047,24.941,24.647,24.449,24.895"/>
	</g>
</g>
</svg>
