<?xml version="1.0" encoding="iso-8859-1"?>
<!-- Generator: Adobe Illustrator 17.0.0, SVG Export Plug-In . SVG Version: 6.00 Build 0)  -->
<!DOCTYPE svg PUBLIC "-//W3C//DTD SVG 1.1//EN" "http://www.w3.org/Graphics/SVG/1.1/DTD/svg11.dtd">
<svg version="1.1" id="Layer_1" xmlns="http://www.w3.org/2000/svg" xmlns:xlink="http://www.w3.org/1999/xlink" x="0px" y="0px"
	 width="32px" height="32px" viewBox="0 0 32 32" style="enable-background:new 0 0 32 32;" xml:space="preserve">
<g>
	<defs>
		<rect id="SVGID_1_" width="32" height="32"/>
	</defs>
	<clipPath id="SVGID_2_">
		<use xlink:href="#SVGID_1_"  style="overflow:visible;"/>
	</clipPath>
	<g style="clip-path:url(#SVGID_2_);">
		<defs>
			<rect id="SVGID_3_" width="32" height="32"/>
		</defs>
		<clipPath id="SVGID_4_">
			<use xlink:href="#SVGID_3_"  style="overflow:visible;"/>
		</clipPath>
		<path style="clip-path:url(#SVGID_4_);" d="M29.25,13.062L18.375,3.804c-1-1.072-2.625-1.072-3.625,0
			C14.258,4.347,14,5.05,14,5.749v4.547L6.375,3.804c-1-1.072-2.625-1.072-3.625,0C2.258,4.347,2,5.05,2,5.749v18.499
			c0,0.71,0.258,1.406,0.75,1.947c1,1.074,2.625,1.074,3.625,0L14,19.712v4.536c0,0.71,0.258,1.406,0.75,1.947
			c1,1.074,2.625,1.074,3.625,0l10.883-9.25C30.25,15.871,30.25,14.132,29.25,13.062"/>
	</g>
</g>
</svg>
