<?xml version="1.0" encoding="iso-8859-1"?>
<!-- Generator: Adobe Illustrator 17.0.0, SVG Export Plug-In . SVG Version: 6.00 Build 0)  -->
<!DOCTYPE svg PUBLIC "-//W3C//DTD SVG 1.1//EN" "http://www.w3.org/Graphics/SVG/1.1/DTD/svg11.dtd">
<svg version="1.1" id="Layer_1" xmlns="http://www.w3.org/2000/svg" xmlns:xlink="http://www.w3.org/1999/xlink" x="0px" y="0px"
	 width="32px" height="32px" viewBox="0 0 32 32" style="enable-background:new 0 0 32 32;" xml:space="preserve">
<g>
	<defs>
		<rect id="SVGID_1_" width="32" height="32"/>
	</defs>
	<clipPath id="SVGID_2_">
		<use xlink:href="#SVGID_1_"  style="overflow:visible;"/>
	</clipPath>
	<g style="clip-path:url(#SVGID_2_);">
		<defs>
			<rect id="SVGID_3_" width="32" height="32"/>
		</defs>
		<clipPath id="SVGID_4_">
			<use xlink:href="#SVGID_3_"  style="overflow:visible;"/>
		</clipPath>
		<path style="clip-path:url(#SVGID_4_);" d="M26,0H6v18h20V0z M21,14H11c-0.551,0-1-0.447-1-1s0.449-1,1-1h10c0.555,0,1,0.447,1,1
			S21.555,14,21,14 M21,8H11c-0.551,0-1-0.447-1-1s0.449-1,1-1h10c0.555,0,1,0.447,1,1S21.555,8,21,8 M30,20H2c-1.098,0-2,0.9-2,2v8
			c0,1.1,0.902,2,2,2h28c1.102,0,2-0.9,2-2v-8C32,20.9,31.102,20,30,20 M6,28c-1.105,0-2-0.895-2-2s0.895-2,2-2s2,0.895,2,2
			S7.105,28,6,28 M12,28c-1.105,0-2-0.895-2-2s0.895-2,2-2s2,0.895,2,2S13.105,28,12,28"/>
	</g>
</g>
</svg>
