<?xml version="1.0" encoding="iso-8859-1"?>
<!-- Generator: Adobe Illustrator 17.0.0, SVG Export Plug-In . SVG Version: 6.00 Build 0)  -->
<!DOCTYPE svg PUBLIC "-//W3C//DTD SVG 1.1//EN" "http://www.w3.org/Graphics/SVG/1.1/DTD/svg11.dtd">
<svg version="1.1" id="Layer_1" xmlns="http://www.w3.org/2000/svg" xmlns:xlink="http://www.w3.org/1999/xlink" x="0px" y="0px"
	 width="32px" height="32px" viewBox="0 0 32 32" style="enable-background:new 0 0 32 32;" xml:space="preserve">
<g>
	<defs>
		<rect id="SVGID_1_" width="32" height="32"/>
	</defs>
	<clipPath id="SVGID_2_">
		<use xlink:href="#SVGID_1_"  style="overflow:visible;"/>
	</clipPath>
	<g style="clip-path:url(#SVGID_2_);">
		<defs>
			<rect id="SVGID_3_" width="32" height="32"/>
		</defs>
		<clipPath id="SVGID_4_">
			<use xlink:href="#SVGID_3_"  style="overflow:visible;"/>
		</clipPath>
		<path style="clip-path:url(#SVGID_4_);" d="M20,2.286h-4.058C15.957,2.189,16,2.102,16,2c0-1.1-0.9-2-2-2H6C4.9,0,4,0.9,4,2
			c0,0.102,0.043,0.189,0.058,0.286H0V6h20V2.286z"/>
		<polygon style="clip-path:url(#SVGID_4_);" points="18,8 2,8 2,28 0,28 0,32 20,32 20,28 18,28 		"/>
		<path style="clip-path:url(#SVGID_4_);" d="M20,8v18h6c0-3.314,2.686-6,6-6V8H20z M28,16h-4v-4h4V16z"/>
	</g>
</g>
</svg>
