<?xml version="1.0" encoding="iso-8859-1"?>
<!-- Generator: Adobe Illustrator 17.0.0, SVG Export Plug-In . SVG Version: 6.00 Build 0)  -->
<!DOCTYPE svg PUBLIC "-//W3C//DTD SVG 1.1//EN" "http://www.w3.org/Graphics/SVG/1.1/DTD/svg11.dtd">
<svg version="1.1" id="Layer_1" xmlns="http://www.w3.org/2000/svg" xmlns:xlink="http://www.w3.org/1999/xlink" x="0px" y="0px"
	 width="32px" height="32px" viewBox="0 0 32 32" style="enable-background:new 0 0 32 32;" xml:space="preserve">
<g>
	<defs>
		<rect id="SVGID_1_" width="32" height="32"/>
	</defs>
	<clipPath id="SVGID_2_">
		<use xlink:href="#SVGID_1_"  style="overflow:visible;"/>
	</clipPath>
	<g style="clip-path:url(#SVGID_2_);">
		<defs>
			<rect id="SVGID_3_" width="32" height="32"/>
		</defs>
		<clipPath id="SVGID_4_">
			<use xlink:href="#SVGID_3_"  style="overflow:visible;"/>
		</clipPath>
		<path style="clip-path:url(#SVGID_4_);" d="M27.787,4h-24C1.586,4,0.91,5.405,2.285,7.123L12,19v9h7.787v-4.367
			c0.629,0.222,1.295,0.367,2,0.367c3.315,0,6-2.687,6-6c0-2.233-1.236-4.16-3.045-5.192l4.547-5.685
			C30.664,5.405,29.988,4,27.787,4 M24.787,18c0,1.654-1.346,3-3,3c-0.771,0-1.467-0.301-2-0.78V19l3.041-3.803
			C23.969,15.623,24.787,16.714,24.787,18"/>
	</g>
</g>
</svg>
