<?xml version="1.0" encoding="iso-8859-1"?>
<!-- Generator: Adobe Illustrator 17.0.0, SVG Export Plug-In . SVG Version: 6.00 Build 0)  -->
<!DOCTYPE svg PUBLIC "-//W3C//DTD SVG 1.1//EN" "http://www.w3.org/Graphics/SVG/1.1/DTD/svg11.dtd">
<svg version="1.1" id="Layer_1" xmlns="http://www.w3.org/2000/svg" xmlns:xlink="http://www.w3.org/1999/xlink" x="0px" y="0px"
	 width="32px" height="32px" viewBox="0 0 32 32" style="enable-background:new 0 0 32 32;" xml:space="preserve">
<g>
	<defs>
		<rect id="SVGID_1_" width="32" height="32"/>
	</defs>
	<clipPath id="SVGID_2_">
		<use xlink:href="#SVGID_1_"  style="overflow:visible;"/>
	</clipPath>
	<g style="clip-path:url(#SVGID_2_);">
		<defs>
			<rect id="SVGID_3_" width="32" height="32"/>
		</defs>
		<clipPath id="SVGID_4_">
			<use xlink:href="#SVGID_3_"  style="overflow:visible;"/>
		</clipPath>
		<path style="clip-path:url(#SVGID_4_);" d="M30.204,0.292c0,0-10.918-1.949-17.095,4.228c-3.93,3.93-3.835,12.618-3.835,12.618
			c0.01,0.684-0.509,1.33-1.146,1.44L0,19.955l3.782,2.239l2.565,1.519c0.669,0.398,1.544,1.271,1.937,1.944l1.523,2.562
			l2.237,3.784l1.379-8.13c0.11-0.637,0.756-1.156,1.439-1.147c0,0,8.693,0.096,12.619-3.834c6.174-6.174,4.228-17.095,4.228-17.095
			C31.583,1.095,30.906,0.418,30.204,0.292 M24,10c-1.104,0-2-0.895-2-2c0.004-1.109,0.896-2.002,2-2c1.115-0.002,2,0.891,2,2
			C26,9.105,25.111,10,24,10"/>
	</g>
</g>
</svg>
