<?xml version="1.0" encoding="iso-8859-1"?>
<!-- Generator: Adobe Illustrator 17.0.0, SVG Export Plug-In . SVG Version: 6.00 Build 0)  -->
<!DOCTYPE svg PUBLIC "-//W3C//DTD SVG 1.1//EN" "http://www.w3.org/Graphics/SVG/1.1/DTD/svg11.dtd">
<svg version="1.1" id="Layer_1" xmlns="http://www.w3.org/2000/svg" xmlns:xlink="http://www.w3.org/1999/xlink" x="0px" y="0px"
	 width="32px" height="32px" viewBox="0 0 32 32" style="enable-background:new 0 0 32 32;" xml:space="preserve">
<g>
	<defs>
		<rect id="SVGID_1_" width="32" height="32"/>
	</defs>
	<clipPath id="SVGID_2_">
		<use xlink:href="#SVGID_1_"  style="overflow:visible;"/>
	</clipPath>
	<g style="clip-path:url(#SVGID_2_);">
		<defs>
			<rect id="SVGID_3_" width="32" height="32"/>
		</defs>
		<clipPath id="SVGID_4_">
			<use xlink:href="#SVGID_3_"  style="overflow:visible;"/>
		</clipPath>
		<path style="clip-path:url(#SVGID_4_);" d="M2,0C0.895,0,0,0.895,0,2v28c0,1.105,0.895,2,2,2s2-0.895,2-2V2C4,0.895,3.105,0,2,0"
			/>
		<path style="clip-path:url(#SVGID_4_);" d="M27.934,15.6c-0.684-0.881-0.684-2.318,0-3.199L31.659,7.6
			C32.34,6.719,31.969,6,30.83,6h-6.207c-1.138,0-2.728-0.636-3.533-1.414l-1.211-1.172C19.075,2.637,17.485,2,16.346,2H6v16h6.207
			c1.139,0,2.729,0.637,3.534,1.414l1.213,1.172C17.758,21.364,19.348,22,20.485,22H30.83c1.139,0,1.51-0.718,0.829-1.599
			L27.934,15.6z"/>
	</g>
</g>
</svg>
