<?xml version="1.0" encoding="iso-8859-1"?>
<!-- Generator: Adobe Illustrator 17.0.0, SVG Export Plug-In . SVG Version: 6.00 Build 0)  -->
<!DOCTYPE svg PUBLIC "-//W3C//DTD SVG 1.1//EN" "http://www.w3.org/Graphics/SVG/1.1/DTD/svg11.dtd">
<svg version="1.1" id="Layer_1" xmlns="http://www.w3.org/2000/svg" xmlns:xlink="http://www.w3.org/1999/xlink" x="0px" y="0px"
	 width="32px" height="32px" viewBox="0 0 32 32" style="enable-background:new 0 0 32 32;" xml:space="preserve">
<g>
	<defs>
		<rect id="SVGID_1_" width="32" height="32"/>
	</defs>
	<clipPath id="SVGID_2_">
		<use xlink:href="#SVGID_1_"  style="overflow:visible;"/>
	</clipPath>
	
		<rect x="22.585" y="-1.9" transform="matrix(0.7069 -0.7073 0.7073 0.7069 1.3757 19.3193)" style="clip-path:url(#SVGID_2_);" width="2.829" height="19.798"/>
</g>
<g>
	<defs>
		<rect id="SVGID_3_" width="32" height="32"/>
	</defs>
	<clipPath id="SVGID_4_">
		<use xlink:href="#SVGID_3_"  style="overflow:visible;"/>
	</clipPath>
	<g style="clip-path:url(#SVGID_4_);">
		<defs>
			<rect id="SVGID_5_" width="32" height="32"/>
		</defs>
		<clipPath id="SVGID_6_">
			<use xlink:href="#SVGID_5_"  style="overflow:visible;"/>
		</clipPath>
		<path style="clip-path:url(#SVGID_6_);" d="M12.535,12.394L0.583,24.346c-0.777,0.778-0.777,2.051,0,2.829l4.242,4.242
			c0.778,0.777,2.051,0.777,2.829,0l11.951-11.952l8.274-2.758L15.293,4.121L12.535,12.394z M17,18c0,0.801-0.312,1.555-0.879,2.121
			l-4,4C11.555,24.688,10.801,25,10,25s-1.555-0.312-2.121-0.879C7.312,23.555,7,22.801,7,22s0.312-1.555,0.879-2.121
			c0.566-0.567,3.433-3.434,4-4C12.445,15.312,13.199,15,14,15s1.555,0.312,2.121,0.879C16.688,16.445,17,17.199,17,18"/>
		<path style="clip-path:url(#SVGID_6_);" d="M12.586,16.586c-0.781,0.781-0.781,2.047,0,2.828c0.781,0.781,2.047,0.781,2.828,0
			c0.781-0.781,0.781-2.047,0-2.828C14.633,15.805,13.367,15.805,12.586,16.586"/>
	</g>
</g>
</svg>
