<?xml version="1.0" encoding="iso-8859-1"?>
<!-- Generator: Adobe Illustrator 17.0.0, SVG Export Plug-In . SVG Version: 6.00 Build 0)  -->
<!DOCTYPE svg PUBLIC "-//W3C//DTD SVG 1.1//EN" "http://www.w3.org/Graphics/SVG/1.1/DTD/svg11.dtd">
<svg version="1.1" id="Layer_1" xmlns="http://www.w3.org/2000/svg" xmlns:xlink="http://www.w3.org/1999/xlink" x="0px" y="0px"
	 width="32px" height="32px" viewBox="0 0 32 32" style="enable-background:new 0 0 32 32;" xml:space="preserve">
<g>
	<defs>
		<rect id="SVGID_1_" width="32" height="32"/>
	</defs>
	<clipPath id="SVGID_2_">
		<use xlink:href="#SVGID_1_"  style="overflow:visible;"/>
	</clipPath>
	<g style="clip-path:url(#SVGID_2_);">
		<defs>
			<rect id="SVGID_3_" width="32" height="32"/>
		</defs>
		<clipPath id="SVGID_4_">
			<use xlink:href="#SVGID_3_"  style="overflow:visible;"/>
		</clipPath>
		<path style="clip-path:url(#SVGID_4_);" d="M31.414,28.586L21.055,18.227l7.435-6.873C29.32,10.609,29.1,10,28,10H18l6.683-8.446
			C25.407,0.699,25.1,0,24,0h-8.94c-1.1,0-2.477,0.788-3.06,1.75L9.609,6.781L3.414,0.586c-0.78-0.781-2.048-0.781-2.828,0
			c-0.781,0.781-0.781,2.047,0,2.828l28,28C28.976,31.805,29.488,32,30,32c0.512,0,1.024-0.195,1.414-0.586
			C32.195,30.633,32.195,29.367,31.414,28.586"/>
		<path style="clip-path:url(#SVGID_4_);" d="M5.894,31.182c-0.492,1.016-0.215,1.237,0.615,0.493l9.009-8.329l-3.547-3.547
			L5.894,31.182z"/>
	</g>
</g>
</svg>
