<?xml version="1.0" encoding="iso-8859-1"?>
<!-- Generator: Adobe Illustrator 17.0.0, SVG Export Plug-In . SVG Version: 6.00 Build 0)  -->
<!DOCTYPE svg PUBLIC "-//W3C//DTD SVG 1.1//EN" "http://www.w3.org/Graphics/SVG/1.1/DTD/svg11.dtd">
<svg version="1.1" id="Layer_1" xmlns="http://www.w3.org/2000/svg" xmlns:xlink="http://www.w3.org/1999/xlink" x="0px" y="0px"
	 width="32px" height="32px" viewBox="0 0 32 32" style="enable-background:new 0 0 32 32;" xml:space="preserve">
<g>
	<defs>
		<rect id="SVGID_1_" width="32" height="32"/>
	</defs>
	<clipPath id="SVGID_2_">
		<use xlink:href="#SVGID_1_"  style="overflow:visible;"/>
	</clipPath>
	<g style="clip-path:url(#SVGID_2_);">
		<defs>
			<rect id="SVGID_3_" width="32" height="32"/>
		</defs>
		<clipPath id="SVGID_4_">
			<use xlink:href="#SVGID_3_"  style="overflow:visible;"/>
		</clipPath>
		<path style="clip-path:url(#SVGID_4_);" d="M7.723,10H26V6H12L8,2H1.561C0.698,2,0,2.697,0,3.561V22.26l3.11-9.018
			C3.75,11.395,5.733,10,7.723,10"/>
		<path style="clip-path:url(#SVGID_4_);" d="M30.485,12H7.723c-1.136,0-2.361,0.854-2.724,1.896L0.1,28.104
			C-0.259,29.146,0.378,30,1.516,30h12.485v-4h-2c-2.2,0-2.875-1.406-1.5-3.125l4.254-5.312c0.683-0.86,1.808-0.86,2.496,0
			l4.254,5.312C22.88,24.594,22.204,26,20.001,26h-2v4h6.275c1.139,0,2.363-0.854,2.727-1.896l4.896-14.208
			C32.26,12.854,31.624,12,30.485,12"/>
	</g>
</g>
</svg>
