<?xml version="1.0" encoding="iso-8859-1"?>
<!-- Generator: Adobe Illustrator 17.0.0, SVG Export Plug-In . SVG Version: 6.00 Build 0)  -->
<!DOCTYPE svg PUBLIC "-//W3C//DTD SVG 1.1//EN" "http://www.w3.org/Graphics/SVG/1.1/DTD/svg11.dtd">
<svg version="1.1" id="Layer_1" xmlns="http://www.w3.org/2000/svg" xmlns:xlink="http://www.w3.org/1999/xlink" x="0px" y="0px"
	 width="32px" height="32px" viewBox="0 0 32 32" style="enable-background:new 0 0 32 32;" xml:space="preserve">
<g>
	<defs>
		<rect id="SVGID_1_" width="32" height="32"/>
	</defs>
	<clipPath id="SVGID_2_">
		<use xlink:href="#SVGID_1_"  style="overflow:visible;"/>
	</clipPath>
	<g style="clip-path:url(#SVGID_2_);">
		<defs>
			<rect id="SVGID_3_" width="32" height="32"/>
		</defs>
		<clipPath id="SVGID_4_">
			<use xlink:href="#SVGID_3_"  style="overflow:visible;"/>
		</clipPath>
		<path style="clip-path:url(#SVGID_4_);" d="M27.765,18.326c0.148-0.753,0.23-1.53,0.23-2.326s-0.082-1.573-0.23-2.326l2.827-2.425
			c0.418-0.358,0.534-1.041,0.259-1.517l-2-3.464c-0.275-0.476-0.924-0.717-1.443-0.534l-3.523,1.239
			c-1.164-1.018-2.523-1.812-4.018-2.322l-0.688-3.668C19.078,0.442,18.545,0,17.995,0h-4c-0.55,0-1.083,0.442-1.184,0.983
			l-0.688,3.668c-1.495,0.51-2.854,1.304-4.017,2.322L4.582,5.734C4.063,5.551,3.414,5.792,3.139,6.268l-2,3.464
			c-0.275,0.476-0.159,1.159,0.259,1.517l2.827,2.425c-0.148,0.753-0.23,1.53-0.23,2.326s0.082,1.573,0.23,2.326l-2.827,2.425
			c-0.418,0.358-0.534,1.041-0.259,1.517l2,3.464c0.275,0.476,0.924,0.717,1.443,0.534l3.524-1.239
			c1.163,1.018,2.522,1.812,4.017,2.322l0.688,3.668C12.912,31.558,13.445,32,13.995,32h4c0.55,0,1.083-0.442,1.184-0.983
			l0.688-3.668c1.495-0.51,2.854-1.304,4.018-2.322l3.523,1.239c0.519,0.183,1.168-0.058,1.443-0.534l2-3.464
			c0.275-0.476,0.159-1.159-0.259-1.517L27.765,18.326z M15.995,22c-3.314,0-6-2.686-6-6s2.686-6,6-6s6,2.686,6,6
			S19.309,22,15.995,22"/>
	</g>
</g>
</svg>
