<?xml version="1.0" encoding="iso-8859-1"?>
<!-- Generator: Adobe Illustrator 17.0.0, SVG Export Plug-In . SVG Version: 6.00 Build 0)  -->
<!DOCTYPE svg PUBLIC "-//W3C//DTD SVG 1.1//EN" "http://www.w3.org/Graphics/SVG/1.1/DTD/svg11.dtd">
<svg version="1.1" id="Layer_1" xmlns="http://www.w3.org/2000/svg" xmlns:xlink="http://www.w3.org/1999/xlink" x="0px" y="0px"
	 width="32px" height="32px" viewBox="0 0 32 32" style="enable-background:new 0 0 32 32;" xml:space="preserve">
<g>
	<defs>
		<rect id="SVGID_1_" width="32" height="32"/>
	</defs>
	<clipPath id="SVGID_2_">
		<use xlink:href="#SVGID_1_"  style="overflow:visible;"/>
	</clipPath>
	<g style="clip-path:url(#SVGID_2_);">
		<defs>
			<rect id="SVGID_3_" width="32" height="32"/>
		</defs>
		<clipPath id="SVGID_4_">
			<use xlink:href="#SVGID_3_"  style="overflow:visible;"/>
		</clipPath>
		<path style="clip-path:url(#SVGID_4_);" d="M16.002,0c-8.836,0-16,7.164-16,16v15.43c0,0.55,0.305,0.67,0.68,0.269l1.836-1.969
			c0.375-0.4,0.988-0.402,1.363,0l1.84,1.969c0.375,0.403,0.988,0.401,1.363-0.002l1.832-1.965c0.375-0.402,0.99-0.404,1.365-0.002
			l1.84,1.969c0.375,0.403,0.99,0.401,1.365,0l1.832-1.969c0.375-0.4,0.989-0.4,1.364,0l1.836,1.969
			c0.375,0.401,0.988,0.403,1.363,0l1.84-1.969c0.375-0.402,0.988-0.4,1.363,0.002l1.832,1.965c0.375,0.403,0.99,0.405,1.365,0.002
			l1.84-1.969c0.375-0.402,0.99-0.4,1.365,0l1.832,1.969C31.693,32.1,32,31.98,32,31.43V16C32,7.164,24.838,0,16.002,0
			 M11.002,17.998c-1.658,0-3-1.344-3-3S9.344,12,11.002,12c1.656,0,3,1.342,3,2.998S12.658,17.998,11.002,17.998 M21.002,17.998
			c-1.658,0-3-1.344-3-3s1.342-2.998,3-2.998c1.656,0,3,1.342,3,2.998S22.658,17.998,21.002,17.998"/>
	</g>
</g>
</svg>
