<?xml version="1.0" encoding="iso-8859-1"?>
<!-- Generator: Adobe Illustrator 17.0.0, SVG Export Plug-In . SVG Version: 6.00 Build 0)  -->
<!DOCTYPE svg PUBLIC "-//W3C//DTD SVG 1.1//EN" "http://www.w3.org/Graphics/SVG/1.1/DTD/svg11.dtd">
<svg version="1.1" id="Layer_1" xmlns="http://www.w3.org/2000/svg" xmlns:xlink="http://www.w3.org/1999/xlink" x="0px" y="0px"
	 width="32px" height="32px" viewBox="0 0 32 32" style="enable-background:new 0 0 32 32;" xml:space="preserve">
<g>
	<defs>
		<rect id="SVGID_1_" width="32" height="32"/>
	</defs>
	<clipPath id="SVGID_2_">
		<use xlink:href="#SVGID_1_"  style="overflow:visible;"/>
	</clipPath>
	<g style="clip-path:url(#SVGID_2_);">
		<defs>
			<rect id="SVGID_3_" width="32" height="32"/>
		</defs>
		<clipPath id="SVGID_4_">
			<use xlink:href="#SVGID_3_"  style="overflow:visible;"/>
		</clipPath>
		<path style="clip-path:url(#SVGID_4_);" d="M16,0C7.164,0,0,7.164,0,16s7.164,16,16,16s16-7.164,16-16S24.836,0,16,0 M27.949,15
			h-3.981c-0.16-3.986-1.269-7.512-2.941-9.881C24.847,6.893,27.582,10.61,27.949,15 M15,4.203V15h-4.973
			C10.273,9.27,12.605,5.131,15,4.203 M15,17v10.797c-2.395-0.928-4.727-5.066-4.973-10.797H15z M17,27.797V17h4.972
			C21.722,22.731,19.394,26.869,17,27.797 M17,15V4.203C19.394,5.131,21.722,9.27,21.972,15H17z M10.968,5.119
			C9.296,7.488,8.187,11.014,8.027,15H4.05C4.414,10.61,7.148,6.893,10.968,5.119 M4.05,17h3.977
			c0.16,3.987,1.269,7.512,2.941,9.881C7.148,25.108,4.414,21.391,4.05,17 M21.027,26.881c1.672-2.369,2.781-5.894,2.941-9.881
			h3.981C27.582,21.391,24.847,25.108,21.027,26.881"/>
	</g>
</g>
</svg>
