<?xml version="1.0" encoding="iso-8859-1"?>
<!-- Generator: Adobe Illustrator 17.0.0, SVG Export Plug-In . SVG Version: 6.00 Build 0)  -->
<!DOCTYPE svg PUBLIC "-//W3C//DTD SVG 1.1//EN" "http://www.w3.org/Graphics/SVG/1.1/DTD/svg11.dtd">
<svg version="1.1" id="Layer_1" xmlns="http://www.w3.org/2000/svg" xmlns:xlink="http://www.w3.org/1999/xlink" x="0px" y="0px"
	 width="32px" height="32px" viewBox="0 0 32 32" style="enable-background:new 0 0 32 32;" xml:space="preserve">
<g>
	<defs>
		<rect id="SVGID_1_" width="32" height="32"/>
	</defs>
	<clipPath id="SVGID_2_">
		<use xlink:href="#SVGID_1_"  style="overflow:visible;"/>
	</clipPath>
	<g style="clip-path:url(#SVGID_2_);">
		<defs>
			<rect id="SVGID_3_" width="32" height="32"/>
		</defs>
		<clipPath id="SVGID_4_">
			<use xlink:href="#SVGID_3_"  style="overflow:visible;"/>
		</clipPath>
		<path style="clip-path:url(#SVGID_4_);" d="M7,24H1c-0.551,0-1,0.449-1,1v6c0,0.551,0.449,1,1,1h6c0.551,0,1-0.449,1-1v-6
			C8,24.449,7.551,24,7,24"/>
		<path style="clip-path:url(#SVGID_4_);" d="M19,24h-6c-0.551,0-1,0.449-1,1v6c0,0.551,0.449,1,1,1h6c0.551,0,1-0.449,1-1v-6
			C20,24.449,19.551,24,19,24"/>
		<path style="clip-path:url(#SVGID_4_);" d="M31,24h-6c-0.551,0-1,0.449-1,1v6c0,0.551,0.449,1,1,1h6c0.551,0,1-0.449,1-1v-6
			C32,24.449,31.551,24,31,24"/>
		<path style="clip-path:url(#SVGID_4_);" d="M7,12H1c-0.551,0-1,0.449-1,1v6c0,0.551,0.449,1,1,1h6c0.551,0,1-0.449,1-1v-6
			C8,12.449,7.551,12,7,12"/>
		<path style="clip-path:url(#SVGID_4_);" d="M19,12h-6c-0.551,0-1,0.449-1,1v6c0,0.551,0.449,1,1,1h6c0.551,0,1-0.449,1-1v-6
			C20,12.449,19.551,12,19,12"/>
		<path style="clip-path:url(#SVGID_4_);" d="M31,12h-6c-0.551,0-1,0.449-1,1v6c0,0.551,0.449,1,1,1h6c0.551,0,1-0.449,1-1v-6
			C32,12.449,31.551,12,31,12"/>
		<path style="clip-path:url(#SVGID_4_);" d="M7,0H1C0.449,0,0,0.449,0,1v6c0,0.551,0.449,1,1,1h6c0.551,0,1-0.449,1-1V1
			C8,0.449,7.551,0,7,0"/>
		<path style="clip-path:url(#SVGID_4_);" d="M19,0h-6c-0.551,0-1,0.449-1,1v6c0,0.551,0.449,1,1,1h6c0.551,0,1-0.449,1-1V1
			C20,0.449,19.551,0,19,0"/>
		<path style="clip-path:url(#SVGID_4_);" d="M31,0h-6c-0.551,0-1,0.449-1,1v6c0,0.551,0.449,1,1,1h6c0.551,0,1-0.449,1-1V1
			C32,0.449,31.551,0,31,0"/>
	</g>
</g>
</svg>
