<?xml version="1.0" encoding="iso-8859-1"?>
<!-- Generator: Adobe Illustrator 17.0.0, SVG Export Plug-In . SVG Version: 6.00 Build 0)  -->
<!DOCTYPE svg PUBLIC "-//W3C//DTD SVG 1.1//EN" "http://www.w3.org/Graphics/SVG/1.1/DTD/svg11.dtd">
<svg version="1.1" id="Layer_1" xmlns="http://www.w3.org/2000/svg" xmlns:xlink="http://www.w3.org/1999/xlink" x="0px" y="0px"
	 width="32px" height="32px" viewBox="0 0 32 32" style="enable-background:new 0 0 32 32;" xml:space="preserve">
<g>
	<defs>
		<rect id="SVGID_1_" width="32" height="32"/>
	</defs>
	<clipPath id="SVGID_2_">
		<use xlink:href="#SVGID_1_"  style="overflow:visible;"/>
	</clipPath>
	<g style="clip-path:url(#SVGID_2_);">
		<defs>
			<rect id="SVGID_3_" width="32" height="32"/>
		</defs>
		<clipPath id="SVGID_4_">
			<use xlink:href="#SVGID_3_"  style="overflow:visible;"/>
		</clipPath>
		<path style="clip-path:url(#SVGID_4_);" d="M10,14c-1.1,0-2,0.9-2,2v14c0,1.1,0.9,2,2,2s2-0.9,2-2V16C12,14.9,11.1,14,10,14"/>
		<path style="clip-path:url(#SVGID_4_);" d="M22,14c-1.1,0-2,0.9-2,2v14c0,1.1,0.9,2,2,2s2-0.9,2-2V16C24,14.9,23.1,14,22,14"/>
		<path style="clip-path:url(#SVGID_4_);" d="M30,15.586V12c0-6.6-5.4-12-12-12h-4C7.4,0,2,5.4,2,12v3.586
			c-1.232,1.336-2,3.104-2,5.064c0,3.629,2.576,6.653,6,7.35V12c0-4.412,3.588-8,8-8h4c4.412,0,8,3.588,8,8v16
			c3.424-0.697,6-3.721,6-7.35C32,18.69,31.232,16.922,30,15.586"/>
	</g>
</g>
</svg>
