<?xml version="1.0" encoding="iso-8859-1"?>
<!-- Generator: Adobe Illustrator 17.0.0, SVG Export Plug-In . SVG Version: 6.00 Build 0)  -->
<!DOCTYPE svg PUBLIC "-//W3C//DTD SVG 1.1//EN" "http://www.w3.org/Graphics/SVG/1.1/DTD/svg11.dtd">
<svg version="1.1" id="Layer_1" xmlns="http://www.w3.org/2000/svg" xmlns:xlink="http://www.w3.org/1999/xlink" x="0px" y="0px"
	 width="32px" height="32px" viewBox="0 0 32 32" style="enable-background:new 0 0 32 32;" xml:space="preserve">
<g>
	<defs>
		<rect id="SVGID_1_" width="32" height="32"/>
	</defs>
	<clipPath id="SVGID_2_">
		<use xlink:href="#SVGID_1_"  style="overflow:visible;"/>
	</clipPath>
	<g style="clip-path:url(#SVGID_2_);">
		<defs>
			<rect id="SVGID_3_" width="32" height="32"/>
		</defs>
		<clipPath id="SVGID_4_">
			<use xlink:href="#SVGID_3_"  style="overflow:visible;"/>
		</clipPath>
		<path style="clip-path:url(#SVGID_4_);" d="M26.774,23.946c2.546-2.75,4.733-5.977,5.126-9.22h-0.012
			C31.935,14.382,32,14.043,32,13.703C32,9.23,28.235,4,23.61,4c-3.375,0-6.266,1.918-7.605,4.679C14.665,5.918,11.766,4,8.403,4
			c-0.481,0-0.952,0.058-1.41,0.164L3.414,0.586c-0.781-0.782-2.048-0.782-2.829,0c-0.781,0.78-0.781,2.047,0,2.828l28,28
			C28.976,31.804,29.489,32,30,32c0.511,0,1.023-0.196,1.414-0.586c0.781-0.781,0.781-2.048,0-2.828L26.774,23.946z"/>
		<path style="clip-path:url(#SVGID_4_);" d="M0,13.703c0,0.34,0.064,0.68,0.107,1.023H0.098
			C1.096,23.449,14.354,31.59,14.354,31.59c0.908,0.554,2.384,0.543,3.285-0.024c0,0,1.331-0.843,3.18-2.262L1.006,9.491
			C0.365,10.848,0,12.312,0,13.703"/>
	</g>
</g>
</svg>
