<?xml version="1.0" encoding="iso-8859-1"?>
<!-- Generator: Adobe Illustrator 17.0.0, SVG Export Plug-In . SVG Version: 6.00 Build 0)  -->
<!DOCTYPE svg PUBLIC "-//W3C//DTD SVG 1.1//EN" "http://www.w3.org/Graphics/SVG/1.1/DTD/svg11.dtd">
<svg version="1.1" id="Layer_1" xmlns="http://www.w3.org/2000/svg" xmlns:xlink="http://www.w3.org/1999/xlink" x="0px" y="0px"
	 width="32px" height="32px" viewBox="0 0 32 32" style="enable-background:new 0 0 32 32;" xml:space="preserve">
<g>
	<defs>
		<rect id="SVGID_1_" width="32" height="32"/>
	</defs>
	<clipPath id="SVGID_2_">
		<use xlink:href="#SVGID_1_"  style="overflow:visible;"/>
	</clipPath>
	<g style="clip-path:url(#SVGID_2_);">
		<defs>
			<rect id="SVGID_3_" width="32" height="32"/>
		</defs>
		<clipPath id="SVGID_4_">
			<use xlink:href="#SVGID_3_"  style="overflow:visible;"/>
		</clipPath>
		<path style="clip-path:url(#SVGID_4_);" d="M12,9.082h2v6c0,1.106,0.898,2,2,2c1.105,0,2-0.894,2-2v-6h2
			c2.203,0,2.879-1.406,1.504-3.125L17.25,0.645c-0.687-0.86-1.812-0.86-2.496,0L10.5,5.957C9.125,7.676,9.801,9.082,12,9.082"/>
		<path style="clip-path:url(#SVGID_4_);" d="M31.609,18.039L28.394,1.961C28.175,0.883,27.101,0,26,0h-6.705L22.5,4h2.222l2.399,12
			H22c0,3.313-2.688,6-6,6c-3.313,0-6-2.687-6-6H4.879L7.281,4h2.224l3.204-4H6C4.902,0,3.824,0.883,3.609,1.961L0.394,18.039
			C0.175,19.117,0,20.898,0,22v8c0,1.098,0.902,2,2,2h28c1.101,0,2-0.902,2-2v-8C32,20.898,31.824,19.117,31.609,18.039"/>
	</g>
</g>
</svg>
