<?xml version="1.0" encoding="iso-8859-1"?>
<!-- Generator: Adobe Illustrator 17.0.0, SVG Export Plug-In . SVG Version: 6.00 Build 0)  -->
<!DOCTYPE svg PUBLIC "-//W3C//DTD SVG 1.1//EN" "http://www.w3.org/Graphics/SVG/1.1/DTD/svg11.dtd">
<svg version="1.1" id="Layer_1" xmlns="http://www.w3.org/2000/svg" xmlns:xlink="http://www.w3.org/1999/xlink" x="0px" y="0px"
	 width="32px" height="32px" viewBox="0 0 32 32" style="enable-background:new 0 0 32 32;" xml:space="preserve">
<g>
	<defs>
		<rect id="SVGID_1_" width="32" height="32"/>
	</defs>
	<clipPath id="SVGID_2_">
		<use xlink:href="#SVGID_1_"  style="overflow:visible;"/>
	</clipPath>
	<g style="clip-path:url(#SVGID_2_);">
		<defs>
			<rect id="SVGID_3_" width="32" height="32"/>
		</defs>
		<clipPath id="SVGID_4_">
			<use xlink:href="#SVGID_3_"  style="overflow:visible;"/>
		</clipPath>
		<path style="clip-path:url(#SVGID_4_);" d="M31.609,18.039L28.394,1.961C28.175,0.883,27.101,0,26,0h-6.557
			C19.789,0.591,20,1.269,20,2v2h4.722l2.399,12H22c0,3.313-2.688,6-6,6c-3.313,0-6-2.687-6-6H4.879L7.281,4H12V2
			c0-0.731,0.211-1.409,0.556-2H6C4.902,0,3.824,0.883,3.609,1.961L0.394,18.039C0.175,19.117,0,20.898,0,22v8c0,1.098,0.902,2,2,2
			h28c1.101,0,2-0.902,2-2v-8C32,20.898,31.824,19.117,31.609,18.039"/>
		<path style="clip-path:url(#SVGID_4_);" d="M10.5,11.121l4.254,5.317c0.684,0.859,1.809,0.859,2.496,0l4.254-5.317
			C22.879,9.406,22.203,8,20,8h-2V2c0-1.105-0.895-2-2-2c-1.102,0-2,0.895-2,2v6h-2C9.801,8,9.125,9.406,10.5,11.121"/>
	</g>
</g>
</svg>
