<?xml version="1.0" encoding="iso-8859-1"?>
<!-- Generator: Adobe Illustrator 17.0.0, SVG Export Plug-In . SVG Version: 6.00 Build 0)  -->
<!DOCTYPE svg PUBLIC "-//W3C//DTD SVG 1.1//EN" "http://www.w3.org/Graphics/SVG/1.1/DTD/svg11.dtd">
<svg version="1.1" id="Layer_1" xmlns="http://www.w3.org/2000/svg" xmlns:xlink="http://www.w3.org/1999/xlink" x="0px" y="0px"
	 width="32px" height="32px" viewBox="0 0 32 32" style="enable-background:new 0 0 32 32;" xml:space="preserve">
<g>
	<defs>
		<rect id="SVGID_1_" width="32" height="32"/>
	</defs>
	<clipPath id="SVGID_2_">
		<use xlink:href="#SVGID_1_"  style="overflow:visible;"/>
	</clipPath>
	<g style="clip-path:url(#SVGID_2_);">
		<defs>
			<rect id="SVGID_3_" width="32" height="32"/>
		</defs>
		<clipPath id="SVGID_4_">
			<use xlink:href="#SVGID_3_"  style="overflow:visible;"/>
		</clipPath>
		<path style="clip-path:url(#SVGID_4_);" d="M31.609,18.039L28.395,1.961C28.176,0.883,27.102,0,26,0H6
			C4.902,0,3.824,0.883,3.609,1.961L0.395,18.039C0.176,19.117,0,20.898,0,22v8c0,1.098,0.902,2,2,2h28c1.102,0,2-0.902,2-2v-8
			C32,20.898,31.824,19.117,31.609,18.039 M22,16c0,3.313-2.687,6-6,6c-3.312,0-6-2.687-6-6H4.879L7.281,4h17.442l2.398,12H22z"/>
	</g>
</g>
</svg>
