<?xml version="1.0" encoding="iso-8859-1"?>
<!-- Generator: Adobe Illustrator 17.0.0, SVG Export Plug-In . SVG Version: 6.00 Build 0)  -->
<!DOCTYPE svg PUBLIC "-//W3C//DTD SVG 1.1//EN" "http://www.w3.org/Graphics/SVG/1.1/DTD/svg11.dtd">
<svg version="1.1" id="Layer_1" xmlns="http://www.w3.org/2000/svg" xmlns:xlink="http://www.w3.org/1999/xlink" x="0px" y="0px"
	 width="32px" height="32px" viewBox="0 0 32 32" style="enable-background:new 0 0 32 32;" xml:space="preserve">
<g>
	<defs>
		<rect id="SVGID_1_" width="32" height="32"/>
	</defs>
	<clipPath id="SVGID_2_">
		<use xlink:href="#SVGID_1_"  style="overflow:visible;"/>
	</clipPath>
	<g style="clip-path:url(#SVGID_2_);">
		<defs>
			<rect id="SVGID_3_" width="32" height="32"/>
		</defs>
		<clipPath id="SVGID_4_">
			<use xlink:href="#SVGID_3_"  style="overflow:visible;"/>
		</clipPath>
		<path style="clip-path:url(#SVGID_4_);" d="M8,20V10H2c-1.1,0-2,0.9-2,2v18c0,1.1,0.9,2,2,2h18c1.1,0,2-0.9,2-2v-6H12
			C9.794,24,8,22.206,8,20"/>
		<path style="clip-path:url(#SVGID_4_);" d="M30,0H12c-1.1,0-2,0.9-2,2v18c0,1.1,0.9,2,2,2h18c1.1,0,2-0.9,2-2V2
			C32,0.9,31.1,0,30,0 M27.123,6.693l-6.178,8.877c-0.168,0.242-0.431,0.396-0.724,0.426C20.189,15.998,20.156,16,20.125,16
			c-0.258,0-0.508-0.1-0.695-0.282l-4.125-4c-0.397-0.384-0.407-1.017-0.024-1.414c0.387-0.396,1.02-0.406,1.414-0.023l3.282,3.182
			l5.505-7.911c0.315-0.453,0.94-0.562,1.391-0.25C27.328,5.617,27.439,6.24,27.123,6.693"/>
	</g>
</g>
</svg>
