<?xml version="1.0" encoding="iso-8859-1"?>
<!-- Generator: Adobe Illustrator 17.0.0, SVG Export Plug-In . SVG Version: 6.00 Build 0)  -->
<!DOCTYPE svg PUBLIC "-//W3C//DTD SVG 1.1//EN" "http://www.w3.org/Graphics/SVG/1.1/DTD/svg11.dtd">
<svg version="1.1" id="Layer_1" xmlns="http://www.w3.org/2000/svg" xmlns:xlink="http://www.w3.org/1999/xlink" x="0px" y="0px"
	 width="32px" height="32px" viewBox="0 0 32 32" style="enable-background:new 0 0 32 32;" xml:space="preserve">
<g>
	<defs>
		<rect id="SVGID_1_" width="32" height="32"/>
	</defs>
	<clipPath id="SVGID_2_">
		<use xlink:href="#SVGID_1_"  style="overflow:visible;"/>
	</clipPath>
	<g style="clip-path:url(#SVGID_2_);">
		<defs>
			<rect id="SVGID_3_" width="32" height="32"/>
		</defs>
		<clipPath id="SVGID_4_">
			<use xlink:href="#SVGID_3_"  style="overflow:visible;"/>
		</clipPath>
		<path style="clip-path:url(#SVGID_4_);" d="M21,0c-6.074,0-11,4.925-11,11c0,0.968,0.137,1.901,0.375,2.796L0.711,23.46
			c-0.391,0.389-0.707,1.157-0.707,1.707V28H0v4h1.004H4h3c0.551,0,1-0.45,1-1v-2c0-0.55,0.449-1,1-1h2c0.551,0,1-0.45,1-1v-2
			c0-0.55,0.449-1,1-1h2c0.551,0,1.32-0.318,1.707-0.707l1.633-1.631C19.191,21.875,20.082,22,21,22c6.074,0,11-4.925,11-11
			S27.074,0,21,0 M23,12c-1.656,0-3-1.343-3-3s1.344-3,3-3s3,1.343,3,3S24.656,12,23,12"/>
	</g>
</g>
</svg>
