<?xml version="1.0" encoding="iso-8859-1"?>
<!-- Generator: Adobe Illustrator 17.0.0, SVG Export Plug-In . SVG Version: 6.00 Build 0)  -->
<!DOCTYPE svg PUBLIC "-//W3C//DTD SVG 1.1//EN" "http://www.w3.org/Graphics/SVG/1.1/DTD/svg11.dtd">
<svg version="1.1" id="Layer_1" xmlns="http://www.w3.org/2000/svg" xmlns:xlink="http://www.w3.org/1999/xlink" x="0px" y="0px"
	 width="32px" height="32px" viewBox="0 0 32 32" style="enable-background:new 0 0 32 32;" xml:space="preserve">
<g>
	<defs>
		<rect id="SVGID_1_" width="32" height="32"/>
	</defs>
	<clipPath id="SVGID_2_">
		<use xlink:href="#SVGID_1_"  style="overflow:visible;"/>
	</clipPath>
	<g style="clip-path:url(#SVGID_2_);">
		<defs>
			<rect id="SVGID_3_" width="32" height="32"/>
		</defs>
		<clipPath id="SVGID_4_">
			<use xlink:href="#SVGID_3_"  style="overflow:visible;"/>
		</clipPath>
		<path style="clip-path:url(#SVGID_4_);" d="M28,8H4c-2.207,0-4,1.791-4,4v16c0,2.209,1.793,4,4,4h24c2.211,0,4-1.791,4-4V12
			C32,9.791,30.211,8,28,8 M22,19v2c0,0.551-0.449,1-1,1h-2c-0.551,0-1-0.449-1-1v-2c0-0.551,0.449-1,1-1h2
			C21.551,18,22,18.449,22,19 M16,13c0-0.551,0.449-1,1-1h2c0.551,0,1,0.449,1,1v2c0,0.551-0.449,1-1,1h-2c-0.551,0-1-0.449-1-1V13z
			 M16,19v2c0,0.551-0.449,1-1,1h-2c-0.551,0-1-0.449-1-1v-2c0-0.551,0.449-1,1-1h2C15.551,18,16,18.449,16,19 M10,13
			c0-0.551,0.449-1,1-1h2c0.551,0,1,0.449,1,1v2c0,0.551-0.449,1-1,1h-2c-0.551,0-1-0.449-1-1V13z M4,13c0-0.551,0.449-1,1-1h2
			c0.551,0,1,0.449,1,1v2c0,0.551-0.449,1-1,1H5c-0.551,0-1-0.449-1-1V13z M4,21v-2c0-0.551,0.449-1,1-1h4c0.551,0,1,0.449,1,1v2
			c0,0.551-0.449,1-1,1H5C4.449,22,4,21.551,4,21 M26,27c0,0.551-0.449,1-1,1H7c-0.551,0-1-0.449-1-1v-2c0-0.551,0.449-1,1-1h18
			c0.551,0,1,0.449,1,1V27z M28,21c0,0.551-0.449,1-1,1h-2c-0.551,0-1-0.449-1-1v-2c0-0.551,0.449-1,1-1h2c0.551,0,1,0.449,1,1V21z
			 M28,15c0,0.551-0.449,1-1,1h-4c-0.551,0-1-0.449-1-1v-2c0-0.551,0.449-1,1-1h4c0.551,0,1,0.449,1,1V15z"/>
		<path style="clip-path:url(#SVGID_4_);" d="M11,6h10c0.391,0,0.742-0.168,0.906-0.434C21.973,5.467,22,5.357,22,5.25
			c0-0.172-0.078-0.344-0.23-0.48l-4.997-4.5C16.578,0.098,16.297,0,16.004,0c-0.297,0-0.578,0.098-0.77,0.27l-5,4.5
			C10.082,4.906,10,5.078,10,5.25c0,0.107,0.035,0.217,0.098,0.316C10.262,5.832,10.613,6,11,6"/>
	</g>
</g>
</svg>
