<?xml version="1.0" encoding="iso-8859-1"?>
<!-- Generator: Adobe Illustrator 17.0.0, SVG Export Plug-In . SVG Version: 6.00 Build 0)  -->
<!DOCTYPE svg PUBLIC "-//W3C//DTD SVG 1.1//EN" "http://www.w3.org/Graphics/SVG/1.1/DTD/svg11.dtd">
<svg version="1.1" id="Layer_1" xmlns="http://www.w3.org/2000/svg" xmlns:xlink="http://www.w3.org/1999/xlink" x="0px" y="0px"
	 width="32px" height="32px" viewBox="0 0 32 32" style="enable-background:new 0 0 32 32;" xml:space="preserve">
<g>
	<defs>
		<rect id="SVGID_1_" width="32" height="32"/>
	</defs>
	<clipPath id="SVGID_2_">
		<use xlink:href="#SVGID_1_"  style="overflow:visible;"/>
	</clipPath>
	<g style="clip-path:url(#SVGID_2_);">
		<defs>
			<rect id="SVGID_3_" width="32" height="32"/>
		</defs>
		<clipPath id="SVGID_4_">
			<use xlink:href="#SVGID_3_"  style="overflow:visible;"/>
		</clipPath>
		<path style="clip-path:url(#SVGID_4_);" d="M28,0H4C1.793,0,0,1.791,0,4v16c0,2.209,1.793,4,4,4h24c2.211,0,4-1.791,4-4V4
			C32,1.791,30.211,0,28,0 M22,11v2c0,0.551-0.449,1-1,1h-2c-0.551,0-1-0.449-1-1v-2c0-0.551,0.449-1,1-1h2
			C21.551,10,22,10.449,22,11 M16,5c0-0.551,0.449-1,1-1h2c0.551,0,1,0.449,1,1v2c0,0.551-0.449,1-1,1h-2c-0.551,0-1-0.449-1-1V5z
			 M16,11v2c0,0.551-0.449,1-1,1h-2c-0.551,0-1-0.449-1-1v-2c0-0.551,0.449-1,1-1h2C15.551,10,16,10.449,16,11 M10,5
			c0-0.551,0.449-1,1-1h2c0.551,0,1,0.449,1,1v2c0,0.551-0.449,1-1,1h-2c-0.551,0-1-0.449-1-1V5z M4,5c0-0.551,0.449-1,1-1h2
			c0.551,0,1,0.449,1,1v2c0,0.551-0.449,1-1,1H5C4.449,8,4,7.551,4,7V5z M4,13v-2c0-0.551,0.449-1,1-1h4c0.551,0,1,0.449,1,1v2
			c0,0.551-0.449,1-1,1H5C4.449,14,4,13.551,4,13 M26,19c0,0.551-0.449,1-1,1H7c-0.551,0-1-0.449-1-1v-2c0-0.551,0.449-1,1-1h18
			c0.551,0,1,0.449,1,1V19z M28,13c0,0.551-0.449,1-1,1h-2c-0.551,0-1-0.449-1-1v-2c0-0.551,0.449-1,1-1h2c0.551,0,1,0.449,1,1V13z
			 M28,7c0,0.551-0.449,1-1,1h-4c-0.551,0-1-0.449-1-1V5c0-0.551,0.449-1,1-1h4c0.551,0,1,0.449,1,1V7z"/>
		<path style="clip-path:url(#SVGID_4_);" d="M21,26H11c-0.391,0-0.742,0.168-0.902,0.434C10.027,26.533,10,26.643,10,26.75
			c0,0.172,0.082,0.344,0.234,0.48l4.996,4.5C15.426,31.902,15.707,32,16,32c0.297,0,0.578-0.098,0.766-0.27l5.004-4.5
			c0.152-0.136,0.23-0.308,0.23-0.48c0-0.107-0.035-0.217-0.094-0.316C21.742,26.168,21.391,26,21,26"/>
	</g>
</g>
</svg>
