<?xml version="1.0" encoding="iso-8859-1"?>
<!-- Generator: Adobe Illustrator 17.0.0, SVG Export Plug-In . SVG Version: 6.00 Build 0)  -->
<!DOCTYPE svg PUBLIC "-//W3C//DTD SVG 1.1//EN" "http://www.w3.org/Graphics/SVG/1.1/DTD/svg11.dtd">
<svg version="1.1" id="Layer_1" xmlns="http://www.w3.org/2000/svg" xmlns:xlink="http://www.w3.org/1999/xlink" x="0px" y="0px"
	 width="32px" height="32px" viewBox="0 0 32 32" style="enable-background:new 0 0 32 32;" xml:space="preserve">
<g>
	<defs>
		<rect id="SVGID_1_" width="32" height="32"/>
	</defs>
	<clipPath id="SVGID_2_">
		<use xlink:href="#SVGID_1_"  style="overflow:visible;"/>
	</clipPath>
	<g style="clip-path:url(#SVGID_2_);">
		<defs>
			<rect id="SVGID_3_" width="32" height="32"/>
		</defs>
		<clipPath id="SVGID_4_">
			<use xlink:href="#SVGID_3_"  style="overflow:visible;"/>
		</clipPath>
		<path style="clip-path:url(#SVGID_4_);" d="M31.836,16.172L25.188,1.827C24.722,0.822,23.403,0,22.256,0H9.745
			C8.597,0,7.278,0.822,6.812,1.827L0.164,16.172C-0.301,17.177,0.257,18,1.403,18H22v3.306c-0.587,0.349-1,0.961-1,1.694
			c0,1.104,0.895,2,2,2c1.104,0,2-0.896,2-2c0-0.733-0.413-1.345-1-1.694V18h6.597C31.743,18,32.301,17.177,31.836,16.172"/>
		<path style="clip-path:url(#SVGID_4_);" d="M18,28.142V20h-4v8.141C10.556,28.587,8,30.139,8,32h16
			C24,30.139,21.444,28.587,18,28.142"/>
	</g>
</g>
</svg>
