<?xml version="1.0" encoding="iso-8859-1"?>
<!-- Generator: Adobe Illustrator 17.0.0, SVG Export Plug-In . SVG Version: 6.00 Build 0)  -->
<!DOCTYPE svg PUBLIC "-//W3C//DTD SVG 1.1//EN" "http://www.w3.org/Graphics/SVG/1.1/DTD/svg11.dtd">
<svg version="1.1" id="Layer_1" xmlns="http://www.w3.org/2000/svg" xmlns:xlink="http://www.w3.org/1999/xlink" x="0px" y="0px"
	 width="32px" height="32px" viewBox="0 0 32 32" style="enable-background:new 0 0 32 32;" xml:space="preserve">
<g>
	<defs>
		<rect id="SVGID_1_" width="32" height="32"/>
	</defs>
	<clipPath id="SVGID_2_">
		<use xlink:href="#SVGID_1_"  style="overflow:visible;"/>
	</clipPath>
	<g style="clip-path:url(#SVGID_2_);">
		<defs>
			<rect id="SVGID_3_" width="32" height="32"/>
		</defs>
		<clipPath id="SVGID_4_">
			<use xlink:href="#SVGID_3_"  style="overflow:visible;"/>
		</clipPath>
		<path style="clip-path:url(#SVGID_4_);" d="M12,18h8h10.084C30.031,17.277,30,16.551,30,16V2c0-1.1-0.9-2-2-2H4C2.9,0,2,0.9,2,2
			v14c0,0.551-0.031,1.277-0.084,2H12z M6,4h20v10H6V4z"/>
		<path style="clip-path:url(#SVGID_4_);" d="M20,20v2h-8v-2H1.715L0.283,30.02C0.127,31.109,0.9,32,2,32h28
			c1.1,0,1.873-0.891,1.717-1.98L30.285,20H20z"/>
	</g>
</g>
</svg>
