<?xml version="1.0" encoding="iso-8859-1"?>
<!-- Generator: Adobe Illustrator 17.0.0, SVG Export Plug-In . SVG Version: 6.00 Build 0)  -->
<!DOCTYPE svg PUBLIC "-//W3C//DTD SVG 1.1//EN" "http://www.w3.org/Graphics/SVG/1.1/DTD/svg11.dtd">
<svg version="1.1" id="Layer_1" xmlns="http://www.w3.org/2000/svg" xmlns:xlink="http://www.w3.org/1999/xlink" x="0px" y="0px"
	 width="32px" height="32px" viewBox="0 0 32 32" style="enable-background:new 0 0 32 32;" xml:space="preserve">
<g>
	<defs>
		<rect id="SVGID_1_" width="32" height="32"/>
	</defs>
	<clipPath id="SVGID_2_">
		<use xlink:href="#SVGID_1_"  style="overflow:visible;"/>
	</clipPath>
	<g style="clip-path:url(#SVGID_2_);">
		<defs>
			<rect id="SVGID_3_" width="32" height="32"/>
		</defs>
		<clipPath id="SVGID_4_">
			<use xlink:href="#SVGID_3_"  style="overflow:visible;"/>
		</clipPath>
		<path style="clip-path:url(#SVGID_4_);" d="M27.313,4.688C24.188,1.563,20.095,0,16.001,0C11.905,0,7.809,1.563,4.686,4.688
			c-6.248,6.246-6.248,16.378,0,22.625C7.809,30.438,11.905,32,16.001,32c4.094,0,8.187-1.562,11.312-4.687
			C33.561,21.066,33.561,10.934,27.313,4.688 M26.305,22.063l-3.73-3.731c0.535-1.508,0.535-3.156,0-4.664l3.73-3.73
			C28.501,13.676,28.501,18.324,26.305,22.063 M5.694,22.063c-2.195-3.739-2.195-8.387,0-12.125l3.729,3.728
			c-0.536,1.51-0.536,3.158,0,4.668L5.694,22.063z M12.464,19.535c-1.95-1.949-1.95-5.121,0-7.07C13.407,11.52,14.665,11,16.001,11
			s2.59,0.52,3.535,1.465c1.949,1.949,1.949,5.121,0,7.07C18.591,20.48,17.337,21,16.001,21S13.407,20.48,12.464,19.535
			 M22.087,5.67l-3.754,3.754C17.579,9.156,16.792,9,16.001,9c-0.793,0-1.578,0.156-2.334,0.424L9.911,5.67
			C11.739,4.59,13.821,4,16.001,4C18.177,4,20.261,4.59,22.087,5.67 M9.911,26.33l3.754-3.754C14.423,22.844,15.208,23,16.001,23
			c0.791,0,1.578-0.156,2.332-0.424l3.754,3.754c-1.826,1.08-3.91,1.67-6.086,1.67C13.821,28,11.739,27.41,9.911,26.33"/>
	</g>
</g>
</svg>
