<?xml version="1.0" encoding="iso-8859-1"?>
<!-- Generator: Adobe Illustrator 17.0.0, SVG Export Plug-In . SVG Version: 6.00 Build 0)  -->
<!DOCTYPE svg PUBLIC "-//W3C//DTD SVG 1.1//EN" "http://www.w3.org/Graphics/SVG/1.1/DTD/svg11.dtd">
<svg version="1.1" id="Layer_1" xmlns="http://www.w3.org/2000/svg" xmlns:xlink="http://www.w3.org/1999/xlink" x="0px" y="0px"
	 width="32px" height="32px" viewBox="0 0 32 32" style="enable-background:new 0 0 32 32;" xml:space="preserve">
<g>
	<defs>
		<rect id="SVGID_1_" width="32" height="32"/>
	</defs>
	<clipPath id="SVGID_2_">
		<use xlink:href="#SVGID_1_"  style="overflow:visible;"/>
	</clipPath>
	<g style="clip-path:url(#SVGID_2_);">
		<defs>
			<rect id="SVGID_3_" width="32" height="32"/>
		</defs>
		<clipPath id="SVGID_4_">
			<use xlink:href="#SVGID_3_"  style="overflow:visible;"/>
		</clipPath>
		<path style="clip-path:url(#SVGID_4_);" d="M26,10c0-5.523-4.477-10-10-10S6,4.477,6,10c0,2.262,0.779,4.325,2.045,6H8
			c0,0,4,6,4,8h8c0-2,4-8,4-8h-0.045C25.221,14.325,26,12.262,26,10"/>
		<path style="clip-path:url(#SVGID_4_);" d="M12,28c0,0.728,0.414,1.341,1,1.691V30c0,1.1,0.9,2,2,2h2c1.1,0,2-0.9,2-2v-0.309
			c0.586-0.35,1-0.963,1-1.691v-2h-8V28z"/>
	</g>
</g>
</svg>
