<?xml version="1.0" encoding="iso-8859-1"?>
<!-- Generator: Adobe Illustrator 17.0.0, SVG Export Plug-In . SVG Version: 6.00 Build 0)  -->
<!DOCTYPE svg PUBLIC "-//W3C//DTD SVG 1.1//EN" "http://www.w3.org/Graphics/SVG/1.1/DTD/svg11.dtd">
<svg version="1.1" id="Layer_1" xmlns="http://www.w3.org/2000/svg" xmlns:xlink="http://www.w3.org/1999/xlink" x="0px" y="0px"
	 width="32px" height="32px" viewBox="0 0 32 32" style="enable-background:new 0 0 32 32;" xml:space="preserve">
<g>
	<defs>
		<rect id="SVGID_1_" width="32" height="32"/>
	</defs>
	<clipPath id="SVGID_2_">
		<use xlink:href="#SVGID_1_"  style="overflow:visible;"/>
	</clipPath>
	<g style="clip-path:url(#SVGID_2_);">
		<defs>
			<rect id="SVGID_3_" width="32" height="32"/>
		</defs>
		<clipPath id="SVGID_4_">
			<use xlink:href="#SVGID_3_"  style="overflow:visible;"/>
		</clipPath>
		<path style="clip-path:url(#SVGID_4_);" d="M19.584,10.981c-0.254-0.258-0.523-0.482-0.805-0.688l-2.812,2.811
			c-0.035,0.035-0.051,0.084-0.082,0.123c0.301,0.168,0.582,0.373,0.832,0.623l1.437,1.438c1.578,1.582,1.582,4.158,0,5.738
			l-5.742,5.742c-0.762,0.758-1.781,1.178-2.871,1.176c-1.086,0.002-2.105-0.42-2.867-1.176l-1.438-1.437
			c-1.578-1.582-1.578-4.159,0-5.739l1.301-1.3c-0.668-1.534-0.969-3.182-0.914-4.827l-3.258,3.256
			c-3.156,3.158-3.152,8.322,0,11.477l1.438,1.439c1.578,1.58,3.66,2.367,5.738,2.367c2.086,0,4.164-0.787,5.742-2.367l5.742-5.744
			c3.153-3.154,3.153-8.318-0.004-11.475L19.584,10.981z"/>
		<path style="clip-path:url(#SVGID_4_);" d="M22.459,0c-2.082,0-4.164,0.791-5.738,2.369l-5.746,5.742
			c-3.157,3.159-3.153,8.323,0,11.477l1.437,1.437c0.258,0.258,0.547,0.459,0.824,0.674l2.797-2.795
			c0.035-0.037,0.055-0.086,0.082-0.127c-0.297-0.173-0.582-0.371-0.832-0.619l-1.437-1.437c-1.578-1.582-1.578-4.158,0-5.738
			l5.742-5.743c0.762-0.757,1.781-1.179,2.871-1.179c1.086,0,2.105,0.422,2.867,1.177l1.438,1.44c1.578,1.582,1.582,4.158,0,5.738
			l-1.301,1.301c0.668,1.533,0.969,3.183,0.914,4.826l3.258-3.26c3.152-3.154,3.152-8.318-0.004-11.474l-1.438-1.438
			C26.619,0.791,24.538,0,22.459,0"/>
	</g>
</g>
</svg>
