<?xml version="1.0" encoding="iso-8859-1"?>
<!-- Generator: Adobe Illustrator 17.0.0, SVG Export Plug-In . SVG Version: 6.00 Build 0)  -->
<!DOCTYPE svg PUBLIC "-//W3C//DTD SVG 1.1//EN" "http://www.w3.org/Graphics/SVG/1.1/DTD/svg11.dtd">
<svg version="1.1" id="Layer_1" xmlns="http://www.w3.org/2000/svg" xmlns:xlink="http://www.w3.org/1999/xlink" x="0px" y="0px"
	 width="32px" height="32px" viewBox="0 0 32 32" style="enable-background:new 0 0 32 32;" xml:space="preserve">
<g>
	<defs>
		<rect id="SVGID_1_" width="32" height="32"/>
	</defs>
	<clipPath id="SVGID_2_">
		<use xlink:href="#SVGID_1_"  style="overflow:visible;"/>
	</clipPath>
	<g style="clip-path:url(#SVGID_2_);">
		<defs>
			<rect id="SVGID_3_" width="32" height="32"/>
		</defs>
		<clipPath id="SVGID_4_">
			<use xlink:href="#SVGID_3_"  style="overflow:visible;"/>
		</clipPath>
		<path style="clip-path:url(#SVGID_4_);" d="M6,26c0-1.656-1.344-3-3-3s-3,1.344-3,3s1.344,3,3,3S6,27.656,6,26"/>
		<path style="clip-path:url(#SVGID_4_);" d="M6,16c0-1.656-1.344-3-3-3s-3,1.344-3,3s1.344,3,3,3S6,17.656,6,16"/>
		<path style="clip-path:url(#SVGID_4_);" d="M6,6c0-1.656-1.344-3-3-3S0,4.344,0,6s1.344,3,3,3S6,7.656,6,6"/>
		<path style="clip-path:url(#SVGID_4_);" d="M31.999,6c0,1.105-0.895,2-2,2H10C8.894,8,8,7.105,8,6s0.894-2,2-2h19.999
			C31.104,4,31.999,4.895,31.999,6"/>
		<path style="clip-path:url(#SVGID_4_);" d="M31.999,16c0,1.105-0.895,2-2,2H10c-1.106,0-2-0.895-2-2s0.894-2,2-2h19.999
			C31.104,14,31.999,14.895,31.999,16"/>
		<path style="clip-path:url(#SVGID_4_);" d="M31.999,26c0,1.105-0.895,2-2,2H10c-1.106,0-2-0.895-2-2s0.894-2,2-2h19.999
			C31.104,24,31.999,24.895,31.999,26"/>
	</g>
</g>
</svg>
