<?xml version="1.0" encoding="iso-8859-1"?>
<!-- Generator: Adobe Illustrator 17.0.0, SVG Export Plug-In . SVG Version: 6.00 Build 0)  -->
<!DOCTYPE svg PUBLIC "-//W3C//DTD SVG 1.1//EN" "http://www.w3.org/Graphics/SVG/1.1/DTD/svg11.dtd">
<svg version="1.1" id="Layer_1" xmlns="http://www.w3.org/2000/svg" xmlns:xlink="http://www.w3.org/1999/xlink" x="0px" y="0px"
	 width="32px" height="32px" viewBox="0 0 32 32" style="enable-background:new 0 0 32 32;" xml:space="preserve">
<g>
	<defs>
		<rect id="SVGID_1_" width="32" height="32"/>
	</defs>
	<clipPath id="SVGID_2_">
		<use xlink:href="#SVGID_1_"  style="overflow:visible;"/>
	</clipPath>
	<g style="clip-path:url(#SVGID_2_);">
		<defs>
			<rect id="SVGID_3_" width="32" height="32"/>
		</defs>
		<clipPath id="SVGID_4_">
			<use xlink:href="#SVGID_3_"  style="overflow:visible;"/>
		</clipPath>
		<path style="clip-path:url(#SVGID_4_);" d="M16,2c-1.104,0-2,0.896-2,2v4c0,1.104,0.896,2,2,2s2-0.896,2-2V4
			C18,2.896,17.104,2,16,2"/>
		<path style="clip-path:url(#SVGID_4_);" d="M16,22c-1.104,0-2,0.896-2,2v4c0,1.104,0.896,2,2,2s2-0.896,2-2v-4
			C18,22.896,17.104,22,16,22"/>
		<path style="clip-path:url(#SVGID_4_);" d="M8.929,6.101C8.148,5.32,6.882,5.32,6.1,6.101C5.32,6.882,5.32,8.149,6.101,8.929
			l2.828,2.828c0.391,0.391,0.903,0.586,1.415,0.586c0.511,0,1.023-0.195,1.414-0.586c0.781-0.781,0.781-2.048,0-2.828L8.929,6.101z
			"/>
		<path style="clip-path:url(#SVGID_4_);" d="M23.071,20.243c-0.781-0.781-2.047-0.781-2.829,0c-0.78,0.781-0.78,2.048,0.001,2.828
			l2.828,2.828c0.391,0.391,0.903,0.586,1.415,0.586c0.511,0,1.023-0.195,1.414-0.586c0.781-0.781,0.781-2.048,0-2.828
			L23.071,20.243z"/>
		<path style="clip-path:url(#SVGID_4_);" d="M10,16c0-1.104-0.896-2-2-2H4c-1.104,0-2,0.896-2,2s0.896,2,2,2h4
			C9.104,18,10,17.104,10,16"/>
		<path style="clip-path:url(#SVGID_4_);" d="M28,14h-4c-1.104,0-2,0.896-2,2s0.896,2,2,2h4c1.104,0,2-0.896,2-2S29.104,14,28,14"/>
		<path style="clip-path:url(#SVGID_4_);" d="M8.929,20.243L6.1,23.071c-0.781,0.78-0.781,2.047,0,2.828
			c0.391,0.391,0.903,0.586,1.414,0.586c0.512,0,1.024-0.195,1.415-0.586l2.828-2.828c0.781-0.78,0.781-2.047,0.001-2.828
			C10.976,19.462,9.71,19.462,8.929,20.243"/>
		<path style="clip-path:url(#SVGID_4_);" d="M21.657,12.343c0.512,0,1.023-0.195,1.414-0.586L25.9,8.929
			c0.781-0.78,0.781-2.047,0-2.828s-2.047-0.781-2.828,0l-2.829,2.828c-0.781,0.78-0.781,2.047-0.001,2.828
			C20.633,12.148,21.145,12.343,21.657,12.343"/>
	</g>
</g>
</svg>
