<?xml version="1.0" encoding="iso-8859-1"?>
<!-- Generator: Adobe Illustrator 17.0.0, SVG Export Plug-In . SVG Version: 6.00 Build 0)  -->
<!DOCTYPE svg PUBLIC "-//W3C//DTD SVG 1.1//EN" "http://www.w3.org/Graphics/SVG/1.1/DTD/svg11.dtd">
<svg version="1.1" id="Layer_1" xmlns="http://www.w3.org/2000/svg" xmlns:xlink="http://www.w3.org/1999/xlink" x="0px" y="0px"
	 width="32px" height="32px" viewBox="0 0 32 32" style="enable-background:new 0 0 32 32;" xml:space="preserve">
<g>
	<defs>
		<rect id="SVGID_1_" width="32" height="32"/>
	</defs>
	<clipPath id="SVGID_2_">
		<use xlink:href="#SVGID_1_"  style="overflow:visible;"/>
	</clipPath>
	<g style="clip-path:url(#SVGID_2_);">
		<defs>
			<rect id="SVGID_3_" width="32" height="32"/>
		</defs>
		<clipPath id="SVGID_4_">
			<use xlink:href="#SVGID_3_"  style="overflow:visible;"/>
		</clipPath>
		<path style="clip-path:url(#SVGID_4_);" d="M31.763,8H21.44c0.162,1.792,0.274,3.701,0.274,5.593c0,4.706-2.404,8.121-5.714,8.121
			c-3.311,0-5.715-3.415-5.715-8.121c0-1.892,0.112-3.801,0.274-5.593H0.236C0.093,9.8,0,11.694,0,13.593C0,24.087,6.878,32,16,32
			c9.121,0,16-7.913,16-18.407C32,11.694,31.906,9.8,31.763,8"/>
		<path style="clip-path:url(#SVGID_4_);" d="M21.228,6h10.346c-0.114-1.114-0.508-4.103-0.515-4.153
			C30.905,0.831,29.879,0,28.779,0h-6.444c-1.1,0-1.866,0.775-1.702,1.723C20.646,1.795,21.053,4.488,21.228,6"/>
		<path style="clip-path:url(#SVGID_4_);" d="M10.772,6c0.077-0.664,0.579-4.189,0.595-4.277C11.531,0.775,10.765,0,9.665,0H3.221
			c-1.1,0-2.126,0.831-2.279,1.847C0.935,1.888,0.574,4.553,0.426,6H10.772z"/>
	</g>
</g>
</svg>
