<?xml version="1.0" encoding="iso-8859-1"?>
<!-- Generator: Adobe Illustrator 17.0.0, SVG Export Plug-In . SVG Version: 6.00 Build 0)  -->
<!DOCTYPE svg PUBLIC "-//W3C//DTD SVG 1.1//EN" "http://www.w3.org/Graphics/SVG/1.1/DTD/svg11.dtd">
<svg version="1.1" id="Layer_1" xmlns="http://www.w3.org/2000/svg" xmlns:xlink="http://www.w3.org/1999/xlink" x="0px" y="0px"
	 width="32px" height="32px" viewBox="0 0 32 32" style="enable-background:new 0 0 32 32;" xml:space="preserve">
<g>
	<defs>
		<rect id="SVGID_1_" width="32" height="32"/>
	</defs>
	<clipPath id="SVGID_2_">
		<use xlink:href="#SVGID_1_"  style="overflow:visible;"/>
	</clipPath>
	<g style="clip-path:url(#SVGID_2_);">
		<defs>
			<rect id="SVGID_3_" width="32" height="32"/>
		</defs>
		<clipPath id="SVGID_4_">
			<use xlink:href="#SVGID_3_"  style="overflow:visible;"/>
		</clipPath>
		<path style="clip-path:url(#SVGID_4_);" d="M6,12c0-1.105,0.895-2,2-2h16c1.105,0,2,0.895,2,2v4.57l6-3.75L16.035,0L0,12.82
			l6,3.75V12z"/>
		<path style="clip-path:url(#SVGID_4_);" d="M22,15c0-0.553-0.449-1-1-1H11c-0.555,0-1,0.447-1,1s0.445,1,1,1h10
			C21.551,16,22,15.553,22,15"/>
		<path style="clip-path:url(#SVGID_4_);" d="M15,18c-0.555,0-1,0.447-1,1s0.445,1,1,1h2c0.551,0,1-0.447,1-1s-0.449-1-1-1H15z"/>
		<path style="clip-path:url(#SVGID_4_);" d="M16,24.82c-0.367,0-0.738-0.102-1.062-0.304L0,15.179V30c0,1.104,0.895,2,2,2h28
			c1.105,0,2-0.896,2-2V15.179l-14.941,9.337C16.734,24.718,16.367,24.82,16,24.82"/>
	</g>
</g>
</svg>
