<?xml version="1.0" encoding="iso-8859-1"?>
<!-- Generator: Adobe Illustrator 17.0.0, SVG Export Plug-In . SVG Version: 6.00 Build 0)  -->
<!DOCTYPE svg PUBLIC "-//W3C//DTD SVG 1.1//EN" "http://www.w3.org/Graphics/SVG/1.1/DTD/svg11.dtd">
<svg version="1.1" id="Layer_1" xmlns="http://www.w3.org/2000/svg" xmlns:xlink="http://www.w3.org/1999/xlink" x="0px" y="0px"
	 width="32px" height="32px" viewBox="0 0 32 32" style="enable-background:new 0 0 32 32;" xml:space="preserve">
<g>
	<defs>
		<rect id="SVGID_1_" width="32" height="32"/>
	</defs>
	<clipPath id="SVGID_2_">
		<use xlink:href="#SVGID_1_"  style="overflow:visible;"/>
	</clipPath>
	<g style="clip-path:url(#SVGID_2_);">
		<defs>
			<rect id="SVGID_3_" width="32" height="32"/>
		</defs>
		<clipPath id="SVGID_4_">
			<use xlink:href="#SVGID_3_"  style="overflow:visible;"/>
		</clipPath>
		<path style="clip-path:url(#SVGID_4_);" d="M29.963,4.864c-9.332-3.481-18.664,5.371-28,1.889c-1.098-0.405-2-0.029-2,1.093
			v16.382c0,1.118,0.902,2.576,2,2.981c9.336,3.482,18.668-5.37,28-1.888c1.102,0.405,2,0.029,2-1.093V7.846
			C31.963,6.728,31.065,5.27,29.963,4.864 M20.045,18.294c0,1.809-1.164,2.928-2.914,3.211v0.473c0,0.657-0.523,1.19-1.168,1.19
			c-0.645,0-1.168-0.533-1.168-1.19v-0.571c-0.875-0.193-1.73-0.547-2.484-1.098c-0.254-0.183-0.43-0.515-0.43-0.879
			c0-0.607,0.477-1.076,1.07-1.076c0.297,0,0.504,0.107,0.653,0.212c0.789,0.591,1.652,0.956,2.664,0.956
			c0.937,0,1.504-0.38,1.504-1.001V18.49c0-0.591-0.36-0.894-2.098-1.348c-2.098-0.545-3.453-1.136-3.453-3.243v-0.03
			c0-1.579,1.035-2.707,2.574-3.065v-0.708c0-0.657,0.523-1.188,1.168-1.188c0.645,0,1.168,0.531,1.168,1.188v0.71
			c0.746,0.147,1.43,0.412,2.039,0.805c0.25,0.152,0.504,0.47,0.504,0.925c0,0.606-0.477,1.074-1.07,1.074
			c-0.223,0-0.403-0.059-0.582-0.165c-0.758-0.455-1.469-0.714-2.188-0.714c-0.875,0-1.336,0.411-1.336,0.925v0.033
			c0,0.696,0.445,0.922,2.246,1.392c2.114,0.561,3.301,1.333,3.301,3.183V18.294z"/>
	</g>
</g>
</svg>
