<?xml version="1.0" encoding="iso-8859-1"?>
<!-- Generator: Adobe Illustrator 17.0.0, SVG Export Plug-In . SVG Version: 6.00 Build 0)  -->
<!DOCTYPE svg PUBLIC "-//W3C//DTD SVG 1.1//EN" "http://www.w3.org/Graphics/SVG/1.1/DTD/svg11.dtd">
<svg version="1.1" id="Layer_1" xmlns="http://www.w3.org/2000/svg" xmlns:xlink="http://www.w3.org/1999/xlink" x="0px" y="0px"
	 width="32px" height="32px" viewBox="0 0 32 32" style="enable-background:new 0 0 32 32;" xml:space="preserve">
<g>
	<defs>
		<rect id="SVGID_1_" width="32" height="32"/>
	</defs>
	<clipPath id="SVGID_2_">
		<use xlink:href="#SVGID_1_"  style="overflow:visible;"/>
	</clipPath>
	<g style="clip-path:url(#SVGID_2_);">
		<defs>
			<rect id="SVGID_3_" width="32" height="32"/>
		</defs>
		<clipPath id="SVGID_4_">
			<use xlink:href="#SVGID_3_"  style="overflow:visible;"/>
		</clipPath>
		<path style="clip-path:url(#SVGID_4_);" d="M31.395,14.685l-5.922-5.291C24.664,8.671,24,8.97,24,10.058V13h-5V8h2.942
			c1.09,0,1.387-0.663,0.664-1.472l-5.289-5.92c-0.723-0.811-1.906-0.811-2.629,0l-5.293,5.92C8.672,7.337,8.973,8,10.059,8H13v5H8
			v-2.942C8,8.97,7.34,8.671,6.528,9.394L0.61,14.685c-0.813,0.723-0.813,1.906,0,2.629l5.918,5.291C7.34,23.328,8,23.029,8,21.941
			V19h5v4.999h-2.941c-1.086,0-1.387,0.664-0.664,1.473l5.293,5.92c0.723,0.811,1.906,0.811,2.629,0l5.289-5.92
			c0.723-0.809,0.426-1.473-0.664-1.473H19V19h5v2.941c0,1.088,0.664,1.387,1.473,0.664l5.922-5.291
			C32.204,16.591,32.204,15.408,31.395,14.685"/>
	</g>
</g>
</svg>
