<?xml version="1.0" encoding="iso-8859-1"?>
<!-- Generator: Adobe Illustrator 17.0.0, SVG Export Plug-In . SVG Version: 6.00 Build 0)  -->
<!DOCTYPE svg PUBLIC "-//W3C//DTD SVG 1.1//EN" "http://www.w3.org/Graphics/SVG/1.1/DTD/svg11.dtd">
<svg version="1.1" id="Layer_1" xmlns="http://www.w3.org/2000/svg" xmlns:xlink="http://www.w3.org/1999/xlink" x="0px" y="0px"
	 width="32px" height="32px" viewBox="0 0 32 32" style="enable-background:new 0 0 32 32;" xml:space="preserve">
<g>
	<defs>
		<rect id="SVGID_1_" width="32" height="32"/>
	</defs>
	<clipPath id="SVGID_2_">
		<use xlink:href="#SVGID_1_"  style="overflow:visible;"/>
	</clipPath>
	<g style="clip-path:url(#SVGID_2_);">
		<defs>
			<rect id="SVGID_3_" width="32" height="32"/>
		</defs>
		<clipPath id="SVGID_4_">
			<use xlink:href="#SVGID_3_"  style="overflow:visible;"/>
		</clipPath>
		<path style="clip-path:url(#SVGID_4_);" d="M30,2H10C8.896,2,8,2.895,8,4v2H4c-2.209,0-4,1.793-4,4v10c0,2.211,1.791,4,4,4h4
			c0,3.313,2.687,6,6,6h12c3.314,0,6-2.687,6-6V4C32,2.895,31.105,2,30,2 M8,20H4V10h4V20z M26.816,14.598
			c-0.441,3.629-6.113,7.215-6.113,7.215c-0.387,0.246-1.02,0.25-1.407,0.012c0,0-5.683-3.489-6.109-7.227h0.004
			c-0.02-0.148-0.047-0.293-0.047-0.437c0-1.918,1.613-4.161,3.602-4.161c1.441,0,2.683,0.821,3.258,2.004
			C20.578,10.821,21.816,10,23.261,10c1.985,0,3.598,2.243,3.598,4.161c0,0.144-0.027,0.289-0.047,0.437H26.816z"/>
	</g>
</g>
</svg>
