<?xml version="1.0" encoding="iso-8859-1"?>
<!-- Generator: Adobe Illustrator 17.0.0, SVG Export Plug-In . SVG Version: 6.00 Build 0)  -->
<!DOCTYPE svg PUBLIC "-//W3C//DTD SVG 1.1//EN" "http://www.w3.org/Graphics/SVG/1.1/DTD/svg11.dtd">
<svg version="1.1" id="Layer_1" xmlns="http://www.w3.org/2000/svg" xmlns:xlink="http://www.w3.org/1999/xlink" x="0px" y="0px"
	 width="32px" height="32px" viewBox="0 0 32 32" style="enable-background:new 0 0 32 32;" xml:space="preserve">
<g>
	<defs>
		<rect id="SVGID_1_" width="32" height="32"/>
	</defs>
	<clipPath id="SVGID_2_">
		<use xlink:href="#SVGID_1_"  style="overflow:visible;"/>
	</clipPath>
	<g style="clip-path:url(#SVGID_2_);">
		<defs>
			<rect id="SVGID_3_" width="32" height="32"/>
		</defs>
		<clipPath id="SVGID_4_">
			<use xlink:href="#SVGID_3_"  style="overflow:visible;"/>
		</clipPath>
		<path style="clip-path:url(#SVGID_4_);" d="M32,1.674c0-1.1-0.885-1.84-1.967-1.643L11.967,3.317C10.885,3.512,10,4.574,10,5.674
			V6L9.998,20.6c-0.91-0.373-1.922-0.6-3-0.6c-3.867,0-7,2.686-7,6c0,3.315,3.133,6,7,6s7-2.685,7-6V11.274L28,8.727V18.6
			c-0.91-0.373-1.924-0.6-3.002-0.6c-3.867,0-7,2.686-7,6c0,3.315,3.133,6,7,6s7-2.685,7-6L32,1.674z"/>
	</g>
</g>
</svg>
