<?xml version="1.0" encoding="iso-8859-1"?>
<!-- Generator: Adobe Illustrator 17.0.0, SVG Export Plug-In . SVG Version: 6.00 Build 0)  -->
<!DOCTYPE svg PUBLIC "-//W3C//DTD SVG 1.1//EN" "http://www.w3.org/Graphics/SVG/1.1/DTD/svg11.dtd">
<svg version="1.1" id="Layer_1" xmlns="http://www.w3.org/2000/svg" xmlns:xlink="http://www.w3.org/1999/xlink" x="0px" y="0px"
	 width="32px" height="32px" viewBox="0 0 32 32" style="enable-background:new 0 0 32 32;" xml:space="preserve">
<g>
	<defs>
		<rect id="SVGID_1_" width="32" height="32"/>
	</defs>
	<clipPath id="SVGID_2_">
		<use xlink:href="#SVGID_1_"  style="overflow:visible;"/>
	</clipPath>
	<g style="clip-path:url(#SVGID_2_);">
		<defs>
			<rect id="SVGID_3_" width="32" height="32"/>
		</defs>
		<clipPath id="SVGID_4_">
			<use xlink:href="#SVGID_3_"  style="overflow:visible;"/>
		</clipPath>
		<path style="clip-path:url(#SVGID_4_);" d="M32,0H6.002L6,25c0,0.553-0.447,1-1,1s-1-0.447-1-1V6c0-1.105-0.896-2-2-2S0,4.895,0,6
			v20c0,0.004,0.002,0.006,0.002,0.01c0.006,3.308,2.687,5.99,6,5.99h20C29.314,32,32,29.313,32,26V0z M27,26H11
			c-0.553,0-1-0.447-1-1s0.447-1,1-1h16c0.553,0,1,0.447,1,1S27.553,26,27,26 M27,22H11c-0.553,0-1-0.447-1-1s0.447-1,1-1h16
			c0.553,0,1,0.447,1,1S27.553,22,27,22 M28.002,14H10V6h18.002V14z"/>
	</g>
</g>
</svg>
