<?xml version="1.0" encoding="iso-8859-1"?>
<!-- Generator: Adobe Illustrator 17.0.0, SVG Export Plug-In . SVG Version: 6.00 Build 0)  -->
<!DOCTYPE svg PUBLIC "-//W3C//DTD SVG 1.1//EN" "http://www.w3.org/Graphics/SVG/1.1/DTD/svg11.dtd">
<svg version="1.1" id="Layer_1" xmlns="http://www.w3.org/2000/svg" xmlns:xlink="http://www.w3.org/1999/xlink" x="0px" y="0px"
	 width="32px" height="32px" viewBox="0 0 32 32" style="enable-background:new 0 0 32 32;" xml:space="preserve">
<g>
	<defs>
		<rect id="SVGID_1_" width="32" height="32"/>
	</defs>
	<clipPath id="SVGID_2_">
		<use xlink:href="#SVGID_1_"  style="overflow:visible;"/>
	</clipPath>
	<g style="clip-path:url(#SVGID_2_);">
		<defs>
			<rect id="SVGID_3_" width="32" height="32"/>
		</defs>
		<clipPath id="SVGID_4_">
			<use xlink:href="#SVGID_3_"  style="overflow:visible;"/>
		</clipPath>
		<path style="clip-path:url(#SVGID_4_);" d="M5.106,24.307c0,0-0.983,4.767-4.451,6.113c0,0-0.619,0.276-0.653,0.915
			C-0.037,31.971,0.812,32,0.812,32s17.29-1.326,17.059-12.204l-3.995-3.559C11.811,16.531,6.013,18.477,5.106,24.307"/>
		<path style="clip-path:url(#SVGID_4_);" d="M30.939,0.704c-1.263-1.069-3.154-0.912-4.223,0.352L15.161,14.708l0.043,0.038
			l3.88,3.457L31.209,5.02c0.025-0.027,0.057-0.064,0.081-0.093C32.36,3.664,32.202,1.773,30.939,0.704"/>
	</g>
</g>
</svg>
