<?xml version="1.0" encoding="iso-8859-1"?>
<!-- Generator: Adobe Illustrator 17.0.0, SVG Export Plug-In . SVG Version: 6.00 Build 0)  -->
<!DOCTYPE svg PUBLIC "-//W3C//DTD SVG 1.1//EN" "http://www.w3.org/Graphics/SVG/1.1/DTD/svg11.dtd">
<svg version="1.1" id="Layer_1" xmlns="http://www.w3.org/2000/svg" xmlns:xlink="http://www.w3.org/1999/xlink" x="0px" y="0px"
	 width="32px" height="32px" viewBox="0 0 32 32" style="enable-background:new 0 0 32 32;" xml:space="preserve">
<g>
	<defs>
		<rect id="SVGID_1_" width="32" height="32"/>
	</defs>
	<clipPath id="SVGID_2_">
		<use xlink:href="#SVGID_1_"  style="overflow:visible;"/>
	</clipPath>
	<g style="clip-path:url(#SVGID_2_);">
		<defs>
			<rect id="SVGID_3_" width="32" height="32"/>
		</defs>
		<clipPath id="SVGID_4_">
			<use xlink:href="#SVGID_3_"  style="overflow:visible;"/>
		</clipPath>
		<path style="clip-path:url(#SVGID_4_);" d="M31.414,28.586L20.017,17.189L31.209,5.02c0.025-0.027,0.057-0.064,0.082-0.093
			c1.069-1.263,0.911-3.154-0.352-4.223c-1.263-1.069-3.154-0.912-4.223,0.351L16.25,13.422L3.414,0.586
			c-0.78-0.781-2.048-0.781-2.828,0c-0.781,0.781-0.781,2.047,0,2.828l28,28C28.976,31.805,29.488,32,30,32
			c0.512,0,1.024-0.195,1.414-0.586C32.195,30.633,32.195,29.367,31.414,28.586"/>
		<path style="clip-path:url(#SVGID_4_);" d="M5.106,24.307c0,0-0.983,4.767-4.451,6.113c0,0-0.619,0.276-0.653,0.915
			C-0.037,31.971,0.812,32,0.812,32s11.483-0.883,15.606-7.098l-6.961-6.961C7.487,19.178,5.593,21.18,5.106,24.307"/>
	</g>
</g>
</svg>
