<?xml version="1.0" encoding="iso-8859-1"?>
<!-- Generator: Adobe Illustrator 17.0.0, SVG Export Plug-In . SVG Version: 6.00 Build 0)  -->
<!DOCTYPE svg PUBLIC "-//W3C//DTD SVG 1.1//EN" "http://www.w3.org/Graphics/SVG/1.1/DTD/svg11.dtd">
<svg version="1.1" id="Layer_1" xmlns="http://www.w3.org/2000/svg" xmlns:xlink="http://www.w3.org/1999/xlink" x="0px" y="0px"
	 width="32px" height="32px" viewBox="0 0 32 32" style="enable-background:new 0 0 32 32;" xml:space="preserve">
<g>
	<defs>
		<rect id="SVGID_1_" width="32" height="32"/>
	</defs>
	<clipPath id="SVGID_2_">
		<use xlink:href="#SVGID_1_"  style="overflow:visible;"/>
	</clipPath>
	<polygon style="clip-path:url(#SVGID_2_);" points="0,6 0,32 26,32 26,20 22,20 22,28.001 4,28.001 4,10.001 12,10.001 12,6 	"/>
</g>
<g>
	<defs>
		<rect id="SVGID_3_" width="32" height="32"/>
	</defs>
	<clipPath id="SVGID_4_">
		<use xlink:href="#SVGID_3_"  style="overflow:visible;"/>
	</clipPath>
	<g style="clip-path:url(#SVGID_4_);">
		<defs>
			<rect id="SVGID_5_" width="32" height="32"/>
		</defs>
		<clipPath id="SVGID_6_">
			<use xlink:href="#SVGID_5_"  style="overflow:visible;"/>
		</clipPath>
		<path style="clip-path:url(#SVGID_6_);" d="M7.864,20.838c0,0-0.489,0.185-0.544,0.677c-0.058,0.489,0.595,0.548,0.595,0.548
			s13.391-0.254,13.696-8.652l-2.922-2.923c-1.605,0.136-6.163,1.379-7.121,5.834C11.568,16.322,10.598,19.954,7.864,20.838"/>
		<path style="clip-path:url(#SVGID_6_);" d="M31.414,0.586c-0.782-0.782-2.047-0.782-2.828,0L20.1,9.071l2.829,2.829l8.485-8.486
			C32.196,2.633,32.196,1.368,31.414,0.586"/>
	</g>
</g>
</svg>
