<?xml version="1.0" encoding="iso-8859-1"?>
<!-- Generator: Adobe Illustrator 17.0.0, SVG Export Plug-In . SVG Version: 6.00 Build 0)  -->
<!DOCTYPE svg PUBLIC "-//W3C//DTD SVG 1.1//EN" "http://www.w3.org/Graphics/SVG/1.1/DTD/svg11.dtd">
<svg version="1.1" id="Layer_1" xmlns="http://www.w3.org/2000/svg" xmlns:xlink="http://www.w3.org/1999/xlink" x="0px" y="0px"
	 width="32px" height="32px" viewBox="0 0 32 32" style="enable-background:new 0 0 32 32;" xml:space="preserve">
<g>
	<defs>
		<rect id="SVGID_1_" width="32" height="32"/>
	</defs>
	<clipPath id="SVGID_2_">
		<use xlink:href="#SVGID_1_"  style="overflow:visible;"/>
	</clipPath>
	<g style="clip-path:url(#SVGID_2_);">
		<defs>
			<rect id="SVGID_3_" width="32" height="32"/>
		</defs>
		<clipPath id="SVGID_4_">
			<use xlink:href="#SVGID_3_"  style="overflow:visible;"/>
		</clipPath>
		<path style="clip-path:url(#SVGID_4_);" d="M26,6V4c0-2.209-1.793-4-4-4H4C1.789,0,0,1.791,0,4v2c0,2.209,1.789,4,4,4h18
			C24.207,10,26,8.209,26,6"/>
		<path style="clip-path:url(#SVGID_4_);" d="M31,4h-3v2h2v5.246l-13.273,3.793C16.297,15.162,16,15.553,16,16v4c-1.102,0-2,0.9-2,2
			v8c0,1.1,0.898,2,2,2h2c1.098,0,2-0.9,2-2v-8c0-1.1-0.902-2-2-2v-3.246l13.277-3.793C31.703,12.838,32,12.447,32,12V5
			C32,4.447,31.555,4,31,4"/>
	</g>
</g>
</svg>
