<?xml version="1.0" encoding="iso-8859-1"?>
<!-- Generator: Adobe Illustrator 17.0.0, SVG Export Plug-In . SVG Version: 6.00 Build 0)  -->
<!DOCTYPE svg PUBLIC "-//W3C//DTD SVG 1.1//EN" "http://www.w3.org/Graphics/SVG/1.1/DTD/svg11.dtd">
<svg version="1.1" id="Layer_1" xmlns="http://www.w3.org/2000/svg" xmlns:xlink="http://www.w3.org/1999/xlink" x="0px" y="0px"
	 width="32px" height="32px" viewBox="0 0 32 32" style="enable-background:new 0 0 32 32;" xml:space="preserve">
<g>
	<defs>
		<rect id="SVGID_1_" width="32" height="32"/>
	</defs>
	<clipPath id="SVGID_2_">
		<use xlink:href="#SVGID_1_"  style="overflow:visible;"/>
	</clipPath>
	<g style="clip-path:url(#SVGID_2_);">
		<defs>
			<rect id="SVGID_3_" width="32" height="32"/>
		</defs>
		<clipPath id="SVGID_4_">
			<use xlink:href="#SVGID_3_"  style="overflow:visible;"/>
		</clipPath>
		<path style="clip-path:url(#SVGID_4_);" d="M29.17,17.503c3.771-3.769,3.773-9.905,0.004-13.679
			c-3.772-3.768-9.908-3.763-13.68,0.001l-1.67,1.671c1.539,0.093,3.004,0.55,4.276,1.38l0.222-0.222
			c2.209-2.207,5.811-2.209,8.024-0.002c2.209,2.213,2.209,5.811-0.004,8.022c0,0-12.656,12.658-12.654,12.657
			c-2.211,2.211-5.811,2.208-8.02-0.001c-1.072-1.071-1.662-2.495-1.662-4.01c0-1.515,0.59-2.937,1.662-4.009l6.33-6.328
			c0.346-0.345,0.805-0.539,1.295-0.538c0.49-0.001,0.949,0.19,1.297,0.538l0.002,0.001h0.002c0.344,0.347,0.535,0.805,0.533,1.295
			c0.002,0.491-0.189,0.953-0.535,1.301l-4.719,4.718c-0.781,0.779-0.783,2.046,0,2.828c0.781,0.78,2.047,0.781,2.828,0.001
			l4.719-4.719c1.101-1.103,1.707-2.569,1.709-4.128c-0.002-1.558-0.608-3.022-1.705-4.12c-0.004-0.003-0.004-0.005-0.006-0.005
			v-0.001c-1.104-1.103-2.566-1.709-4.125-1.708c-1.559,0-3.025,0.606-4.127,1.709L2.84,16.482
			c-1.828,1.826-2.834,4.256-2.834,6.838c0,2.584,1.006,5.014,2.834,6.84c1.885,1.884,4.357,2.826,6.836,2.826
			c2.476,0,4.953-0.942,6.84-2.826L29.17,17.503z"/>
	</g>
</g>
</svg>
