<?xml version="1.0" encoding="iso-8859-1"?>
<!-- Generator: Adobe Illustrator 17.0.0, SVG Export Plug-In . SVG Version: 6.00 Build 0)  -->
<!DOCTYPE svg PUBLIC "-//W3C//DTD SVG 1.1//EN" "http://www.w3.org/Graphics/SVG/1.1/DTD/svg11.dtd">
<svg version="1.1" id="Layer_1" xmlns="http://www.w3.org/2000/svg" xmlns:xlink="http://www.w3.org/1999/xlink" x="0px" y="0px"
	 width="32px" height="32px" viewBox="0 0 32 32" style="enable-background:new 0 0 32 32;" xml:space="preserve">
<g>
	<defs>
		<rect id="SVGID_1_" width="32" height="32"/>
	</defs>
	<clipPath id="SVGID_2_">
		<use xlink:href="#SVGID_1_"  style="overflow:visible;"/>
	</clipPath>
	<g style="clip-path:url(#SVGID_2_);">
		<defs>
			<rect id="SVGID_3_" width="32" height="32"/>
		</defs>
		<clipPath id="SVGID_4_">
			<use xlink:href="#SVGID_3_"  style="overflow:visible;"/>
		</clipPath>
		<path style="clip-path:url(#SVGID_4_);" d="M11.762,0.164c-0.309,0.387-0.094,0.863-0.094,0.863
			c1.309,2.559-0.574,5.813-0.574,5.813c-2.473,3.828-0.129,7.93,0.91,9.16h4.133c5.723-6.154-3.566-15.803-3.566-15.803
			S12.067-0.223,11.762,0.164"/>
		<path style="clip-path:url(#SVGID_4_);" d="M12,30c0,1.105,0.895,2,2,2s2-0.895,2-2V18h-4V30z"/>
		<path style="clip-path:url(#SVGID_4_);" d="M4,0.017c-2.211,0-4,1.773-4,3.982v2h8V4.017C8,1.808,6.207,0.017,4,0.017"/>
		<polygon style="clip-path:url(#SVGID_4_);" points="0,26.017 4,31.999 8,26.017 8,8.017 0,8.017 		"/>
		<polygon style="clip-path:url(#SVGID_4_);" points="24,26.017 28,31.999 32,26.017 32,17.999 24,17.999 		"/>
		<path style="clip-path:url(#SVGID_4_);" d="M24,6v10h8V4.018c0-2.209-1.793-4-4-4c-2.203,0-3.988,1.781-4,3.982h-4v11
			c0,0.553,0.449,1,1,1c0.555,0,1-0.447,1-1V6H24z"/>
	</g>
</g>
</svg>
