<?xml version="1.0" encoding="iso-8859-1"?>
<!-- Generator: Adobe Illustrator 17.0.0, SVG Export Plug-In . SVG Version: 6.00 Build 0)  -->
<!DOCTYPE svg PUBLIC "-//W3C//DTD SVG 1.1//EN" "http://www.w3.org/Graphics/SVG/1.1/DTD/svg11.dtd">
<svg version="1.1" id="Layer_1" xmlns="http://www.w3.org/2000/svg" xmlns:xlink="http://www.w3.org/1999/xlink" x="0px" y="0px"
	 width="32px" height="32px" viewBox="0 0 32 32" style="enable-background:new 0 0 32 32;" xml:space="preserve">
<g>
	<defs>
		<rect id="SVGID_1_" width="32" height="32"/>
	</defs>
	<clipPath id="SVGID_2_">
		<use xlink:href="#SVGID_1_"  style="overflow:visible;"/>
	</clipPath>
	<g style="clip-path:url(#SVGID_2_);">
		<defs>
			<rect id="SVGID_3_" width="32" height="32"/>
		</defs>
		<clipPath id="SVGID_4_">
			<use xlink:href="#SVGID_3_"  style="overflow:visible;"/>
		</clipPath>
		<path style="clip-path:url(#SVGID_4_);" d="M31.414,28.586l-5.895-5.893c4.182-4.676,6.532-9.682,6.479-14.122
			c-0.004-0.49-0.041-0.97-0.1-1.428c-0.086-0.677-0.259-1.346-0.531-2.045c-0.392-0.977-0.961-1.866-1.644-2.578l-1.666-1.677
			c-0.516-0.517-1.19-0.815-1.901-0.841c-0.726-0.028-1.402,0.231-1.902,0.733l-4.738,4.737c-0.989,0.988-0.934,2.754,0.109,3.799
			l3.139,3.139c-0.057,0.109-0.12,0.218-0.18,0.33c-0.633,1.156-1.453,2.643-2.772,4.246L3.414,0.586
			c-0.781-0.781-2.047-0.781-2.828,0s-0.781,2.047,0,2.828l28,28C28.977,31.805,29.488,32,30,32c0.512,0,1.023-0.195,1.414-0.586
			C32.195,30.633,32.195,29.367,31.414,28.586"/>
		<path style="clip-path:url(#SVGID_4_);" d="M12.41,22.765l-3.137-3.138c-1.047-1.044-2.812-1.097-3.803-0.11l-4.736,4.738
			c-0.5,0.5-0.76,1.174-0.734,1.903c0.027,0.709,0.326,1.381,0.844,1.897l1.675,1.668c0.713,0.685,1.602,1.252,2.578,1.644
			c0.7,0.273,1.368,0.447,2.043,0.531c0.461,0.06,0.94,0.096,1.43,0.101c3.453,0.039,7.248-1.387,10.965-3.977l-5.924-5.925
			C13.312,22.266,12.517,22.706,12.41,22.765"/>
	</g>
</g>
</svg>
