<?xml version="1.0" encoding="iso-8859-1"?>
<!-- Generator: Adobe Illustrator 17.0.0, SVG Export Plug-In . SVG Version: 6.00 Build 0)  -->
<!DOCTYPE svg PUBLIC "-//W3C//DTD SVG 1.1//EN" "http://www.w3.org/Graphics/SVG/1.1/DTD/svg11.dtd">
<svg version="1.1" id="Layer_1" xmlns="http://www.w3.org/2000/svg" xmlns:xlink="http://www.w3.org/1999/xlink" x="0px" y="0px"
	 width="32px" height="32px" viewBox="0 0 32 32" style="enable-background:new 0 0 32 32;" xml:space="preserve">
<g>
	<defs>
		<rect id="SVGID_1_" width="32" height="32"/>
	</defs>
	<clipPath id="SVGID_2_">
		<use xlink:href="#SVGID_1_"  style="overflow:visible;"/>
	</clipPath>
	<g style="clip-path:url(#SVGID_2_);">
		<defs>
			<rect id="SVGID_3_" width="32" height="32"/>
		</defs>
		<clipPath id="SVGID_4_">
			<use xlink:href="#SVGID_3_"  style="overflow:visible;"/>
		</clipPath>
		<path style="clip-path:url(#SVGID_4_);" d="M2.521,29.723c0.713,0.685,1.602,1.252,2.578,1.644
			c0.699,0.273,1.367,0.447,2.043,0.531c0.461,0.06,0.94,0.096,1.43,0.101c4.906,0.055,10.508-2.794,15.59-7.838
			C29.205,19.08,32.056,13.478,32,8.572c-0.004-0.491-0.041-0.971-0.1-1.429c-0.086-0.677-0.26-1.346-0.531-2.045
			c-0.393-0.977-0.961-1.865-1.645-2.578l-1.666-1.677c-0.515-0.516-1.189-0.814-1.9-0.841c-0.727-0.028-1.403,0.232-1.903,0.734
			l-4.738,4.736c-0.988,0.988-0.933,2.754,0.11,3.8l3.138,3.139c-0.056,0.108-0.119,0.217-0.179,0.33
			c-0.827,1.507-1.952,3.573-4.112,5.732c-2.16,2.158-4.226,3.285-5.73,4.111c-0.115,0.062-0.225,0.122-0.332,0.181l-3.137-3.138
			c-1.047-1.044-2.813-1.097-3.803-0.11l-4.736,4.738c-0.5,0.5-0.76,1.174-0.734,1.903c0.027,0.709,0.326,1.381,0.843,1.897
			L2.521,29.723z"/>
	</g>
</g>
</svg>
