<?xml version="1.0" encoding="iso-8859-1"?>
<!-- Generator: Adobe Illustrator 17.0.0, SVG Export Plug-In . SVG Version: 6.00 Build 0)  -->
<!DOCTYPE svg PUBLIC "-//W3C//DTD SVG 1.1//EN" "http://www.w3.org/Graphics/SVG/1.1/DTD/svg11.dtd">
<svg version="1.1" id="Layer_1" xmlns="http://www.w3.org/2000/svg" xmlns:xlink="http://www.w3.org/1999/xlink" x="0px" y="0px"
	 width="32px" height="32px" viewBox="0 0 32 32" style="enable-background:new 0 0 32 32;" xml:space="preserve">
<g>
	<defs>
		<rect id="SVGID_1_" width="32" height="32"/>
	</defs>
	<clipPath id="SVGID_2_">
		<use xlink:href="#SVGID_1_"  style="overflow:visible;"/>
	</clipPath>
	<g style="clip-path:url(#SVGID_2_);">
		<defs>
			<rect id="SVGID_3_" width="32" height="32"/>
		</defs>
		<clipPath id="SVGID_4_">
			<use xlink:href="#SVGID_3_"  style="overflow:visible;"/>
		</clipPath>
		<path style="clip-path:url(#SVGID_4_);" d="M30,0H2C0.898,0,0,0.895,0,2v28c0,1.104,0.898,2,2,2h28c1.105,0,2-0.896,2-2V2
			C32,0.895,31.105,0,30,0 M28,24H4V4h24V24z"/>
		<polygon style="clip-path:url(#SVGID_4_);" points="26,22 21,14 19.137,16.984 14,8 6,22 		"/>
		<path style="clip-path:url(#SVGID_4_);" d="M23,11.5c1.379,0,2.5-1.117,2.5-2.5S24.379,6.5,23,6.5S20.5,7.617,20.5,9
			S21.621,11.5,23,11.5"/>
	</g>
</g>
</svg>
