<?xml version="1.0" encoding="iso-8859-1"?>
<!-- Generator: Adobe Illustrator 17.0.0, SVG Export Plug-In . SVG Version: 6.00 Build 0)  -->
<!DOCTYPE svg PUBLIC "-//W3C//DTD SVG 1.1//EN" "http://www.w3.org/Graphics/SVG/1.1/DTD/svg11.dtd">
<svg version="1.1" id="Layer_1" xmlns="http://www.w3.org/2000/svg" xmlns:xlink="http://www.w3.org/1999/xlink" x="0px" y="0px"
	 width="32px" height="32px" viewBox="0 0 32 32" style="enable-background:new 0 0 32 32;" xml:space="preserve">
<g>
	<defs>
		<rect id="SVGID_1_" width="32" height="32"/>
	</defs>
	<clipPath id="SVGID_2_">
		<use xlink:href="#SVGID_1_"  style="overflow:visible;"/>
	</clipPath>
	<g style="clip-path:url(#SVGID_2_);">
		<defs>
			<rect id="SVGID_3_" width="32" height="32"/>
		</defs>
		<clipPath id="SVGID_4_">
			<use xlink:href="#SVGID_3_"  style="overflow:visible;"/>
		</clipPath>
		<path style="clip-path:url(#SVGID_4_);" d="M6,24H2c-1.102,0-2,0.895-2,2v4c0,1.105,0.898,2,2,2h4c1.105,0,2-0.895,2-2v-4
			C8,24.895,7.105,24,6,24"/>
		<path style="clip-path:url(#SVGID_4_);" d="M6,14H2c-1.102,0-2,0.895-2,2v4c0,1.105,0.898,2,2,2h4c1.105,0,2-0.895,2-2v-4
			C8,14.895,7.105,14,6,14"/>
		<path style="clip-path:url(#SVGID_4_);" d="M6,4H2C0.898,4,0,4.895,0,6v4c0,1.105,0.898,2,2,2h4c1.105,0,2-0.895,2-2V6
			C8,4.895,7.105,4,6,4"/>
		<path style="clip-path:url(#SVGID_4_);" d="M16,24h-4c-1.105,0-2,0.895-2,2v4c0,1.105,0.895,2,2,2h4c1.105,0,2-0.895,2-2v-4
			C18,24.895,17.105,24,16,24"/>
		<path style="clip-path:url(#SVGID_4_);" d="M16,14h-4c-1.105,0-2,0.895-2,2v4c0,1.105,0.895,2,2,2h4c1.105,0,2-0.895,2-2v-4
			C18,14.895,17.105,14,16,14"/>
		<path style="clip-path:url(#SVGID_4_);" d="M26,24h-4c-1.105,0-2,0.895-2,2v4c0,1.105,0.895,2,2,2h4c1.105,0,2-0.895,2-2v-4
			C28,24.895,27.105,24,26,24"/>
		<path style="clip-path:url(#SVGID_4_);" d="M26,14h-4c-1.105,0-2,0.895-2,2v4c0,1.105,0.895,2,2,2h4c1.105,0,2-0.895,2-2v-4
			C28,14.895,27.105,14,26,14"/>
		<path style="clip-path:url(#SVGID_4_);" d="M30,0h-4c-1.105,0-2,0.895-2,2v4c0,1.105,0.895,2,2,2h4c1.105,0,2-0.895,2-2V2
			C32,0.895,31.105,0,30,0"/>
		<path style="clip-path:url(#SVGID_4_);" d="M16,4h-4c-1.105,0-2,0.895-2,2v4c0,1.105,0.895,2,2,2h4c1.105,0,2-0.895,2-2V6
			C18,4.895,17.105,4,16,4"/>
	</g>
</g>
</svg>
