<?xml version="1.0" encoding="iso-8859-1"?>
<!-- Generator: Adobe Illustrator 17.0.0, SVG Export Plug-In . SVG Version: 6.00 Build 0)  -->
<!DOCTYPE svg PUBLIC "-//W3C//DTD SVG 1.1//EN" "http://www.w3.org/Graphics/SVG/1.1/DTD/svg11.dtd">
<svg version="1.1" id="Layer_1" xmlns="http://www.w3.org/2000/svg" xmlns:xlink="http://www.w3.org/1999/xlink" x="0px" y="0px"
	 width="32px" height="32px" viewBox="0 0 32 32" style="enable-background:new 0 0 32 32;" xml:space="preserve">
<g>
	<defs>
		<rect id="SVGID_1_" width="32" height="32"/>
	</defs>
	<clipPath id="SVGID_2_">
		<use xlink:href="#SVGID_1_"  style="overflow:visible;"/>
	</clipPath>
	<g style="clip-path:url(#SVGID_2_);">
		<defs>
			<rect id="SVGID_3_" width="32" height="32"/>
		</defs>
		<clipPath id="SVGID_4_">
			<use xlink:href="#SVGID_3_"  style="overflow:visible;"/>
		</clipPath>
		<path style="clip-path:url(#SVGID_4_);" d="M11.605,27.52l13.6-9.941C25.711,17.198,25.996,16.616,26,16
			c-0.004-0.615-0.289-1.197-0.795-1.578l-13.6-9.941c-0.4-0.317-0.906-0.477-1.414-0.481C9.875,4.002,9.554,4.065,9.257,4.196
			C8.472,4.536,8.002,5.278,8,6.079v19.869c0.002,0.802,0.472,1.517,1.257,1.857c0.297,0.129,0.618,0.193,0.934,0.195
			C10.699,27.996,11.205,27.836,11.605,27.52"/>
	</g>
</g>
</svg>
