<?xml version="1.0" encoding="iso-8859-1"?>
<!-- Generator: Adobe Illustrator 17.0.0, SVG Export Plug-In . SVG Version: 6.00 Build 0)  -->
<!DOCTYPE svg PUBLIC "-//W3C//DTD SVG 1.1//EN" "http://www.w3.org/Graphics/SVG/1.1/DTD/svg11.dtd">
<svg version="1.1" id="Layer_1" xmlns="http://www.w3.org/2000/svg" xmlns:xlink="http://www.w3.org/1999/xlink" x="0px" y="0px"
	 width="32px" height="32px" viewBox="0 0 32 32" style="enable-background:new 0 0 32 32;" xml:space="preserve">
<g>
	<defs>
		<rect id="SVGID_1_" width="32" height="32"/>
	</defs>
	<clipPath id="SVGID_2_">
		<use xlink:href="#SVGID_1_"  style="overflow:visible;"/>
	</clipPath>
	<g style="clip-path:url(#SVGID_2_);">
		<defs>
			<rect id="SVGID_3_" width="32" height="32"/>
		</defs>
		<clipPath id="SVGID_4_">
			<use xlink:href="#SVGID_3_"  style="overflow:visible;"/>
		</clipPath>
		<path style="clip-path:url(#SVGID_4_);" d="M27.894,19.338c0.48-0.66,0.772-1.464,0.772-2.338c0-2.2-1.8-4-4-4h-0.741
			c1.174-2.666-0.149-6.426-6.131-6.297c0,0-5.266-0.369-1.937-5.703c0,0-10.187,2.667-7.874,12h-0.65c-2.2,0-4,1.8-4,4
			c0,0.874,0.292,1.678,0.772,2.338C1.732,20.139,0,22.366,0,25c0,3.3,2.7,6,6,6h20c3.3,0,6-2.7,6-6
			C32,22.366,30.268,20.139,27.894,19.338"/>
	</g>
</g>
</svg>
