<?xml version="1.0" encoding="iso-8859-1"?>
<!-- Generator: Adobe Illustrator 17.0.0, SVG Export Plug-In . SVG Version: 6.00 Build 0)  -->
<!DOCTYPE svg PUBLIC "-//W3C//DTD SVG 1.1//EN" "http://www.w3.org/Graphics/SVG/1.1/DTD/svg11.dtd">
<svg version="1.1" id="Layer_1" xmlns="http://www.w3.org/2000/svg" xmlns:xlink="http://www.w3.org/1999/xlink" x="0px" y="0px"
	 width="32px" height="32px" viewBox="0 0 32 32" style="enable-background:new 0 0 32 32;" xml:space="preserve">
<g>
	<defs>
		<rect id="SVGID_1_" width="32" height="32"/>
	</defs>
	<clipPath id="SVGID_2_">
		<use xlink:href="#SVGID_1_"  style="overflow:visible;"/>
	</clipPath>
	<g style="clip-path:url(#SVGID_2_);">
		<defs>
			<rect id="SVGID_3_" width="32" height="32"/>
		</defs>
		<clipPath id="SVGID_4_">
			<use xlink:href="#SVGID_3_"  style="overflow:visible;"/>
		</clipPath>
		<path style="clip-path:url(#SVGID_4_);" d="M6,32h20V18H6V32z M20.996,28h-10c-0.551,0-1-0.447-1-1s0.449-1,1-1h10
			c0.555,0,1,0.447,1,1S21.551,28,20.996,28 M20.996,24h-10c-0.551,0-1-0.447-1-1s0.449-1,1-1h10c0.555,0,1,0.447,1,1
			S21.551,24,20.996,24"/>
		<path style="clip-path:url(#SVGID_4_);" d="M30,4h-5l-1-4H8L7,4H2C0.9,4,0,4.9,0,6v8c0,1.1,0.9,2,2,2h28c1.1,0,2-0.9,2-2V6
			C32,4.9,31.1,4,30,4 M6,12c-1.105,0-2-0.895-2-2s0.895-2,2-2c1.102,0,2,0.895,2,2S7.102,12,6,12 M12,12c-1.105,0-2-0.895-2-2
			s0.895-2,2-2c1.102,0,2,0.895,2,2S13.102,12,12,12"/>
	</g>
</g>
</svg>
