<?xml version="1.0" encoding="iso-8859-1"?>
<!-- Generator: Adobe Illustrator 17.0.0, SVG Export Plug-In . SVG Version: 6.00 Build 0)  -->
<!DOCTYPE svg PUBLIC "-//W3C//DTD SVG 1.1//EN" "http://www.w3.org/Graphics/SVG/1.1/DTD/svg11.dtd">
<svg version="1.1" id="Layer_1" xmlns="http://www.w3.org/2000/svg" xmlns:xlink="http://www.w3.org/1999/xlink" x="0px" y="0px"
	 width="32px" height="32px" viewBox="0 0 32 32" style="enable-background:new 0 0 32 32;" xml:space="preserve">
<g>
	<defs>
		<rect id="SVGID_1_" width="32" height="32"/>
	</defs>
	<clipPath id="SVGID_2_">
		<use xlink:href="#SVGID_1_"  style="overflow:visible;"/>
	</clipPath>
	<g style="clip-path:url(#SVGID_2_);">
		<defs>
			<rect id="SVGID_3_" width="32" height="32"/>
		</defs>
		<clipPath id="SVGID_4_">
			<use xlink:href="#SVGID_3_"  style="overflow:visible;"/>
		</clipPath>
		<path style="clip-path:url(#SVGID_4_);" d="M27,16c-0.915,0-1.762,0.264-2.5,0.693c-0.213,0.168-0.958,0.557-1.25,0.557
			c-0.69,0-1.25-0.559-1.25-1.249V10h-6c-0.69,0-1.25-0.56-1.25-1.25c0-0.243,0.264-0.784,0.451-1.087
			c0.034-0.056,0.07-0.115,0.097-0.149C15.3,7.51,15.304,7.503,15.307,7.5l-0.008,0.012C15.738,6.774,16,5.921,16,5
			c0-2.762-2.238-5-5-5C8.239,0,6,2.238,6,5c0,0.915,0.264,1.762,0.694,2.5C6.861,7.713,7.25,8.458,7.25,8.75
			C7.25,9.44,6.691,10,6,10H0v22h6c0.691,0,1.25-0.56,1.25-1.25c0-0.292-0.389-1.037-0.556-1.25C6.264,28.762,6,27.915,6,27
			c0-2.762,2.239-5,5-5c2.762,0,5,2.238,5,5c0,0.921-0.262,1.774-0.701,2.512l0.008-0.012c-0.003,0.003-0.007,0.01-0.009,0.014
			c-0.027,0.034-0.063,0.093-0.097,0.149c-0.187,0.303-0.451,0.844-0.451,1.087c0,0.69,0.56,1.25,1.25,1.25h6v-6.001
			c0-0.69,0.56-1.249,1.25-1.249c0.243,0,0.784,0.264,1.087,0.451c0.056,0.034,0.115,0.07,0.149,0.097
			c0.004,0.002,0.011,0.006,0.014,0.009l-0.012-0.008C25.226,25.738,26.079,26,27,26c2.762,0,5-2.239,5-5S29.762,16,27,16"/>
	</g>
</g>
</svg>
