<?xml version="1.0" encoding="iso-8859-1"?>
<!-- Generator: Adobe Illustrator 17.0.0, SVG Export Plug-In . SVG Version: 6.00 Build 0)  -->
<!DOCTYPE svg PUBLIC "-//W3C//DTD SVG 1.1//EN" "http://www.w3.org/Graphics/SVG/1.1/DTD/svg11.dtd">
<svg version="1.1" id="Layer_1" xmlns="http://www.w3.org/2000/svg" xmlns:xlink="http://www.w3.org/1999/xlink" x="0px" y="0px"
	 width="32px" height="32px" viewBox="0 0 32 32" style="enable-background:new 0 0 32 32;" xml:space="preserve">
<g>
	<defs>
		<rect id="SVGID_1_" width="32" height="32"/>
	</defs>
	<clipPath id="SVGID_2_">
		<use xlink:href="#SVGID_1_"  style="overflow:visible;"/>
	</clipPath>
	<g style="clip-path:url(#SVGID_2_);">
		<defs>
			<rect id="SVGID_3_" width="32" height="32"/>
		</defs>
		<clipPath id="SVGID_4_">
			<use xlink:href="#SVGID_3_"  style="overflow:visible;"/>
		</clipPath>
		<path style="clip-path:url(#SVGID_4_);" d="M12,16H8v-1.953C8.047,12.201,8.781,10,12,10V2C3.195,2,0,9.176,0,14l0.004,14
			c0,1.1,0.898,2,2,2H12c1.102,0,2-0.9,2-2V18C14,16.9,13.102,16,12,16"/>
		<path style="clip-path:url(#SVGID_4_);" d="M30,16h-4v-1.953C26.047,12.201,26.781,10,30,10V2c-8.805,0-12,7.176-12,12l0.004,14
			c0,1.1,0.898,2,2,2H30c1.102,0,2-0.9,2-2V18C32,16.9,31.102,16,30,16"/>
	</g>
</g>
</svg>
