<?xml version="1.0" encoding="iso-8859-1"?>
<!-- Generator: Adobe Illustrator 17.0.0, SVG Export Plug-In . SVG Version: 6.00 Build 0)  -->
<!DOCTYPE svg PUBLIC "-//W3C//DTD SVG 1.1//EN" "http://www.w3.org/Graphics/SVG/1.1/DTD/svg11.dtd">
<svg version="1.1" id="Layer_1" xmlns="http://www.w3.org/2000/svg" xmlns:xlink="http://www.w3.org/1999/xlink" x="0px" y="0px"
	 width="32px" height="32px" viewBox="0 0 32 32" style="enable-background:new 0 0 32 32;" xml:space="preserve">
<g>
	<defs>
		<rect id="SVGID_1_" width="32" height="32"/>
	</defs>
	<clipPath id="SVGID_2_">
		<use xlink:href="#SVGID_1_"  style="overflow:visible;"/>
	</clipPath>
	<g style="clip-path:url(#SVGID_2_);">
		<defs>
			<rect id="SVGID_3_" width="32" height="32"/>
		</defs>
		<clipPath id="SVGID_4_">
			<use xlink:href="#SVGID_3_"  style="overflow:visible;"/>
		</clipPath>
		<path style="clip-path:url(#SVGID_4_);" d="M30,10h-3V3.693C27.588,3.346,28,2.732,28,2c0-1.105-0.895-2-2-2s-2,0.895-2,2
			c0,0.732,0.412,1.346,1,1.693V10H2c-1.1,0-2,0.9-2,2v18c0,1.1,0.9,2,2,2h28c1.1,0,2-0.9,2-2V12C32,10.9,31.1,10,30,10 M11,14
			c2.787,0,5.174,1.641,6.301,4H4.699C5.824,15.641,8.211,14,11,14 M11,28c-2.789,0-5.176-1.643-6.301-4h12.602
			C16.174,26.357,13.787,28,11,28 M17.9,22H4.1C4.053,21.67,4,21.342,4,21c0-0.344,0.053-0.672,0.1-1h13.8
			c0.047,0.328,0.1,0.656,0.1,1C18,21.342,17.947,21.67,17.9,22 M26,24c-1.105,0-2-0.895-2-2s0.895-2,2-2c1.102,0,2,0.895,2,2
			S27.102,24,26,24 M26,18c-1.105,0-2-0.895-2-2s0.895-2,2-2c1.102,0,2,0.895,2,2S27.102,18,26,18"/>
	</g>
</g>
</svg>
