<?xml version="1.0" encoding="iso-8859-1"?>
<!-- Generator: Adobe Illustrator 17.0.0, SVG Export Plug-In . SVG Version: 6.00 Build 0)  -->
<!DOCTYPE svg PUBLIC "-//W3C//DTD SVG 1.1//EN" "http://www.w3.org/Graphics/SVG/1.1/DTD/svg11.dtd">
<svg version="1.1" id="Layer_1" xmlns="http://www.w3.org/2000/svg" xmlns:xlink="http://www.w3.org/1999/xlink" x="0px" y="0px"
	 width="32px" height="32px" viewBox="0 0 32 32" style="enable-background:new 0 0 32 32;" xml:space="preserve">
<g>
	<defs>
		<rect id="SVGID_1_" width="32" height="32"/>
	</defs>
	<clipPath id="SVGID_2_">
		<use xlink:href="#SVGID_1_"  style="overflow:visible;"/>
	</clipPath>
	<g style="clip-path:url(#SVGID_2_);">
		<defs>
			<rect id="SVGID_3_" width="32" height="32"/>
		</defs>
		<clipPath id="SVGID_4_">
			<use xlink:href="#SVGID_3_"  style="overflow:visible;"/>
		</clipPath>
		<path style="clip-path:url(#SVGID_4_);" d="M31.305,0.696C30.875,0.266,30.278,0,29.621,0L15.524,1.571
			c-1.317,0-2.379,1.066-2.379,2.379c0,0.656,0.469,1.728,1.652,2.146l5.434,1.23l-9.309,9.309C10.309,17.249,10,18.053,10,18.857
			c0,0.804,0.309,1.609,0.922,2.222c1.227,1.227,3.215,1.227,4.442,0l9.312-9.309l1.231,5.436c0.414,1.181,1.488,1.651,2.144,1.651
			c1.313,0,2.379-1.065,2.379-2.379L32,2.379C32,1.721,31.735,1.126,31.305,0.696"/>
		<polygon style="clip-path:url(#SVGID_4_);" points="22,28 4,28 4,10 8,10 8,6 0,6 0,32 26,32 26,24 22,24 		"/>
	</g>
</g>
</svg>
