<?xml version="1.0" encoding="iso-8859-1"?>
<!-- Generator: Adobe Illustrator 17.0.0, SVG Export Plug-In . SVG Version: 6.00 Build 0)  -->
<!DOCTYPE svg PUBLIC "-//W3C//DTD SVG 1.1//EN" "http://www.w3.org/Graphics/SVG/1.1/DTD/svg11.dtd">
<svg version="1.1" id="Layer_1" xmlns="http://www.w3.org/2000/svg" xmlns:xlink="http://www.w3.org/1999/xlink" x="0px" y="0px"
	 width="32px" height="32px" viewBox="0 0 32 32" style="enable-background:new 0 0 32 32;" xml:space="preserve">
<g>
	<defs>
		<rect id="SVGID_1_" width="32" height="32"/>
	</defs>
	<clipPath id="SVGID_2_">
		<use xlink:href="#SVGID_1_"  style="overflow:visible;"/>
	</clipPath>
	<g style="clip-path:url(#SVGID_2_);">
		<defs>
			<rect id="SVGID_3_" width="32" height="32"/>
		</defs>
		<clipPath id="SVGID_4_">
			<use xlink:href="#SVGID_3_"  style="overflow:visible;"/>
		</clipPath>
		<path style="clip-path:url(#SVGID_4_);" d="M23.953,22c-1.828,2.414-4.699,4-7.953,4c-5.516,0-10-4.488-10-10
			c0-5.516,4.484-10,10-10c2.125,0,4.09,0.676,5.715,1.809l-3.203,3.203C18.191,11.328,18,11.766,18,12.25
			c0,0.965,0.781,1.75,1.746,1.75H30.25c0.965,0,1.746-0.781,1.746-1.75L32,1.75C32,0.781,31.215,0,30.25,0
			c-0.485,0-0.922,0.195-1.238,0.512l-3.036,3.035C23.238,1.344,19.785,0,16,0C7.16,0,0,7.164,0,16s7.16,16,16,16
			c6.711,0,12.437-4.141,14.812-10H23.953z"/>
	</g>
</g>
</svg>
