<?xml version="1.0" encoding="iso-8859-1"?>
<!-- Generator: Adobe Illustrator 17.0.0, SVG Export Plug-In . SVG Version: 6.00 Build 0)  -->
<!DOCTYPE svg PUBLIC "-//W3C//DTD SVG 1.1//EN" "http://www.w3.org/Graphics/SVG/1.1/DTD/svg11.dtd">
<svg version="1.1" id="Layer_1" xmlns="http://www.w3.org/2000/svg" xmlns:xlink="http://www.w3.org/1999/xlink" x="0px" y="0px"
	 width="32px" height="32px" viewBox="0 0 32 32" style="enable-background:new 0 0 32 32;" xml:space="preserve">
<g>
	<defs>
		<rect id="SVGID_1_" width="32" height="32"/>
	</defs>
	<clipPath id="SVGID_2_">
		<use xlink:href="#SVGID_1_"  style="overflow:visible;"/>
	</clipPath>
	<g style="clip-path:url(#SVGID_2_);">
		<defs>
			<rect id="SVGID_3_" width="32" height="32"/>
		</defs>
		<clipPath id="SVGID_4_">
			<use xlink:href="#SVGID_3_"  style="overflow:visible;"/>
		</clipPath>
		<path style="clip-path:url(#SVGID_4_);" d="M29.25,4.805c-1-1.074-2.625-1.074-3.625,0L18,11.288V6.752
			c0.004-0.711-0.258-1.406-0.75-1.947c-1-1.074-2.625-1.074-3.625,0l-10.883,9.25c-0.988,1.074-0.992,2.813,0.012,3.883
			l10.871,9.258c1,1.072,2.625,1.072,3.625,0c0.492-0.543,0.754-1.246,0.75-1.946v-4.546l7.625,6.492c1,1.072,2.625,1.072,3.625,0
			c0.492-0.543,0.754-1.246,0.75-1.946V6.752C30.004,6.041,29.742,5.346,29.25,4.805"/>
	</g>
</g>
</svg>
