<?xml version="1.0" encoding="iso-8859-1"?>
<!-- Generator: Adobe Illustrator 17.0.0, SVG Export Plug-In . SVG Version: 6.00 Build 0)  -->
<!DOCTYPE svg PUBLIC "-//W3C//DTD SVG 1.1//EN" "http://www.w3.org/Graphics/SVG/1.1/DTD/svg11.dtd">
<svg version="1.1" id="Layer_1" xmlns="http://www.w3.org/2000/svg" xmlns:xlink="http://www.w3.org/1999/xlink" x="0px" y="0px"
	 width="32px" height="32px" viewBox="0 0 32 32" style="enable-background:new 0 0 32 32;" xml:space="preserve">
<g>
	<defs>
		<rect id="SVGID_1_" width="32" height="32"/>
	</defs>
	<clipPath id="SVGID_2_">
		<use xlink:href="#SVGID_1_"  style="overflow:visible;"/>
	</clipPath>
	<g style="clip-path:url(#SVGID_2_);">
		<defs>
			<rect id="SVGID_3_" width="32" height="32"/>
		</defs>
		<clipPath id="SVGID_4_">
			<use xlink:href="#SVGID_3_"  style="overflow:visible;"/>
		</clipPath>
		<path style="clip-path:url(#SVGID_4_);" d="M17.607,27.52l13.599-9.941C31.711,17.198,31.998,16.616,32,16
			c-0.002-0.615-0.289-1.197-0.794-1.578L17.607,4.481C17.206,4.163,16.701,4.004,16.193,4c-0.316,0.002-0.638,0.065-0.935,0.195
			C14.474,4.536,14.003,5.277,14,6.079v5.947L3.995,12.013C1.789,12.013,0,13.798,0,16c0,2.204,1.789,3.987,3.995,3.989L14,20v5.948
			c0.003,0.802,0.474,1.517,1.258,1.857c0.297,0.129,0.619,0.193,0.935,0.195C16.701,27.996,17.206,27.836,17.607,27.52"/>
	</g>
</g>
</svg>
