<?xml version="1.0" encoding="iso-8859-1"?>
<!-- Generator: Adobe Illustrator 17.0.0, SVG Export Plug-In . SVG Version: 6.00 Build 0)  -->
<!DOCTYPE svg PUBLIC "-//W3C//DTD SVG 1.1//EN" "http://www.w3.org/Graphics/SVG/1.1/DTD/svg11.dtd">
<svg version="1.1" id="Layer_1" xmlns="http://www.w3.org/2000/svg" xmlns:xlink="http://www.w3.org/1999/xlink" x="0px" y="0px"
	 width="32px" height="32px" viewBox="0 0 32 32" style="enable-background:new 0 0 32 32;" xml:space="preserve">
<g>
	<defs>
		<rect id="SVGID_1_" width="32" height="32"/>
	</defs>
	<clipPath id="SVGID_2_">
		<use xlink:href="#SVGID_1_"  style="overflow:visible;"/>
	</clipPath>
	<g style="clip-path:url(#SVGID_2_);">
		<defs>
			<rect id="SVGID_3_" width="32" height="32"/>
		</defs>
		<clipPath id="SVGID_4_">
			<use xlink:href="#SVGID_3_"  style="overflow:visible;"/>
		</clipPath>
		<path style="clip-path:url(#SVGID_4_);" d="M28,17.998c0-6.289-4.842-11.439-11-11.949V3.693C17.588,3.344,18,2.732,18,2
			c0-1.105-0.896-2-2-2s-2,0.895-2,2c0,0.732,0.412,1.344,1,1.693v2.356c-6.158,0.51-11,5.66-11,11.949V22h24V17.998z M11,18.5
			c-1.379,0-2.5-1.121-2.5-2.5s1.121-2.5,2.5-2.5c1.381,0,2.5,1.121,2.5,2.5S12.381,18.5,11,18.5 M21,18.5
			c-1.379,0-2.5-1.121-2.5-2.5s1.121-2.5,2.5-2.5c1.381,0,2.5,1.121,2.5,2.5S22.381,18.5,21,18.5"/>
		<path style="clip-path:url(#SVGID_4_);" d="M31,24H1c-0.55,0-1,0.45-1,1v6c0,0.55,0.45,1,1,1h30c0.55,0,1-0.45,1-1v-6
			C32,24.45,31.55,24,31,24"/>
	</g>
</g>
</svg>
