<?xml version="1.0" encoding="iso-8859-1"?>
<!-- Generator: Adobe Illustrator 17.0.0, SVG Export Plug-In . SVG Version: 6.00 Build 0)  -->
<!DOCTYPE svg PUBLIC "-//W3C//DTD SVG 1.1//EN" "http://www.w3.org/Graphics/SVG/1.1/DTD/svg11.dtd">
<svg version="1.1" id="Layer_1" xmlns="http://www.w3.org/2000/svg" xmlns:xlink="http://www.w3.org/1999/xlink" x="0px" y="0px"
	 width="32px" height="32px" viewBox="0 0 32 32" style="enable-background:new 0 0 32 32;" xml:space="preserve">
<g>
	<defs>
		<rect id="SVGID_1_" width="32" height="32"/>
	</defs>
	<clipPath id="SVGID_2_">
		<use xlink:href="#SVGID_1_"  style="overflow:visible;"/>
	</clipPath>
	<g style="clip-path:url(#SVGID_2_);">
		<defs>
			<rect id="SVGID_3_" width="32" height="32"/>
		</defs>
		<clipPath id="SVGID_4_">
			<use xlink:href="#SVGID_3_"  style="overflow:visible;"/>
		</clipPath>
		<path style="clip-path:url(#SVGID_4_);" d="M0,24c0,4.57,2.012,6.585,2.012,6.585l6.023-4.196L5.641,16.138
			C3.875,17.827,0,21.786,0,24"/>
		<path style="clip-path:url(#SVGID_4_);" d="M26.355,16.139L23.961,26.39l6.023,4.196c0,0,2.016-2.015,2.016-6.586
			C32,21.79,28.121,17.83,26.355,16.139"/>
		<polygon style="clip-path:url(#SVGID_4_);" points="12.398,28 10,32 22,32 19.595,28 		"/>
		<path style="clip-path:url(#SVGID_4_);" d="M16.496,0.068C16.32,0.033,16.148,0.007,16,0c-0.145,0.007-0.305,0.033-0.473,0.064
			c-2.586,0.592-9.82,5.398-8.306,14.041L10,26h12l2.777-11.895C26.285,5.474,19.15,0.671,16.496,0.068 M16,19.5
			c-1.383,0-2.5-1.119-2.5-2.5s1.117-2.5,2.5-2.5c1.379,0,2.5,1.119,2.5,2.5S17.379,19.5,16,19.5 M16,9.5
			c-1.383,0-2.5-1.119-2.5-2.5s1.117-2.5,2.5-2.5c1.379,0,2.5,1.119,2.5,2.5S17.379,9.5,16,9.5"/>
	</g>
</g>
</svg>
