<?xml version="1.0" encoding="iso-8859-1"?>
<!-- Generator: Adobe Illustrator 17.0.0, SVG Export Plug-In . SVG Version: 6.00 Build 0)  -->
<!DOCTYPE svg PUBLIC "-//W3C//DTD SVG 1.1//EN" "http://www.w3.org/Graphics/SVG/1.1/DTD/svg11.dtd">
<svg version="1.1" id="Layer_1" xmlns="http://www.w3.org/2000/svg" xmlns:xlink="http://www.w3.org/1999/xlink" x="0px" y="0px"
	 width="32px" height="32px" viewBox="0 0 32 32" style="enable-background:new 0 0 32 32;" xml:space="preserve">
<g>
	<defs>
		<rect id="SVGID_1_" width="32" height="32"/>
	</defs>
	<clipPath id="SVGID_2_">
		<use xlink:href="#SVGID_1_"  style="overflow:visible;"/>
	</clipPath>
	<g style="clip-path:url(#SVGID_2_);">
		<defs>
			<rect id="SVGID_3_" width="32" height="32"/>
		</defs>
		<clipPath id="SVGID_4_">
			<use xlink:href="#SVGID_3_"  style="overflow:visible;"/>
		</clipPath>
		<path style="clip-path:url(#SVGID_4_);" d="M31.396,6.471l-5.865-5.867c-0.806-0.805-2.126-0.805-2.932,0l-1.805,1.804
			l3.662,3.664l-1.414,1.415l-3.663-3.663l-2.828,2.829l2.247,2.248l-1.414,1.414l-2.248-2.248l-2.828,2.828l3.662,3.662
			l-1.414,1.414l-3.662-3.662l-2.828,2.828l2.248,2.248l-1.415,1.414l-2.248-2.248l-2.828,2.828l3.662,3.662l-1.414,1.416
			l-3.662-3.664l-1.804,1.805c-0.806,0.805-0.806,2.125,0,2.931l5.865,5.868c0.806,0.804,2.126,0.804,2.932,0L31.396,9.403
			C32.202,8.598,32.202,7.278,31.396,6.471"/>
	</g>
</g>
</svg>
