<?xml version="1.0" encoding="iso-8859-1"?>
<!-- Generator: Adobe Illustrator 17.0.0, SVG Export Plug-In . SVG Version: 6.00 Build 0)  -->
<!DOCTYPE svg PUBLIC "-//W3C//DTD SVG 1.1//EN" "http://www.w3.org/Graphics/SVG/1.1/DTD/svg11.dtd">
<svg version="1.1" id="Layer_1" xmlns="http://www.w3.org/2000/svg" xmlns:xlink="http://www.w3.org/1999/xlink" x="0px" y="0px"
	 width="32px" height="32px" viewBox="0 0 32 32" style="enable-background:new 0 0 32 32;" xml:space="preserve">
<g>
	<defs>
		<rect id="SVGID_1_" width="32" height="32"/>
	</defs>
	<clipPath id="SVGID_2_">
		<use xlink:href="#SVGID_1_"  style="overflow:visible;"/>
	</clipPath>
	<g style="clip-path:url(#SVGID_2_);">
		<defs>
			<rect id="SVGID_3_" width="32" height="32"/>
		</defs>
		<clipPath id="SVGID_4_">
			<use xlink:href="#SVGID_3_"  style="overflow:visible;"/>
		</clipPath>
		<path style="clip-path:url(#SVGID_4_);" d="M11.191,19.239C11.554,19.063,32,9.176,32,9.176l-6.965-2.035
			c-1.016-0.297-2.582-0.076-3.481,0.49l-9.097,5.742c-0.473-0.226-0.899-0.433-1.266-0.611c0.446-0.371,0.852-0.793,1.156-1.312
			c1.614-2.758,0.313-6.52-2.91-8.399C8.222,2.342,6.91,2,5.652,2C3.59,2,1.695,2.924,0.695,4.643
			c-1.613,2.758-0.312,6.518,2.906,8.396L8.293,16l-4.692,2.961C0.383,20.842-0.918,24.6,0.695,27.36c1,1.717,2.895,2.64,4.957,2.64
			c1.258,0,2.57-0.339,3.785-1.05c3.223-1.879,4.524-5.639,2.91-8.399C12.043,20.032,11.637,19.61,11.191,19.239 M5.551,9.709
			C4.73,9.233,4.125,8.493,3.926,7.731C3.844,7.424,3.797,6.977,4.023,6.59c0.399-0.679,1.348-0.732,1.629-0.732
			c0.617,0,1.254,0.18,1.84,0.523C8.308,6.858,8.914,7.596,9.117,8.36c0.078,0.306,0.129,0.756-0.102,1.142
			c-0.394,0.678-1.347,0.731-1.628,0.731C6.769,10.233,6.137,10.053,5.551,9.709 M9.117,23.641c-0.203,0.764-0.809,1.504-1.625,1.98
			c-0.586,0.342-1.223,0.524-1.84,0.524c-0.281,0-1.23-0.053-1.629-0.732c-0.226-0.389-0.179-0.834-0.097-1.143
			c0.199-0.762,0.804-1.502,1.625-1.979c0.586-0.341,1.218-0.523,1.836-0.523c0.281,0,1.234,0.053,1.628,0.73
			C9.246,22.887,9.195,23.334,9.117,23.641"/>
		<path style="clip-path:url(#SVGID_4_);" d="M14.449,19.885l7.105,4.484c0.899,0.567,2.465,0.787,3.481,0.491L32,22.826
			c0,0-6.024-2.914-11.817-5.714L14.449,19.885z"/>
	</g>
</g>
</svg>
