<?xml version="1.0" encoding="iso-8859-1"?>
<!-- Generator: Adobe Illustrator 17.0.0, SVG Export Plug-In . SVG Version: 6.00 Build 0)  -->
<!DOCTYPE svg PUBLIC "-//W3C//DTD SVG 1.1//EN" "http://www.w3.org/Graphics/SVG/1.1/DTD/svg11.dtd">
<svg version="1.1" id="Layer_1" xmlns="http://www.w3.org/2000/svg" xmlns:xlink="http://www.w3.org/1999/xlink" x="0px" y="0px"
	 width="32px" height="32px" viewBox="0 0 32 32" style="enable-background:new 0 0 32 32;" xml:space="preserve">
<g>
	<defs>
		<rect id="SVGID_1_" width="32" height="32"/>
	</defs>
	<clipPath id="SVGID_2_">
		<use xlink:href="#SVGID_1_"  style="overflow:visible;"/>
	</clipPath>
	<g style="clip-path:url(#SVGID_2_);">
		<defs>
			<rect id="SVGID_3_" width="32" height="32"/>
		</defs>
		<clipPath id="SVGID_4_">
			<use xlink:href="#SVGID_3_"  style="overflow:visible;"/>
		</clipPath>
		<path style="clip-path:url(#SVGID_4_);" d="M11.998,9.082h2V22c0,1.106,0.898,2,2,2c1.105,0,2-0.894,2-2V9.082h2
			c2.203,0,2.879-1.406,1.504-3.125l-4.254-5.312c-0.687-0.86-1.812-0.86-2.496,0l-4.254,5.312
			C9.123,7.676,9.799,9.082,11.998,9.082"/>
		<polygon style="clip-path:url(#SVGID_4_);" points="22,13 22,17 28,17 28,28 4,28 4,17 10,17 10,13 0,13 0,32 32,32 32,13 		"/>
	</g>
</g>
</svg>
