<?xml version="1.0" encoding="iso-8859-1"?>
<!-- Generator: Adobe Illustrator 17.0.0, SVG Export Plug-In . SVG Version: 6.00 Build 0)  -->
<!DOCTYPE svg PUBLIC "-//W3C//DTD SVG 1.1//EN" "http://www.w3.org/Graphics/SVG/1.1/DTD/svg11.dtd">
<svg version="1.1" id="Layer_1" xmlns="http://www.w3.org/2000/svg" xmlns:xlink="http://www.w3.org/1999/xlink" x="0px" y="0px"
	 width="32px" height="32px" viewBox="0 0 32 32" style="enable-background:new 0 0 32 32;" xml:space="preserve">
<g>
	<defs>
		<rect id="SVGID_1_" width="32" height="32"/>
	</defs>
	<clipPath id="SVGID_2_">
		<use xlink:href="#SVGID_1_"  style="overflow:visible;"/>
	</clipPath>
	<g style="clip-path:url(#SVGID_2_);">
		<defs>
			<rect id="SVGID_3_" width="32" height="32"/>
		</defs>
		<clipPath id="SVGID_4_">
			<use xlink:href="#SVGID_3_"  style="overflow:visible;"/>
		</clipPath>
		<path style="clip-path:url(#SVGID_4_);" d="M26,0H6v10h20V0z M21,6H11c-0.555,0-1-0.447-1-1s0.445-1,1-1h10c0.551,0,1,0.447,1,1
			S21.551,6,21,6"/>
		<path style="clip-path:url(#SVGID_4_);" d="M30,12H2c-1.1,0-2,0.9-2,2v8c0,1.1,0.9,2,2,2h28c1.1,0,2-0.9,2-2v-8
			C32,12.9,31.1,12,30,12 M6,20c-1.105,0-2-0.895-2-2s0.895-2,2-2c1.102,0,2,0.895,2,2S7.102,20,6,20 M12,20c-1.105,0-2-0.895-2-2
			s0.895-2,2-2c1.102,0,2,0.895,2,2S13.102,20,12,20"/>
		<rect x="7" y="26" style="clip-path:url(#SVGID_4_);" width="2" height="6"/>
		<rect x="11" y="26" style="clip-path:url(#SVGID_4_);" width="2" height="6"/>
		<rect x="15" y="26" style="clip-path:url(#SVGID_4_);" width="2" height="6"/>
		<rect x="19" y="26" style="clip-path:url(#SVGID_4_);" width="2" height="6"/>
		<rect x="23" y="26" style="clip-path:url(#SVGID_4_);" width="2" height="6"/>
	</g>
</g>
</svg>
