<?xml version="1.0" encoding="iso-8859-1"?>
<!-- Generator: Adobe Illustrator 17.0.0, SVG Export Plug-In . SVG Version: 6.00 Build 0)  -->
<!DOCTYPE svg PUBLIC "-//W3C//DTD SVG 1.1//EN" "http://www.w3.org/Graphics/SVG/1.1/DTD/svg11.dtd">
<svg version="1.1" id="Layer_1" xmlns="http://www.w3.org/2000/svg" xmlns:xlink="http://www.w3.org/1999/xlink" x="0px" y="0px"
	 width="32px" height="32px" viewBox="0 0 32 32" style="enable-background:new 0 0 32 32;" xml:space="preserve">
<g>
	<defs>
		<rect id="SVGID_1_" width="32" height="32"/>
	</defs>
	<clipPath id="SVGID_2_">
		<use xlink:href="#SVGID_1_"  style="overflow:visible;"/>
	</clipPath>
	<g style="clip-path:url(#SVGID_2_);">
		<defs>
			<rect id="SVGID_3_" width="32" height="32"/>
		</defs>
		<clipPath id="SVGID_4_">
			<use xlink:href="#SVGID_3_"  style="overflow:visible;"/>
		</clipPath>
		<path style="clip-path:url(#SVGID_4_);" d="M15,12v2h4v-2h8c1.105,0,2-0.895,2-2V6c0-1.105-0.895-2-2-2h-8V2c0-1.105-0.895-2-2-2
			c-1.102,0-2,0.895-2,2v2H5L1,8l4,4H15z"/>
		<path style="clip-path:url(#SVGID_4_);" d="M33,20l-4-4H19h-4H7c-1.105,0-2,0.895-2,2v4c0,1.105,0.895,2,2,2h8v6
			c0,1.105,0.898,2,2,2c1.105,0,2-0.895,2-2v-6h10L33,20z"/>
	</g>
</g>
</svg>
