<?xml version="1.0" encoding="iso-8859-1"?>
<!-- Generator: Adobe Illustrator 17.0.0, SVG Export Plug-In . SVG Version: 6.00 Build 0)  -->
<!DOCTYPE svg PUBLIC "-//W3C//DTD SVG 1.1//EN" "http://www.w3.org/Graphics/SVG/1.1/DTD/svg11.dtd">
<svg version="1.1" id="Layer_1" xmlns="http://www.w3.org/2000/svg" xmlns:xlink="http://www.w3.org/1999/xlink" x="0px" y="0px"
	 width="32px" height="32px" viewBox="0 0 32 32" style="enable-background:new 0 0 32 32;" xml:space="preserve">
<g>
	<defs>
		<rect id="SVGID_1_" width="32" height="32"/>
	</defs>
	<clipPath id="SVGID_2_">
		<use xlink:href="#SVGID_1_"  style="overflow:visible;"/>
	</clipPath>
	<g style="clip-path:url(#SVGID_2_);">
		<defs>
			<rect id="SVGID_3_" width="32" height="32"/>
		</defs>
		<clipPath id="SVGID_4_">
			<use xlink:href="#SVGID_3_"  style="overflow:visible;"/>
		</clipPath>
		<path style="clip-path:url(#SVGID_4_);" d="M16,0C7.164,0,0,6.268,0,14c0,4.419,2.344,8.354,6,10.919V30c0,1.104,0.895,2,2,2h2v-3
			c0-0.553,0.445-1,1-1c0.551,0,1,0.447,1,1v3h3v-3c0-0.553,0.445-1,1-1c0.551,0,1,0.447,1,1v3h3v-3c0-0.553,0.445-1,1-1
			c0.551,0,1,0.447,1,1v3h2c1.102,0,2-0.896,2-2v-5.081c3.652-2.565,6-6.5,6-10.919C32,6.268,24.836,0,16,0 M10,20
			c-2.211,0-4-1.791-4-4s1.789-4,4-4c2.207,0,4,1.791,4,4S12.207,20,10,20 M22,20c-2.211,0-4-1.791-4-4s1.789-4,4-4
			c2.207,0,4,1.791,4,4S24.207,20,22,20"/>
	</g>
</g>
</svg>
