<?xml version="1.0" encoding="iso-8859-1"?>
<!-- Generator: Adobe Illustrator 17.0.0, SVG Export Plug-In . SVG Version: 6.00 Build 0)  -->
<!DOCTYPE svg PUBLIC "-//W3C//DTD SVG 1.1//EN" "http://www.w3.org/Graphics/SVG/1.1/DTD/svg11.dtd">
<svg version="1.1" id="Layer_1" xmlns="http://www.w3.org/2000/svg" xmlns:xlink="http://www.w3.org/1999/xlink" x="0px" y="0px"
	 width="32px" height="32px" viewBox="0 0 32 32" style="enable-background:new 0 0 32 32;" xml:space="preserve">
<g>
	<defs>
		<rect id="SVGID_1_" width="32" height="32"/>
	</defs>
	<clipPath id="SVGID_2_">
		<use xlink:href="#SVGID_1_"  style="overflow:visible;"/>
	</clipPath>
	<g style="clip-path:url(#SVGID_2_);">
		<defs>
			<rect id="SVGID_3_" width="32" height="32"/>
		</defs>
		<clipPath id="SVGID_4_">
			<use xlink:href="#SVGID_3_"  style="overflow:visible;"/>
		</clipPath>
		<path style="clip-path:url(#SVGID_4_);" d="M18,16V0h-4v16c-1.1,0-2,0.9-2,2v4c0,1.1,0.9,2,2,2v8h4v-8c1.1,0,2-0.9,2-2v-4
			C20,16.9,19.1,16,18,16 M18,21c0,0.551-0.451,1-1,1h-2c-0.549,0-1-0.449-1-1v-2c0-0.551,0.451-1,1-1h2c0.549,0,1,0.449,1,1V21z"/>
		<path style="clip-path:url(#SVGID_4_);" d="M6,6.012V0H2.063v6H2C0.9,6,0,6.9,0,8v4c0,1.1,0.9,2,2,2h0.063v18H6V13.988
			c1.068-0.035,2-0.91,2-1.988V8C8,6.922,7.068,6.047,6,6.012 M6,11c0,0.551-0.451,1-1,1H3c-0.549,0-1-0.449-1-1V9
			c0-0.551,0.451-1,1-1h2c0.549,0,1,0.449,1,1V11z"/>
		<path style="clip-path:url(#SVGID_4_);" d="M30,10V0h-4v10c-1.1,0-2,0.9-2,2v4c0,1.1,0.9,2,2,2v14h4V18c1.1,0,2-0.9,2-2v-4
			C32,10.9,31.1,10,30,10 M30,15c0,0.551-0.451,1-1,1h-2c-0.549,0-1-0.449-1-1v-2c0-0.551,0.451-1,1-1h2c0.549,0,1,0.449,1,1V15z"/>
	</g>
</g>
</svg>
