<?xml version="1.0" encoding="iso-8859-1"?>
<!-- Generator: Adobe Illustrator 17.0.0, SVG Export Plug-In . SVG Version: 6.00 Build 0)  -->
<!DOCTYPE svg PUBLIC "-//W3C//DTD SVG 1.1//EN" "http://www.w3.org/Graphics/SVG/1.1/DTD/svg11.dtd">
<svg version="1.1" id="Layer_1" xmlns="http://www.w3.org/2000/svg" xmlns:xlink="http://www.w3.org/1999/xlink" x="0px" y="0px"
	 width="32px" height="32px" viewBox="0 0 32 32" style="enable-background:new 0 0 32 32;" xml:space="preserve">
<g>
	<defs>
		<rect id="SVGID_1_" width="32" height="32"/>
	</defs>
	<clipPath id="SVGID_2_">
		<use xlink:href="#SVGID_1_"  style="overflow:visible;"/>
	</clipPath>
	<g style="clip-path:url(#SVGID_2_);">
		<defs>
			<rect id="SVGID_3_" width="32" height="32"/>
		</defs>
		<clipPath id="SVGID_4_">
			<use xlink:href="#SVGID_3_"  style="overflow:visible;"/>
		</clipPath>
		<path style="clip-path:url(#SVGID_4_);" d="M31.531,13.345c0.816-0.834,0.539-1.662-0.617-1.838l-9.656-1.473l-4.354-9.242
			c-0.496-1.056-1.309-1.056-1.807,0l-4.355,9.242l-9.656,1.473c-1.157,0.176-1.434,1.004-0.617,1.838l7.023,7.174L5.826,30.696
			c-0.19,1.151,0.496,1.631,1.519,1.067l6.797-3.744c1.022-0.563,2.698-0.563,3.719,0l6.797,3.744
			c1.023,0.564,1.707,0.084,1.518-1.067l-0.004-0.027l-1.664-10.15L31.531,13.345z"/>
	</g>
</g>
</svg>
