<?xml version="1.0" encoding="iso-8859-1"?>
<!-- Generator: Adobe Illustrator 17.0.0, SVG Export Plug-In . SVG Version: 6.00 Build 0)  -->
<!DOCTYPE svg PUBLIC "-//W3C//DTD SVG 1.1//EN" "http://www.w3.org/Graphics/SVG/1.1/DTD/svg11.dtd">
<svg version="1.1" id="Layer_1" xmlns="http://www.w3.org/2000/svg" xmlns:xlink="http://www.w3.org/1999/xlink" x="0px" y="0px"
	 width="32px" height="32px" viewBox="0 0 32 32" style="enable-background:new 0 0 32 32;" xml:space="preserve">
<g>
	<defs>
		<rect id="SVGID_1_" width="32" height="32"/>
	</defs>
	<clipPath id="SVGID_2_">
		<use xlink:href="#SVGID_1_"  style="overflow:visible;"/>
	</clipPath>
	<g style="clip-path:url(#SVGID_2_);">
		<defs>
			<rect id="SVGID_3_" width="32" height="32"/>
		</defs>
		<clipPath id="SVGID_4_">
			<use xlink:href="#SVGID_3_"  style="overflow:visible;"/>
		</clipPath>
		<path style="clip-path:url(#SVGID_4_);" d="M31.414,28.586l-6.679-6.679l-0.227-1.388l7.023-7.174
			c0.816-0.834,0.539-1.662-0.617-1.838l-9.656-1.472l-4.354-9.242c-0.496-1.057-1.308-1.057-1.807,0l-3.676,7.8L3.414,0.586
			c-0.78-0.781-2.048-0.781-2.828,0c-0.781,0.781-0.781,2.047,0,2.828l28,28C28.976,31.805,29.488,32,30,32
			c0.512,0,1.024-0.195,1.414-0.586C32.195,30.633,32.195,29.367,31.414,28.586"/>
		<path style="clip-path:url(#SVGID_4_);" d="M1.086,11.507c-1.156,0.176-1.434,1.004-0.617,1.838l7.023,7.174L5.826,30.696
			c-0.189,1.151,0.496,1.631,1.52,1.067l10.273-5.659L2.766,11.251L1.086,11.507z"/>
	</g>
</g>
</svg>
