<?xml version="1.0" encoding="iso-8859-1"?>
<!-- Generator: Adobe Illustrator 17.0.0, SVG Export Plug-In . SVG Version: 6.00 Build 0)  -->
<!DOCTYPE svg PUBLIC "-//W3C//DTD SVG 1.1//EN" "http://www.w3.org/Graphics/SVG/1.1/DTD/svg11.dtd">
<svg version="1.1" id="Layer_1" xmlns="http://www.w3.org/2000/svg" xmlns:xlink="http://www.w3.org/1999/xlink" x="0px" y="0px"
	 width="32px" height="32px" viewBox="0 0 32 32" style="enable-background:new 0 0 32 32;" xml:space="preserve">
<g>
	<defs>
		<rect id="SVGID_1_" width="32" height="32"/>
	</defs>
	<clipPath id="SVGID_2_">
		<use xlink:href="#SVGID_1_"  style="overflow:visible;"/>
	</clipPath>
	<g style="clip-path:url(#SVGID_2_);">
		<defs>
			<rect id="SVGID_3_" width="32" height="32"/>
		</defs>
		<clipPath id="SVGID_4_">
			<use xlink:href="#SVGID_3_"  style="overflow:visible;"/>
		</clipPath>
		<path style="clip-path:url(#SVGID_4_);" d="M31.624,5.813l-5.438-5.439c-0.5-0.498-1.316-0.498-1.812,0v0.002
			c-0.5,0.498-0.5,1.314,0,1.812l1.304,1.305l-1.59,1.594c-2.679-2.049-5.878-3.086-9.089-3.086c-3.84,0-7.676,1.464-10.606,4.392
			c-5.855,5.86-5.859,15.354,0,21.213c2.93,2.93,6.77,4.395,10.61,4.395c3.835,0,7.671-1.465,10.601-4.395
			c5.379-5.377,5.805-13.81,1.313-19.691l1.589-1.594l1.305,1.305c0.5,0.5,1.317,0.5,1.813,0
			C32.124,7.128,32.124,6.311,31.624,5.813 M22.776,24.778c-2.078,2.078-4.84,3.223-7.773,3.223c-2.938,0-5.704-1.145-7.782-3.223
			c-4.285-4.289-4.285-11.268,0-15.557c2.078-2.076,4.84-3.22,7.778-3.22c2.937,0,5.699,1.144,7.777,3.22
			c2.078,2.08,3.223,4.842,3.223,7.78C25.999,19.938,24.854,22.7,22.776,24.778"/>
		<path style="clip-path:url(#SVGID_4_);" d="M12.002,18c0.004,1.389,1.344,2.996,2.996,3c1.66-0.002,3.008-1.611,3-3
			c0.004-1.393-3-9-3-9S12.002,16.607,12.002,18"/>
	</g>
</g>
</svg>
