<?xml version="1.0" encoding="iso-8859-1"?>
<!-- Generator: Adobe Illustrator 17.0.0, SVG Export Plug-In . SVG Version: 6.00 Build 0)  -->
<!DOCTYPE svg PUBLIC "-//W3C//DTD SVG 1.1//EN" "http://www.w3.org/Graphics/SVG/1.1/DTD/svg11.dtd">
<svg version="1.1" id="Layer_1" xmlns="http://www.w3.org/2000/svg" xmlns:xlink="http://www.w3.org/1999/xlink" x="0px" y="0px"
	 width="32px" height="32px" viewBox="0 0 32 32" style="enable-background:new 0 0 32 32;" xml:space="preserve">
<g>
	<defs>
		<rect id="SVGID_1_" width="32" height="32"/>
	</defs>
	<clipPath id="SVGID_2_">
		<use xlink:href="#SVGID_1_"  style="overflow:visible;"/>
	</clipPath>
	<g style="clip-path:url(#SVGID_2_);">
		<defs>
			<rect id="SVGID_3_" width="32" height="32"/>
		</defs>
		<clipPath id="SVGID_4_">
			<use xlink:href="#SVGID_3_"  style="overflow:visible;"/>
		</clipPath>
		<path style="clip-path:url(#SVGID_4_);" d="M31.409,19.428l-3.487-2.277c-0.544-0.356-0.844-0.776-0.844-1.181
			c0-0.408,0.3-0.829,0.844-1.184l3.489-2.276c0.484-0.319,0.702-0.927,0.531-1.478c-0.172-0.55-0.669-0.918-1.238-0.918
			l-4.366,0.112c-0.661,0-1.171-0.199-1.421-0.56c-0.226-0.326-0.237-0.81-0.03-1.363l1.416-3.793
			c0.202-0.533,0.024-1.149-0.432-1.495c-0.224-0.171-0.503-0.264-0.785-0.264c-0.279,0-0.545,0.087-0.77,0.252l-3.35,2.458
			c-0.386,0.283-0.789,0.432-1.163,0.432c-0.636,0-1.134-0.428-1.365-1.175l-1.194-3.861C17.084,0.336,16.595,0,16,0
			c-0.595,0-1.084,0.336-1.244,0.857l-1.192,3.862c-0.233,0.747-0.73,1.175-1.365,1.175c-0.375,0-0.777-0.149-1.163-0.433
			L7.684,3.003c-0.223-0.165-0.49-0.252-0.77-0.252c-0.282,0-0.561,0.093-0.785,0.263C5.673,3.361,5.495,3.977,5.697,4.511
			l1.416,3.792C7.319,8.855,7.308,9.34,7.082,9.667c-0.32,0.462-1.007,0.559-1.527,0.559l-4.22-0.111H1.334
			c-0.606,0-1.105,0.368-1.276,0.916c-0.171,0.552,0.047,1.16,0.529,1.478l3.491,2.277c0.544,0.355,0.844,0.776,0.844,1.184
			c0,0.405-0.3,0.825-0.845,1.181l-3.488,2.278c-0.484,0.314-0.703,0.921-0.531,1.477c0.166,0.531,0.639,0.882,1.236,0.916
			l4.368-0.112c0.661,0.001,1.171,0.199,1.421,0.56c0.225,0.327,0.236,0.812,0.03,1.365l-1.416,3.793
			c-0.202,0.534-0.024,1.149,0.433,1.494c0.221,0.171,0.501,0.266,0.785,0.266c0.28,0,0.547-0.088,0.771-0.255l3.348-2.454
			c0.387-0.284,0.79-0.434,1.166-0.434c0.635,0,1.132,0.428,1.364,1.174l1.192,3.863C14.928,31.632,15.428,32,16,32
			c0.572,0,1.072-0.368,1.244-0.915l1.194-3.864c0.231-0.747,0.728-1.176,1.364-1.176c0.374,0,0.776,0.15,1.163,0.432l3.351,2.458
			c0.215,0.158,0.498,0.253,0.756,0.253h0.013l0.043-0.002c0.716-0.013,1.29-0.584,1.29-1.301c0-0.258-0.072-0.502-0.21-0.711
			l-1.321-3.539c-0.207-0.554-0.196-1.039,0.03-1.365c0.32-0.46,0.968-0.557,1.457-0.557l0.069,0.001l4.222,0.109
			c0.638-0.035,1.111-0.386,1.277-0.916C32.114,20.35,31.895,19.743,31.409,19.428 M16,23c-3.86,0-7-3.14-7-7s3.14-7,7-7s7,3.14,7,7
			S19.86,23,16,23"/>
	</g>
</g>
</svg>
