<?xml version="1.0" encoding="iso-8859-1"?>
<!-- Generator: Adobe Illustrator 17.0.0, SVG Export Plug-In . SVG Version: 6.00 Build 0)  -->
<!DOCTYPE svg PUBLIC "-//W3C//DTD SVG 1.1//EN" "http://www.w3.org/Graphics/SVG/1.1/DTD/svg11.dtd">
<svg version="1.1" id="Layer_1" xmlns="http://www.w3.org/2000/svg" xmlns:xlink="http://www.w3.org/1999/xlink" x="0px" y="0px"
	 width="32px" height="32px" viewBox="0 0 32 32" style="enable-background:new 0 0 32 32;" xml:space="preserve">
<g>
	<defs>
		<rect id="SVGID_1_" width="32" height="32"/>
	</defs>
	<clipPath id="SVGID_2_">
		<use xlink:href="#SVGID_1_"  style="overflow:visible;"/>
	</clipPath>
	<g style="clip-path:url(#SVGID_2_);">
		<defs>
			<rect id="SVGID_3_" width="32" height="32"/>
		</defs>
		<clipPath id="SVGID_4_">
			<use xlink:href="#SVGID_3_"  style="overflow:visible;"/>
		</clipPath>
		<path style="clip-path:url(#SVGID_4_);" d="M16,26c-2.125,0-4.094-0.676-5.715-1.812l3.203-3.204
			C13.805,20.668,14,20.23,14,19.746C14,18.781,13.215,18,12.25,18l-10.5-0.004c-0.965,0-1.75,0.785-1.75,1.75V30.25
			C0,31.215,0.781,32,1.75,32c0.484-0.004,0.922-0.195,1.234-0.512l3.039-3.039C8.758,30.652,12.211,32,16,32
			c6.715,0,12.453-4.141,14.824-10h-6.875C22.121,24.414,19.254,26,16,26"/>
		<path style="clip-path:url(#SVGID_4_);" d="M30.25,0c-0.484,0-0.922,0.195-1.238,0.512l-3.035,3.035C23.238,1.344,19.785,0,16,0
			C9.285,0,3.547,4.137,1.172,10h6.879C9.879,7.586,12.746,6,16,6c2.125,0,4.09,0.676,5.715,1.809l-3.203,3.203
			C18.191,11.328,18,11.766,18,12.25c0,0.965,0.781,1.75,1.746,1.75H30.25c0.965,0,1.746-0.781,1.746-1.75L32,1.75
			C32,0.781,31.215,0,30.25,0"/>
	</g>
</g>
</svg>
