<?xml version="1.0" encoding="iso-8859-1"?>
<!-- Generator: Adobe Illustrator 17.0.0, SVG Export Plug-In . SVG Version: 6.00 Build 0)  -->
<!DOCTYPE svg PUBLIC "-//W3C//DTD SVG 1.1//EN" "http://www.w3.org/Graphics/SVG/1.1/DTD/svg11.dtd">
<svg version="1.1" id="Layer_1" xmlns="http://www.w3.org/2000/svg" xmlns:xlink="http://www.w3.org/1999/xlink" x="0px" y="0px"
	 width="32px" height="32px" viewBox="0 0 32 32" style="enable-background:new 0 0 32 32;" xml:space="preserve">
<g>
	<defs>
		<rect id="SVGID_1_" width="32" height="32"/>
	</defs>
	<clipPath id="SVGID_2_">
		<use xlink:href="#SVGID_1_"  style="overflow:visible;"/>
	</clipPath>
	<g style="clip-path:url(#SVGID_2_);">
		<defs>
			<rect id="SVGID_3_" width="32" height="32"/>
		</defs>
		<clipPath id="SVGID_4_">
			<use xlink:href="#SVGID_3_"  style="overflow:visible;"/>
		</clipPath>
		<path style="clip-path:url(#SVGID_4_);" d="M30.002,12h-18c-1.106,0-2,0.896-2,2L10,22c0,6.075,4.924,10,11,10s11-4,11-10v-8
			C32,12.896,31.105,12,30.002,12 M24,16.001c1.104,0,2,0.895,2,2c0,1.104-0.896,2-2,2s-2-0.896-2-2
			C22,16.896,22.896,16.001,24,16.001 M18,16.001c1.104,0,2,0.895,2,2c0,1.104-0.896,2-2,2s-2-0.896-2-2
			C16,16.896,16.896,16.001,18,16.001 M21,28c-2.781,0-5.17-1.644-6.297-3.999h12.94C26.697,26.729,23.854,28,21,28"/>
		<path style="clip-path:url(#SVGID_4_);" d="M12,10h10V2c0-1.104-0.895-2-1.998-2h-18c-1.106,0-2,0.896-2,2L0,10
			c0,5.034,3.385,8.586,8,9.656V14H5.061C6.006,11.271,9.146,10.01,12,10 M14,4.001c1.104,0,2,0.895,2,2c0,1.104-0.896,2-2,2
			s-2-0.896-2-2C12,4.896,12.896,4.001,14,4.001 M8,4.001c1.104,0,2,0.895,2,2c0,1.104-0.896,2-2,2s-2-0.896-2-2
			C6,4.896,6.896,4.001,8,4.001"/>
	</g>
</g>
</svg>
