<?xml version="1.0" encoding="iso-8859-1"?>
<!-- Generator: Adobe Illustrator 17.0.0, SVG Export Plug-In . SVG Version: 6.00 Build 0)  -->
<!DOCTYPE svg PUBLIC "-//W3C//DTD SVG 1.1//EN" "http://www.w3.org/Graphics/SVG/1.1/DTD/svg11.dtd">
<svg version="1.1" id="Layer_1" xmlns="http://www.w3.org/2000/svg" xmlns:xlink="http://www.w3.org/1999/xlink" x="0px" y="0px"
	 width="32px" height="32px" viewBox="0 0 32 32" style="enable-background:new 0 0 32 32;" xml:space="preserve">
<g>
	<defs>
		<rect id="SVGID_1_" width="32" height="32"/>
	</defs>
	<clipPath id="SVGID_2_">
		<use xlink:href="#SVGID_1_"  style="overflow:visible;"/>
	</clipPath>
	<g style="clip-path:url(#SVGID_2_);">
		<defs>
			<rect id="SVGID_3_" width="32" height="32"/>
		</defs>
		<clipPath id="SVGID_4_">
			<use xlink:href="#SVGID_3_"  style="overflow:visible;"/>
		</clipPath>
		<path style="clip-path:url(#SVGID_4_);" d="M0.251,30.334c-0.33,0.373-0.34,0.945,0.002,1.328c0.365,0.414,1,0.453,1.412,0.086
			l11.232-9.939l-2.705-2.707L0.251,30.334z"/>
		<path style="clip-path:url(#SVGID_4_);" d="M20.685,0c-1.645,1.645-2.262,3.924-1.953,6.16l-4.563,4.565
			c-3.007-1.182-6.103-0.934-8.039,1.004l14.141,14.14c1.926-1.926,2.183-5.004,1.019-7.996l4.598-4.596
			c2.223,0.291,4.481-0.332,6.113-1.963L20.685,0z"/>
	</g>
</g>
</svg>
