<?xml version="1.0" encoding="iso-8859-1"?>
<!-- Generator: Adobe Illustrator 17.0.0, SVG Export Plug-In . SVG Version: 6.00 Build 0)  -->
<!DOCTYPE svg PUBLIC "-//W3C//DTD SVG 1.1//EN" "http://www.w3.org/Graphics/SVG/1.1/DTD/svg11.dtd">
<svg version="1.1" id="Layer_1" xmlns="http://www.w3.org/2000/svg" xmlns:xlink="http://www.w3.org/1999/xlink" x="0px" y="0px"
	 width="32px" height="32px" viewBox="0 0 32 32" style="enable-background:new 0 0 32 32;" xml:space="preserve">
<g>
	<defs>
		<rect id="SVGID_1_" width="32" height="32"/>
	</defs>
	<clipPath id="SVGID_2_">
		<use xlink:href="#SVGID_1_"  style="overflow:visible;"/>
	</clipPath>
	<g style="clip-path:url(#SVGID_2_);">
		<defs>
			<rect id="SVGID_3_" width="32" height="32"/>
		</defs>
		<clipPath id="SVGID_4_">
			<use xlink:href="#SVGID_3_"  style="overflow:visible;"/>
		</clipPath>
		<path style="clip-path:url(#SVGID_4_);" d="M11.431,11.43c0,0,1.836,5.99,2.984,7.141c1.149,1.142,3.008,1.142,4.157,0
			c1.148-1.151,1.148-3.012,0-4.157C17.423,13.264,11.431,11.43,11.431,11.43"/>
		<path style="clip-path:url(#SVGID_4_);" d="M32,15.994c0-4.094-1.563-8.186-4.684-11.309C24.192,1.562,20.101,0.002,16.006,0
			l-0.002-0.002L16,0C11.906,0,7.812,1.562,4.687,4.685c-6.25,6.25-6.248,16.379,0,22.627s16.377,6.252,22.629,0
			c3.123-3.123,4.686-7.217,4.688-11.31c-0.002-0.002-0.002-0.002,0-0.004C32.004,15.998,32.001,15.996,32,15.994 M24.486,23.07
			c-0.387-0.389-1.023-0.389-1.414,0c-0.387,0.389-0.387,1.025,0,1.414l0.672,0.67c-1.852,1.568-4.184,2.582-6.742,2.795V27
			c0-0.551-0.45-1-1-1c-0.551,0-1,0.449-1,1v0.949c-2.559-0.213-4.887-1.227-6.739-2.795l0.668-0.67
			c0.391-0.389,0.391-1.025,0-1.414c-0.386-0.389-1.023-0.389-1.414,0l-0.668,0.67c-1.57-1.852-2.582-4.184-2.797-6.74h0.95
			c0.55,0,1-0.452,1-1c0-0.551-0.45-1-1-1h-0.95c0.215-2.559,1.227-4.889,2.797-6.743l0.668,0.67c0.391,0.389,1.028,0.389,1.414,0
			c0.391-0.388,0.391-1.025,0-1.414l-0.668-0.67c1.852-1.568,4.18-2.582,6.739-2.793V5c0,0.548,0.449,1,1,1c0.55,0,1-0.452,1-1V4.05
			c2.558,0.211,4.89,1.225,6.742,2.793l-0.672,0.67c-0.387,0.389-0.387,1.026,0,1.414c0.391,0.389,1.027,0.389,1.414,0l0.672-0.67
			c1.566,1.854,2.582,4.184,2.793,6.743h-0.949c-0.551,0-1,0.449-1,1c0,0.548,0.449,1,1,1h0.949
			c-0.211,2.556-1.227,4.888-2.793,6.74L24.486,23.07z"/>
	</g>
</g>
</svg>
