<?xml version="1.0" encoding="iso-8859-1"?>
<!-- Generator: Adobe Illustrator 17.0.0, SVG Export Plug-In . SVG Version: 6.00 Build 0)  -->
<!DOCTYPE svg PUBLIC "-//W3C//DTD SVG 1.1//EN" "http://www.w3.org/Graphics/SVG/1.1/DTD/svg11.dtd">
<svg version="1.1" id="Layer_1" xmlns="http://www.w3.org/2000/svg" xmlns:xlink="http://www.w3.org/1999/xlink" x="0px" y="0px"
	 width="32px" height="32px" viewBox="0 0 32 32" style="enable-background:new 0 0 32 32;" xml:space="preserve">
<g>
	<defs>
		<rect id="SVGID_1_" width="32" height="32"/>
	</defs>
	<clipPath id="SVGID_2_">
		<use xlink:href="#SVGID_1_"  style="overflow:visible;"/>
	</clipPath>
	<g style="clip-path:url(#SVGID_2_);">
		<defs>
			<rect id="SVGID_3_" width="32" height="32"/>
		</defs>
		<clipPath id="SVGID_4_">
			<use xlink:href="#SVGID_3_"  style="overflow:visible;"/>
		</clipPath>
		<path style="clip-path:url(#SVGID_4_);" d="M24,8V4c0-2.207-1.793-4-4-4h-8C9.789,0,8,1.793,8,4v4H0v12h10v-2c0-1.105,0.895-2,2-2
			h8c1.105,0,2,0.895,2,2v2h10V8H24z M20,8h-8V4h8V8z"/>
		<path style="clip-path:url(#SVGID_4_);" d="M20,24h-8c-1.105,0-2-0.895-2-2H2v10h28V22h-8C22,23.105,21.105,24,20,24"/>
		<rect x="12" y="18" style="clip-path:url(#SVGID_4_);" width="8" height="4"/>
	</g>
</g>
</svg>
