<?xml version="1.0" encoding="iso-8859-1"?>
<!-- Generator: Adobe Illustrator 17.0.0, SVG Export Plug-In . SVG Version: 6.00 Build 0)  -->
<!DOCTYPE svg PUBLIC "-//W3C//DTD SVG 1.1//EN" "http://www.w3.org/Graphics/SVG/1.1/DTD/svg11.dtd">
<svg version="1.1" id="Layer_1" xmlns="http://www.w3.org/2000/svg" xmlns:xlink="http://www.w3.org/1999/xlink" x="0px" y="0px"
	 width="32px" height="32px" viewBox="0 0 32 32" style="enable-background:new 0 0 32 32;" xml:space="preserve">
<g>
	<defs>
		<rect id="SVGID_1_" width="32" height="32"/>
	</defs>
	<clipPath id="SVGID_2_">
		<use xlink:href="#SVGID_1_"  style="overflow:visible;"/>
	</clipPath>
	<g style="clip-path:url(#SVGID_2_);">
		<defs>
			<rect id="SVGID_3_" width="32" height="32"/>
		</defs>
		<clipPath id="SVGID_4_">
			<use xlink:href="#SVGID_3_"  style="overflow:visible;"/>
		</clipPath>
		<path style="clip-path:url(#SVGID_4_);" d="M25.837,4.157c-1.322-1.39-3.078-2.155-5.072-2.155h-0.004
			c-1.471,0.025-2.544,0.479-3.307,0.867C17.275,2.988,16.759,3.332,16,3.855c-0.761-0.525-1.288-0.875-1.539-1.036
			C13.783,2.481,12.709,2.027,11.111,2c-1.867,0-3.625,0.766-4.95,2.157c-1.436,1.509-2.203,3.558-2.16,5.769
			c0.04,1.963,0.733,3.852,1.955,5.332c0.02,0.029,0.041,0.056,0.064,0.082c0.016,0.018,1.588,1.845,1.981,5.293
			c-0.093,3.954,1.174,7.13,3.663,9.184c0.145,0.121,0.322,0.182,0.5,0.182c0.012,0.002,0.025,0.002,0.031,0
			c0.442,0,0.8-0.368,0.8-0.824c0-0.141-0.034-0.276-0.095-0.392c-0.414-2.017-0.992-7.033,0.7-9.221
			c0.568-0.735,1.354-1.092,2.4-1.092c1.045,0,1.829,0.357,2.398,1.092c1.753,2.26,1.069,7.574,0.658,9.43
			c-0.077,0.341,0.067,0.695,0.355,0.881c0.289,0.185,0.66,0.165,0.925-0.056c2.489-2.054,3.756-5.23,3.657-9.068
			c0.394-3.525,1.972-5.393,1.986-5.409c0.022-0.026,0.044-0.053,0.063-0.08c1.223-1.48,1.917-3.371,1.956-5.335
			C28.042,7.715,27.274,5.666,25.837,4.157"/>
	</g>
</g>
</svg>
