<?xml version="1.0" encoding="iso-8859-1"?>
<!-- Generator: Adobe Illustrator 17.0.0, SVG Export Plug-In . SVG Version: 6.00 Build 0)  -->
<!DOCTYPE svg PUBLIC "-//W3C//DTD SVG 1.1//EN" "http://www.w3.org/Graphics/SVG/1.1/DTD/svg11.dtd">
<svg version="1.1" id="Layer_1" xmlns="http://www.w3.org/2000/svg" xmlns:xlink="http://www.w3.org/1999/xlink" x="0px" y="0px"
	 width="32px" height="32px" viewBox="0 0 32 32" style="enable-background:new 0 0 32 32;" xml:space="preserve">
<g>
	<defs>
		<rect id="SVGID_1_" width="32" height="32"/>
	</defs>
	<clipPath id="SVGID_2_">
		<use xlink:href="#SVGID_1_"  style="overflow:visible;"/>
	</clipPath>
	<g style="clip-path:url(#SVGID_2_);">
		<defs>
			<rect id="SVGID_3_" width="32" height="32"/>
		</defs>
		<clipPath id="SVGID_4_">
			<use xlink:href="#SVGID_3_"  style="overflow:visible;"/>
		</clipPath>
		<path style="clip-path:url(#SVGID_4_);" d="M8,24h16c2.2,0,4-1.8,4-4V4c0-2.2-1.8-4-4-4H8C5.8,0,4,1.8,4,4v16C4,22.2,5.8,24,8,24
			 M26,18c0,1.105-0.895,2-2,2s-2-0.895-2-2c0-1.104,0.895-2,2-2S26,16.896,26,18 M11,2h10c0.55,0,1,0.45,1,1s-0.45,1-1,1H11
			c-0.55,0-1-0.45-1-1S10.45,2,11,2 M8,7c0-0.55,0.45-1,1-1h14c0.55,0,1,0.45,1,1v6c0,0.55-0.45,1-1,1H9c-0.55,0-1-0.45-1-1V7z
			 M8,16c1.105,0,2,0.896,2,2c0,1.105-0.895,2-2,2s-2-0.895-2-2C6,16.896,6.895,16,8,16"/>
		<path style="clip-path:url(#SVGID_4_);" d="M31,30H1c-0.55,0-1,0.45-1,1s0.45,1,1,1h30c0.55,0,1-0.45,1-1S31.55,30,31,30"/>
		<path style="clip-path:url(#SVGID_4_);" d="M3,28h26c0.55,0,1-0.45,1-1s-0.45-1-1-1H3c-0.55,0-1,0.45-1,1S2.45,28,3,28"/>
	</g>
</g>
</svg>
