<?xml version="1.0" encoding="iso-8859-1"?>
<!-- Generator: Adobe Illustrator 17.0.0, SVG Export Plug-In . SVG Version: 6.00 Build 0)  -->
<!DOCTYPE svg PUBLIC "-//W3C//DTD SVG 1.1//EN" "http://www.w3.org/Graphics/SVG/1.1/DTD/svg11.dtd">
<svg version="1.1" id="Layer_1" xmlns="http://www.w3.org/2000/svg" xmlns:xlink="http://www.w3.org/1999/xlink" x="0px" y="0px"
	 width="32px" height="32px" viewBox="0 0 32 32" style="enable-background:new 0 0 32 32;" xml:space="preserve">
<g>
	<defs>
		<rect id="SVGID_1_" width="32" height="32"/>
	</defs>
	<clipPath id="SVGID_2_">
		<use xlink:href="#SVGID_1_"  style="overflow:visible;"/>
	</clipPath>
	<g style="clip-path:url(#SVGID_2_);">
		<defs>
			<rect id="SVGID_3_" width="32" height="32"/>
		</defs>
		<clipPath id="SVGID_4_">
			<use xlink:href="#SVGID_3_"  style="overflow:visible;"/>
		</clipPath>
		<path style="clip-path:url(#SVGID_4_);" d="M8.993,16.789c0.691,0.613,1.805,0.613,2.492,0c0.34-0.309,0.52-0.711,0.516-1.113V12
			h17c1.656,0,3-1.344,3-3s-1.344-3-3-3h-17V2.324c0.004-0.402-0.176-0.808-0.516-1.113c-0.687-0.613-1.801-0.613-2.492,0
			l-8.48,6.676C-0.171,8.5-0.171,9.496,0.516,10.109L8.993,16.789z"/>
		<path style="clip-path:url(#SVGID_4_);" d="M23.004,15.211c-0.687-0.613-1.801-0.613-2.488,0c-0.344,0.309-0.52,0.711-0.516,1.113
			V20H3c-1.656,0-3,1.344-3,3s1.344,3,3,3h17v3.676c-0.004,0.402,0.172,0.804,0.516,1.113c0.687,0.613,1.801,0.613,2.488,0
			l8.484-6.676c0.684-0.613,0.684-1.609-0.007-2.222L23.004,15.211z"/>
	</g>
</g>
</svg>
