<?xml version="1.0" encoding="iso-8859-1"?>
<!-- Generator: Adobe Illustrator 17.0.0, SVG Export Plug-In . SVG Version: 6.00 Build 0)  -->
<!DOCTYPE svg PUBLIC "-//W3C//DTD SVG 1.1//EN" "http://www.w3.org/Graphics/SVG/1.1/DTD/svg11.dtd">
<svg version="1.1" id="Layer_1" xmlns="http://www.w3.org/2000/svg" xmlns:xlink="http://www.w3.org/1999/xlink" x="0px" y="0px"
	 width="32px" height="32px" viewBox="0 0 32 32" style="enable-background:new 0 0 32 32;" xml:space="preserve">
<g>
	<defs>
		<rect id="SVGID_1_" width="32" height="32"/>
	</defs>
	<clipPath id="SVGID_2_">
		<use xlink:href="#SVGID_1_"  style="overflow:visible;"/>
	</clipPath>
	<g style="clip-path:url(#SVGID_2_);">
		<defs>
			<rect id="SVGID_3_" width="32" height="32"/>
		</defs>
		<clipPath id="SVGID_4_">
			<use xlink:href="#SVGID_3_"  style="overflow:visible;"/>
		</clipPath>
		<path style="clip-path:url(#SVGID_4_);" d="M24.5,22c-1.933,0-3.5,1.567-3.5,3.5s1.567,3.5,3.5,3.5s3.5-1.567,3.5-3.5
			S26.433,22,24.5,22"/>
		<path style="clip-path:url(#SVGID_4_);" d="M8.5,22C6.567,22,5,23.567,5,25.5S6.567,29,8.5,29s3.5-1.567,3.5-3.5S10.433,22,8.5,22
			"/>
		<path style="clip-path:url(#SVGID_4_);" d="M16,3H2C0.9,3,0,3.9,0,5v16c0,1.1,0.9,2,2,2h1.629c0.914-1.772,2.743-3,4.871-3
			s3.957,1.228,4.871,3H18V5C18,3.9,17.1,3,16,3"/>
		<path style="clip-path:url(#SVGID_4_);" d="M31.2,13.65L25.8,9.6C25.36,9.27,24.55,9,24,9h-4v13.385
			C20.99,20.95,22.629,20,24.5,20c2.128,0,3.957,1.228,4.871,3H31c0.55,0,1-0.45,1-1v-6.75C32,14.7,31.64,13.98,31.2,13.65 M22,15
			v-4h1.995c0.148,0.008,0.49,0.122,0.605,0.2l5.078,3.8H22z"/>
	</g>
</g>
</svg>
