<?xml version="1.0" encoding="iso-8859-1"?>
<!-- Generator: Adobe Illustrator 17.0.0, SVG Export Plug-In . SVG Version: 6.00 Build 0)  -->
<!DOCTYPE svg PUBLIC "-//W3C//DTD SVG 1.1//EN" "http://www.w3.org/Graphics/SVG/1.1/DTD/svg11.dtd">
<svg version="1.1" id="Layer_1" xmlns="http://www.w3.org/2000/svg" xmlns:xlink="http://www.w3.org/1999/xlink" x="0px" y="0px"
	 width="32px" height="32px" viewBox="0 0 32 32" style="enable-background:new 0 0 32 32;" xml:space="preserve">
<g>
	<defs>
		<rect id="SVGID_1_" width="32" height="32"/>
	</defs>
	<clipPath id="SVGID_2_">
		<use xlink:href="#SVGID_1_"  style="overflow:visible;"/>
	</clipPath>
	<g style="clip-path:url(#SVGID_2_);">
		<defs>
			<rect id="SVGID_3_" width="32" height="32"/>
		</defs>
		<clipPath id="SVGID_4_">
			<use xlink:href="#SVGID_3_"  style="overflow:visible;"/>
		</clipPath>
		<path style="clip-path:url(#SVGID_4_);" d="M20,18c0,1.104-0.895,2-2,2h-4c-1.104,0-2-0.896-2-2H2.859L0,26c0,4,2.57,6,6,6h20
			c3.43,0,6-2,6-6l-2.857-8H20z M7,24H5c-0.553,0-1-0.447-1-1s0.447-1,1-1h2c0.553,0,1,0.447,1,1S7.553,24,7,24 M11,28H9
			c-0.553,0-1-0.447-1-1s0.447-1,1-1h2c0.553,0,1,0.447,1,1S11.553,28,11,28 M13,24h-2c-0.553,0-1-0.447-1-1s0.447-1,1-1h2
			c0.553,0,1,0.447,1,1S13.553,24,13,24 M17,28h-2c-0.553,0-1-0.447-1-1s0.447-1,1-1h2c0.553,0,1,0.447,1,1S17.553,28,17,28 M18,23
			c0-0.553,0.447-1,1-1h2c0.553,0,1,0.447,1,1s-0.447,1-1,1h-2C18.447,24,18,23.553,18,23 M23,28h-2c-0.553,0-1-0.447-1-1
			s0.447-1,1-1h2c0.553,0,1,0.447,1,1S23.553,28,23,28 M27,24h-2c-0.553,0-1-0.447-1-1s0.447-1,1-1h2c0.553,0,1,0.447,1,1
			S27.553,24,27,24"/>
		<path style="clip-path:url(#SVGID_4_);" d="M2,16h28c1.105,0,2-0.896,2-2c0-1.105-0.895-2-2-2h-4V0H6v12H2c-1.105,0-2,0.895-2,2
			C0,15.104,0.895,16,2,16 M11,4h10c0.553,0,1,0.447,1,1s-0.447,1-1,1H11c-0.553,0-1-0.447-1-1S10.447,4,11,4 M11,8h10
			c0.553,0,1,0.447,1,1s-0.447,1-1,1H11c-0.553,0-1-0.447-1-1S10.447,8,11,8"/>
	</g>
</g>
</svg>
