<?xml version="1.0" encoding="iso-8859-1"?>
<!-- Generator: Adobe Illustrator 17.0.0, SVG Export Plug-In . SVG Version: 6.00 Build 0)  -->
<!DOCTYPE svg PUBLIC "-//W3C//DTD SVG 1.1//EN" "http://www.w3.org/Graphics/SVG/1.1/DTD/svg11.dtd">
<svg version="1.1" id="Layer_1" xmlns="http://www.w3.org/2000/svg" xmlns:xlink="http://www.w3.org/1999/xlink" x="0px" y="0px"
	 width="32px" height="32px" viewBox="0 0 32 32" style="enable-background:new 0 0 32 32;" xml:space="preserve">
<g>
	<defs>
		<rect id="SVGID_1_" width="32" height="32"/>
	</defs>
	<clipPath id="SVGID_2_">
		<use xlink:href="#SVGID_1_"  style="overflow:visible;"/>
	</clipPath>
	<g style="clip-path:url(#SVGID_2_);">
		<defs>
			<rect id="SVGID_3_" width="32" height="32"/>
		</defs>
		<clipPath id="SVGID_4_">
			<use xlink:href="#SVGID_3_"  style="overflow:visible;"/>
		</clipPath>
		<path style="clip-path:url(#SVGID_4_);" d="M8.047,22c1.828,2.414,4.699,4,7.953,4c5.516,0,10-4.488,10-10c0-5.516-4.484-10-10-10
			c-2.125,0-4.09,0.676-5.715,1.809l3.203,3.203C13.809,11.328,14,11.766,14,12.25c0,0.965-0.781,1.75-1.746,1.75H1.75
			c-0.965,0-1.746-0.781-1.746-1.75L0,1.75C0,0.781,0.785,0,1.75,0c0.485,0,0.922,0.195,1.238,0.512l3.036,3.035
			C8.762,1.344,12.215,0,16,0c8.84,0,16,7.164,16,16s-7.16,16-16,16C9.289,32,3.563,27.859,1.188,22H8.047z"/>
	</g>
</g>
</svg>
