<?xml version="1.0" encoding="iso-8859-1"?>
<!-- Generator: Adobe Illustrator 17.0.0, SVG Export Plug-In . SVG Version: 6.00 Build 0)  -->
<!DOCTYPE svg PUBLIC "-//W3C//DTD SVG 1.1//EN" "http://www.w3.org/Graphics/SVG/1.1/DTD/svg11.dtd">
<svg version="1.1" id="Layer_1" xmlns="http://www.w3.org/2000/svg" xmlns:xlink="http://www.w3.org/1999/xlink" x="0px" y="0px"
	 width="32px" height="32px" viewBox="0 0 32 32" style="enable-background:new 0 0 32 32;" xml:space="preserve">
<g>
	<defs>
		<rect id="SVGID_1_" width="32" height="32"/>
	</defs>
	<clipPath id="SVGID_2_">
		<use xlink:href="#SVGID_1_"  style="overflow:visible;"/>
	</clipPath>
	<g style="clip-path:url(#SVGID_2_);">
		<defs>
			<rect id="SVGID_3_" width="32" height="32"/>
		</defs>
		<clipPath id="SVGID_4_">
			<use xlink:href="#SVGID_3_"  style="overflow:visible;"/>
		</clipPath>
		<path style="clip-path:url(#SVGID_4_);" d="M22.612,6.004L6.22,3.452C5.604,3.365,4.997,3.574,4.569,3.999
			c-0.43,0.43-0.635,1.035-0.547,1.651l2.545,16.396c0.059,0.501,0.299,0.961,0.649,1.32c0.222,0.219,0.494,0.399,0.789,0.511
			c0.781,0.313,1.625,0.127,2.187-0.432l4.141-4.14l8.107,8.124c1.539,1.535,4.026,1.539,5.561,0.004
			c1.533-1.533,1.531-4.021-0.006-5.559l-8.108-8.124l4.143-4.142c0.555-0.558,0.727-1.386,0.416-2.17
			c-0.115-0.294-0.297-0.564-0.514-0.787C23.575,6.301,23.112,6.062,22.612,6.004"/>
	</g>
</g>
</svg>
