<?xml version="1.0" encoding="iso-8859-1"?>
<!-- Generator: Adobe Illustrator 17.0.0, SVG Export Plug-In . SVG Version: 6.00 Build 0)  -->
<!DOCTYPE svg PUBLIC "-//W3C//DTD SVG 1.1//EN" "http://www.w3.org/Graphics/SVG/1.1/DTD/svg11.dtd">
<svg version="1.1" id="Layer_1" xmlns="http://www.w3.org/2000/svg" xmlns:xlink="http://www.w3.org/1999/xlink" x="0px" y="0px"
	 width="32px" height="32px" viewBox="0 0 32 32" style="enable-background:new 0 0 32 32;" xml:space="preserve">
<g>
	<defs>
		<rect id="SVGID_1_" width="32" height="32"/>
	</defs>
	<clipPath id="SVGID_2_">
		<use xlink:href="#SVGID_1_"  style="overflow:visible;"/>
	</clipPath>
	<g style="clip-path:url(#SVGID_2_);">
		<defs>
			<rect id="SVGID_3_" width="32" height="32"/>
		</defs>
		<clipPath id="SVGID_4_">
			<use xlink:href="#SVGID_3_"  style="overflow:visible;"/>
		</clipPath>
		<path style="clip-path:url(#SVGID_4_);" d="M27.52,14.394l-9.941-13.6C17.198,0.289,16.616,0.002,16,0
			c-0.615,0.002-1.197,0.289-1.579,0.794l-9.94,13.6c-0.318,0.4-0.477,0.905-0.481,1.413c0.002,0.315,0.067,0.638,0.195,0.934
			C4.536,17.526,5.277,17.997,6.079,18h5.947l-0.013,10.004C12.013,30.211,13.798,32,16,32c2.203,0,3.988-1.789,3.988-3.996L20,18
			h5.948c0.801-0.003,1.517-0.474,1.858-1.259c0.128-0.296,0.192-0.619,0.194-0.934C27.996,15.299,27.837,14.794,27.52,14.394"/>
	</g>
</g>
</svg>
