<?xml version="1.0" encoding="iso-8859-1"?>
<!-- Generator: Adobe Illustrator 17.0.0, SVG Export Plug-In . SVG Version: 6.00 Build 0)  -->
<!DOCTYPE svg PUBLIC "-//W3C//DTD SVG 1.1//EN" "http://www.w3.org/Graphics/SVG/1.1/DTD/svg11.dtd">
<svg version="1.1" id="Layer_1" xmlns="http://www.w3.org/2000/svg" xmlns:xlink="http://www.w3.org/1999/xlink" x="0px" y="0px"
	 width="32px" height="32px" viewBox="0 0 32 32" style="enable-background:new 0 0 32 32;" xml:space="preserve">
<g>
	<defs>
		<rect id="SVGID_1_" width="32" height="32"/>
	</defs>
	<clipPath id="SVGID_2_">
		<use xlink:href="#SVGID_1_"  style="overflow:visible;"/>
	</clipPath>
	<g style="clip-path:url(#SVGID_2_);">
		<defs>
			<rect id="SVGID_3_" width="32" height="32"/>
		</defs>
		<clipPath id="SVGID_4_">
			<use xlink:href="#SVGID_3_"  style="overflow:visible;"/>
		</clipPath>
		<path style="clip-path:url(#SVGID_4_);" d="M10.995,18c2.75,0,5-2.25,5-5V9.667c0-2.75-2.25-5-5-5s-5,2.25-5,5V13
			C5.995,15.75,8.245,18,10.995,18"/>
		<path style="clip-path:url(#SVGID_4_);" d="M10.995,20c-6.051,0-11,4.629-11,10.286c0,0.943,0.824,1.714,1.836,1.714h18.332
			c1.004,0,1.832-0.771,1.832-1.714C21.995,24.629,17.042,20,10.995,20"/>
		<path style="clip-path:url(#SVGID_4_);" d="M17.995,12.299c0.84,0.639,1.874,1.034,3.005,1.034c2.75,0,5-2.25,5-5V5
			c0-2.75-2.25-5-5-5c-2.686,0-4.879,2.15-4.981,4.812c1.218,1.26,1.976,2.968,1.976,4.855V12.299z"/>
		<path style="clip-path:url(#SVGID_4_);" d="M21,15.333c-1.297,0-2.537,0.224-3.695,0.614c-0.507,1.067-1.253,2-2.201,2.692
			c4.184,1.322,7.392,4.28,8.469,8.361h6.595C31.172,27,32,26.562,32,25.619C32,19.962,27.047,15.333,21,15.333"/>
	</g>
</g>
</svg>
