<?xml version="1.0" encoding="iso-8859-1"?>
<!-- Generator: Adobe Illustrator 17.0.0, SVG Export Plug-In . SVG Version: 6.00 Build 0)  -->
<!DOCTYPE svg PUBLIC "-//W3C//DTD SVG 1.1//EN" "http://www.w3.org/Graphics/SVG/1.1/DTD/svg11.dtd">
<svg version="1.1" id="Layer_1" xmlns="http://www.w3.org/2000/svg" xmlns:xlink="http://www.w3.org/1999/xlink" x="0px" y="0px"
	 width="32px" height="32px" viewBox="0 0 32 32" style="enable-background:new 0 0 32 32;" xml:space="preserve">
<g>
	<defs>
		<rect id="SVGID_1_" width="32" height="32"/>
	</defs>
	<clipPath id="SVGID_2_">
		<use xlink:href="#SVGID_1_"  style="overflow:visible;"/>
	</clipPath>
	<g style="clip-path:url(#SVGID_2_);">
		<defs>
			<rect id="SVGID_3_" width="32" height="32"/>
		</defs>
		<clipPath id="SVGID_4_">
			<use xlink:href="#SVGID_3_"  style="overflow:visible;"/>
		</clipPath>
		<path style="clip-path:url(#SVGID_4_);" d="M11.824,14.055C12.957,15.133,14.795,16,16,16c1.211,0,3.051-0.882,4.183-1.965
			c-0.007,0.007-0.015,0.016-0.023,0.024C23.59,13.748,24,12.83,24,12.83c-2.004-1.168-2-6.636-2-6.636C22,4.129,20.043,0,16,0
			c-3.957,0-6,4.129-6,6.194c0,0,0.004,5.468-2,6.636C8,12.83,8.402,13.745,11.824,14.055"/>
		<path style="clip-path:url(#SVGID_4_);" d="M16,18C9.398,18,4,23.4,4,30c0,1.1,0.898,2,2,2h20c1.098,0,2-0.9,2-2
			C28,23.4,22.598,18,16,18"/>
	</g>
</g>
</svg>
