<?xml version="1.0" encoding="iso-8859-1"?>
<!-- Generator: Adobe Illustrator 17.0.0, SVG Export Plug-In . SVG Version: 6.00 Build 0)  -->
<!DOCTYPE svg PUBLIC "-//W3C//DTD SVG 1.1//EN" "http://www.w3.org/Graphics/SVG/1.1/DTD/svg11.dtd">
<svg version="1.1" id="Layer_1" xmlns="http://www.w3.org/2000/svg" xmlns:xlink="http://www.w3.org/1999/xlink" x="0px" y="0px"
	 width="32px" height="32px" viewBox="0 0 32 32" style="enable-background:new 0 0 32 32;" xml:space="preserve">
<g>
	<defs>
		<rect id="SVGID_1_" width="32" height="32"/>
	</defs>
	<clipPath id="SVGID_2_">
		<use xlink:href="#SVGID_1_"  style="overflow:visible;"/>
	</clipPath>
	<g style="clip-path:url(#SVGID_2_);">
		<defs>
			<rect id="SVGID_3_" width="32" height="32"/>
		</defs>
		<clipPath id="SVGID_4_">
			<use xlink:href="#SVGID_3_"  style="overflow:visible;"/>
		</clipPath>
		<path style="clip-path:url(#SVGID_4_);" d="M29.422,15.987l2.283-2.283c0.393-0.393,0.393-1.036,0-1.429l-0.98-0.98
			c-0.393-0.393-1.036-0.393-1.429,0l-2.283,2.283l-2.235-2.235c-0.388-0.388-1.025-0.388-1.414,0l-0.969,0.97
			c-0.389,0.389-0.389,1.025,0,1.414l2.234,2.235l-2.334,2.335c-0.393,0.393-0.393,1.036,0,1.429l0.979,0.98
			c0.393,0.393,1.036,0.393,1.429,0l2.335-2.335l2.286,2.286c0.389,0.389,1.025,0.389,1.414,0l0.97-0.97
			c0.389-0.389,0.389-1.025,0-1.414L29.422,15.987z"/>
		<path style="clip-path:url(#SVGID_4_);" d="M2,10c-1.098,0-2,0.9-2,2v8c0,1.1,0.902,2,2,2h4.402L17,30V2L6.402,10H2z"/>
	</g>
</g>
</svg>
