<?xml version="1.0" encoding="iso-8859-1"?>
<!-- Generator: Adobe Illustrator 17.0.0, SVG Export Plug-In . SVG Version: 6.00 Build 0)  -->
<!DOCTYPE svg PUBLIC "-//W3C//DTD SVG 1.1//EN" "http://www.w3.org/Graphics/SVG/1.1/DTD/svg11.dtd">
<svg version="1.1" id="Layer_1" xmlns="http://www.w3.org/2000/svg" xmlns:xlink="http://www.w3.org/1999/xlink" x="0px" y="0px"
	 width="32px" height="32px" viewBox="0 0 32 32" style="enable-background:new 0 0 32 32;" xml:space="preserve">
<g>
	<defs>
		<rect id="SVGID_1_" width="32" height="32"/>
	</defs>
	<clipPath id="SVGID_2_">
		<use xlink:href="#SVGID_1_"  style="overflow:visible;"/>
	</clipPath>
	<g style="clip-path:url(#SVGID_2_);">
		<defs>
			<rect id="SVGID_3_" width="32" height="32"/>
		</defs>
		<clipPath id="SVGID_4_">
			<use xlink:href="#SVGID_3_"  style="overflow:visible;"/>
		</clipPath>
		<path style="clip-path:url(#SVGID_4_);" d="M25.64,20.528c-0.213,0-0.42,0.033-0.623,0.06c-1.023-3.826-4.391-6.654-8.434-6.654
			c-3.318,0-6.173,1.918-7.664,4.715c-0.699-0.258-1.445-0.414-2.23-0.414c-3.693,0-6.688,3.081-6.688,6.881
			c0,3.802,2.995,6.883,6.688,6.883h9.883c0.004,0,0.008,0.001,0.011,0.001c0,0,0.006-0.001,0.008-0.001h9.049
			c3.08,0,5.572-2.568,5.572-5.735C31.212,23.096,28.72,20.528,25.64,20.528"/>
		<path style="clip-path:url(#SVGID_4_);" d="M31.382,14.984l-3.246-1.529c-0.518-0.244-0.842-0.594-0.897-0.964
			c-0.054-0.367,0.157-0.801,0.583-1.19l2.667-2.441c0.356-0.322,0.458-0.853,0.254-1.292c-0.211-0.441-0.67-0.694-1.142-0.602
			l-3.565,0.651l-0.078,0.012c-0.582,0.089-1.068-0.026-1.336-0.318c-0.242-0.269-0.32-0.705-0.209-1.234l0.721-3.491
			c0.094-0.472-0.117-0.957-0.535-1.187c-0.41-0.231-0.918-0.156-1.248,0.184l-2.533,2.578c-0.313,0.32-0.657,0.52-0.989,0.571
			c-0.539,0.083-1.027-0.246-1.332-0.902l-1.498-3.212c-0.205-0.434-0.654-0.678-1.115-0.607c-0.459,0.072-0.822,0.44-0.891,0.915
			L14.47,4.449c-0.107,0.721-0.477,1.181-1.02,1.264c-0.33,0.052-0.712-0.037-1.107-0.248l-3.15-1.704
			C8.777,3.537,8.267,3.62,7.941,3.963c-0.328,0.345-0.399,0.873-0.17,1.295L9.45,8.379c0.256,0.474,0.305,0.914,0.149,1.245
			c-0.172,0.358-0.602,0.615-1.186,0.706l-3.67,0.463c-0.466,0.048-0.845,0.433-0.916,0.919c-0.076,0.482,0.174,0.958,0.606,1.16
			l3.244,1.531c0.176,0.083,0.293,0.19,0.422,0.295c1.265-1.365,2.81-2.41,4.523-3.045c0.746-1.856,2.36-3.283,4.43-3.603
			c3.148-0.484,6.086,1.754,6.555,4.998c0.017,0.116,0.015,0.228,0.023,0.342c1.44,1.114,2.645,2.545,3.467,4.238
			c0.103-0.032,0.182-0.083,0.299-0.102l3.672-0.464c0.466-0.041,0.845-0.434,0.92-0.918C32.06,15.662,31.814,15.189,31.382,14.984"
			/>
	</g>
</g>
</svg>
