<?xml version="1.0" encoding="iso-8859-1"?>
<!-- Generator: Adobe Illustrator 17.0.0, SVG Export Plug-In . SVG Version: 6.00 Build 0)  -->
<!DOCTYPE svg PUBLIC "-//W3C//DTD SVG 1.1//EN" "http://www.w3.org/Graphics/SVG/1.1/DTD/svg11.dtd">
<svg version="1.1" id="Layer_1" xmlns="http://www.w3.org/2000/svg" xmlns:xlink="http://www.w3.org/1999/xlink" x="0px" y="0px"
	 width="32px" height="32px" viewBox="0 0 32 32" style="enable-background:new 0 0 32 32;" xml:space="preserve">
<g>
	<defs>
		<rect id="SVGID_1_" width="32" height="32"/>
	</defs>
	<clipPath id="SVGID_2_">
		<use xlink:href="#SVGID_1_"  style="overflow:visible;"/>
	</clipPath>
	<g style="clip-path:url(#SVGID_2_);">
		<defs>
			<rect id="SVGID_3_" width="32" height="32"/>
		</defs>
		<clipPath id="SVGID_4_">
			<use xlink:href="#SVGID_3_"  style="overflow:visible;"/>
		</clipPath>
		<path style="clip-path:url(#SVGID_4_);" d="M16,22.126c-1.559,0-2.973,0.633-3.996,1.66l2.664,2.664
			c0.734,0.733,1.934,0.733,2.668,0L20,23.786C18.977,22.762,17.563,22.126,16,22.126"/>
		<path style="clip-path:url(#SVGID_4_);" d="M16,13.642c-3.898,0-7.434,1.584-9.996,4.147l3.332,3.33
			c1.707-1.707,4.066-2.764,6.664-2.764c2.602,0,4.957,1.057,6.664,2.766l3.332-3.332C23.438,15.226,19.902,13.642,16,13.642"/>
		<path style="clip-path:url(#SVGID_4_);" d="M16,9.871c4.941,0,9.418,2.008,12.664,5.254L32,11.785
			c-4.094-4.094-9.75-6.629-16-6.629c-6.246,0-11.902,2.535-16,6.627l3.34,3.34C6.586,11.879,11.063,9.871,16,9.871"/>
	</g>
</g>
</svg>
