<?xml version="1.0" encoding="iso-8859-1"?>
<!-- Generator: Adobe Illustrator 17.0.0, SVG Export Plug-In . SVG Version: 6.00 Build 0)  -->
<!DOCTYPE svg PUBLIC "-//W3C//DTD SVG 1.1//EN" "http://www.w3.org/Graphics/SVG/1.1/DTD/svg11.dtd">
<svg version="1.1" id="Layer_1" xmlns="http://www.w3.org/2000/svg" xmlns:xlink="http://www.w3.org/1999/xlink" x="0px" y="0px"
	 width="32px" height="32px" viewBox="0 0 32 32" style="enable-background:new 0 0 32 32;" xml:space="preserve">
<g>
	<defs>
		<rect id="SVGID_1_" width="32" height="32"/>
	</defs>
	<clipPath id="SVGID_2_">
		<use xlink:href="#SVGID_1_"  style="overflow:visible;"/>
	</clipPath>
	<g style="clip-path:url(#SVGID_2_);">
		<defs>
			<rect id="SVGID_3_" width="32" height="32"/>
		</defs>
		<clipPath id="SVGID_4_">
			<use xlink:href="#SVGID_3_"  style="overflow:visible;"/>
		</clipPath>
		<path style="clip-path:url(#SVGID_4_);" d="M28,13.063C27.996,8.293,24,0,24,0H8c0,0-3.996,8.293-4,13.063
			c-0.004,4.269,4.324,8.23,10,9.023v5.247l-4.168,2.112C9.375,29.75,9,30.45,9,31s0.449,1,1,1h12c0.55,0,1-0.45,1-1
			s-0.375-1.25-0.832-1.555L18,27.333v-5.247C23.675,21.293,28.004,17.332,28,13.063 M21.402,4c0.746,1.793,1.578,4.032,2.094,6H8.5
			c0.504-1.931,1.316-4.142,2.093-6H21.402z"/>
	</g>
</g>
</svg>
