<?xml version="1.0" encoding="iso-8859-1"?>
<!-- Generator: Adobe Illustrator 17.0.0, SVG Export Plug-In . SVG Version: 6.00 Build 0)  -->
<!DOCTYPE svg PUBLIC "-//W3C//DTD SVG 1.1//EN" "http://www.w3.org/Graphics/SVG/1.1/DTD/svg11.dtd">
<svg version="1.1" id="Layer_1" xmlns="http://www.w3.org/2000/svg" xmlns:xlink="http://www.w3.org/1999/xlink" x="0px" y="0px"
	 width="32px" height="32px" viewBox="0 0 32 32" style="enable-background:new 0 0 32 32;" xml:space="preserve">
<g>
	<defs>
		<rect id="SVGID_1_" width="32" height="32"/>
	</defs>
	<clipPath id="SVGID_2_">
		<use xlink:href="#SVGID_1_"  style="overflow:visible;"/>
	</clipPath>
	<g style="clip-path:url(#SVGID_2_);">
		<defs>
			<rect id="SVGID_3_" width="32" height="32"/>
		</defs>
		<clipPath id="SVGID_4_">
			<use xlink:href="#SVGID_3_"  style="overflow:visible;"/>
		</clipPath>
		<path style="clip-path:url(#SVGID_4_);" d="M31.404,6.596L26.73,11.27c-0.389,0.389-1.157,0.707-1.707,0.707h-4
			c-0.55,0-1-0.45-1-1v-4c0-0.55,0.318-1.318,0.707-1.707l4.674-4.674c-3.53-1.268-7.624-0.518-10.452,2.31
			c-2.676,2.676-3.473,6.481-2.481,9.874L1.392,23.859c-1.856,1.856-1.856,4.893,0,6.749c1.856,1.856,4.893,1.856,6.749,0
			L19.22,19.529c3.393,0.992,7.198,0.195,9.874-2.481C31.922,14.22,32.672,10.126,31.404,6.596 M5,29c-1.105,0-2-0.896-2-2
			c0-1.105,0.895-2,2-2s2,0.895,2,2C7,28.104,6.105,29,5,29"/>
	</g>
</g>
</svg>
