<?xml version="1.0" encoding="utf-8"?>
<!-- Generator: Adobe Illustrator 16.0.4, SVG Export Plug-In . SVG Version: 6.00 Build 0)  -->
<!DOCTYPE svg PUBLIC "-//W3C//DTD SVG 1.1//EN" "http://www.w3.org/Graphics/SVG/1.1/DTD/svg11.dtd">
<svg version="1.1" xmlns="http://www.w3.org/2000/svg" xmlns:xlink="http://www.w3.org/1999/xlink" x="0px" y="0px" width="1000px"
	 height="750px" viewBox="0 0 1000 750" enable-background="new 0 0 1000 750" xml:space="preserve">
<g id="Layer_1" display="none">
	<g display="inline">
		<g>
			<g>
				<g>
					<defs>
						<path id="SVGID_1_" d="M626.514,165.061c-10.096,0-18.277,8.321-18.277,18.51v43.8v156.388
							c0,10.211,8.182,18.523,18.277,18.523c10.095,0,18.295-8.312,18.295-18.523V230.172V183.57
							C644.809,173.381,636.608,165.061,626.514,165.061z"/>
					</defs>
					<clipPath id="SVGID_2_">
						<use xlink:href="#SVGID_1_"  overflow="visible"/>
					</clipPath>
					<linearGradient id="SVGID_3_" gradientUnits="userSpaceOnUse" x1="321.457" y1="283.2197" x2="688.0645" y2="283.2197">
						<stop  offset="0.0828" style="stop-color:#50B84F"/>
						<stop  offset="0.088" style="stop-color:#50B849"/>
						<stop  offset="0.1377" style="stop-color:#4FB959"/>
						<stop  offset="0.3128" style="stop-color:#47BC94"/>
						<stop  offset="0.4559" style="stop-color:#3EBFBD"/>
						<stop  offset="0.5599" style="stop-color:#34C2D6"/>
						<stop  offset="0.6142" style="stop-color:#2FC2E0"/>
						<stop  offset="1" style="stop-color:#1C75BC"/>
					</linearGradient>
					<path clip-path="url(#SVGID_2_)" fill="url(#SVGID_3_)" d="M688.064,283.22c0,101.227-82.068,183.314-183.301,183.314
						c-101.233,0-183.307-82.087-183.307-183.314c0-101.247,82.073-183.315,183.307-183.315
						C605.996,99.905,688.064,181.973,688.064,283.22z"/>
				</g>
				<g>
					<defs>
						<path id="SVGID_4_" d="M565.285,120.926c-10.275,0-18.307,9.841-18.307,22.439v127.282v154.598
							c0,12.604,8.031,22.453,18.307,22.453c10.231,0,18.27-9.85,18.27-22.453V251.277V143.366
							C583.555,130.768,575.517,120.926,565.285,120.926z"/>
					</defs>
					<clipPath id="SVGID_5_">
						<use xlink:href="#SVGID_4_"  overflow="visible"/>
					</clipPath>
					<linearGradient id="SVGID_6_" gradientUnits="userSpaceOnUse" x1="321.457" y1="283.2197" x2="688.0645" y2="283.2197">
						<stop  offset="0.0828" style="stop-color:#50B84F"/>
						<stop  offset="0.088" style="stop-color:#50B849"/>
						<stop  offset="0.1377" style="stop-color:#4FB959"/>
						<stop  offset="0.3128" style="stop-color:#47BC94"/>
						<stop  offset="0.4559" style="stop-color:#3EBFBD"/>
						<stop  offset="0.5599" style="stop-color:#34C2D6"/>
						<stop  offset="0.6142" style="stop-color:#2FC2E0"/>
						<stop  offset="1" style="stop-color:#1C75BC"/>
					</linearGradient>
					<path clip-path="url(#SVGID_5_)" fill="url(#SVGID_6_)" d="M688.064,283.22c0,101.227-82.068,183.314-183.301,183.314
						c-101.233,0-183.307-82.087-183.307-183.314c0-101.247,82.073-183.315,183.307-183.315
						C605.996,99.905,688.064,181.973,688.064,283.22z"/>
				</g>
				<g>
					<defs>
						<path id="SVGID_7_" d="M381.491,165.739c-10.083,0-18.277,8.315-18.277,18.536v175.637v24.535
							c0,10.214,8.194,18.521,18.277,18.521c10.109,0,18.307-8.307,18.307-18.521V325.65V184.275
							C399.798,174.055,391.601,165.739,381.491,165.739z"/>
					</defs>
					<clipPath id="SVGID_8_">
						<use xlink:href="#SVGID_7_"  overflow="visible"/>
					</clipPath>
					<linearGradient id="SVGID_9_" gradientUnits="userSpaceOnUse" x1="321.457" y1="283.2197" x2="688.0645" y2="283.2197">
						<stop  offset="0.0828" style="stop-color:#50B84F"/>
						<stop  offset="0.088" style="stop-color:#50B849"/>
						<stop  offset="0.1377" style="stop-color:#4FB959"/>
						<stop  offset="0.3128" style="stop-color:#47BC94"/>
						<stop  offset="0.4559" style="stop-color:#3EBFBD"/>
						<stop  offset="0.5599" style="stop-color:#34C2D6"/>
						<stop  offset="0.6142" style="stop-color:#2FC2E0"/>
						<stop  offset="1" style="stop-color:#1C75BC"/>
					</linearGradient>
					<path clip-path="url(#SVGID_8_)" fill="url(#SVGID_9_)" d="M688.064,283.22c0,101.227-82.068,183.314-183.301,183.314
						c-101.233,0-183.307-82.087-183.307-183.314c0-101.247,82.073-183.315,183.307-183.315
						C605.996,99.905,688.064,181.973,688.064,283.22z"/>
				</g>
				<g>
					<defs>
						<path id="SVGID_10_" d="M442.746,120.337c-10.242,0-18.276,9.842-18.276,22.414V320.11v104.552
							c0,12.58,8.034,22.426,18.276,22.426c10.261,0,18.309-9.846,18.309-22.426V316.188V142.751
							C461.054,130.179,453.006,120.337,442.746,120.337z"/>
					</defs>
					<clipPath id="SVGID_11_">
						<use xlink:href="#SVGID_10_"  overflow="visible"/>
					</clipPath>
					<linearGradient id="SVGID_12_" gradientUnits="userSpaceOnUse" x1="321.457" y1="283.2197" x2="688.0645" y2="283.2197">
						<stop  offset="0.0828" style="stop-color:#50B84F"/>
						<stop  offset="0.088" style="stop-color:#50B849"/>
						<stop  offset="0.1377" style="stop-color:#4FB959"/>
						<stop  offset="0.3128" style="stop-color:#47BC94"/>
						<stop  offset="0.4559" style="stop-color:#3EBFBD"/>
						<stop  offset="0.5599" style="stop-color:#34C2D6"/>
						<stop  offset="0.6142" style="stop-color:#2FC2E0"/>
						<stop  offset="1" style="stop-color:#1C75BC"/>
					</linearGradient>
					<path clip-path="url(#SVGID_11_)" fill="url(#SVGID_12_)" d="M688.064,283.22c0,101.227-82.068,183.314-183.301,183.314
						c-101.233,0-183.307-82.087-183.307-183.314c0-101.247,82.073-183.315,183.307-183.315
						C605.996,99.905,688.064,181.973,688.064,283.22z"/>
				</g>
				<g>
					<defs>
						<path id="SVGID_13_" d="M504.016,106.11c-10.258,0-18.304,10.409-18.304,23.667v158.47v149.258
							c0,13.271,8.046,23.68,18.304,23.68c10.247,0,18.293-10.408,18.293-23.68V266.049V129.777
							C522.309,116.52,514.263,106.11,504.016,106.11z"/>
					</defs>
					<clipPath id="SVGID_14_">
						<use xlink:href="#SVGID_13_"  overflow="visible"/>
					</clipPath>
					<linearGradient id="SVGID_15_" gradientUnits="userSpaceOnUse" x1="321.457" y1="283.2197" x2="688.0645" y2="283.2197">
						<stop  offset="0.0828" style="stop-color:#50B84F"/>
						<stop  offset="0.088" style="stop-color:#50B849"/>
						<stop  offset="0.1377" style="stop-color:#4FB959"/>
						<stop  offset="0.3128" style="stop-color:#47BC94"/>
						<stop  offset="0.4559" style="stop-color:#3EBFBD"/>
						<stop  offset="0.5599" style="stop-color:#34C2D6"/>
						<stop  offset="0.6142" style="stop-color:#2FC2E0"/>
						<stop  offset="1" style="stop-color:#1C75BC"/>
					</linearGradient>
					<path clip-path="url(#SVGID_14_)" fill="url(#SVGID_15_)" d="M688.064,283.22c0,101.227-82.068,183.314-183.301,183.314
						c-101.233,0-183.307-82.087-183.307-183.314c0-101.247,82.073-183.315,183.307-183.315
						C605.996,99.905,688.064,181.973,688.064,283.22z"/>
				</g>
			</g>
			<g opacity="0.5">
				<path d="M616.11,224.671c-2.815,0.517-5.421,1.458-7.874,2.699v156.388c0,10.211,8.182,18.523,18.277,18.523
					c10.095,0,18.295-8.312,18.295-18.523V230.172C635.306,226.55,625.854,222.891,616.11,224.671z"/>
				<path d="M557.577,270.336c-3.514,0.709-7.041,0.696-10.599,0.312v154.598c0,12.604,8.031,22.453,18.307,22.453
					c10.231,0,18.27-9.85,18.27-22.453V251.277C576.171,260.075,568.396,268.159,557.577,270.336z"/>
				<path d="M384.913,345.485c-4.332,6.923-10.533,13.749-18.674,14.458c-1.004,0.085-2.021,0.05-3.024-0.031v24.535
					c0,10.214,8.194,18.521,18.277,18.521c10.109,0,18.307-8.307,18.307-18.521V325.65c-0.136,0.094-0.286,0.174-0.409,0.276
					C392.836,330.807,389.238,338.57,384.913,345.485z"/>
				<path d="M424.47,320.11v104.552c0,12.58,8.034,22.426,18.276,22.426c10.261,0,18.309-9.846,18.309-22.426V316.188
					c-0.963,0.535-1.929,1.021-2.946,1.453C447.836,321.988,435.854,320.373,424.47,320.11z"/>
				<path d="M511.167,266.553c-11.346,2.628-18.603,11.733-25.456,21.695v149.258c0,13.271,8.046,23.68,18.304,23.68
					c10.247,0,18.293-10.408,18.293-23.68V266.049C518.576,265.669,514.858,265.696,511.167,266.553z"/>
			</g>
		</g>
		<g>
			<path fill="#414042" d="M288.507,554.513c-3.401,0-6.168,2.763-6.168,6.163v55.897l-43.127-59.803
				c-1.732-2.717-5.399-3.828-8.874-1.552c-1.97,1.524-2.84,3.868-2.355,6.219v74.315c0,3.403,2.768,6.169,6.169,6.169
				c3.401,0,6.167-2.766,6.167-6.169v-56.22l42.68,59.347c0.324,0.512,0.696,0.854,0.955,1.065c1.205,1.294,2.771,1.977,4.553,1.977
				c3.464,0,6.286-2.766,6.286-6.169v-75.077C294.793,557.275,291.971,554.513,288.507,554.513z"/>
			<path fill="#414042" d="M368.224,629.462h-35.616v-25.371h30.728c3.402,0,6.168-2.766,6.168-6.17
				c0-3.462-2.766-6.285-6.168-6.285h-30.728v-25.491h35.616c3.46,0,6.169-2.757,6.169-6.282c0-3.456-2.709-6.169-6.169-6.169
				h-41.902c-3.401,0-6.167,2.771-6.167,6.169v75.891c0,3.194,2.485,5.892,5.659,6.16l42.41,0.009c3.46,0,6.169-2.707,6.169-6.169
				C374.393,632.227,371.684,629.462,368.224,629.462z"/>
			<path fill="#414042" d="M397.589,625.308c1.006-1.252,2.766-1.378,3.897-0.373c6.544,5.286,17.49,11.446,28.94,11.325
				c7.676,0,14.597-2.262,19.375-5.785c4.909-3.521,7.55-8.178,7.55-13.09c0-5.033-2.392-8.811-7.173-12.076
				c-4.78-3.146-11.827-5.542-20.381-7.169h-0.252c-8.18-1.517-15.349-3.779-20.758-7.429c-5.412-3.514-9.058-8.806-9.058-15.345
				c0-6.67,3.646-12.461,9.183-16.485c5.536-4.023,12.96-6.414,21.262-6.414c11.577,0,20.256,5.661,27.178,10.193
				c1.256,0.875,1.635,2.512,0.756,3.899c-0.756,1.258-2.519,1.632-3.774,0.753c-6.921-4.528-14.472-9.315-24.16-9.315
				c-7.171,0-13.588,2.147-17.992,5.291c-4.402,3.271-6.918,7.549-6.918,12.078c0.127,4.397,2.138,7.673,6.542,10.696
				c4.403,3.012,10.943,5.158,18.873,6.662h0.252c8.805,1.636,16.606,4.152,22.392,8.057c5.792,3.772,9.688,9.56,9.688,16.604
				c0,7.045-4.024,13.344-9.936,17.613c-5.916,4.283-13.843,6.924-22.649,6.924c-13.464-0.129-25.163-6.924-32.46-12.705
				C396.833,628.208,396.709,626.445,397.589,625.308z"/>
			<path fill="#414042" d="M533.582,552.467c23.527,0,42.027,20.009,42.145,44.666c-0.117,24.656-18.617,44.66-42.145,44.66
				c-23.781,0-42.401-20.004-42.525-44.66C491.181,572.476,509.801,552.467,533.582,552.467z M533.582,635.627
				c19.376,0,35.732-16.983,35.857-38.494c-0.125-21.767-16.481-38.378-35.857-38.378c-20.006,0-36.362,16.611-36.362,38.378
				C497.22,618.644,513.576,635.627,533.582,635.627z"/>
			<path fill="#414042" d="M605.787,556.743c0-1.637,1.378-3.022,3.019-3.022c1.758,0,3.142,1.386,3.142,3.022v49.449
				c0,16.23,13.213,29.315,29.32,29.435c16.353-0.119,29.563-13.204,29.563-29.435v-49.449c0-1.637,1.386-3.022,3.021-3.022
				c1.755,0,3.139,1.386,3.139,3.022v49.449c0,19.625-15.97,35.601-35.724,35.601c-19.505,0-35.48-15.976-35.48-35.601V556.743z"/>
			<path fill="#414042" d="M722.023,566.688v72.089c0,1.633-1.379,3.016-3.024,3.016c-1.629,0-3.017-1.383-3.017-3.016v-80.78
				c-0.379-1.254,0-2.515,1.133-3.394c1.383-0.883,3.399-0.625,4.282,0.757l53.344,73.981v-71.719c0-1.633,1.377-3.02,3.02-3.02
				c1.759,0,3.146,1.387,3.146,3.02v81.154c0,1.633-1.387,3.016-3.146,3.016c-1.008,0-1.762-0.376-2.392-1.133
				c-0.124-0.125-0.377-0.25-0.503-0.5L722.023,566.688z"/>
			<path fill="#414042" d="M819.014,641.793h-0.5c-1.512-0.121-2.77-1.383-2.77-3.016v-82.034c0-1.637,1.384-3.022,3.019-3.022
				h0.379h16.105c24.283,0,44.036,19.882,44.036,44.166c0,24.279-19.753,43.906-44.036,43.906H819.014z M835.247,635.627
				c20.884,0,37.872-16.854,37.872-37.74c0-21.014-16.988-37.872-37.872-37.998H821.91v75.738H835.247z"/>
			<g>
				<g>
					<g>
						<defs>
							<path id="SVGID_16_" d="M202.136,564.642c-2.813,0-5.095,2.319-5.095,5.155v12.217v43.593c0,2.847,2.282,5.166,5.095,5.166
								c2.815,0,5.101-2.319,5.101-5.166V582.79v-12.993C207.237,566.961,204.952,564.642,202.136,564.642z"/>
						</defs>
						<clipPath id="SVGID_17_">
							<use xlink:href="#SVGID_16_"  overflow="visible"/>
						</clipPath>
						<linearGradient id="SVGID_18_" gradientUnits="userSpaceOnUse" x1="117.0938" y1="597.5801" x2="219.2979" y2="597.5801">
							<stop  offset="0.0828" style="stop-color:#50B84F"/>
							<stop  offset="0.088" style="stop-color:#50B849"/>
							<stop  offset="0.1377" style="stop-color:#4FB959"/>
							<stop  offset="0.3128" style="stop-color:#47BC94"/>
							<stop  offset="0.4559" style="stop-color:#3EBFBD"/>
							<stop  offset="0.5599" style="stop-color:#34C2D6"/>
							<stop  offset="0.6142" style="stop-color:#2FC2E0"/>
							<stop  offset="1" style="stop-color:#1C75BC"/>
						</linearGradient>
						<path clip-path="url(#SVGID_17_)" fill="url(#SVGID_18_)" d="M219.298,597.577c0,28.222-22.878,51.108-51.101,51.108
							c-28.224,0-51.104-22.887-51.104-51.108c0-28.226,22.879-51.103,51.104-51.103
							C196.419,546.475,219.298,569.352,219.298,597.577z"/>
					</g>
					<g>
						<defs>
							<path id="SVGID_19_" d="M185.069,552.336c-2.868,0-5.104,2.744-5.104,6.256v35.484v43.094c0,3.517,2.235,6.265,5.104,6.265
								c2.852,0,5.093-2.748,5.093-6.265v-48.496v-30.082C190.163,555.08,187.921,552.336,185.069,552.336z"/>
						</defs>
						<clipPath id="SVGID_20_">
							<use xlink:href="#SVGID_19_"  overflow="visible"/>
						</clipPath>
						<linearGradient id="SVGID_21_" gradientUnits="userSpaceOnUse" x1="117.0938" y1="597.5801" x2="219.2979" y2="597.5801">
							<stop  offset="0.0828" style="stop-color:#50B84F"/>
							<stop  offset="0.088" style="stop-color:#50B849"/>
							<stop  offset="0.1377" style="stop-color:#4FB959"/>
							<stop  offset="0.3128" style="stop-color:#47BC94"/>
							<stop  offset="0.4559" style="stop-color:#3EBFBD"/>
							<stop  offset="0.5599" style="stop-color:#34C2D6"/>
							<stop  offset="0.6142" style="stop-color:#2FC2E0"/>
							<stop  offset="1" style="stop-color:#1C75BC"/>
						</linearGradient>
						<path clip-path="url(#SVGID_20_)" fill="url(#SVGID_21_)" d="M219.298,597.577c0,28.222-22.878,51.108-51.101,51.108
							c-28.224,0-51.104-22.887-51.104-51.108c0-28.226,22.879-51.103,51.104-51.103
							C196.419,546.475,219.298,569.352,219.298,597.577z"/>
					</g>
					<g>
						<defs>
							<path id="SVGID_22_" d="M133.831,564.827c-2.811,0-5.095,2.32-5.095,5.167v48.965v6.84c0,2.847,2.285,5.161,5.095,5.161
								c2.819,0,5.104-2.314,5.104-5.161v-16.39v-39.415C138.935,567.147,136.65,564.827,133.831,564.827z"/>
						</defs>
						<clipPath id="SVGID_23_">
							<use xlink:href="#SVGID_22_"  overflow="visible"/>
						</clipPath>
						<linearGradient id="SVGID_24_" gradientUnits="userSpaceOnUse" x1="117.0938" y1="597.5801" x2="219.2979" y2="597.5801">
							<stop  offset="0.0828" style="stop-color:#50B84F"/>
							<stop  offset="0.088" style="stop-color:#50B849"/>
							<stop  offset="0.1377" style="stop-color:#4FB959"/>
							<stop  offset="0.3128" style="stop-color:#47BC94"/>
							<stop  offset="0.4559" style="stop-color:#3EBFBD"/>
							<stop  offset="0.5599" style="stop-color:#34C2D6"/>
							<stop  offset="0.6142" style="stop-color:#2FC2E0"/>
							<stop  offset="1" style="stop-color:#1C75BC"/>
						</linearGradient>
						<path clip-path="url(#SVGID_23_)" fill="url(#SVGID_24_)" d="M219.298,597.577c0,28.222-22.878,51.108-51.101,51.108
							c-28.224,0-51.104-22.887-51.104-51.108c0-28.226,22.879-51.103,51.104-51.103
							C196.419,546.475,219.298,569.352,219.298,597.577z"/>
					</g>
					<g>
						<defs>
							<path id="SVGID_25_" d="M150.906,552.166c-2.854,0-5.093,2.75-5.093,6.256v49.444v29.144c0,3.501,2.239,6.251,5.093,6.251
								c2.864,0,5.104-2.75,5.104-6.251v-30.238v-48.35C156.01,554.916,153.77,552.166,150.906,552.166z"/>
						</defs>
						<clipPath id="SVGID_26_">
							<use xlink:href="#SVGID_25_"  overflow="visible"/>
						</clipPath>
						<linearGradient id="SVGID_27_" gradientUnits="userSpaceOnUse" x1="117.0938" y1="597.5801" x2="219.2979" y2="597.5801">
							<stop  offset="0.0828" style="stop-color:#50B84F"/>
							<stop  offset="0.088" style="stop-color:#50B849"/>
							<stop  offset="0.1377" style="stop-color:#4FB959"/>
							<stop  offset="0.3128" style="stop-color:#47BC94"/>
							<stop  offset="0.4559" style="stop-color:#3EBFBD"/>
							<stop  offset="0.5599" style="stop-color:#34C2D6"/>
							<stop  offset="0.6142" style="stop-color:#2FC2E0"/>
							<stop  offset="1" style="stop-color:#1C75BC"/>
						</linearGradient>
						<path clip-path="url(#SVGID_26_)" fill="url(#SVGID_27_)" d="M219.298,597.577c0,28.222-22.878,51.108-51.101,51.108
							c-28.224,0-51.104-22.887-51.104-51.108c0-28.226,22.879-51.103,51.104-51.103
							C196.419,546.475,219.298,569.352,219.298,597.577z"/>
					</g>
					<g>
						<defs>
							<path id="SVGID_28_" d="M167.988,548.206c-2.859,0-5.106,2.899-5.106,6.595v44.182v41.609c0,3.699,2.247,6.604,5.106,6.604
								c2.857,0,5.102-2.904,5.102-6.604v-47.801v-37.99C173.089,551.105,170.845,548.206,167.988,548.206z"/>
						</defs>
						<clipPath id="SVGID_29_">
							<use xlink:href="#SVGID_28_"  overflow="visible"/>
						</clipPath>
						<linearGradient id="SVGID_30_" gradientUnits="userSpaceOnUse" x1="117.0938" y1="597.5801" x2="219.2979" y2="597.5801">
							<stop  offset="0.0828" style="stop-color:#50B84F"/>
							<stop  offset="0.088" style="stop-color:#50B849"/>
							<stop  offset="0.1377" style="stop-color:#4FB959"/>
							<stop  offset="0.3128" style="stop-color:#47BC94"/>
							<stop  offset="0.4559" style="stop-color:#3EBFBD"/>
							<stop  offset="0.5599" style="stop-color:#34C2D6"/>
							<stop  offset="0.6142" style="stop-color:#2FC2E0"/>
							<stop  offset="1" style="stop-color:#1C75BC"/>
						</linearGradient>
						<path clip-path="url(#SVGID_29_)" fill="url(#SVGID_30_)" d="M219.298,597.577c0,28.222-22.878,51.108-51.101,51.108
							c-28.224,0-51.104-22.887-51.104-51.108c0-28.226,22.879-51.103,51.104-51.103
							C196.419,546.475,219.298,569.352,219.298,597.577z"/>
					</g>
				</g>
				<g opacity="0.5">
					<path d="M199.236,581.26c-0.782,0.141-1.509,0.404-2.195,0.754v43.593c0,2.847,2.282,5.166,5.095,5.166
						c2.815,0,5.101-2.319,5.101-5.166V582.79C204.59,581.779,201.951,580.763,199.236,581.26z"/>
					<path d="M182.919,593.991c-0.979,0.201-1.963,0.191-2.953,0.085v43.094c0,3.517,2.235,6.265,5.104,6.265
						c2.852,0,5.093-2.748,5.093-6.265v-48.496C188.101,591.127,185.935,593.385,182.919,593.991z"/>
					<path d="M134.785,614.937c-1.208,1.931-2.938,3.832-5.208,4.033c-0.276,0.021-0.56,0.013-0.841-0.011v6.84
						c0,2.847,2.285,5.161,5.095,5.161c2.819,0,5.104-2.314,5.104-5.161v-16.39c-0.038,0.026-0.078,0.053-0.112,0.081
						C136.994,610.845,135.992,613.009,134.785,614.937z"/>
					<path d="M145.813,607.866v29.144c0,3.501,2.239,6.251,5.093,6.251c2.864,0,5.104-2.75,5.104-6.251v-30.238
						c-0.269,0.147-0.537,0.281-0.819,0.4C152.327,608.386,148.983,607.936,145.813,607.866z"/>
					<path d="M169.98,592.935c-3.161,0.729-5.187,3.27-7.098,6.048v41.609c0,3.699,2.247,6.604,5.106,6.604
						c2.857,0,5.102-2.904,5.102-6.604v-47.801C172.048,592.684,171.011,592.693,169.98,592.935z"/>
				</g>
			</g>
		</g>
	</g>
</g>
<g id="Layer_2">
	<g id="white_1_">
		<g>
			<g>
				<path fill="#FFFFFF" d="M626.018,162.906c-10.055,0-18.203,8.287-18.203,18.435v43.62v155.746
					c0,10.169,8.148,18.447,18.203,18.447c10.053,0,18.22-8.278,18.22-18.447V227.751v-46.41
					C644.237,171.193,636.07,162.906,626.018,162.906z"/>
				<path fill="#FFFFFF" d="M565.04,118.954c-10.233,0-18.231,9.801-18.231,22.347v126.76v153.964
					c0,12.552,7.998,22.361,18.231,22.361c10.189,0,18.194-9.81,18.194-22.361V248.77V141.301
					C583.234,128.754,575.229,118.954,565.04,118.954z"/>
				<path fill="#FFFFFF" d="M382,163.583c-10.042,0-18.202,8.281-18.202,18.459v174.917v24.435c0,10.171,8.161,18.443,18.202,18.443
					c10.067,0,18.232-8.272,18.232-18.443v-58.557V182.042C400.231,171.864,392.067,163.583,382,163.583z"/>
				<path fill="#FFFFFF" d="M443.002,118.367c-10.2,0-18.201,9.802-18.201,22.322V317.32v104.123c0,12.529,8,22.334,18.201,22.334
					c10.219,0,18.233-9.805,18.233-22.334V313.415V140.688C461.236,128.168,453.221,118.367,443.002,118.367z"/>
				<path fill="#FFFFFF" d="M504.021,104.198c-10.216,0-18.229,10.366-18.229,23.57v157.82v148.647
					c0,13.217,8.013,23.583,18.229,23.583c10.205,0,18.218-10.366,18.218-23.583V263.481V127.769
					C522.239,114.564,514.227,104.198,504.021,104.198z"/>
			</g>
			<g>
				<path fill="#BCBEC0" d="M615.656,222.273c-2.804,0.515-5.398,1.453-7.842,2.688v155.746c0,10.169,8.148,18.447,18.203,18.447
					c10.053,0,18.22-8.278,18.22-18.447V227.751C634.772,224.144,625.36,220.5,615.656,222.273z"/>
				<path fill="#BCBEC0" d="M557.363,267.751c-3.499,0.706-7.012,0.693-10.555,0.31v153.964c0,12.552,7.998,22.361,18.231,22.361
					c10.189,0,18.194-9.81,18.194-22.361V248.77C575.881,257.532,568.137,265.583,557.363,267.751z"/>
				<path fill="#BCBEC0" d="M385.407,342.591c-4.314,6.896-10.49,13.693-18.598,14.398c-1,0.085-2.013,0.05-3.012-0.03v24.435
					c0,10.171,8.161,18.443,18.202,18.443c10.067,0,18.232-8.272,18.232-18.443v-58.557c-0.136,0.094-0.285,0.173-0.407,0.275
					C393.298,327.974,389.715,335.705,385.407,342.591z"/>
				<path fill="#BCBEC0" d="M424.802,317.32v104.123c0,12.529,8,22.334,18.201,22.334c10.219,0,18.233-9.805,18.233-22.334V313.415
					c-0.959,0.533-1.921,1.017-2.934,1.447C448.072,319.191,436.139,317.582,424.802,317.32z"/>
				<path fill="#BCBEC0" d="M511.144,263.983c-11.299,2.617-18.526,11.685-25.352,21.605v148.647
					c0,13.217,8.013,23.583,18.229,23.583c10.205,0,18.218-10.366,18.218-23.583V263.481
					C518.522,263.103,514.819,263.129,511.144,263.983z"/>
			</g>
		</g>
		<g>
			<g>
				<g>
					<path fill="#FFFFFF" d="M203.437,560.884c-2.807,0-5.081,2.312-5.081,5.146v12.178v43.473c0,2.839,2.274,5.148,5.081,5.148
						s5.086-2.31,5.086-5.148v-42.697v-12.953C208.522,563.196,206.243,560.884,203.437,560.884z"/>
					<path fill="#FFFFFF" d="M186.416,548.615c-2.856,0-5.088,2.734-5.088,6.237v35.383v42.976c0,3.503,2.232,6.241,5.088,6.241
						c2.845,0,5.079-2.738,5.079-6.241v-48.358v-30C191.494,551.35,189.26,548.615,186.416,548.615z"/>
					<path fill="#FFFFFF" d="M135.324,561.073c-2.803,0-5.081,2.31-5.081,5.151v48.825v6.818c0,2.842,2.278,5.15,5.081,5.15
						c2.811,0,5.088-2.309,5.088-5.15v-16.342v-39.302C140.413,563.383,138.135,561.073,135.324,561.073z"/>
					<path fill="#FFFFFF" d="M152.353,548.453c-2.848,0-5.081,2.734-5.081,6.229v49.304v29.062c0,3.499,2.233,6.234,5.081,6.234
						c2.852,0,5.09-2.735,5.09-6.234v-30.153v-48.213C157.442,551.188,155.205,548.453,152.353,548.453z"/>
					<path fill="#FFFFFF" d="M169.384,544.495c-2.852,0-5.088,2.895-5.088,6.582v44.05v41.493c0,3.688,2.237,6.582,5.088,6.582
						c2.849,0,5.085-2.895,5.085-6.582v-47.663v-37.88C174.469,547.39,172.232,544.495,169.384,544.495z"/>
				</g>
				<g>
					<path fill="#BCBEC0" d="M200.544,577.455c-0.782,0.143-1.506,0.405-2.188,0.752v43.473c0,2.839,2.274,5.148,5.081,5.148
						s5.086-2.31,5.086-5.148v-42.697C205.88,577.977,203.253,576.96,200.544,577.455z"/>
					<path fill="#BCBEC0" d="M184.274,590.148c-0.978,0.197-1.958,0.193-2.947,0.087v42.976c0,3.503,2.232,6.241,5.088,6.241
						c2.845,0,5.079-2.738,5.079-6.241v-48.358C189.442,587.297,187.28,589.543,184.274,590.148z"/>
					<path fill="#BCBEC0" d="M136.275,611.04c-1.205,1.925-2.928,3.82-5.191,4.017c-0.279,0.024-0.562,0.014-0.84-0.007v6.818
						c0,2.842,2.278,5.15,5.081,5.15c2.811,0,5.088-2.309,5.088-5.15v-16.342c-0.037,0.024-0.08,0.047-0.113,0.077
						C138.478,606.958,137.478,609.116,136.275,611.04z"/>
					<path fill="#BCBEC0" d="M147.271,603.985v29.062c0,3.499,2.233,6.234,5.081,6.234c2.852,0,5.09-2.735,5.09-6.234v-30.153
						c-0.269,0.149-0.537,0.282-0.82,0.403C153.767,604.508,150.436,604.059,147.271,603.985z"/>
					<path fill="#BCBEC0" d="M171.373,589.098c-3.154,0.729-5.171,3.263-7.077,6.029v41.493c0,3.688,2.237,6.582,5.088,6.582
						c2.849,0,5.085-2.895,5.085-6.582v-47.663C173.432,588.851,172.399,588.858,171.373,589.098z"/>
				</g>
			</g>
			<path fill="#FFFFFF" d="M289.396,550.762c-3.387,0-6.143,2.751-6.143,6.138v55.669l-42.951-59.558
				c-1.725-2.706-5.376-3.812-8.837-1.545c-1.961,1.518-2.829,3.852-2.345,6.192v74.011c0,3.39,2.756,6.144,6.144,6.144
				c3.387,0,6.142-2.754,6.142-6.144V575.68l42.505,59.104c0.323,0.51,0.693,0.852,0.951,1.062c1.2,1.288,2.759,1.968,4.534,1.968
				c3.45,0,6.26-2.754,6.26-6.144v-74.77C295.656,553.513,292.846,550.762,289.396,550.762z"/>
			<path fill="#FFFFFF" d="M368.786,625.403h-35.47v-25.267h30.602c3.388,0,6.143-2.754,6.143-6.145c0-3.448-2.754-6.26-6.143-6.26
				h-30.602v-25.387h35.47c3.446,0,6.145-2.745,6.145-6.256c0-3.442-2.699-6.144-6.145-6.144h-41.73
				c-3.388,0-6.142,2.759-6.142,6.144v75.579c0,3.181,2.475,5.868,5.636,6.135l42.236,0.009c3.446,0,6.145-2.696,6.145-6.144
				C374.931,628.157,372.232,625.403,368.786,625.403z"/>
			<path fill="#FFFFFF" d="M398.032,621.267c1.001-1.247,2.754-1.372,3.881-0.372c6.517,5.266,17.418,11.4,28.821,11.279
				c7.645,0,14.537-2.253,19.296-5.762c4.889-3.506,7.519-8.144,7.519-13.035c0-5.013-2.381-8.775-7.144-12.027
				c-4.76-3.133-11.778-5.519-20.297-7.139h-0.251c-8.146-1.512-15.286-3.765-20.673-7.399c-5.389-3.499-9.021-8.77-9.021-15.281
				c0-6.644,3.631-12.41,9.146-16.419c5.513-4.006,12.907-6.387,21.174-6.387c11.53,0,20.173,5.638,27.066,10.151
				c1.251,0.871,1.628,2.501,0.753,3.883c-0.753,1.253-2.508,1.626-3.759,0.751c-6.893-4.511-14.413-9.277-24.061-9.277
				c-7.142,0-13.533,2.138-17.918,5.27c-4.385,3.257-6.89,7.518-6.89,12.028c0.126,4.38,2.129,7.642,6.515,10.651
				c4.385,3,10.898,5.138,18.796,6.636h0.251c8.77,1.629,16.539,4.135,22.3,8.023c5.768,3.757,9.648,9.521,9.648,16.536
				s-4.008,13.288-9.895,17.54c-5.892,4.267-13.786,6.896-22.557,6.896c-13.409-0.128-25.06-6.896-32.327-12.653
				C397.278,624.155,397.155,622.4,398.032,621.267z"/>
			<path fill="#FFFFFF" d="M533.467,548.725c23.431,0,41.854,19.927,41.972,44.482c-0.117,24.555-18.541,44.478-41.972,44.478
				c-23.684,0-42.228-19.923-42.352-44.478C491.239,568.651,509.783,548.725,533.467,548.725z M533.467,631.544
				c19.297,0,35.585-16.914,35.71-38.337c-0.125-21.677-16.413-38.22-35.71-38.22c-19.924,0-36.213,16.543-36.213,38.22
				C497.253,614.63,513.543,631.544,533.467,631.544z"/>
			<path fill="#FFFFFF" d="M605.376,552.983c0-1.63,1.372-3.011,3.006-3.011c1.751,0,3.129,1.381,3.129,3.011v49.246
				c0,16.164,13.159,29.195,29.199,29.314c16.286-0.119,29.442-13.15,29.442-29.314v-49.246c0-1.63,1.381-3.011,3.01-3.011
				c1.748,0,3.125,1.381,3.125,3.011v49.246c0,19.545-15.904,35.455-35.577,35.455c-19.424,0-35.334-15.91-35.334-35.455V552.983z"
				/>
			<path fill="#FFFFFF" d="M721.135,562.888v71.793c0,1.626-1.373,3.004-3.012,3.004c-1.622,0-3.004-1.378-3.004-3.004v-80.448
				c-0.377-1.249,0-2.504,1.128-3.38c1.378-0.88,3.386-0.623,4.265,0.754l53.125,73.678v-71.425c0-1.626,1.372-3.007,3.008-3.007
				c1.751,0,3.133,1.381,3.133,3.007v80.821c0,1.626-1.382,3.004-3.133,3.004c-1.005,0-1.755-0.375-2.382-1.128
				c-0.124-0.125-0.376-0.25-0.501-0.498L721.135,562.888z"/>
			<path fill="#FFFFFF" d="M817.728,637.685h-0.498c-1.505-0.12-2.758-1.378-2.758-3.004v-81.697c0-1.63,1.378-3.011,3.007-3.011
				h0.377h16.039c24.184,0,43.856,19.801,43.856,43.985c0,24.18-19.673,43.727-43.856,43.727H817.728z M833.895,631.544
				c20.798,0,37.717-16.785,37.717-37.586c0-20.927-16.919-37.717-37.717-37.842h-13.282v75.428H833.895z"/>
		</g>
	</g>
</g>
</svg>
