<?xml version="1.0" encoding="utf-8"?>
<!-- Generator: Adobe Illustrator 16.0.4, SVG Export Plug-In . SVG Version: 6.00 Build 0)  -->
<!DOCTYPE svg PUBLIC "-//W3C//DTD SVG 1.1//EN" "http://www.w3.org/Graphics/SVG/1.1/DTD/svg11.dtd">
<svg version="1.1" id="Layer_1" xmlns="http://www.w3.org/2000/svg" xmlns:xlink="http://www.w3.org/1999/xlink" x="0px" y="0px"
	 width="1000px" height="750px" viewBox="0 0 1000 750" enable-background="new 0 0 1000 750" xml:space="preserve">
<g>
	<g>
		<g>
			<g>
				<defs>
					<path id="SVGID_1_" d="M626.514,165.061c-10.096,0-18.277,8.321-18.277,18.51v43.8v156.388
						c0,10.211,8.182,18.523,18.277,18.523c10.095,0,18.295-8.312,18.295-18.523V230.172V183.57
						C644.809,173.381,636.608,165.061,626.514,165.061z"/>
				</defs>
				<clipPath id="SVGID_2_">
					<use xlink:href="#SVGID_1_"  overflow="visible"/>
				</clipPath>
				<linearGradient id="SVGID_3_" gradientUnits="userSpaceOnUse" x1="321.457" y1="283.2197" x2="688.0645" y2="283.2197">
					<stop  offset="0.0828" style="stop-color:#50B84F"/>
					<stop  offset="0.088" style="stop-color:#50B849"/>
					<stop  offset="0.1377" style="stop-color:#4FB959"/>
					<stop  offset="0.3128" style="stop-color:#47BC94"/>
					<stop  offset="0.4559" style="stop-color:#3EBFBD"/>
					<stop  offset="0.5599" style="stop-color:#34C2D6"/>
					<stop  offset="0.6142" style="stop-color:#2FC2E0"/>
					<stop  offset="1" style="stop-color:#1C75BC"/>
				</linearGradient>
				<path clip-path="url(#SVGID_2_)" fill="url(#SVGID_3_)" d="M688.064,283.22c0,101.227-82.068,183.314-183.301,183.314
					c-101.233,0-183.307-82.087-183.307-183.314c0-101.247,82.073-183.315,183.307-183.315
					C605.996,99.905,688.064,181.973,688.064,283.22z"/>
			</g>
			<g>
				<defs>
					<path id="SVGID_4_" d="M565.285,120.926c-10.275,0-18.307,9.841-18.307,22.439v127.282v154.598
						c0,12.604,8.031,22.453,18.307,22.453c10.231,0,18.27-9.85,18.27-22.453V251.277V143.366
						C583.555,130.768,575.517,120.926,565.285,120.926z"/>
				</defs>
				<clipPath id="SVGID_5_">
					<use xlink:href="#SVGID_4_"  overflow="visible"/>
				</clipPath>
				<linearGradient id="SVGID_6_" gradientUnits="userSpaceOnUse" x1="321.457" y1="283.2197" x2="688.0645" y2="283.2197">
					<stop  offset="0.0828" style="stop-color:#50B84F"/>
					<stop  offset="0.088" style="stop-color:#50B849"/>
					<stop  offset="0.1377" style="stop-color:#4FB959"/>
					<stop  offset="0.3128" style="stop-color:#47BC94"/>
					<stop  offset="0.4559" style="stop-color:#3EBFBD"/>
					<stop  offset="0.5599" style="stop-color:#34C2D6"/>
					<stop  offset="0.6142" style="stop-color:#2FC2E0"/>
					<stop  offset="1" style="stop-color:#1C75BC"/>
				</linearGradient>
				<path clip-path="url(#SVGID_5_)" fill="url(#SVGID_6_)" d="M688.064,283.22c0,101.227-82.068,183.314-183.301,183.314
					c-101.233,0-183.307-82.087-183.307-183.314c0-101.247,82.073-183.315,183.307-183.315
					C605.996,99.905,688.064,181.973,688.064,283.22z"/>
			</g>
			<g>
				<defs>
					<path id="SVGID_7_" d="M381.491,165.739c-10.083,0-18.277,8.315-18.277,18.536v175.637v24.535
						c0,10.214,8.194,18.521,18.277,18.521c10.109,0,18.307-8.307,18.307-18.521V325.65V184.275
						C399.798,174.055,391.601,165.739,381.491,165.739z"/>
				</defs>
				<clipPath id="SVGID_8_">
					<use xlink:href="#SVGID_7_"  overflow="visible"/>
				</clipPath>
				<linearGradient id="SVGID_9_" gradientUnits="userSpaceOnUse" x1="321.457" y1="283.2197" x2="688.0645" y2="283.2197">
					<stop  offset="0.0828" style="stop-color:#50B84F"/>
					<stop  offset="0.088" style="stop-color:#50B849"/>
					<stop  offset="0.1377" style="stop-color:#4FB959"/>
					<stop  offset="0.3128" style="stop-color:#47BC94"/>
					<stop  offset="0.4559" style="stop-color:#3EBFBD"/>
					<stop  offset="0.5599" style="stop-color:#34C2D6"/>
					<stop  offset="0.6142" style="stop-color:#2FC2E0"/>
					<stop  offset="1" style="stop-color:#1C75BC"/>
				</linearGradient>
				<path clip-path="url(#SVGID_8_)" fill="url(#SVGID_9_)" d="M688.064,283.22c0,101.227-82.068,183.314-183.301,183.314
					c-101.233,0-183.307-82.087-183.307-183.314c0-101.247,82.073-183.315,183.307-183.315
					C605.996,99.905,688.064,181.973,688.064,283.22z"/>
			</g>
			<g>
				<defs>
					<path id="SVGID_10_" d="M442.746,120.337c-10.242,0-18.276,9.842-18.276,22.414V320.11v104.552
						c0,12.58,8.034,22.426,18.276,22.426c10.261,0,18.309-9.846,18.309-22.426V316.188V142.751
						C461.054,130.179,453.006,120.337,442.746,120.337z"/>
				</defs>
				<clipPath id="SVGID_11_">
					<use xlink:href="#SVGID_10_"  overflow="visible"/>
				</clipPath>
				<linearGradient id="SVGID_12_" gradientUnits="userSpaceOnUse" x1="321.457" y1="283.2197" x2="688.0645" y2="283.2197">
					<stop  offset="0.0828" style="stop-color:#50B84F"/>
					<stop  offset="0.088" style="stop-color:#50B849"/>
					<stop  offset="0.1377" style="stop-color:#4FB959"/>
					<stop  offset="0.3128" style="stop-color:#47BC94"/>
					<stop  offset="0.4559" style="stop-color:#3EBFBD"/>
					<stop  offset="0.5599" style="stop-color:#34C2D6"/>
					<stop  offset="0.6142" style="stop-color:#2FC2E0"/>
					<stop  offset="1" style="stop-color:#1C75BC"/>
				</linearGradient>
				<path clip-path="url(#SVGID_11_)" fill="url(#SVGID_12_)" d="M688.064,283.22c0,101.227-82.068,183.314-183.301,183.314
					c-101.233,0-183.307-82.087-183.307-183.314c0-101.247,82.073-183.315,183.307-183.315
					C605.996,99.905,688.064,181.973,688.064,283.22z"/>
			</g>
			<g>
				<defs>
					<path id="SVGID_13_" d="M504.016,106.11c-10.258,0-18.304,10.409-18.304,23.667v158.47v149.258
						c0,13.271,8.046,23.68,18.304,23.68c10.247,0,18.293-10.408,18.293-23.68V266.049V129.777
						C522.309,116.52,514.263,106.11,504.016,106.11z"/>
				</defs>
				<clipPath id="SVGID_14_">
					<use xlink:href="#SVGID_13_"  overflow="visible"/>
				</clipPath>
				<linearGradient id="SVGID_15_" gradientUnits="userSpaceOnUse" x1="321.457" y1="283.2197" x2="688.0645" y2="283.2197">
					<stop  offset="0.0828" style="stop-color:#50B84F"/>
					<stop  offset="0.088" style="stop-color:#50B849"/>
					<stop  offset="0.1377" style="stop-color:#4FB959"/>
					<stop  offset="0.3128" style="stop-color:#47BC94"/>
					<stop  offset="0.4559" style="stop-color:#3EBFBD"/>
					<stop  offset="0.5599" style="stop-color:#34C2D6"/>
					<stop  offset="0.6142" style="stop-color:#2FC2E0"/>
					<stop  offset="1" style="stop-color:#1C75BC"/>
				</linearGradient>
				<path clip-path="url(#SVGID_14_)" fill="url(#SVGID_15_)" d="M688.064,283.22c0,101.227-82.068,183.314-183.301,183.314
					c-101.233,0-183.307-82.087-183.307-183.314c0-101.247,82.073-183.315,183.307-183.315
					C605.996,99.905,688.064,181.973,688.064,283.22z"/>
			</g>
		</g>
		<g opacity="0.5">
			<path d="M616.11,224.671c-2.815,0.517-5.421,1.458-7.874,2.699v156.388c0,10.211,8.182,18.523,18.277,18.523
				c10.095,0,18.295-8.312,18.295-18.523V230.172C635.306,226.55,625.854,222.891,616.11,224.671z"/>
			<path d="M557.577,270.336c-3.514,0.709-7.041,0.696-10.599,0.312v154.598c0,12.604,8.031,22.453,18.307,22.453
				c10.231,0,18.27-9.85,18.27-22.453V251.277C576.171,260.075,568.396,268.159,557.577,270.336z"/>
			<path d="M384.913,345.485c-4.332,6.923-10.533,13.749-18.674,14.458c-1.004,0.085-2.021,0.05-3.024-0.031v24.535
				c0,10.214,8.194,18.521,18.277,18.521c10.109,0,18.307-8.307,18.307-18.521V325.65c-0.136,0.094-0.286,0.174-0.409,0.276
				C392.836,330.807,389.238,338.57,384.913,345.485z"/>
			<path d="M424.47,320.11v104.552c0,12.58,8.034,22.426,18.276,22.426c10.261,0,18.309-9.846,18.309-22.426V316.188
				c-0.963,0.535-1.929,1.021-2.946,1.453C447.836,321.988,435.854,320.373,424.47,320.11z"/>
			<path d="M511.167,266.553c-11.346,2.628-18.603,11.733-25.456,21.695v149.258c0,13.271,8.046,23.68,18.304,23.68
				c10.247,0,18.293-10.408,18.293-23.68V266.049C518.576,265.669,514.858,265.696,511.167,266.553z"/>
		</g>
	</g>
	<g>
		<path fill="#414042" d="M288.507,554.513c-3.401,0-6.168,2.763-6.168,6.163v55.897l-43.127-59.803
			c-1.732-2.717-5.399-3.828-8.874-1.552c-1.97,1.524-2.84,3.868-2.355,6.219v74.315c0,3.403,2.768,6.169,6.169,6.169
			c3.401,0,6.167-2.766,6.167-6.169v-56.22l42.68,59.347c0.324,0.512,0.696,0.854,0.955,1.065c1.205,1.294,2.771,1.977,4.553,1.977
			c3.464,0,6.286-2.766,6.286-6.169v-75.077C294.793,557.275,291.971,554.513,288.507,554.513z"/>
		<path fill="#414042" d="M368.224,629.462h-35.616v-25.371h30.728c3.402,0,6.168-2.766,6.168-6.17c0-3.462-2.766-6.285-6.168-6.285
			h-30.728v-25.491h35.616c3.46,0,6.169-2.757,6.169-6.282c0-3.456-2.709-6.169-6.169-6.169h-41.902
			c-3.401,0-6.167,2.771-6.167,6.169v75.891c0,3.194,2.485,5.892,5.659,6.16l42.41,0.009c3.46,0,6.169-2.707,6.169-6.169
			C374.393,632.227,371.684,629.462,368.224,629.462z"/>
		<path fill="#414042" d="M397.589,625.308c1.006-1.252,2.766-1.378,3.897-0.373c6.544,5.286,17.49,11.446,28.94,11.325
			c7.676,0,14.597-2.262,19.375-5.785c4.909-3.521,7.55-8.178,7.55-13.09c0-5.033-2.392-8.811-7.173-12.076
			c-4.78-3.146-11.827-5.542-20.381-7.169h-0.252c-8.18-1.517-15.349-3.779-20.758-7.429c-5.412-3.514-9.058-8.806-9.058-15.345
			c0-6.67,3.646-12.461,9.183-16.485c5.536-4.023,12.96-6.414,21.262-6.414c11.577,0,20.256,5.661,27.178,10.193
			c1.256,0.875,1.635,2.512,0.756,3.899c-0.756,1.258-2.519,1.632-3.774,0.753c-6.921-4.528-14.472-9.315-24.16-9.315
			c-7.171,0-13.588,2.147-17.992,5.291c-4.402,3.271-6.918,7.549-6.918,12.078c0.127,4.397,2.138,7.673,6.542,10.696
			c4.403,3.012,10.943,5.158,18.873,6.662h0.252c8.805,1.636,16.606,4.152,22.392,8.057c5.792,3.772,9.688,9.56,9.688,16.604
			c0,7.045-4.024,13.344-9.936,17.613c-5.916,4.283-13.843,6.924-22.649,6.924c-13.464-0.129-25.163-6.924-32.46-12.705
			C396.833,628.208,396.709,626.445,397.589,625.308z"/>
		<path fill="#414042" d="M533.582,552.467c23.527,0,42.027,20.009,42.145,44.666c-0.117,24.656-18.617,44.66-42.145,44.66
			c-23.781,0-42.401-20.004-42.525-44.66C491.181,572.476,509.801,552.467,533.582,552.467z M533.582,635.627
			c19.376,0,35.732-16.983,35.857-38.494c-0.125-21.767-16.481-38.378-35.857-38.378c-20.006,0-36.362,16.611-36.362,38.378
			C497.22,618.644,513.576,635.627,533.582,635.627z"/>
		<path fill="#414042" d="M605.787,556.743c0-1.637,1.378-3.022,3.019-3.022c1.758,0,3.142,1.386,3.142,3.022v49.449
			c0,16.23,13.213,29.315,29.32,29.435c16.353-0.119,29.563-13.204,29.563-29.435v-49.449c0-1.637,1.386-3.022,3.021-3.022
			c1.755,0,3.139,1.386,3.139,3.022v49.449c0,19.625-15.97,35.601-35.724,35.601c-19.505,0-35.48-15.976-35.48-35.601V556.743z"/>
		<path fill="#414042" d="M722.023,566.688v72.089c0,1.633-1.379,3.016-3.024,3.016c-1.629,0-3.017-1.383-3.017-3.016v-80.78
			c-0.379-1.254,0-2.515,1.133-3.394c1.383-0.883,3.399-0.625,4.282,0.757l53.344,73.981v-71.719c0-1.633,1.377-3.02,3.02-3.02
			c1.759,0,3.146,1.387,3.146,3.02v81.154c0,1.633-1.387,3.016-3.146,3.016c-1.008,0-1.762-0.376-2.392-1.133
			c-0.124-0.125-0.377-0.25-0.503-0.5L722.023,566.688z"/>
		<path fill="#414042" d="M819.014,641.793h-0.5c-1.512-0.121-2.77-1.383-2.77-3.016v-82.034c0-1.637,1.384-3.022,3.019-3.022h0.379
			h16.105c24.283,0,44.036,19.882,44.036,44.166c0,24.279-19.753,43.906-44.036,43.906H819.014z M835.247,635.627
			c20.884,0,37.872-16.854,37.872-37.74c0-21.014-16.988-37.872-37.872-37.998H821.91v75.738H835.247z"/>
		<g>
			<g>
				<g>
					<defs>
						<path id="SVGID_16_" d="M202.136,564.642c-2.813,0-5.095,2.319-5.095,5.155v12.217v43.593c0,2.847,2.282,5.166,5.095,5.166
							c2.815,0,5.101-2.319,5.101-5.166V582.79v-12.993C207.237,566.961,204.952,564.642,202.136,564.642z"/>
					</defs>
					<clipPath id="SVGID_17_">
						<use xlink:href="#SVGID_16_"  overflow="visible"/>
					</clipPath>
					<linearGradient id="SVGID_18_" gradientUnits="userSpaceOnUse" x1="117.0938" y1="597.5801" x2="219.2979" y2="597.5801">
						<stop  offset="0.0828" style="stop-color:#50B84F"/>
						<stop  offset="0.088" style="stop-color:#50B849"/>
						<stop  offset="0.1377" style="stop-color:#4FB959"/>
						<stop  offset="0.3128" style="stop-color:#47BC94"/>
						<stop  offset="0.4559" style="stop-color:#3EBFBD"/>
						<stop  offset="0.5599" style="stop-color:#34C2D6"/>
						<stop  offset="0.6142" style="stop-color:#2FC2E0"/>
						<stop  offset="1" style="stop-color:#1C75BC"/>
					</linearGradient>
					<path clip-path="url(#SVGID_17_)" fill="url(#SVGID_18_)" d="M219.298,597.577c0,28.222-22.878,51.108-51.101,51.108
						c-28.224,0-51.104-22.887-51.104-51.108c0-28.226,22.879-51.103,51.104-51.103
						C196.419,546.475,219.298,569.352,219.298,597.577z"/>
				</g>
				<g>
					<defs>
						<path id="SVGID_19_" d="M185.069,552.336c-2.868,0-5.104,2.744-5.104,6.256v35.484v43.094c0,3.517,2.235,6.265,5.104,6.265
							c2.852,0,5.093-2.748,5.093-6.265v-48.496v-30.082C190.163,555.08,187.921,552.336,185.069,552.336z"/>
					</defs>
					<clipPath id="SVGID_20_">
						<use xlink:href="#SVGID_19_"  overflow="visible"/>
					</clipPath>
					<linearGradient id="SVGID_21_" gradientUnits="userSpaceOnUse" x1="117.0938" y1="597.5801" x2="219.2979" y2="597.5801">
						<stop  offset="0.0828" style="stop-color:#50B84F"/>
						<stop  offset="0.088" style="stop-color:#50B849"/>
						<stop  offset="0.1377" style="stop-color:#4FB959"/>
						<stop  offset="0.3128" style="stop-color:#47BC94"/>
						<stop  offset="0.4559" style="stop-color:#3EBFBD"/>
						<stop  offset="0.5599" style="stop-color:#34C2D6"/>
						<stop  offset="0.6142" style="stop-color:#2FC2E0"/>
						<stop  offset="1" style="stop-color:#1C75BC"/>
					</linearGradient>
					<path clip-path="url(#SVGID_20_)" fill="url(#SVGID_21_)" d="M219.298,597.577c0,28.222-22.878,51.108-51.101,51.108
						c-28.224,0-51.104-22.887-51.104-51.108c0-28.226,22.879-51.103,51.104-51.103
						C196.419,546.475,219.298,569.352,219.298,597.577z"/>
				</g>
				<g>
					<defs>
						<path id="SVGID_22_" d="M133.831,564.827c-2.811,0-5.095,2.32-5.095,5.167v48.965v6.84c0,2.847,2.285,5.161,5.095,5.161
							c2.819,0,5.104-2.314,5.104-5.161v-16.39v-39.415C138.935,567.147,136.65,564.827,133.831,564.827z"/>
					</defs>
					<clipPath id="SVGID_23_">
						<use xlink:href="#SVGID_22_"  overflow="visible"/>
					</clipPath>
					<linearGradient id="SVGID_24_" gradientUnits="userSpaceOnUse" x1="117.0938" y1="597.5801" x2="219.2979" y2="597.5801">
						<stop  offset="0.0828" style="stop-color:#50B84F"/>
						<stop  offset="0.088" style="stop-color:#50B849"/>
						<stop  offset="0.1377" style="stop-color:#4FB959"/>
						<stop  offset="0.3128" style="stop-color:#47BC94"/>
						<stop  offset="0.4559" style="stop-color:#3EBFBD"/>
						<stop  offset="0.5599" style="stop-color:#34C2D6"/>
						<stop  offset="0.6142" style="stop-color:#2FC2E0"/>
						<stop  offset="1" style="stop-color:#1C75BC"/>
					</linearGradient>
					<path clip-path="url(#SVGID_23_)" fill="url(#SVGID_24_)" d="M219.298,597.577c0,28.222-22.878,51.108-51.101,51.108
						c-28.224,0-51.104-22.887-51.104-51.108c0-28.226,22.879-51.103,51.104-51.103
						C196.419,546.475,219.298,569.352,219.298,597.577z"/>
				</g>
				<g>
					<defs>
						<path id="SVGID_25_" d="M150.906,552.166c-2.854,0-5.093,2.75-5.093,6.256v49.444v29.144c0,3.501,2.239,6.251,5.093,6.251
							c2.864,0,5.104-2.75,5.104-6.251v-30.238v-48.35C156.01,554.916,153.77,552.166,150.906,552.166z"/>
					</defs>
					<clipPath id="SVGID_26_">
						<use xlink:href="#SVGID_25_"  overflow="visible"/>
					</clipPath>
					<linearGradient id="SVGID_27_" gradientUnits="userSpaceOnUse" x1="117.0938" y1="597.5801" x2="219.2979" y2="597.5801">
						<stop  offset="0.0828" style="stop-color:#50B84F"/>
						<stop  offset="0.088" style="stop-color:#50B849"/>
						<stop  offset="0.1377" style="stop-color:#4FB959"/>
						<stop  offset="0.3128" style="stop-color:#47BC94"/>
						<stop  offset="0.4559" style="stop-color:#3EBFBD"/>
						<stop  offset="0.5599" style="stop-color:#34C2D6"/>
						<stop  offset="0.6142" style="stop-color:#2FC2E0"/>
						<stop  offset="1" style="stop-color:#1C75BC"/>
					</linearGradient>
					<path clip-path="url(#SVGID_26_)" fill="url(#SVGID_27_)" d="M219.298,597.577c0,28.222-22.878,51.108-51.101,51.108
						c-28.224,0-51.104-22.887-51.104-51.108c0-28.226,22.879-51.103,51.104-51.103
						C196.419,546.475,219.298,569.352,219.298,597.577z"/>
				</g>
				<g>
					<defs>
						<path id="SVGID_28_" d="M167.988,548.206c-2.859,0-5.106,2.899-5.106,6.595v44.182v41.609c0,3.699,2.247,6.604,5.106,6.604
							c2.857,0,5.102-2.904,5.102-6.604v-47.801v-37.99C173.089,551.105,170.845,548.206,167.988,548.206z"/>
					</defs>
					<clipPath id="SVGID_29_">
						<use xlink:href="#SVGID_28_"  overflow="visible"/>
					</clipPath>
					<linearGradient id="SVGID_30_" gradientUnits="userSpaceOnUse" x1="117.0938" y1="597.5801" x2="219.2979" y2="597.5801">
						<stop  offset="0.0828" style="stop-color:#50B84F"/>
						<stop  offset="0.088" style="stop-color:#50B849"/>
						<stop  offset="0.1377" style="stop-color:#4FB959"/>
						<stop  offset="0.3128" style="stop-color:#47BC94"/>
						<stop  offset="0.4559" style="stop-color:#3EBFBD"/>
						<stop  offset="0.5599" style="stop-color:#34C2D6"/>
						<stop  offset="0.6142" style="stop-color:#2FC2E0"/>
						<stop  offset="1" style="stop-color:#1C75BC"/>
					</linearGradient>
					<path clip-path="url(#SVGID_29_)" fill="url(#SVGID_30_)" d="M219.298,597.577c0,28.222-22.878,51.108-51.101,51.108
						c-28.224,0-51.104-22.887-51.104-51.108c0-28.226,22.879-51.103,51.104-51.103
						C196.419,546.475,219.298,569.352,219.298,597.577z"/>
				</g>
			</g>
			<g opacity="0.5">
				<path d="M199.236,581.26c-0.782,0.141-1.509,0.404-2.195,0.754v43.593c0,2.847,2.282,5.166,5.095,5.166
					c2.815,0,5.101-2.319,5.101-5.166V582.79C204.59,581.779,201.951,580.763,199.236,581.26z"/>
				<path d="M182.919,593.991c-0.979,0.201-1.963,0.191-2.953,0.085v43.094c0,3.517,2.235,6.265,5.104,6.265
					c2.852,0,5.093-2.748,5.093-6.265v-48.496C188.101,591.127,185.935,593.385,182.919,593.991z"/>
				<path d="M134.785,614.937c-1.208,1.931-2.938,3.832-5.208,4.033c-0.276,0.021-0.56,0.013-0.841-0.011v6.84
					c0,2.847,2.285,5.161,5.095,5.161c2.819,0,5.104-2.314,5.104-5.161v-16.39c-0.038,0.026-0.078,0.053-0.112,0.081
					C136.994,610.845,135.992,613.009,134.785,614.937z"/>
				<path d="M145.813,607.866v29.144c0,3.501,2.239,6.251,5.093,6.251c2.864,0,5.104-2.75,5.104-6.251v-30.238
					c-0.269,0.147-0.537,0.281-0.819,0.4C152.327,608.386,148.983,607.936,145.813,607.866z"/>
				<path d="M169.98,592.935c-3.161,0.729-5.187,3.27-7.098,6.048v41.609c0,3.699,2.247,6.604,5.106,6.604
					c2.857,0,5.102-2.904,5.102-6.604v-47.801C172.048,592.684,171.011,592.693,169.98,592.935z"/>
			</g>
		</g>
	</g>
</g>
</svg>
