<?xml version="1.0" encoding="UTF-8" standalone="no"?>
<svg
   xmlns:dc="http://purl.org/dc/elements/1.1/"
   xmlns:cc="http://creativecommons.org/ns#"
   xmlns:rdf="http://www.w3.org/1999/02/22-rdf-syntax-ns#"
   xmlns:svg="http://www.w3.org/2000/svg"
   xmlns="http://www.w3.org/2000/svg"
   xmlns:xlink="http://www.w3.org/1999/xlink"
   xml:space="preserve"
   enable-background="new 0 0 1000 1000"
   viewBox="0 0 1000 1000"
   height="1000px"
   width="1000px"
   y="0px"
   x="0px"
   id="Layer_1"
   version="1.1"><metadata
     id="metadata158"><rdf:RDF><cc:Work
         rdf:about=""><dc:format>image/svg+xml</dc:format><dc:type
           rdf:resource="http://purl.org/dc/dcmitype/StillImage" /><dc:title></dc:title></cc:Work></rdf:RDF></metadata><defs
     id="defs156" /><g
     style="fill:#ffffff"
     id="g3"><g
       style="fill:#ffffff"
       id="g5"><g
         style="fill:#ffffff"
         id="g7"><defs
           id="defs9"><path
             d="M807.438,202.602c-25.322,0-45.866,20.875-45.866,46.405v109.959V751.35      c0,25.623,20.544,46.498,45.866,46.498c25.333,0,45.907-20.875,45.907-46.498V365.952V249.007      C853.346,223.478,832.771,202.602,807.438,202.602z"
             id="SVGID_1_" /></defs><clipPath
           id="SVGID_2_"><use
             id="use13"
             overflow="visible"
             xlink:href="#SVGID_1_" /></clipPath><linearGradient
           y2="499.0796"
           x2="961.9004"
           y1="499.0796"
           x1="41.9604"
           gradientUnits="userSpaceOnUse"
           id="SVGID_3_"><stop
             id="stop16"
             style="stop-color:#50B84F"
             offset="0.0828" /><stop
             id="stop18"
             style="stop-color:#50B849"
             offset="0.088" /><stop
             id="stop20"
             style="stop-color:#4FB959"
             offset="0.1377" /><stop
             id="stop22"
             style="stop-color:#47BC94"
             offset="0.3128" /><stop
             id="stop24"
             style="stop-color:#3EBFBD"
             offset="0.4559" /><stop
             id="stop26"
             style="stop-color:#34C2D6"
             offset="0.5599" /><stop
             id="stop28"
             style="stop-color:#2FC2E0"
             offset="0.6142" /><stop
             id="stop30"
             style="stop-color:#1C75BC"
             offset="1" /></linearGradient><path
           style="fill:#ffffff"
           id="path32"
           d="M961.9,499.056c0,254.024-205.925,460.022-459.955,460.022     c-254.044,0-459.985-205.998-459.985-460.022c0-254.061,205.94-459.975,459.985-459.975     C755.976,39.081,961.9,244.996,961.9,499.056z"
           fill="url(#SVGID_3_)"
           clip-path="url(#SVGID_2_)" /></g><g
         style="fill:#ffffff"
         id="g34"><defs
           id="defs36"><path
             d="M653.807,91.834c-25.811,0-45.939,24.7-45.939,56.309v319.392v387.901      c0,31.646,20.129,56.376,45.939,56.376c25.674,0,45.855-24.73,45.855-56.376V418.913V148.144      C699.662,116.535,679.48,91.834,653.807,91.834z"
             id="SVGID_4_" /></defs><clipPath
           id="SVGID_5_"><use
             id="use40"
             overflow="visible"
             xlink:href="#SVGID_4_" /></clipPath><linearGradient
           y2="499.0796"
           x2="961.9004"
           y1="499.0796"
           x1="41.9604"
           gradientUnits="userSpaceOnUse"
           id="SVGID_6_"><stop
             id="stop43"
             style="stop-color:#50B84F"
             offset="0.0828" /><stop
             id="stop45"
             style="stop-color:#50B849"
             offset="0.088" /><stop
             id="stop47"
             style="stop-color:#4FB959"
             offset="0.1377" /><stop
             id="stop49"
             style="stop-color:#47BC94"
             offset="0.3128" /><stop
             id="stop51"
             style="stop-color:#3EBFBD"
             offset="0.4559" /><stop
             id="stop53"
             style="stop-color:#34C2D6"
             offset="0.5599" /><stop
             id="stop55"
             style="stop-color:#2FC2E0"
             offset="0.6142" /><stop
             id="stop57"
             style="stop-color:#1C75BC"
             offset="1" /></linearGradient><path
           style="fill:#ffffff"
           id="path59"
           d="M961.9,499.056c0,254.024-205.925,460.022-459.955,460.022     c-254.044,0-459.985-205.998-459.985-460.022c0-254.061,205.94-459.975,459.985-459.975     C755.976,39.081,961.9,244.996,961.9,499.056z"
           fill="url(#SVGID_6_)"
           clip-path="url(#SVGID_5_)" /></g><g
         style="fill:#ffffff"
         id="g61"><defs
           id="defs63"><path
             d="M192.613,204.266c-25.301,0-45.86,20.891-45.86,46.508v440.748v61.559      c0,25.623,20.559,46.457,45.86,46.457c25.379,0,45.938-20.834,45.938-46.457V605.553V250.774      C238.551,225.157,217.992,204.266,192.613,204.266z"
             id="SVGID_7_" /></defs><clipPath
           id="SVGID_8_"><use
             id="use67"
             overflow="visible"
             xlink:href="#SVGID_7_" /></clipPath><linearGradient
           y2="499.0796"
           x2="961.9004"
           y1="499.0796"
           x1="41.9604"
           gradientUnits="userSpaceOnUse"
           id="SVGID_9_"><stop
             id="stop70"
             style="stop-color:#50B84F"
             offset="0.0828" /><stop
             id="stop72"
             style="stop-color:#50B849"
             offset="0.088" /><stop
             id="stop74"
             style="stop-color:#4FB959"
             offset="0.1377" /><stop
             id="stop76"
             style="stop-color:#47BC94"
             offset="0.3128" /><stop
             id="stop78"
             style="stop-color:#3EBFBD"
             offset="0.4559" /><stop
             id="stop80"
             style="stop-color:#34C2D6"
             offset="0.5599" /><stop
             id="stop82"
             style="stop-color:#2FC2E0"
             offset="0.6142" /><stop
             id="stop84"
             style="stop-color:#1C75BC"
             offset="1" /></linearGradient><path
           style="fill:#ffffff"
           id="path86"
           d="M961.9,499.056c0,254.024-205.925,460.022-459.955,460.022     c-254.044,0-459.985-205.998-459.985-460.022c0-254.061,205.94-459.975,459.985-459.975     C755.976,39.081,961.9,244.996,961.9,499.056z"
           fill="url(#SVGID_9_)"
           clip-path="url(#SVGID_8_)" /></g><g
         style="fill:#ffffff"
         id="g88"><defs
           id="defs90"><path
             d="M346.313,90.311c-25.685,0-45.845,24.747-45.845,56.304v445.049v262.321      c0,31.521,20.16,56.263,45.845,56.263c25.773,0,45.938-24.742,45.938-56.263V581.816V146.615      C392.251,115.058,372.086,90.311,346.313,90.311z"
             id="SVGID_10_" /></defs><clipPath
           id="SVGID_11_"><use
             id="use94"
             overflow="visible"
             xlink:href="#SVGID_10_" /></clipPath><linearGradient
           y2="499.0796"
           x2="961.9004"
           y1="499.0796"
           x1="41.9604"
           gradientUnits="userSpaceOnUse"
           id="SVGID_12_"><stop
             id="stop97"
             style="stop-color:#50B84F"
             offset="0.0828" /><stop
             id="stop99"
             style="stop-color:#50B849"
             offset="0.088" /><stop
             id="stop101"
             style="stop-color:#4FB959"
             offset="0.1377" /><stop
             id="stop103"
             style="stop-color:#47BC94"
             offset="0.3128" /><stop
             id="stop105"
             style="stop-color:#3EBFBD"
             offset="0.4559" /><stop
             id="stop107"
             style="stop-color:#34C2D6"
             offset="0.5599" /><stop
             id="stop109"
             style="stop-color:#2FC2E0"
             offset="0.6142" /><stop
             id="stop111"
             style="stop-color:#1C75BC"
             offset="1" /></linearGradient><path
           style="fill:#ffffff"
           id="path113"
           d="M961.9,499.056c0,254.024-205.925,460.022-459.955,460.022     c-254.044,0-459.985-205.998-459.985-460.022c0-254.061,205.94-459.975,459.985-459.975     C755.976,39.081,961.9,244.996,961.9,499.056z"
           fill="url(#SVGID_12_)"
           clip-path="url(#SVGID_11_)" /></g><g
         style="fill:#ffffff"
         id="g115"><defs
           id="defs117"><path
             d="M500.06,54.66c-25.737,0-45.959,26.094-45.959,59.361v397.686v374.524      c0,33.293,20.223,59.435,45.959,59.435c25.716,0,45.917-26.142,45.917-59.435V455.973V114.021      C545.977,80.754,525.775,54.66,500.06,54.66z"
             id="SVGID_13_" /></defs><clipPath
           id="SVGID_14_"><use
             id="use121"
             overflow="visible"
             xlink:href="#SVGID_13_" /></clipPath><linearGradient
           y2="499.0796"
           x2="961.9004"
           y1="499.0796"
           x1="41.9604"
           gradientUnits="userSpaceOnUse"
           id="SVGID_15_"><stop
             id="stop124"
             style="stop-color:#50B84F"
             offset="0.0828" /><stop
             id="stop126"
             style="stop-color:#50B849"
             offset="0.088" /><stop
             id="stop128"
             style="stop-color:#4FB959"
             offset="0.1377" /><stop
             id="stop130"
             style="stop-color:#47BC94"
             offset="0.3128" /><stop
             id="stop132"
             style="stop-color:#3EBFBD"
             offset="0.4559" /><stop
             id="stop134"
             style="stop-color:#34C2D6"
             offset="0.5599" /><stop
             id="stop136"
             style="stop-color:#2FC2E0"
             offset="0.6142" /><stop
             id="stop138"
             style="stop-color:#1C75BC"
             offset="1" /></linearGradient><path
           style="fill:#ffffff"
           id="path140"
           d="M961.9,499.056c0,254.024-205.925,460.022-459.955,460.022     c-254.044,0-459.985-205.998-459.985-460.022c0-254.061,205.94-459.975,459.985-459.975     C755.976,39.081,961.9,244.996,961.9,499.056z"
           fill="url(#SVGID_15_)"
           clip-path="url(#SVGID_14_)" /></g></g><g
       style="fill:#ffffff"
       id="g142"
       opacity="0.5"><path
         style="fill:#ffffff"
         id="path144"
         d="M781.318,352.182c-7.027,1.27-13.578,3.644-19.746,6.784V751.35c0,25.623,20.544,46.498,45.866,46.498    c25.333,0,45.907-20.875,45.907-46.498V365.952C829.516,356.862,805.76,347.704,781.318,352.182z" /><path
         style="fill:#ffffff"
         id="path146"
         d="M634.454,466.779c-8.821,1.809-17.673,1.72-26.587,0.756v387.901c0,31.646,20.129,56.376,45.939,56.376    c25.674,0,45.855-24.73,45.855-56.376V418.913C681.107,440.996,661.601,461.316,634.454,466.779z" /><path
         style="fill:#ffffff"
         id="path148"
         d="M201.201,655.306c-10.873,17.372-26.442,34.495-46.876,36.299c-2.488,0.197-5.038,0.114-7.572-0.083v61.559    c0,25.623,20.559,46.457,45.86,46.457c25.379,0,45.938-20.834,45.938-46.457V605.553c-0.337,0.249-0.705,0.477-1.005,0.727    C221.081,618.479,212.068,637.955,201.201,655.306z" /><path
         style="fill:#ffffff"
         id="path150"
         d="M300.468,591.664v262.321c0,31.521,20.16,56.263,45.845,56.263c25.773,0,45.938-24.742,45.938-56.263V581.816    c-2.42,1.327-4.831,2.529-7.375,3.607C359.093,596.349,328.998,592.285,300.468,591.664z" /><path
         style="fill:#ffffff"
         id="path152"
         d="M517.991,457.264c-28.453,6.566-46.68,29.432-63.891,54.443v374.524c0,33.293,20.223,59.435,45.959,59.435    c25.716,0,45.917-26.142,45.917-59.435V455.973C536.597,455.009,527.268,455.098,517.991,457.264z" /></g></g></svg>